<?xml version="1.0" encoding="utf-8"?>
<!-- Generator: Adobe Illustrator 18.1.1, SVG Export Plug-In . SVG Version: 6.00 Build 0)  -->
<!DOCTYPE svg PUBLIC "-//W3C//DTD SVG 1.1//EN" "http://www.w3.org/Graphics/SVG/1.1/DTD/svg11.dtd">
<svg version="1.1" xmlns="http://www.w3.org/2000/svg" xmlns:xlink="http://www.w3.org/1999/xlink" x="0px" y="0px"
	 viewBox="0 0 946 316" enable-background="new 0 0 946 316" xml:space="preserve">
<g id="Layer_1">
</g>
<g id="Layer_2">
</g>
<g id="Layer_3">
</g>
<g id="Layer_4">
</g>
<g id="Layer_5">
</g>
<g id="Layer_6">
	<path fill="#2BB673" d="M733.3,33.8H172.1c-10.6,0-19.1,8.6-19.1,19.1V79h9.7v60.6H153v125.2c0,10.6,8.6,19.1,19.1,19.1h561.2
		c10.6,0,19.1-8.6,19.1-19.1v-212C752.5,42.4,743.9,33.8,733.3,33.8z"/>
	<g>
		<path fill="#006838" d="M165.2,59.8h-24.3c-3.5,0-6.3,2.8-6.3,6.3v97.7c0,3.5,2.8,6.3,6.3,6.3h24.3c3.5,0,6.3-2.8,6.3-6.3V66.2
			C171.5,62.7,168.7,59.8,165.2,59.8z M160.7,119.7c0,1.2-0.3,1.6-1.4,2l-3.6,1.3v6.5l3.6,1.3c1.1,0.4,1.4,0.8,1.4,2.1v1.4h-2.1V134
			c0-0.4-0.1-0.7-0.5-0.8l-14.9-5.5v-2.6l14.9-5.5c0.5-0.1,0.5-0.4,0.5-0.8v-0.4h2.1V119.7z M160.7,115.5h-15.5v1.6H143v-7.8
			c0-3.2,2.2-5.5,5.5-5.5s5.6,2.3,5.6,5.5v3.6h6.5V115.5z M160.7,102.2h-2.1v-1.7h-13.3v1.7H143v-5.8h2.1v1.7h13.3v-1.7h2.1V102.2z"
			/>
		<path fill="#006838" d="M148.5,106.4c-2.1,0-3.4,1.3-3.4,3.3v3.3h6.8v-3.2C152,107.7,150.7,106.4,148.5,106.4z"/>
		<path fill="#006838" d="M145.6,126.4L145.6,126.4c0,0,1.5,0.4,2.5,0.7l5.4,1.9v-5.3l-5.4,1.9C147.2,126,145.6,126.4,145.6,126.4z"
			/>
	</g>
	<g>
		<line fill="#006838" x1="28.9" y1="113.4" x2="106.8" y2="113.4"/>
		<g>
			<line fill="none" stroke="#006838" stroke-width="7" stroke-miterlimit="10" x1="28.9" y1="113.4" x2="81.6" y2="113.4"/>
			<g>
				<polygon fill="#006838" points="76.5,130.8 106.8,113.4 76.5,95.9 				"/>
			</g>
		</g>
	</g>
	<g>
		<g>
			<path fill="#1C75BC" d="M256.3,144.5h-36c-4.8,0-8.7-3.9-8.7-8.7v-24c0-4.8,3.9-8.7,8.7-8.7h36c4.8,0,8.7,3.9,8.7,8.7v24
				C265,140.6,261.1,144.5,256.3,144.5z"/>
		</g>
		<g>
			<path fill="#1C75BC" d="M196.2,49.2c2.3,0,6.4,1,6.4,3.7v1.7h-2.2v-1c0-1.4-2.4-2.1-4.1-2.1c-3.4,0-6,2.6-6,6.4
				c0,3.7,2.7,6.6,6.1,6.6c3.4,0,5.4-2.3,5.4-2.3l1.3,1.7c0,0-2.4,2.8-6.7,2.8c-5.1,0-8.6-3.9-8.6-8.9
				C187.7,52.9,191.3,49.2,196.2,49.2z"/>
			<path fill="#1C75BC" d="M205.6,52c0-0.4-0.2-0.5-0.5-0.5h-1v-2h2.3c1.1,0,1.5,0.5,1.5,1.5v4.7c0,0.6,0,1,0,1h0
				c0.5-1.2,2.1-2.7,4.5-2.7c2.9,0,4.2,1.6,4.2,4.7v5.3c0,0.4,0.2,0.5,0.5,0.5h1v2h-2.3c-1.1,0-1.5-0.5-1.5-1.5v-5.7
				c0-1.7-0.4-3-2.3-3c-1.8,0-3.3,1.2-3.8,3c-0.2,0.5-0.2,1-0.2,1.6v5.7h-2.3V52z"/>
			<path fill="#1C75BC" d="M225.6,54c3.4,0,5.2,2.5,5.2,5.7c0,0.3-0.1,1-0.1,1h-8.9c0.1,2.6,2,4.1,4.2,4.1c2.1,0,3.6-1.4,3.6-1.4
				l1,1.7c0,0-1.8,1.8-4.7,1.8c-3.8,0-6.5-2.8-6.5-6.4C219.5,56.5,222.1,54,225.6,54z M228.4,59c-0.1-2-1.3-3.1-2.9-3.1
				c-1.8,0-3.2,1.1-3.6,3.1H228.4z"/>
			<path fill="#1C75BC" d="M239.3,54c1.5,0,4.4,0.6,4.4,2.7v1.2h-2.1v-0.7c0-0.9-1.4-1.2-2.3-1.2c-2.4,0-4.2,1.8-4.2,4.3
				c0,2.8,2,4.3,4.3,4.3c2.3,0,3.8-1.7,3.8-1.7l1,1.7c0,0-1.7,2.1-4.9,2.1c-3.8,0-6.5-2.7-6.5-6.4C232.7,56.8,235.3,54,239.3,54z"/>
			<path fill="#1C75BC" d="M246.5,52c0-0.4-0.2-0.5-0.5-0.5h-1v-2h2.3c1.1,0,1.5,0.3,1.5,1.4v7.9h1.1c0.4,0,1-0.1,1.3-0.5l2.8-3.9
				h2.7l-3.3,4.5c-0.6,0.7-0.9,0.9-0.9,0.9v0c0,0,0.4,0.1,0.8,0.9l1.8,3.3c0.2,0.4,0.4,0.5,1,0.5h0.7v2h-1.7c-1.1,0-1.5-0.2-2-1.1
				l-2.2-4.1c-0.3-0.5-0.8-0.5-1.2-0.5h-0.9v5.7h-2.3V52z"/>
			<path fill="#1C75BC" d="M264.4,54c3.6,0,6.6,2.7,6.6,6.3c0,3.7-2.9,6.4-6.6,6.4s-6.5-2.7-6.5-6.4C257.8,56.7,260.7,54,264.4,54z
				 M264.4,64.7c2.3,0,4.2-1.8,4.2-4.4c0-2.5-1.9-4.3-4.2-4.3c-2.3,0-4.2,1.8-4.2,4.3C260.2,62.9,262.1,64.7,264.4,64.7z"/>
			<path fill="#1C75BC" d="M273.8,56.8c0-0.4-0.2-0.5-0.5-0.5h-1v-2h2.3c1.1,0,1.6,0.5,1.6,1.5v5.8c0,1.7,0.3,3,2.3,3
				c2.5,0,4-2.2,4-4.6v-5.7h2.3v9.6c0,0.4,0.2,0.5,0.5,0.5h1v2h-2.2c-1,0-1.5-0.5-1.5-1.3v-0.5c0-0.4,0-0.7,0-0.7h0
				c-0.5,1.2-2.1,2.8-4.5,2.8c-2.7,0-4.1-1.4-4.1-4.7V56.8z"/>
			<path fill="#1C75BC" d="M288.8,56.2h-1.6v-1.9h1.6V51h2.3v3.3h2.9v1.9h-2.9v5.6c0,2.4,1.7,2.7,2.6,2.7c0.3,0,0.6,0,0.6,0v2.1
				c0,0-0.3,0-0.8,0c-1.5,0-4.6-0.5-4.6-4.5V56.2z"/>
			<path fill="#1C75BC" d="M190.7,78c2.3,0,6.4,1,6.4,3.7v1.7h-2.2v-1c0-1.4-2.4-2.1-4.1-2.1c-3.4,0-6,2.6-6,6.4
				c0,3.7,2.7,6.6,6.1,6.6c3.4,0,5.4-2.3,5.4-2.3l1.3,1.7c0,0-2.4,2.8-6.7,2.8c-5.1,0-8.6-3.9-8.6-8.9C182.2,81.7,185.9,78,190.7,78
				z"/>
			<path fill="#1C75BC" d="M205.6,82.8c3.6,0,6.6,2.7,6.6,6.3c0,3.7-2.9,6.4-6.6,6.4s-6.5-2.7-6.5-6.4
				C199.1,85.5,202,82.8,205.6,82.8z M205.6,93.5c2.3,0,4.2-1.8,4.2-4.4c0-2.5-1.9-4.3-4.2-4.3c-2.3,0-4.2,1.8-4.2,4.3
				C201.5,91.7,203.3,93.5,205.6,93.5z"/>
			<path fill="#1C75BC" d="M215.1,85.6c0-0.4-0.2-0.5-0.5-0.5h-1v-2h2.2c1.1,0,1.5,0.5,1.5,1.3v0.5c0,0.4,0,0.7,0,0.7h0
				c0.6-1.4,2.3-2.8,4.2-2.8c2.1,0,3.2,0.9,3.6,2.8h0c0.7-1.5,2.4-2.8,4.3-2.8c2.7,0,4,1.6,4,4.7v5.3c0,0.4,0.2,0.5,0.5,0.5h1v2
				h-2.3c-1.1,0-1.5-0.5-1.5-1.5V88c0-1.7-0.3-3-2.1-3c-1.7,0-3,1.5-3.4,3.1c-0.1,0.5-0.2,1-0.2,1.7v5.5h-2.3V88c0-1.6-0.2-3-2.1-3
				c-1.8,0-3,1.5-3.5,3.2c-0.1,0.5-0.2,1-0.2,1.6v5.5h-2.3V85.6z"/>
			<path fill="#1C75BC" d="M237.6,85.6c0-0.4-0.2-0.5-0.5-0.5h-1v-2h2.2c1.1,0,1.5,0.5,1.5,1.3v0.5c0,0.4,0,0.7,0,0.7h0
				c0.6-1.4,2.3-2.8,4.2-2.8c2.1,0,3.2,0.9,3.6,2.8h0c0.7-1.5,2.4-2.8,4.3-2.8c2.7,0,4,1.6,4,4.7v5.3c0,0.4,0.2,0.5,0.5,0.5h1v2
				h-2.3c-1.1,0-1.5-0.5-1.5-1.5V88c0-1.7-0.3-3-2.1-3c-1.7,0-3,1.5-3.4,3.1c-0.1,0.5-0.2,1-0.2,1.7v5.5h-2.3V88c0-1.6-0.2-3-2.1-3
				c-1.8,0-3,1.5-3.5,3.2c-0.1,0.5-0.2,1-0.2,1.6v5.5h-2.3V85.6z"/>
			<path fill="#1C75BC" d="M266.2,87.7h0.5v-0.1c0-2.1-0.8-2.9-2.7-2.9c-0.6,0-2,0.1-2,0.9v0.7h-2.2v-1.2c0-2,3-2.3,4.2-2.3
				c3.9,0,5,2.1,5,4.8v5.2c0,0.4,0.2,0.5,0.5,0.5h1v2h-2.2c-1.1,0-1.5-0.5-1.5-1.4c0-0.4,0-0.7,0-0.7h0c0,0-1,2.4-3.9,2.4
				c-2.1,0-4.1-1.3-4.1-3.7C258.9,87.9,264.2,87.7,266.2,87.7z M263.5,93.7c2,0,3.2-2.1,3.2-3.9v-0.4h-0.6c-1.8,0-4.9,0.1-4.9,2.3
				C261.2,92.7,262,93.7,263.5,93.7z"/>
			<path fill="#1C75BC" d="M273.1,85.6c0-0.4-0.2-0.5-0.5-0.5h-1v-2h2.2c1,0,1.5,0.5,1.5,1.3v0.5c0,0.4,0,0.7,0,0.7h0
				c0.5-1.1,1.9-2.8,4.6-2.8c2.9,0,4.2,1.6,4.2,4.7v5.3c0,0.4,0.2,0.5,0.5,0.5h1v2h-2.3c-1.1,0-1.5-0.5-1.5-1.5V88
				c0-1.7-0.3-3-2.3-3c-1.9,0-3.4,1.2-3.8,3c-0.2,0.5-0.2,1-0.2,1.6v5.7h-2.3V85.6z"/>
			<path fill="#1C75BC" d="M292.5,82.8c2.8,0,3.7,1.9,3.7,1.9h0c0,0,0-0.4,0-0.8v-3c0-0.4-0.2-0.5-0.5-0.5h-1v-2h2.3
				c1.1,0,1.5,0.5,1.5,1.5v12.9c0,0.4,0.2,0.5,0.5,0.5h1v2h-2.2c-1.1,0-1.5-0.5-1.5-1.3c0-0.4,0-0.6,0-0.6h0c0,0-1,2.2-4,2.2
				c-3.3,0-5.4-2.6-5.4-6.4C287,85.3,289.3,82.8,292.5,82.8z M296.3,89.2c0-2.2-1.1-4.3-3.5-4.3c-1.9,0-3.5,1.6-3.5,4.3
				c0,2.6,1.4,4.3,3.4,4.3C294.6,93.5,296.3,92.3,296.3,89.2z"/>
		</g>
		<g>
			<g>
				<path fill="#1C75BC" d="M713.4,136.3h-36c-4.8,0-8.7-3.9-8.7-8.7v-24c0-4.8,3.9-8.7,8.7-8.7h36c4.8,0,8.7,3.9,8.7,8.7v24
					C722,132.4,718.2,136.3,713.4,136.3z"/>
			</g>
			<g>
				<path fill="#1C75BC" d="M661.2,72.3h-1.6v-2.1h10c1.1,0,1.5,0.5,1.5,1.5v2.1h-2.2v-1.1c0-0.4-0.2-0.5-0.5-0.5h-4.8v5.3h5.9v2.1
					h-5.9v4.9c0,0.3,0.2,0.5,0.5,0.5h4.9c0.3,0,0.5-0.2,0.5-0.5v-1.1h2.2v2.1c0,1.1-0.5,1.5-1.5,1.5h-7.5c-1.1,0-1.5-0.5-1.5-1.5
					V72.3z"/>
				<path fill="#1C75BC" d="M673.5,77.5c-0.1-0.4-0.4-0.5-0.7-0.5h-0.2v-2h1.2c1.1,0,1.5,0.3,1.8,1.2l2.6,7c0.2,0.7,0.4,1.6,0.4,1.6
					h0c0,0,0.2-0.9,0.4-1.6l2.6-7c0.4-1,0.8-1.2,1.8-1.2h1.1v2h-0.2c-0.4,0-0.6,0.1-0.8,0.5l-3.7,9.7h-2.7L673.5,77.5z"/>
				<path fill="#1C75BC" d="M691.7,74.8c3.4,0,5.2,2.5,5.2,5.7c0,0.3-0.1,1-0.1,1H688c0.1,2.6,2,4.1,4.2,4.1c2.1,0,3.6-1.4,3.6-1.4
					l1,1.7c0,0-1.8,1.8-4.7,1.8c-3.8,0-6.5-2.8-6.5-6.4C685.6,77.3,688.3,74.8,691.7,74.8z M694.6,79.7c-0.1-2-1.3-3.1-2.9-3.1
					c-1.8,0-3.2,1.1-3.6,3.1H694.6z"/>
				<path fill="#1C75BC" d="M700.1,77.6c0-0.4-0.2-0.5-0.5-0.5h-1v-2h2.2c1,0,1.5,0.5,1.5,1.3v0.5c0,0.4,0,0.7,0,0.7h0
					c0.5-1.1,1.9-2.8,4.6-2.8c2.9,0,4.2,1.6,4.2,4.7v5.3c0,0.4,0.2,0.5,0.5,0.5h1v2h-2.3c-1.1,0-1.5-0.5-1.5-1.5V80
					c0-1.7-0.3-3-2.3-3c-1.9,0-3.4,1.2-3.8,3c-0.2,0.5-0.2,1-0.2,1.6v5.7h-2.3V77.6z"/>
				<path fill="#1C75BC" d="M715.2,76.9h-1.6v-1.9h1.6v-3.3h2.3v3.3h2.9v1.9h-2.9v5.6c0,2.4,1.7,2.7,2.6,2.7c0.3,0,0.6,0,0.6,0v2.1
					c0,0-0.3,0-0.8,0c-1.5,0-4.6-0.5-4.6-4.5V76.9z"/>
				<path fill="#1C75BC" d="M723.3,83.8c0,0,1.4,1.8,3.7,1.8c1.1,0,2.1-0.5,2.1-1.6c0-2.2-6.6-1.9-6.6-5.9c0-2.3,2-3.4,4.5-3.4
					c1.5,0,4,0.5,4,2.4v1.2h-2.1v-0.6c0-0.7-1.1-1-1.8-1c-1.4,0-2.3,0.5-2.3,1.4c0,2.3,6.6,1.8,6.6,5.9c0,2.2-1.9,3.6-4.5,3.6
					c-3.2,0-4.8-2.1-4.8-2.1L723.3,83.8z"/>
			</g>
			<path fill="#1C75BC" stroke="#39B54A" stroke-width="2" stroke-miterlimit="10" d="M718.5,141.9h-36c-4.8,0-8.7-3.9-8.7-8.7v-24
				c0-4.8,3.9-8.7,8.7-8.7h36c4.8,0,8.7,3.9,8.7,8.7v24C727.1,138,723.3,141.9,718.5,141.9z"/>
			<path fill="#1C75BC" stroke="#39B54A" stroke-width="2" stroke-miterlimit="10" d="M724.1,147.9h-36c-4.8,0-8.7-3.9-8.7-8.7v-24
				c0-4.8,3.9-8.7,8.7-8.7h36c4.8,0,8.7,3.9,8.7,8.7v24C732.8,144,728.9,147.9,724.1,147.9z"/>
		</g>
		<g>
			<path fill="#1C75BC" d="M569,145.5h-36c-4.8,0-8.7-3.9-8.7-8.7v-24c0-4.8,3.9-8.7,8.7-8.7h36c4.8,0,8.7,3.9,8.7,8.7v24
				C577.7,141.6,573.8,145.5,569,145.5z"/>
		</g>
		<g>
			<path fill="#1C75BC" d="M512.4,52.6h-1.6v-2.1h7.4c3,0,5.1,1.9,5.1,5c0,2.8-1.8,4.2-3,4.5v0c0,0,0.4,0.2,0.7,0.8l2,4.1
				c0.2,0.5,0.6,0.6,1.2,0.6h0.3v2.1h-1.2c-1.3,0-1.8-0.2-2.4-1.3l-2.3-4.6c-0.4-0.8-0.7-0.9-1.7-0.9h-2.2v6.7h-2.4V52.6z
				 M517.9,58.7c1.8,0,2.9-1.2,2.9-3.1s-1.1-3-2.9-3h-3.2v6.1H517.9z"/>
			<path fill="#1C75BC" d="M531.6,55c3.4,0,5.2,2.5,5.2,5.7c0,0.3-0.1,1-0.1,1h-8.9c0.1,2.6,2,4.1,4.2,4.1c2.1,0,3.6-1.4,3.6-1.4
				l1,1.7c0,0-1.8,1.8-4.7,1.8c-3.8,0-6.5-2.8-6.5-6.4C525.5,57.5,528.1,55,531.6,55z M534.4,60c-0.1-2-1.3-3.1-2.9-3.1
				c-1.8,0-3.2,1.1-3.6,3.1H534.4z"/>
			<path fill="#1C75BC" d="M539.7,64.1c0,0,1.4,1.8,3.7,1.8c1.1,0,2.1-0.5,2.1-1.6c0-2.2-6.6-1.9-6.6-5.9c0-2.3,2-3.4,4.5-3.4
				c1.5,0,4,0.5,4,2.4v1.2h-2.1v-0.6c0-0.7-1.1-1-1.8-1c-1.4,0-2.3,0.5-2.3,1.4c0,2.3,6.6,1.8,6.6,5.9c0,2.2-1.9,3.6-4.5,3.6
				c-3.2,0-4.8-2.1-4.8-2.1L539.7,64.1z"/>
			<path fill="#1C75BC" d="M555.7,55c3.4,0,5.2,2.5,5.2,5.7c0,0.3-0.1,1-0.1,1H552c0.1,2.6,2,4.1,4.2,4.1c2.1,0,3.6-1.4,3.6-1.4
				l1,1.7c0,0-1.8,1.8-4.7,1.8c-3.8,0-6.5-2.8-6.5-6.4C549.6,57.5,552.3,55,555.7,55z M558.6,60c-0.1-2-1.3-3.1-2.9-3.1
				c-1.8,0-3.2,1.1-3.6,3.1H558.6z"/>
			<path fill="#1C75BC" d="M564,57.8c0-0.4-0.2-0.5-0.5-0.5h-1v-2h2.2c1.1,0,1.6,0.4,1.6,1.4v0.8c0,0.5,0,0.8,0,0.8h0
				c0.6-1.8,2-3.2,3.8-3.2c0.3,0,0.6,0,0.6,0v2.3c0,0-0.3-0.1-0.7-0.1c-1.5,0-2.9,1.1-3.4,2.9c-0.2,0.7-0.3,1.4-0.3,2.2v5H564V57.8z
				"/>
			<path fill="#1C75BC" d="M572.9,57.8c-0.1-0.4-0.4-0.5-0.7-0.5h-0.2v-2h1.2c1.1,0,1.5,0.3,1.8,1.2l2.6,7c0.2,0.7,0.4,1.6,0.4,1.6
				h0c0,0,0.2-0.9,0.4-1.6l2.6-7c0.4-1,0.8-1.2,1.8-1.2h1.1v2h-0.2c-0.4,0-0.6,0.1-0.8,0.5l-3.7,9.7h-2.7L572.9,57.8z"/>
			<path fill="#1C75BC" d="M591.1,55c3.4,0,5.2,2.5,5.2,5.7c0,0.3-0.1,1-0.1,1h-8.9c0.1,2.6,2,4.1,4.2,4.1c2.1,0,3.6-1.4,3.6-1.4
				l1,1.7c0,0-1.8,1.8-4.7,1.8c-3.8,0-6.5-2.8-6.5-6.4C585,57.5,587.6,55,591.1,55z M593.9,60c-0.1-2-1.3-3.1-2.9-3.1
				c-1.8,0-3.2,1.1-3.6,3.1H593.9z"/>
			<path fill="#1C75BC" d="M525.3,92.3c0,0,1.7,2,4.2,2c1.6,0,2.9-1,2.9-2.5c0-3.6-8.2-3-8.2-8.3c0-2.5,2.2-4.5,5.4-4.5
				c1.8,0,4.8,0.8,4.8,3.1v1.4h-2.2v-0.8c0-0.9-1.3-1.5-2.6-1.5c-1.8,0-3,1-3,2.3c0,3.4,8.2,2.7,8.2,8.2c0,2.6-2,4.8-5.4,4.8
				c-3.6,0-5.6-2.5-5.6-2.5L525.3,92.3z"/>
			<path fill="#1C75BC" d="M538,86h-1.6v-1.9h1.6v-3.3h2.3v3.3h2.9V86h-2.9v5.6c0,2.4,1.7,2.7,2.6,2.7c0.3,0,0.6,0,0.6,0v2.1
				c0,0-0.3,0-0.8,0c-1.5,0-4.6-0.5-4.6-4.5V86z"/>
			<path fill="#1C75BC" d="M551.5,83.8c3.6,0,6.6,2.7,6.6,6.3c0,3.7-2.9,6.4-6.6,6.4s-6.5-2.7-6.5-6.4
				C545,86.5,547.9,83.8,551.5,83.8z M551.5,94.5c2.3,0,4.2-1.8,4.2-4.4c0-2.5-1.9-4.3-4.2-4.3c-2.3,0-4.2,1.8-4.2,4.3
				C547.4,92.7,549.2,94.5,551.5,94.5z"/>
			<path fill="#1C75BC" d="M566.3,83.8c1.5,0,4.4,0.6,4.4,2.7v1.2h-2.1v-0.7c0-0.9-1.4-1.2-2.3-1.2c-2.4,0-4.2,1.8-4.2,4.3
				c0,2.8,2,4.3,4.3,4.3c2.3,0,3.8-1.7,3.8-1.7l1,1.7c0,0-1.7,2.1-4.9,2.1c-3.8,0-6.5-2.7-6.5-6.4C559.8,86.6,562.4,83.8,566.3,83.8
				z"/>
			<path fill="#1C75BC" d="M573.6,81.8c0-0.4-0.2-0.5-0.5-0.5h-1v-2h2.3c1.1,0,1.5,0.3,1.5,1.4v7.9h1.1c0.4,0,1-0.1,1.3-0.5l2.8-3.9
				h2.7l-3.3,4.5c-0.6,0.7-0.9,0.9-0.9,0.9v0c0,0,0.4,0.1,0.8,0.9l1.8,3.3c0.2,0.4,0.4,0.5,1,0.5h0.7v2h-1.7c-1.1,0-1.5-0.2-2-1.1
				l-2.2-4.1c-0.3-0.5-0.8-0.5-1.2-0.5h-0.9v5.7h-2.3V81.8z"/>
		</g>
		<g>
			<path fill="#1C75BC" d="M417.7,144.5h-36c-4.8,0-8.7-3.9-8.7-8.7v-24c0-4.8,3.9-8.7,8.7-8.7h36c4.8,0,8.7,3.9,8.7,8.7v24
				C426.4,140.7,422.5,144.5,417.7,144.5z"/>
		</g>
		<g>
			<path fill="#1C75BC" d="M373.3,62.1h0.8c0.3,0,0.5-0.2,0.5-0.5l1.2-14.4h2.5l4,9c0.4,0.9,0.8,2.1,0.8,2.1h0c0,0,0.4-1.2,0.8-2.1
				l4-9h2.5l1.2,14.4c0,0.3,0.2,0.5,0.5,0.5h0.8v2.1h-2.1c-1.1,0-1.5-0.5-1.5-1.5l-0.7-9c-0.1-1,0-2.5,0-2.5h0c0,0-0.5,1.6-0.9,2.5
				l-3.4,7.4h-2l-3.4-7.4c-0.4-0.9-0.9-2.5-0.9-2.5h0c0,0,0,1.5,0,2.5l-0.7,9c-0.1,1.1-0.5,1.5-1.6,1.5h-2.1V62.1z"/>
			<path fill="#1C75BC" d="M401.5,56.6h0.5v-0.1c0-2.1-0.8-2.9-2.7-2.9c-0.6,0-2,0.1-2,0.9v0.7h-2.2V54c0-2,3-2.3,4.2-2.3
				c3.9,0,5,2.1,5,4.8v5.2c0,0.4,0.2,0.5,0.5,0.5h1v2h-2.2c-1.1,0-1.5-0.5-1.5-1.4c0-0.4,0-0.7,0-0.7h0c0,0-1,2.4-3.9,2.4
				c-2.1,0-4.1-1.3-4.1-3.7C394.2,56.8,399.5,56.6,401.5,56.6z M398.9,62.5c2,0,3.2-2.1,3.2-3.9v-0.4h-0.6c-1.8,0-4.9,0.1-4.9,2.3
				C396.6,61.6,397.3,62.5,398.9,62.5z"/>
			<path fill="#1C75BC" d="M408.3,49.7c0-0.4-0.2-0.5-0.5-0.5h-1v-2h2.3c1.1,0,1.5,0.3,1.5,1.4v7.9h1.1c0.4,0,1-0.1,1.3-0.5l2.8-3.9
				h2.7l-3.3,4.5c-0.6,0.7-0.9,0.9-0.9,0.9v0c0,0,0.4,0.1,0.8,0.9l1.8,3.3c0.2,0.4,0.4,0.5,1,0.5h0.7v2H417c-1.1,0-1.5-0.2-2-1.1
				l-2.2-4.1c-0.3-0.5-0.8-0.5-1.2-0.5h-0.9v5.7h-2.3V49.7z"/>
			<path fill="#1C75BC" d="M425.7,51.7c3.4,0,5.2,2.5,5.2,5.7c0,0.3-0.1,1-0.1,1H422c0.1,2.6,2,4.1,4.2,4.1c2.1,0,3.6-1.4,3.6-1.4
				l1,1.7c0,0-1.8,1.8-4.7,1.8c-3.8,0-6.5-2.8-6.5-6.4C419.6,54.2,422.3,51.7,425.7,51.7z M428.6,56.6c-0.1-2-1.3-3.1-2.9-3.1
				c-1.8,0-3.2,1.1-3.6,3.1H428.6z"/>
			<path fill="#1C75BC" d="M355.5,78.1h-1.6V76h7.5c3.1,0,5.3,2.1,5.3,5.3c0,3.2-2.2,5.4-5.3,5.4h-3.5v6.3h-2.4V78.1z M361,84.6
				c2,0,3.2-1.3,3.2-3.3c0-2-1.2-3.2-3.2-3.2h-3.1v6.6H361z"/>
			<path fill="#1C75BC" d="M374.9,85.4h0.5v-0.1c0-2.1-0.8-2.9-2.7-2.9c-0.6,0-2,0.1-2,0.9V84h-2.2v-1.2c0-2,3-2.3,4.2-2.3
				c3.9,0,5,2.1,5,4.8v5.2c0,0.4,0.2,0.5,0.5,0.5h1v2h-2.2c-1.1,0-1.5-0.5-1.5-1.4c0-0.4,0-0.7,0-0.7h0c0,0-1,2.4-3.9,2.4
				c-2.1,0-4.1-1.3-4.1-3.7C367.6,85.6,372.9,85.4,374.9,85.4z M372.2,91.3c2,0,3.2-2.1,3.2-3.9v-0.4h-0.6c-1.8,0-4.9,0.1-4.9,2.3
				C370,90.4,370.7,91.3,372.2,91.3z"/>
			<path fill="#1C75BC" d="M382.4,96c0.9,0,1.7-0.7,2.1-1.8l0.6-1.3l-4.2-9.6c-0.2-0.4-0.4-0.5-0.8-0.5h-0.3v-2h1.4
				c1,0,1.3,0.3,1.7,1.2l2.8,6.8c0.2,0.6,0.4,1.5,0.4,1.5h0c0,0,0.2-0.8,0.4-1.5l2.5-6.8c0.4-1,0.8-1.2,1.8-1.2h1.4v2H392
				c-0.4,0-0.6,0.1-0.8,0.5l-4.8,11.9c-0.7,1.9-2.2,2.9-3.9,2.9c-1.8,0-2.9-1.2-2.9-1.2l1-1.7C380.6,95.1,381.3,96,382.4,96z"/>
			<path fill="#1C75BC" d="M394.6,83.3c0-0.4-0.2-0.5-0.5-0.5h-1v-2h2.2c1.1,0,1.5,0.5,1.5,1.3v0.5c0,0.4,0,0.7,0,0.7h0
				c0.6-1.4,2.3-2.8,4.2-2.8c2.1,0,3.2,0.9,3.6,2.8h0c0.7-1.5,2.4-2.8,4.3-2.8c2.7,0,4,1.6,4,4.7v5.3c0,0.4,0.2,0.5,0.5,0.5h1v2
				h-2.3c-1.1,0-1.5-0.5-1.5-1.5v-5.7c0-1.7-0.3-3-2.1-3c-1.7,0-3,1.5-3.4,3.1c-0.1,0.5-0.2,1-0.2,1.7v5.5h-2.3v-7.3
				c0-1.6-0.2-3-2.1-3c-1.8,0-3,1.5-3.5,3.2c-0.1,0.5-0.2,1-0.2,1.6v5.5h-2.3V83.3z"/>
			<path fill="#1C75BC" d="M422.1,80.5c3.4,0,5.2,2.5,5.2,5.7c0,0.3-0.1,1-0.1,1h-8.9c0.1,2.6,2,4.1,4.2,4.1c2.1,0,3.6-1.4,3.6-1.4
				l1,1.7c0,0-1.8,1.8-4.7,1.8c-3.8,0-6.5-2.8-6.5-6.4C416,83,418.6,80.5,422.1,80.5z M424.9,85.4c-0.1-2-1.3-3.1-2.9-3.1
				c-1.8,0-3.2,1.1-3.6,3.1H424.9z"/>
			<path fill="#1C75BC" d="M430.4,83.3c0-0.4-0.2-0.5-0.5-0.5h-1v-2h2.2c1,0,1.5,0.5,1.5,1.3v0.5c0,0.4,0,0.7,0,0.7h0
				c0.5-1.1,1.9-2.8,4.6-2.8c2.9,0,4.2,1.6,4.2,4.7v5.3c0,0.4,0.2,0.5,0.5,0.5h1v2h-2.3c-1.1,0-1.5-0.5-1.5-1.5v-5.7
				c0-1.7-0.3-3-2.3-3c-1.9,0-3.4,1.2-3.8,3c-0.2,0.5-0.2,1-0.2,1.6v5.7h-2.3V83.3z"/>
			<path fill="#1C75BC" d="M445.5,82.7h-1.6v-1.9h1.6v-3.3h2.3v3.3h2.9v1.9h-2.9v5.6c0,2.4,1.7,2.7,2.6,2.7c0.3,0,0.6,0,0.6,0V93
				c0,0-0.3,0-0.8,0c-1.5,0-4.6-0.5-4.6-4.5V82.7z"/>
		</g>
		<g>
			<path fill="#BE1E2D" d="M417.7,216.7h-36c-4.8,0-8.7-3.9-8.7-8.7v-24c0-4.8,3.9-8.7,8.7-8.7h36c4.8,0,8.7,3.9,8.7,8.7v24
				C426.4,212.8,422.5,216.7,417.7,216.7z"/>
		</g>
		<g>
			<path fill="#BE1E2D" d="M373,225c2.3,0,6.4,1,6.4,3.7v1.7h-2.2v-1c0-1.4-2.4-2.1-4.1-2.1c-3.4,0-6,2.6-6,6.4
				c0,3.7,2.7,6.6,6.1,6.6c3.4,0,5.4-2.3,5.4-2.3l1.3,1.7c0,0-2.4,2.8-6.7,2.8c-5.1,0-8.6-3.9-8.6-8.9
				C364.5,228.8,368.2,225,373,225z"/>
			<path fill="#BE1E2D" d="M388.7,234.7h0.5v-0.1c0-2.1-0.8-2.9-2.7-2.9c-0.6,0-2,0.1-2,0.9v0.7h-2.2v-1.2c0-2,3-2.3,4.2-2.3
				c3.9,0,5,2.1,5,4.8v5.2c0,0.4,0.2,0.5,0.5,0.5h1v2h-2.2c-1.1,0-1.5-0.5-1.5-1.4c0-0.4,0-0.7,0-0.7h0c0,0-1,2.4-3.9,2.4
				c-2.1,0-4.1-1.3-4.1-3.7C381.4,235,386.7,234.7,388.7,234.7z M386.1,240.7c2,0,3.2-2.1,3.2-3.9v-0.4h-0.6c-1.8,0-4.9,0.1-4.9,2.3
				C383.8,239.7,384.5,240.7,386.1,240.7z"/>
			<path fill="#BE1E2D" d="M395.6,232.6c0-0.4-0.2-0.5-0.5-0.5h-1v-2h2.2c1,0,1.5,0.5,1.5,1.3v0.5c0,0.4,0,0.7,0,0.7h0
				c0.5-1.1,1.9-2.8,4.6-2.8c2.9,0,4.2,1.6,4.2,4.7v5.3c0,0.4,0.2,0.5,0.5,0.5h1v2h-2.3c-1.1,0-1.5-0.5-1.5-1.5V235
				c0-1.7-0.3-3-2.3-3c-1.9,0-3.4,1.2-3.8,3c-0.2,0.5-0.2,1-0.2,1.6v5.7h-2.3V232.6z"/>
			<path fill="#BE1E2D" d="M416,229.8c1.5,0,4.4,0.6,4.4,2.7v1.2h-2.1v-0.7c0-0.9-1.4-1.2-2.3-1.2c-2.4,0-4.2,1.8-4.2,4.3
				c0,2.8,2,4.3,4.3,4.3c2.3,0,3.8-1.7,3.8-1.7l1,1.7c0,0-1.7,2.1-4.9,2.1c-3.8,0-6.5-2.7-6.5-6.4
				C409.5,232.6,412.1,229.8,416,229.8z"/>
			<path fill="#BE1E2D" d="M428.4,229.8c3.4,0,5.2,2.5,5.2,5.7c0,0.3-0.1,1-0.1,1h-8.9c0.1,2.6,2,4.1,4.2,4.1c2.1,0,3.6-1.4,3.6-1.4
				l1,1.7c0,0-1.8,1.8-4.7,1.8c-3.8,0-6.5-2.8-6.5-6.4C422.3,232.3,424.9,229.8,428.4,229.8z M431.2,234.8c-0.1-2-1.3-3.1-2.9-3.1
				c-1.8,0-3.2,1.1-3.6,3.1H431.2z"/>
			<path fill="#BE1E2D" d="M436.6,227.8c0-0.4-0.2-0.5-0.5-0.5h-1v-2h2.3c1.1,0,1.5,0.5,1.5,1.5v12.9c0,0.4,0.2,0.5,0.5,0.5h1v2
				h-2.3c-1.1,0-1.5-0.5-1.5-1.5V227.8z"/>
			<path fill="#BE1E2D" d="M355.5,256.2h-1.6v-2.1h7.5c3.1,0,5.3,2.1,5.3,5.3c0,3.2-2.2,5.4-5.3,5.4h-3.5v6.3h-2.4V256.2z
				 M361,262.7c2,0,3.2-1.3,3.2-3.3c0-2-1.2-3.2-3.2-3.2h-3.1v6.6H361z"/>
			<path fill="#BE1E2D" d="M374.9,263.5h0.5v-0.1c0-2.1-0.8-2.9-2.7-2.9c-0.6,0-2,0.1-2,0.9v0.7h-2.2v-1.2c0-2,3-2.3,4.2-2.3
				c3.9,0,5,2.1,5,4.8v5.2c0,0.4,0.2,0.5,0.5,0.5h1v2h-2.2c-1.1,0-1.5-0.5-1.5-1.4c0-0.4,0-0.7,0-0.7h0c0,0-1,2.4-3.9,2.4
				c-2.1,0-4.1-1.3-4.1-3.7C367.6,263.8,372.9,263.5,374.9,263.5z M372.2,269.5c2,0,3.2-2.1,3.2-3.9v-0.4h-0.6
				c-1.8,0-4.9,0.1-4.9,2.3C370,268.5,370.7,269.5,372.2,269.5z"/>
			<path fill="#BE1E2D" d="M382.4,274.1c0.9,0,1.7-0.7,2.1-1.8l0.6-1.3l-4.2-9.6c-0.2-0.4-0.4-0.5-0.8-0.5h-0.3v-2h1.4
				c1,0,1.3,0.3,1.7,1.2l2.8,6.8c0.2,0.6,0.4,1.5,0.4,1.5h0c0,0,0.2-0.8,0.4-1.5l2.5-6.8c0.4-1,0.8-1.2,1.8-1.2h1.4v2H392
				c-0.4,0-0.6,0.1-0.8,0.5l-4.8,11.9c-0.7,1.9-2.2,2.9-3.9,2.9c-1.8,0-2.9-1.2-2.9-1.2l1-1.7C380.6,273.3,381.3,274.1,382.4,274.1z
				"/>
			<path fill="#BE1E2D" d="M394.6,261.4c0-0.4-0.2-0.5-0.5-0.5h-1v-2h2.2c1.1,0,1.5,0.5,1.5,1.3v0.5c0,0.4,0,0.7,0,0.7h0
				c0.6-1.4,2.3-2.8,4.2-2.8c2.1,0,3.2,0.9,3.6,2.8h0c0.7-1.5,2.4-2.8,4.3-2.8c2.7,0,4,1.6,4,4.7v5.3c0,0.4,0.2,0.5,0.5,0.5h1v2
				h-2.3c-1.1,0-1.5-0.5-1.5-1.5v-5.7c0-1.7-0.3-3-2.1-3c-1.7,0-3,1.5-3.4,3.1c-0.1,0.5-0.2,1-0.2,1.7v5.5h-2.3v-7.3
				c0-1.6-0.2-3-2.1-3c-1.8,0-3,1.5-3.5,3.2c-0.1,0.5-0.2,1-0.2,1.6v5.5h-2.3V261.4z"/>
			<path fill="#BE1E2D" d="M422.1,258.6c3.4,0,5.2,2.5,5.2,5.7c0,0.3-0.1,1-0.1,1h-8.9c0.1,2.6,2,4.1,4.2,4.1c2.1,0,3.6-1.4,3.6-1.4
				l1,1.7c0,0-1.8,1.8-4.7,1.8c-3.8,0-6.5-2.8-6.5-6.4C416,261.1,418.6,258.6,422.1,258.6z M424.9,263.6c-0.1-2-1.3-3.1-2.9-3.1
				c-1.8,0-3.2,1.1-3.6,3.1H424.9z"/>
			<path fill="#BE1E2D" d="M430.4,261.4c0-0.4-0.2-0.5-0.5-0.5h-1v-2h2.2c1,0,1.5,0.5,1.5,1.3v0.5c0,0.4,0,0.7,0,0.7h0
				c0.5-1.1,1.9-2.8,4.6-2.8c2.9,0,4.2,1.6,4.2,4.7v5.3c0,0.4,0.2,0.5,0.5,0.5h1v2h-2.3c-1.1,0-1.5-0.5-1.5-1.5v-5.7
				c0-1.7-0.3-3-2.3-3c-1.9,0-3.4,1.2-3.8,3c-0.2,0.5-0.2,1-0.2,1.6v5.7h-2.3V261.4z"/>
			<path fill="#BE1E2D" d="M445.5,260.8h-1.6v-1.9h1.6v-3.3h2.3v3.3h2.9v1.9h-2.9v5.6c0,2.4,1.7,2.7,2.6,2.7c0.3,0,0.6,0,0.6,0v2.1
				c0,0-0.3,0-0.8,0c-1.5,0-4.6-0.5-4.6-4.5V260.8z"/>
		</g>
	</g>
	<g>
		<path fill="#2BB673" stroke="#006838" stroke-miterlimit="10" d="M820.8,83.4v72c0,5.6,17.2,10.2,38.4,10.2
			c21.2,0,38.4-4.6,38.4-10.2v-72H820.8z"/>
		<ellipse fill="#2BB673" stroke="#006838" stroke-miterlimit="10" cx="859.2" cy="83.4" rx="38.4" ry="10.2"/>
		<g>
			<path fill="#006838" d="M805.4,65.7l-1.2,0.6l-0.8-1.5l7.4-3.8c0.8-0.4,1.3-0.3,1.7,0.5l0.8,1.6l-1.6,0.8l-0.4-0.8
				c-0.1-0.3-0.3-0.3-0.6-0.2l-3.6,1.9l2,3.9l4.4-2.3l0.8,1.5l-4.4,2.3l1.9,3.6c0.1,0.2,0.3,0.3,0.6,0.2l3.7-1.9
				c0.2-0.1,0.3-0.3,0.2-0.6l-0.4-0.8l1.6-0.8l0.8,1.6c0.4,0.8,0.3,1.3-0.5,1.7l-5.6,2.9c-0.8,0.4-1.3,0.3-1.7-0.5L805.4,65.7z"/>
			<path fill="#006838" d="M817.8,64.9c-0.2-0.3-0.4-0.3-0.7-0.2l-0.2,0.1l-0.4-1.6l1-0.3c0.9-0.2,1.3-0.1,1.7,0.6l3.6,5.1
				c0.3,0.5,0.7,1.2,0.7,1.2l0,0c0,0,0-0.8,0-1.4l0.6-6.2c0.1-0.9,0.4-1.2,1.2-1.4l0.9-0.2l0.4,1.6l-0.2,0c-0.3,0.1-0.5,0.2-0.5,0.6
				l-1,8.6l-2.2,0.6L817.8,64.9z"/>
			<path fill="#006838" d="M832.7,59.3c2.8-0.4,4.6,1.4,5,4c0,0.3,0.1,0.8,0.1,0.8l-7.3,1.1c0.4,2.1,2.2,3.1,4,2.8
				c1.7-0.3,2.7-1.6,2.7-1.6l1,1.2c0,0-1.3,1.7-3.6,2.1c-3.2,0.5-5.7-1.5-6.1-4.4C828,62.1,829.9,59.7,832.7,59.3z M835.7,63
				c-0.3-1.7-1.5-2.4-2.7-2.2c-1.5,0.2-2.5,1.3-2.6,3L835.7,63z"/>
			<path fill="#006838" d="M840.3,60.6c0-0.3-0.2-0.4-0.5-0.4l-0.8,0.1l-0.1-1.7l1.9-0.1c0.9-0.1,1.3,0.3,1.4,1l0,0.4
				c0,0.3,0,0.6,0,0.6l0,0c0.3-0.9,1.4-2.4,3.6-2.6c2.4-0.2,3.6,1,3.8,3.6l0.3,4.4c0,0.3,0.2,0.4,0.5,0.4l0.8-0.1l0.1,1.7l-1.9,0.1
				c-0.9,0.1-1.3-0.3-1.4-1.2l-0.4-4.7c-0.1-1.4-0.5-2.5-2.1-2.4c-1.6,0.1-2.7,1.2-3,2.7c-0.1,0.4-0.1,0.9-0.1,1.4l0.4,4.7l-1.9,0.1
				L840.3,60.6z"/>
			<path fill="#006838" d="M853.1,59.3l-1.3,0l0-1.6l1.4,0l-0.1-2.8l1.9,0l0.1,2.8l2.4-0.1l0,1.6l-2.4,0.1l0.1,4.6
				c0,2,1.4,2.2,2.2,2.2c0.3,0,0.5,0,0.5,0l0,1.7c0,0-0.3,0-0.7,0.1c-1.3,0-3.9-0.3-3.9-3.7L853.1,59.3z"/>
			<path fill="#006838" d="M865.7,64.6c0,0,1.3,1.8,3.4,1.9c1.3,0.1,2.5-0.7,2.5-2c0.2-3-6.7-2.9-6.5-7.2c0.1-2.1,2.1-3.7,4.7-3.5
				c1.5,0.1,4,0.9,3.9,2.8l-0.1,1.2l-1.8-0.1l0-0.7c0-0.7-1-1.3-2.1-1.4c-1.5-0.1-2.5,0.7-2.6,1.8c-0.1,2.9,6.7,2.6,6.4,7.2
				c-0.1,2.2-1.9,3.9-4.7,3.8c-3-0.2-4.6-2.3-4.6-2.3L865.7,64.6z"/>
			<path fill="#006838" d="M876.8,60l-1.3-0.1l0.2-1.6l1.4,0.1l0.3-2.8l1.9,0.2l-0.3,2.8l2.4,0.3l-0.2,1.6l-2.4-0.3l-0.5,4.6
				c-0.2,2,1.2,2.4,1.9,2.5c0.3,0,0.5,0,0.5,0l-0.2,1.7c0,0-0.3,0-0.7,0c-1.3-0.1-3.8-0.8-3.4-4.2L876.8,60z"/>
			<path fill="#006838" d="M888.6,59.8c3,0.5,5,3.1,4.5,6.1c-0.5,3-3.3,4.8-6.3,4.3c-3-0.5-5-3.1-4.4-6.2
				C882.9,61,885.7,59.3,888.6,59.8z M887.1,68.6c1.9,0.3,3.7-0.9,4.1-3c0.4-2.1-0.9-3.8-2.8-4.1c-1.9-0.3-3.7,0.9-4,3
				C883.9,66.5,885.2,68.2,887.1,68.6z"/>
			<path fill="#006838" d="M896.4,63.8c0.1-0.3,0-0.5-0.3-0.5l-0.8-0.2l0.5-1.6l1.8,0.5c0.8,0.2,1.2,0.7,0.9,1.5l-0.2,0.6
				c-0.1,0.4-0.2,0.7-0.2,0.7l0,0c0.9-1.3,2.3-2.1,3.8-1.7c0.3,0.1,0.5,0.2,0.5,0.2l-0.5,1.8c0,0-0.2-0.1-0.5-0.2
				c-1.2-0.3-2.5,0.2-3.4,1.5c-0.3,0.5-0.6,1.1-0.7,1.7l-1.1,4l-1.9-0.5L896.4,63.8z"/>
			<path fill="#006838" d="M909.1,66c2.5,1.3,2.9,3.9,1.7,6.2c-0.1,0.2-0.4,0.7-0.4,0.7l-6.5-3.4c-0.9,2-0.1,3.8,1.5,4.6
				c1.5,0.8,3.2,0.3,3.2,0.3l0.1,1.6c0,0-2,0.6-4.1-0.5c-2.8-1.5-3.7-4.5-2.3-7.2C903.6,65.5,906.5,64.6,909.1,66z M909.3,70.7
				c0.7-1.5,0.2-2.8-0.9-3.4c-1.3-0.7-2.8-0.4-3.8,0.9L909.3,70.7z"/>
		</g>
		<path fill="#2BB673" stroke="#006838" stroke-miterlimit="10" d="M859.2,118.1c-21.2,0-38.4-4.6-38.4-10.2"/>
		<path fill="#2BB673" stroke="#006838" stroke-miterlimit="10" d="M897.6,107.9c0,5.6-17.2,10.2-38.4,10.2"/>
		<path fill="#2BB673" stroke="#006838" stroke-miterlimit="10" d="M859.2,142.6c-21.2,0-38.4-4.6-38.4-10.2"/>
		<path fill="#2BB673" stroke="#006838" stroke-miterlimit="10" d="M897.6,132.4c0,5.6-17.2,10.2-38.4,10.2"/>
	</g>
	<g>
		<line fill="#006838" x1="289.7" y1="126.4" x2="354" y2="126.4"/>
		<g>
			<line fill="none" stroke="#006838" stroke-width="7" stroke-miterlimit="10" x1="289.7" y1="126.4" x2="328.9" y2="126.4"/>
			<g>
				<polygon fill="#006838" points="323.8,143.8 354,126.4 323.8,108.9 				"/>
			</g>
		</g>
	</g>
	<g>
		<line fill="#006838" x1="443.3" y1="123.7" x2="507.7" y2="123.7"/>
		<g>
			<line fill="none" stroke="#006838" stroke-width="7" stroke-miterlimit="10" x1="443.3" y1="123.7" x2="482.6" y2="123.7"/>
			<g>
				<polygon fill="#006838" points="477.5,141.2 507.7,123.7 477.5,106.3 				"/>
			</g>
		</g>
	</g>
	<g>
		<line fill="#006838" x1="596.4" y1="123.9" x2="660.8" y2="123.9"/>
		<polygon fill="none" stroke="#006838" stroke-width="2" stroke-miterlimit="10" points="660.8,123.9 630.5,106.4 630.5,120.4 
			596.4,120.4 596.4,127.4 630.5,127.4 630.5,141.3 		"/>
	</g>
	<g>
		<g>
			<path fill="none" stroke="#006838" stroke-width="6" stroke-miterlimit="10" d="M541.9,158.9v15.4c0,12-9.7,21.6-21.6,21.6h-55.4
				"/>
			<g>
				<polygon fill="#006838" points="469.2,181 443.3,196 469.2,210.9 				"/>
			</g>
		</g>
	</g>
	<polygon fill="#BE1E2D" points="595.8,163.2 571.9,160.7 556.2,179 551.2,155.4 529,146.2 549.8,134.1 551.8,110.1 569.7,126.2 
		593.1,120.6 583.3,142.7 	"/>
	<polygon fill="#F26522" points="585.2,150.9 571.1,152.3 564.2,164.7 558.5,151.7 544.6,149.1 555.2,139.6 553.4,125.6 
		565.6,132.7 578.5,126.7 575.5,140.5 	"/>
	<g>
		<line fill="#006838" x1="738.3" y1="124.6" x2="802.7" y2="124.6"/>
		<polygon fill="none" stroke="#006838" stroke-width="2" stroke-miterlimit="10" points="802.7,124.6 772.4,107.2 772.4,121.1 
			738.3,121.1 738.3,128.1 772.4,128.1 772.4,142.1 		"/>
	</g>
	<g>
		<line fill="#006838" x1="347" y1="196" x2="36" y2="196"/>
		<g>
			<line fill="none" stroke="#006838" stroke-width="7" stroke-miterlimit="10" x1="347" y1="196" x2="61.1" y2="196"/>
			<g>
				<polygon fill="#006838" points="66.2,178.6 36,196 66.2,213.5 				"/>
			</g>
		</g>
	</g>
</g>
</svg>
