<?xml version="1.0" encoding="utf-8"?>
<!-- Generator: Adobe Illustrator 18.1.1, SVG Export Plug-In . SVG Version: 6.00 Build 0)  -->
<!DOCTYPE svg PUBLIC "-//W3C//DTD SVG 1.1//EN" "http://www.w3.org/Graphics/SVG/1.1/DTD/svg11.dtd">
<svg version="1.1" xmlns="http://www.w3.org/2000/svg" xmlns:xlink="http://www.w3.org/1999/xlink" x="0px" y="0px"
	 viewBox="0 0 724.5 383" enable-background="new 0 0 724.5 383" xml:space="preserve">
<g id="Layer_1">
</g>
<g id="Layer_2">
	<path fill="#2BB673" d="M426.1,320v-73.6h11.1V148h-11.1V65.3h11.1V35.6c0-5.5-4.4-9.9-9.9-9.9H173.4c-5.5,0-9.9,4.4-9.9,9.9v314.5
		c0,5.5,4.4,9.9,9.9,9.9h253.9c5.5,0,9.9-4.4,9.9-9.9V320H426.1z"/>
	<g>
		<path fill="#2BB673" stroke="#006838" stroke-miterlimit="10" d="M30.4,145.8v72c0,5.6,17.2,10.2,38.4,10.2
			c21.2,0,38.4-4.6,38.4-10.2v-72H30.4z"/>
		<ellipse fill="#2BB673" stroke="#006838" stroke-miterlimit="10" cx="68.8" cy="145.8" rx="38.4" ry="10.2"/>
		<g>
			<path fill="#006838" d="M18.5,121.1l-1.4,0.5l-0.7-1.9l6.2-2.2c4.6-1.7,8.7,0,10.5,4.8c1.8,4.8-0.3,8.8-4.9,10.4l-3.4,1.2
				c-1,0.4-1.5,0.1-1.9-0.9L18.5,121.1z M25.3,131.7l2-0.7c3.4-1.2,4.9-4.1,3.5-7.8c-1.4-3.7-4.3-4.9-7.7-3.7l-2.5,0.9l4,11.1
				C24.8,131.7,25,131.8,25.3,131.7z"/>
			<path fill="#006838" d="M42.7,121.8l0.5-0.1l0-0.1c-0.3-2-1.2-2.6-3-2.3c-0.5,0.1-1.9,0.5-1.7,1.2l0.1,0.7l-2.1,0.3l-0.2-1.1
				c-0.3-1.9,2.5-2.6,3.6-2.8c3.7-0.6,5,1.2,5.5,3.7l0.8,4.9c0.1,0.3,0.3,0.5,0.6,0.4l0.9-0.2l0.3,1.9l-2.1,0.3
				c-1,0.2-1.5-0.3-1.6-1.1c-0.1-0.4-0.1-0.7-0.1-0.7l0,0c0,0-0.5,2.4-3.3,2.9c-2,0.3-4.1-0.5-4.5-2.8
				C35.8,123.2,40.8,122.1,42.7,121.8z M41.1,127.9c1.9-0.3,2.7-2.5,2.5-4.2l-0.1-0.4l-0.6,0.1c-1.7,0.3-4.6,0.9-4.3,3
				C38.8,127.4,39.7,128.1,41.1,127.9z"/>
			<path fill="#006838" d="M49.3,118.3l-1.5,0.1l-0.2-1.8l1.6-0.1l-0.3-3.2l2.2-0.2l0.3,3.2l2.8-0.3l0.2,1.8l-2.8,0.3l0.5,5.3
				c0.2,2.3,1.8,2.5,2.7,2.4c0.3,0,0.5-0.1,0.5-0.1l0.2,2c0,0-0.3,0.1-0.8,0.1c-1.5,0.1-4.5,0-4.8-3.9L49.3,118.3z"/>
			<path fill="#006838" d="M63.5,120l0.5,0l0-0.1c-0.1-2-0.9-2.8-2.7-2.7c-0.6,0-1.9,0.2-1.9,1l0,0.7l-2.1,0.1l0-1.1
				c-0.1-1.9,2.8-2.3,3.9-2.3c3.8-0.1,4.8,1.8,4.9,4.4l0.2,4.9c0,0.3,0.2,0.5,0.5,0.5l0.9,0l0.1,1.9l-2.1,0.1c-1,0-1.5-0.5-1.5-1.3
				c0-0.4,0-0.7,0-0.7l0,0c0,0-0.8,2.3-3.6,2.4c-2,0.1-4-1.1-4.1-3.4C56.5,120.5,61.6,120.1,63.5,120z M61.1,125.8
				c1.9-0.1,3-2.1,3-3.8l0-0.4l-0.6,0c-1.7,0.1-4.7,0.3-4.6,2.4C58.9,125,59.7,125.9,61.1,125.8z"/>
			<path fill="#006838" d="M70.5,113.3c0-0.3-0.2-0.5-0.5-0.5l-0.9,0l0.1-1.9l2.2,0.1c1,0,1.5,0.5,1.4,1.5l-0.1,3.8
				c0,0.6-0.1,1-0.1,1l0,0c0,0,1.1-1.9,3.8-1.8c3.1,0.1,5,2.7,4.9,6.3c-0.1,3.7-2.4,6-5.5,5.9c-2.6-0.1-3.6-2.1-3.6-2.1l0,0
				c0,0,0,0.4,0,0.9l0,0.8l-2.1-0.1L70.5,113.3z M75.5,125.7c1.8,0.1,3.4-1.4,3.5-4c0.1-2.5-1.2-4.2-3.2-4.3
				c-1.7-0.1-3.4,1.1-3.5,4.1C72.3,123.5,73.3,125.6,75.5,125.7z"/>
			<path fill="#006838" d="M90.1,121.2l0.5,0.1l0-0.1c0.2-2-0.4-2.8-2.3-3c-0.5-0.1-1.9-0.1-2,0.7l-0.1,0.7l-2.1-0.2l0.1-1.1
				c0.2-1.9,3.1-1.9,4.2-1.7c3.7,0.4,4.5,2.5,4.3,5l-0.5,4.9c0,0.3,0.1,0.5,0.4,0.6l0.9,0.1l-0.2,1.9l-2.1-0.2
				c-1-0.1-1.4-0.7-1.3-1.5c0-0.4,0.1-0.7,0.1-0.7l0,0c0,0-1.2,2.2-3.9,1.9c-2-0.2-3.8-1.6-3.5-4C83.1,120.6,88.2,121,90.1,121.2z
				 M87,126.6c1.9,0.2,3.3-1.6,3.5-3.3l0-0.4l-0.6-0.1c-1.7-0.2-4.7-0.4-4.9,1.7C84.9,125.4,85.5,126.4,87,126.6z"/>
			<path fill="#006838" d="M96,126c0,0,1,2,3.1,2.4c1.1,0.2,2.1-0.1,2.3-1.1c0.4-2.1-5.9-3.1-5.1-6.8c0.4-2.2,2.6-2.8,4.9-2.3
				c1.4,0.3,3.6,1.2,3.3,3l-0.2,1.1l-2-0.4l0.1-0.6c0.1-0.7-0.8-1.2-1.5-1.3c-1.3-0.3-2.2,0-2.4,0.9c-0.4,2.2,5.9,2.9,5.1,6.8
				c-0.4,2-2.5,3-4.9,2.5c-3-0.6-4.2-2.9-4.2-2.9L96,126z"/>
			<path fill="#006838" d="M113.8,121.7c3.1,1.2,3.8,4.1,2.8,6.9c-0.1,0.3-0.4,0.8-0.4,0.8l-7.9-3c-0.8,2.4,0.4,4.3,2.4,5.1
				c1.9,0.7,3.7-0.1,3.7-0.1l0.3,1.8c0,0-2.2,1-4.8,0c-3.4-1.3-4.9-4.7-3.6-7.9C107.5,121.9,110.7,120.6,113.8,121.7z M114.7,127.1
				c0.6-1.8-0.2-3.2-1.5-3.7c-1.6-0.6-3.2-0.1-4.3,1.6L114.7,127.1z"/>
		</g>
		<path fill="#2BB673" stroke="#006838" stroke-miterlimit="10" d="M68.8,180.5c-21.2,0-38.4-4.6-38.4-10.2"/>
		<path fill="#2BB673" stroke="#006838" stroke-miterlimit="10" d="M107.1,170.3c0,5.6-17.2,10.2-38.4,10.2"/>
		<path fill="#2BB673" stroke="#006838" stroke-miterlimit="10" d="M68.8,205c-21.2,0-38.4-4.6-38.4-10.2"/>
		<path fill="#2BB673" stroke="#006838" stroke-miterlimit="10" d="M107.1,194.8c0,5.6-17.2,10.2-38.4,10.2"/>
	</g>
	<g>
		<g>
			<path fill="#1C75BC" d="M280.4,278h-36c-4.8,0-8.7-3.9-8.7-8.7v-24c0-4.8,3.9-8.7,8.7-8.7h36c4.8,0,8.7,3.9,8.7,8.7v24
				C289,274.2,285.1,278,280.4,278z"/>
		</g>
		<g>
			<line fill="#1C75BC" x1="319.5" y1="255" x2="289" y2="255"/>
			<g>
				<line fill="none" stroke="#1C75BC" stroke-width="4" stroke-miterlimit="10" x1="319.5" y1="255" x2="303.4" y2="255"/>
				<g>
					<polygon fill="#1C75BC" points="306.3,245.1 289,255 306.3,265 					"/>
				</g>
			</g>
		</g>
		<g>
			<path fill="#1C75BC" d="M364.2,278h-36c-4.8,0-8.7-3.9-8.7-8.7v-24c0-4.8,3.9-8.7,8.7-8.7h36c4.8,0,8.7,3.9,8.7,8.7v24
				C372.9,274.2,369,278,364.2,278z"/>
		</g>
		<g>
			<line fill="#1C75BC" x1="346.2" y1="303.5" x2="346.2" y2="277.5"/>
			<g>
				<line fill="none" stroke="#1C75BC" stroke-width="4" stroke-miterlimit="10" x1="346.2" y1="303.5" x2="346.2" y2="291.8"/>
				<g>
					<polygon fill="#1C75BC" points="356.2,294.8 346.2,277.5 336.2,294.8 					"/>
				</g>
			</g>
		</g>
		<g>
			<path fill="#1C75BC" d="M364.2,344.9h-36c-4.8,0-8.7-3.9-8.7-8.7v-24c0-4.8,3.9-8.7,8.7-8.7h36c4.8,0,8.7,3.9,8.7,8.7v24
				C372.9,341,369,344.9,364.2,344.9z"/>
		</g>
		<g>
			<path fill="#1C75BC" d="M240.6,217c-0.1-0.4-0.4-0.5-0.8-0.5h-0.4v-2.1h1.4c1.2,0,1.8,0.2,2.1,1.4l2.6,10.9
				c0.2,0.9,0.3,1.8,0.3,1.8h0c0,0,0.1-0.9,0.4-1.8l3.4-12.2h2.2l3.2,12.2c0.2,0.9,0.4,1.8,0.4,1.8h0c0,0,0.1-0.9,0.3-1.8l2.7-10.9
				c0.3-1.2,0.9-1.4,2.1-1.4h1.4v2.1h-0.4c-0.4,0-0.7,0.1-0.8,0.5l-3.7,14.4h-2.8l-2.9-10.7c-0.3-1.1-0.5-2.3-0.5-2.3h0
				c0,0-0.2,1.2-0.6,2.3l-3.1,10.7h-2.8L240.6,217z"/>
			<path fill="#1C75BC" d="M263.8,221.7c0-0.4-0.2-0.5-0.5-0.5h-1v-2h2.2c1.1,0,1.6,0.4,1.6,1.4v0.8c0,0.5,0,0.8,0,0.8h0
				c0.6-1.8,2-3.2,3.8-3.2c0.3,0,0.6,0,0.6,0v2.3c0,0-0.3-0.1-0.7-0.1c-1.5,0-2.9,1.1-3.4,2.9c-0.2,0.7-0.3,1.4-0.3,2.2v5h-2.3
				V221.7z"/>
			<path fill="#1C75BC" d="M273.2,221.7c0-0.4-0.2-0.5-0.5-0.5h-1v-2h2.3c1.1,0,1.5,0.5,1.5,1.5v8.1c0,0.4,0.2,0.5,0.5,0.5h1v2h-2.3
				c-1.1,0-1.5-0.5-1.5-1.5V221.7z M273.3,214.4h2.1v2.4h-2.1V214.4z"/>
			<path fill="#1C75BC" d="M279.8,221.1h-1.6v-1.9h1.6v-3.3h2.3v3.3h2.9v1.9h-2.9v5.6c0,2.4,1.7,2.7,2.6,2.7c0.3,0,0.6,0,0.6,0v2.1
				c0,0-0.3,0-0.8,0c-1.5,0-4.6-0.5-4.6-4.5V221.1z"/>
			<path fill="#1C75BC" d="M292.8,218.9c3.4,0,5.2,2.5,5.2,5.7c0,0.3-0.1,1-0.1,1h-8.9c0.1,2.6,2,4.1,4.2,4.1c2.1,0,3.6-1.4,3.6-1.4
				l1,1.7c0,0-1.8,1.8-4.7,1.8c-3.8,0-6.5-2.8-6.5-6.4C286.7,221.4,289.4,218.9,292.8,218.9z M295.7,223.9c-0.1-2-1.3-3.1-2.9-3.1
				c-1.8,0-3.2,1.1-3.6,3.1H295.7z"/>
			<path fill="#1C75BC" d="M306.1,229.3h0.8c0.3,0,0.5-0.2,0.5-0.5l1.2-14.4h2.5l4,9c0.4,0.9,0.8,2.1,0.8,2.1h0c0,0,0.4-1.2,0.8-2.1
				l4-9h2.5l1.2,14.4c0,0.3,0.2,0.5,0.5,0.5h0.8v2.1h-2.1c-1.1,0-1.5-0.5-1.5-1.5l-0.7-9c-0.1-1,0-2.5,0-2.5h0c0,0-0.5,1.6-0.9,2.5
				l-3.4,7.4h-2l-3.4-7.4c-0.4-0.9-0.9-2.5-0.9-2.5h0c0,0,0,1.5,0,2.5l-0.7,9c-0.1,1.1-0.5,1.5-1.6,1.5h-2.1V229.3z"/>
			<path fill="#1C75BC" d="M333.5,218.9c3.6,0,6.6,2.7,6.6,6.3c0,3.7-2.9,6.4-6.6,6.4s-6.5-2.7-6.5-6.4
				C327,221.6,329.9,218.9,333.5,218.9z M333.5,229.6c2.3,0,4.2-1.8,4.2-4.4c0-2.5-1.9-4.3-4.2-4.3c-2.3,0-4.2,1.8-4.2,4.3
				C329.4,227.8,331.3,229.6,333.5,229.6z"/>
			<path fill="#1C75BC" d="M347.3,218.9c2.8,0,3.7,1.9,3.7,1.9h0c0,0,0-0.4,0-0.8v-3c0-0.4-0.2-0.5-0.5-0.5h-1v-2h2.3
				c1.1,0,1.5,0.5,1.5,1.5v12.9c0,0.4,0.2,0.5,0.5,0.5h1v2h-2.2c-1.1,0-1.5-0.5-1.5-1.3c0-0.4,0-0.6,0-0.6h0c0,0-1,2.2-4,2.2
				c-3.3,0-5.4-2.6-5.4-6.4C341.8,221.4,344.1,218.9,347.3,218.9z M351.2,225.2c0-2.2-1.1-4.3-3.5-4.3c-1.9,0-3.5,1.6-3.5,4.3
				c0,2.6,1.4,4.3,3.4,4.3C349.5,229.6,351.2,228.3,351.2,225.2z"/>
			<path fill="#1C75BC" d="M362.4,218.9c3.4,0,5.2,2.5,5.2,5.7c0,0.3-0.1,1-0.1,1h-8.9c0.1,2.6,2,4.1,4.2,4.1c2.1,0,3.6-1.4,3.6-1.4
				l1,1.7c0,0-1.8,1.8-4.7,1.8c-3.8,0-6.5-2.8-6.5-6.4C356.3,221.4,359,218.9,362.4,218.9z M365.3,223.9c-0.1-2-1.3-3.1-2.9-3.1
				c-1.8,0-3.2,1.1-3.6,3.1H365.3z"/>
			<path fill="#1C75BC" d="M370.7,216.9c0-0.4-0.2-0.5-0.5-0.5h-1v-2h2.3c1.1,0,1.5,0.5,1.5,1.5v12.9c0,0.4,0.2,0.5,0.5,0.5h1v2
				h-2.3c-1.1,0-1.5-0.5-1.5-1.5V216.9z"/>
		</g>
	</g>
	<g>
		<line fill="#006838" x1="213.2" y1="246.4" x2="126.5" y2="205.3"/>
		<g>
			<line fill="none" stroke="#006838" stroke-width="7" stroke-miterlimit="10" x1="213.2" y1="246.4" x2="149.2" y2="216"/>
			<g>
				<polygon fill="#006838" points="161.3,202.4 126.5,205.3 146.3,234 				"/>
			</g>
		</g>
	</g>
	<g>
		<line fill="#006838" x1="128.9" y1="138.7" x2="212.7" y2="88.2"/>
		<g>
			<line fill="none" stroke="#006838" stroke-width="7" stroke-miterlimit="10" x1="128.9" y1="138.7" x2="191.2" y2="101.2"/>
			<g>
				<polygon fill="#006838" points="195.8,118.8 212.7,88.2 177.8,88.9 				"/>
			</g>
		</g>
	</g>
	<g>
		<line fill="#006838" x1="573.7" y1="242.3" x2="486.7" y2="282.2"/>
		<g>
			<line fill="none" stroke="#006838" stroke-width="7" stroke-miterlimit="10" x1="573.7" y1="242.3" x2="509.5" y2="271.7"/>
			<g>
				<polygon fill="#006838" points="506.9,253.7 486.7,282.2 521.4,285.4 				"/>
			</g>
		</g>
	</g>
	<g>
		<line fill="#006838" x1="483.8" y1="127.4" x2="576.6" y2="161"/>
		<g>
			<line fill="none" stroke="#006838" stroke-width="7" stroke-miterlimit="10" x1="483.8" y1="127.4" x2="553" y2="152.4"/>
			<g>
				<polygon fill="#006838" points="542.2,167.1 576.6,161 554.1,134.3 				"/>
			</g>
		</g>
	</g>
	<g>
		<path fill="#2BB673" d="M642.8,151.4c-1.8,0-3.3,1.1-3.7,3.2h6.7C645.7,152.5,644.4,151.4,642.8,151.4z"/>
		<path fill="#2BB673" d="M694.6,135.4h-92.9c-5.8,0-10.6,4.7-10.6,10.6v118.6c0,5.8,4.7,10.6,10.6,10.6h92.9
			c5.8,0,10.6-4.7,10.6-10.6V145.9C705.2,140.1,700.4,135.4,694.6,135.4z M631,144.8h2.2v2.5H631V144.8z M614.3,162.7
			c-5.3,0-8.9-4.1-8.9-9.3c0-5.1,3.8-9,8.8-9c2.4,0,6.6,1,6.6,3.8v1.7h-2.3v-1c0-1.5-2.5-2.2-4.3-2.2c-3.5,0-6.3,2.7-6.3,6.6
			c0,3.8,2.8,6.9,6.4,6.9c3.5,0,5.6-2.4,5.6-2.4l1.3,1.8C621.2,159.8,618.7,162.7,614.3,162.7z M628.1,162.4h-2.4
			c-1.1,0-1.6-0.5-1.6-1.6v-13.4c0-0.4-0.2-0.5-0.6-0.5h-1v-2.1h2.4c1.1,0,1.6,0.5,1.6,1.6v13.4c0,0.4,0.2,0.5,0.6,0.5h1V162.4z
			 M634.9,162.4h-2.4c-1.1,0-1.6-0.5-1.6-1.6v-8.4c0-0.4-0.2-0.5-0.6-0.5h-1v-2.1h2.4c1.1,0,1.6,0.5,1.6,1.6v8.4
			c0,0.4,0.2,0.5,0.6,0.5h1V162.4z M648.2,156.4H639c0.2,2.7,2.1,4.2,4.3,4.2c2.2,0,3.7-1.5,3.7-1.5l1,1.7c0,0-1.9,1.8-4.9,1.8
			c-4,0-6.7-2.9-6.7-6.6c0-4,2.7-6.6,6.3-6.6c3.5,0,5.4,2.6,5.4,5.9C648.3,155.7,648.2,156.4,648.2,156.4z M664.5,162.4h-2.4
			c-1.1,0-1.6-0.5-1.6-1.6v-5.9c0-1.8-0.4-3.2-2.4-3.2c-1.9,0-3.5,1.3-4,3.1c-0.2,0.5-0.2,1.1-0.2,1.7v5.9h-2.4v-10
			c0-0.4-0.2-0.5-0.5-0.5h-1v-2.1h2.3c1.1,0,1.6,0.5,1.6,1.4v0.5c0,0.4-0.1,0.7-0.1,0.7h0.1c0.5-1.1,2-2.9,4.7-2.9
			c3,0,4.3,1.6,4.3,4.8v5.5c0,0.4,0.2,0.5,0.5,0.5h1V162.4z M672.9,162.5c0,0-0.3,0-0.8,0c-1.6,0-4.8-0.5-4.8-4.7v-6.1h-1.7v-1.9
			h1.7v-3.5h2.4v3.5h3v1.9h-3v5.8c0,2.5,1.8,2.8,2.7,2.8c0.4,0,0.6-0.1,0.6-0.1V162.5z"/>
	</g>
	<g>
		<g>
			<path fill="#1C75BC" d="M281.1,106.7h-36c-4.8,0-8.7-3.9-8.7-8.7V74c0-4.8,3.9-8.7,8.7-8.7h36c4.8,0,8.7,3.9,8.7,8.7v24
				C289.8,102.8,285.9,106.7,281.1,106.7z"/>
		</g>
		<g>
			<line fill="#1C75BC" x1="301.6" y1="152.3" x2="277.6" y2="106.7"/>
			<g>
				<line fill="none" stroke="#1C75BC" stroke-width="4" stroke-miterlimit="10" x1="301.6" y1="152.3" x2="284.3" y2="119.4"/>
				<g>
					<polygon fill="#1C75BC" points="294.5,117.3 277.6,106.7 276.8,126.6 					"/>
				</g>
			</g>
		</g>
		<g>
			<path fill="#1C75BC" d="M362.3,106.7h-36c-4.8,0-8.7-3.9-8.7-8.7V74c0-4.8,3.9-8.7,8.7-8.7h36c4.8,0,8.7,3.9,8.7,8.7v24
				C370.9,102.8,367.1,106.7,362.3,106.7z"/>
		</g>
		<g>
			<line fill="#1C75BC" x1="314.1" y1="146.1" x2="332.4" y2="106.7"/>
			<g>
				<line fill="none" stroke="#1C75BC" stroke-width="4" stroke-miterlimit="10" x1="314.1" y1="146.1" x2="326.4" y2="119.7"/>
				<g>
					<polygon fill="#1C75BC" points="334.2,126.5 332.4,106.7 316.1,118.1 					"/>
				</g>
			</g>
		</g>
		<g>
			<path fill="#1C75BC" d="M322.3,176.7h-36c-4.8,0-8.7-3.9-8.7-8.7v-24c0-4.8,3.9-8.7,8.7-8.7h36c4.8,0,8.7,3.9,8.7,8.7v24
				C330.9,172.8,327.1,176.7,322.3,176.7z"/>
		</g>
		<g>
			<path fill="#1C75BC" d="M240.7,41.2c4.9,0,8.7,3.8,8.7,8.7c0,2.1-0.8,4.1-2,5.6l1.9,1.9l-1.4,1.5l-1.9-1.9
				c-1.5,1.2-3.3,1.8-5.3,1.8c-4.9,0-8.7-3.9-8.7-8.9C232.1,45,235.9,41.2,240.7,41.2z M240.7,56.5c2.2,0,3.6-1.2,3.6-1.2l-1.9-1.8
				l1.4-1.6l1.8,1.9c0.8-1.1,1.2-2.5,1.2-3.9c0-3.7-2.7-6.4-6.2-6.4c-3.5,0-6.2,2.7-6.2,6.4C234.6,53.6,237.3,56.5,240.7,56.5z"/>
			<path fill="#1C75BC" d="M252.5,48.8c0-0.4-0.2-0.5-0.5-0.5h-1v-2h2.3c1.1,0,1.6,0.5,1.6,1.5v5.8c0,1.7,0.3,3,2.3,3
				c2.5,0,4-2.2,4-4.6v-5.7h2.3v9.6c0,0.4,0.2,0.5,0.5,0.5h1v2h-2.2c-1,0-1.5-0.5-1.5-1.3v-0.5c0-0.4,0-0.7,0-0.7h0
				c-0.5,1.2-2.1,2.8-4.5,2.8c-2.7,0-4.1-1.4-4.1-4.7V48.8z"/>
			<path fill="#1C75BC" d="M272.3,46c3.4,0,5.2,2.5,5.2,5.7c0,0.3-0.1,1-0.1,1h-8.9c0.1,2.6,2,4.1,4.2,4.1c2.1,0,3.6-1.4,3.6-1.4
				l1,1.7c0,0-1.8,1.8-4.7,1.8c-3.8,0-6.5-2.8-6.5-6.4C266.2,48.5,268.9,46,272.3,46z M275.2,51c-0.1-2-1.3-3.1-2.9-3.1
				c-1.8,0-3.2,1.1-3.6,3.1H275.2z"/>
			<path fill="#1C75BC" d="M280.7,48.8c0-0.4-0.2-0.5-0.5-0.5h-1v-2h2.2c1.1,0,1.6,0.4,1.6,1.4v0.8c0,0.5,0,0.8,0,0.8h0
				c0.6-1.8,2-3.2,3.8-3.2c0.3,0,0.6,0,0.6,0v2.3c0,0-0.3-0.1-0.7-0.1c-1.5,0-2.9,1.1-3.4,2.9c-0.2,0.7-0.3,1.4-0.3,2.2v5h-2.3V48.8
				z"/>
			<path fill="#1C75BC" d="M291.1,61.5c0.9,0,1.7-0.7,2.1-1.8l0.6-1.3l-4.2-9.6c-0.2-0.4-0.4-0.5-0.8-0.5h-0.3v-2h1.4
				c1,0,1.3,0.3,1.7,1.2l2.8,6.8c0.2,0.6,0.4,1.5,0.4,1.5h0c0,0,0.2-0.8,0.4-1.5l2.5-6.8c0.4-1,0.8-1.2,1.8-1.2h1.4v2h-0.3
				c-0.4,0-0.6,0.1-0.8,0.5l-4.8,11.9c-0.7,1.9-2.2,2.9-3.9,2.9c-1.8,0-2.9-1.2-2.9-1.2l1-1.7C289.3,60.6,290,61.5,291.1,61.5z"/>
			<path fill="#1C75BC" d="M308.3,56.4h0.8c0.3,0,0.5-0.2,0.5-0.5l1.2-14.4h2.5l4,9c0.4,0.9,0.8,2.1,0.8,2.1h0c0,0,0.4-1.2,0.8-2.1
				l4-9h2.5l1.2,14.4c0,0.3,0.2,0.5,0.5,0.5h0.8v2.1h-2.1c-1.1,0-1.5-0.5-1.5-1.5l-0.7-9c-0.1-1,0-2.5,0-2.5h0c0,0-0.5,1.6-0.9,2.5
				l-3.4,7.4h-2l-3.4-7.4c-0.4-0.9-0.9-2.5-0.9-2.5h0c0,0,0,1.5,0,2.5l-0.7,9c-0.1,1.1-0.5,1.5-1.6,1.5h-2.1V56.4z"/>
			<path fill="#1C75BC" d="M335.7,46c3.6,0,6.6,2.7,6.6,6.3c0,3.7-2.9,6.4-6.6,6.4s-6.5-2.7-6.5-6.4C329.2,48.7,332.1,46,335.7,46z
				 M335.7,56.7c2.3,0,4.2-1.8,4.2-4.4c0-2.5-1.9-4.3-4.2-4.3c-2.3,0-4.2,1.8-4.2,4.3C331.6,54.9,333.5,56.7,335.7,56.7z"/>
			<path fill="#1C75BC" d="M349.5,46c2.8,0,3.7,1.9,3.7,1.9h0c0,0,0-0.4,0-0.8v-3c0-0.4-0.2-0.5-0.5-0.5h-1v-2h2.3
				c1.1,0,1.5,0.5,1.5,1.5v12.9c0,0.4,0.2,0.5,0.5,0.5h1v2h-2.2c-1.1,0-1.5-0.5-1.5-1.3c0-0.4,0-0.6,0-0.6h0c0,0-1,2.2-4,2.2
				c-3.3,0-5.4-2.6-5.4-6.4C344,48.5,346.3,46,349.5,46z M353.4,52.4c0-2.2-1.1-4.3-3.5-4.3c-1.9,0-3.5,1.6-3.5,4.3
				c0,2.6,1.4,4.3,3.4,4.3C351.7,56.7,353.4,55.5,353.4,52.4z"/>
			<path fill="#1C75BC" d="M364.6,46c3.4,0,5.2,2.5,5.2,5.7c0,0.3-0.1,1-0.1,1h-8.9c0.1,2.6,2,4.1,4.2,4.1c2.1,0,3.6-1.4,3.6-1.4
				l1,1.7c0,0-1.8,1.8-4.7,1.8c-3.8,0-6.5-2.8-6.5-6.4C358.5,48.5,361.2,46,364.6,46z M367.5,51c-0.1-2-1.3-3.1-2.9-3.1
				c-1.8,0-3.2,1.1-3.6,3.1H367.5z"/>
			<path fill="#1C75BC" d="M372.9,44c0-0.4-0.2-0.5-0.5-0.5h-1v-2h2.3c1.1,0,1.5,0.5,1.5,1.5v12.9c0,0.4,0.2,0.5,0.5,0.5h1v2h-2.3
				c-1.1,0-1.5-0.5-1.5-1.5V44z"/>
		</g>
	</g>
	<g>
		<path fill="#006838" d="M452.8,229h-24.3c-3.5,0-6.3,2.8-6.3,6.3V333c0,3.5,2.8,6.3,6.3,6.3h24.3c3.5,0,6.3-2.8,6.3-6.3v-97.7
			C459.2,231.8,456.3,229,452.8,229z M448.3,288.9c0,1.2-0.3,1.6-1.4,2l-3.6,1.3v6.5l3.6,1.3c1.1,0.4,1.4,0.8,1.4,2.1v1.4h-2.1v-0.4
			c0-0.4-0.1-0.7-0.5-0.8l-14.9-5.5v-2.6l14.9-5.5c0.5-0.1,0.5-0.4,0.5-0.8v-0.4h2.1V288.9z M448.3,284.7h-15.5v1.6h-2.1v-7.8
			c0-3.2,2.2-5.5,5.5-5.5s5.6,2.3,5.6,5.5v3.6h6.5V284.7z M448.3,271.4h-2.1v-1.7h-13.3v1.7h-2.1v-5.8h2.1v1.7h13.3v-1.7h2.1V271.4z
			"/>
		<path fill="#006838" d="M436.2,275.6c-2.1,0-3.4,1.3-3.4,3.3v3.3h6.8v-3.2C439.6,276.8,438.3,275.6,436.2,275.6z"/>
		<path fill="#006838" d="M433.3,295.5L433.3,295.5c0,0,1.5,0.4,2.5,0.7l5.4,1.9v-5.3l-5.4,1.9C434.8,295.2,433.3,295.5,433.3,295.5
			z"/>
	</g>
	<g>
		<path fill="#006838" d="M452.3,53H428c-3.5,0-6.3,2.8-6.3,6.3V157c0,3.5,2.8,6.3,6.3,6.3h24.3c3.5,0,6.3-2.8,6.3-6.3V59.3
			C458.7,55.8,455.8,53,452.3,53z M447.8,112.9c0,1.2-0.3,1.6-1.4,2l-3.6,1.3v6.5l3.6,1.3c1.1,0.4,1.4,0.8,1.4,2.1v1.4h-2.1v-0.4
			c0-0.4-0.1-0.7-0.5-0.8l-14.9-5.5v-2.6l14.9-5.5c0.5-0.1,0.5-0.4,0.5-0.8v-0.4h2.1V112.9z M447.8,108.6h-15.5v1.6h-2.1v-7.8
			c0-3.2,2.2-5.5,5.5-5.5s5.6,2.3,5.6,5.5v3.6h6.5V108.6z M447.8,95.4h-2.1v-1.7h-13.3v1.7h-2.1v-5.8h2.1v1.7h13.3v-1.7h2.1V95.4z"
			/>
		<path fill="#006838" d="M435.7,99.6c-2.1,0-3.4,1.3-3.4,3.3v3.3h6.8v-3.2C439.2,100.8,437.8,99.6,435.7,99.6z"/>
		<path fill="#006838" d="M432.8,119.5L432.8,119.5c0,0,1.5,0.4,2.5,0.7l5.4,1.9v-5.3l-5.4,1.9C434.4,119.2,432.8,119.5,432.8,119.5
			z"/>
	</g>
</g>
</svg>
