<?xml version="1.0" encoding="utf-8"?>
<!-- Generator: Adobe Illustrator 18.1.1, SVG Export Plug-In . SVG Version: 6.00 Build 0)  -->
<!DOCTYPE svg PUBLIC "-//W3C//DTD SVG 1.1//EN" "http://www.w3.org/Graphics/SVG/1.1/DTD/svg11.dtd">
<svg version="1.1" xmlns="http://www.w3.org/2000/svg" xmlns:xlink="http://www.w3.org/1999/xlink" x="0px" y="0px"
	 viewBox="0 0 724.5 291" enable-background="new 0 0 724.5 291" xml:space="preserve">
<g id="Layer_1">
	<g>
		<path fill="#2BB673" stroke="#006838" stroke-miterlimit="10" d="M36.1,143.2v72c0,5.6,17.2,10.2,38.4,10.2
			c21.2,0,38.4-4.6,38.4-10.2v-72H36.1z"/>
		<ellipse fill="#2BB673" stroke="#006838" stroke-miterlimit="10" cx="74.5" cy="143.2" rx="38.4" ry="10.2"/>
		<g>
			<path fill="#006838" d="M24.2,118.6l-1.4,0.5l-0.7-1.9l6.2-2.2c4.6-1.7,8.7,0,10.5,4.8c1.8,4.8-0.3,8.8-4.9,10.4l-3.4,1.2
				c-1,0.4-1.5,0.1-1.9-0.9L24.2,118.6z M31,129.2l2-0.7c3.4-1.2,4.9-4.1,3.5-7.8c-1.4-3.7-4.3-4.9-7.7-3.7l-2.5,0.9l4,11.1
				C30.5,129.2,30.7,129.3,31,129.2z"/>
			<path fill="#006838" d="M48.4,119.2l0.5-0.1l0-0.1c-0.3-2-1.2-2.6-3-2.3c-0.5,0.1-1.9,0.5-1.7,1.2l0.1,0.7l-2.1,0.3l-0.2-1.1
				c-0.3-1.9,2.5-2.6,3.6-2.8c3.7-0.6,5,1.2,5.5,3.7l0.8,4.9c0.1,0.3,0.3,0.5,0.6,0.4l0.9-0.2l0.3,1.9l-2.1,0.3
				c-1,0.2-1.5-0.3-1.6-1.1c-0.1-0.4-0.1-0.7-0.1-0.7l0,0c0,0-0.5,2.4-3.3,2.9c-2,0.3-4.1-0.5-4.5-2.8
				C41.6,120.6,46.5,119.6,48.4,119.2z M46.8,125.3c1.9-0.3,2.7-2.5,2.5-4.2l-0.1-0.4l-0.6,0.1c-1.7,0.3-4.6,0.9-4.3,3
				C44.5,124.8,45.4,125.6,46.8,125.3z"/>
			<path fill="#006838" d="M55,115.8l-1.5,0.1l-0.2-1.8l1.6-0.1l-0.3-3.2l2.2-0.2l0.3,3.2l2.8-0.3l0.2,1.8l-2.8,0.3l0.5,5.3
				c0.2,2.3,1.8,2.5,2.7,2.4c0.3,0,0.5-0.1,0.5-0.1l0.2,2c0,0-0.3,0.1-0.8,0.1c-1.5,0.1-4.5,0-4.8-3.9L55,115.8z"/>
			<path fill="#006838" d="M69.3,117.5l0.5,0l0-0.1c-0.1-2-0.9-2.8-2.7-2.7c-0.6,0-1.9,0.2-1.9,1l0,0.7l-2.1,0.1l0-1.1
				c-0.1-1.9,2.8-2.3,3.9-2.3c3.8-0.1,4.8,1.8,4.9,4.4l0.2,4.9c0,0.3,0.2,0.5,0.5,0.5l0.9,0l0.1,1.9l-2.1,0.1c-1,0-1.5-0.5-1.5-1.3
				c0-0.4,0-0.7,0-0.7l0,0c0,0-0.8,2.3-3.6,2.4c-2,0.1-4-1.1-4.1-3.4C62.3,117.9,67.3,117.5,69.3,117.5z M66.9,123.3
				c1.9-0.1,3-2.1,3-3.8l0-0.4l-0.6,0c-1.7,0.1-4.7,0.3-4.6,2.4C64.7,122.4,65.4,123.3,66.9,123.3z"/>
			<path fill="#006838" d="M76.2,110.8c0-0.3-0.2-0.5-0.5-0.5l-0.9,0l0.1-1.9l2.2,0.1c1,0,1.5,0.5,1.4,1.5l-0.1,3.8
				c0,0.6-0.1,1-0.1,1l0,0c0,0,1.1-1.9,3.8-1.8c3.1,0.1,5,2.7,4.9,6.3c-0.1,3.7-2.4,6-5.5,5.9c-2.6-0.1-3.6-2.1-3.6-2.1l0,0
				c0,0,0,0.4,0,0.9l0,0.8l-2.1-0.1L76.2,110.8z M81.3,123.1c1.8,0.1,3.4-1.4,3.5-4c0.1-2.5-1.2-4.2-3.2-4.3
				c-1.7-0.1-3.4,1.1-3.5,4.1C78.1,120.9,79.1,123,81.3,123.1z"/>
			<path fill="#006838" d="M95.9,118.6l0.5,0.1l0-0.1c0.2-2-0.4-2.8-2.3-3c-0.5-0.1-1.9-0.1-2,0.7l-0.1,0.7l-2.1-0.2l0.1-1.1
				c0.2-1.9,3.1-1.9,4.2-1.7c3.7,0.4,4.5,2.5,4.3,5l-0.5,4.9c0,0.3,0.1,0.5,0.4,0.6l0.9,0.1l-0.2,1.9l-2.1-0.2
				c-1-0.1-1.4-0.7-1.3-1.5c0-0.4,0.1-0.7,0.1-0.7l0,0c0,0-1.2,2.2-3.9,1.9c-2-0.2-3.8-1.6-3.5-4C88.9,118.1,93.9,118.4,95.9,118.6z
				 M92.7,124c1.9,0.2,3.3-1.6,3.5-3.3l0-0.4l-0.6-0.1c-1.7-0.2-4.7-0.4-4.9,1.7C90.6,122.9,91.2,123.9,92.7,124z"/>
			<path fill="#006838" d="M101.7,123.4c0,0,1,2,3.1,2.4c1.1,0.2,2.1-0.1,2.3-1.1c0.4-2.1-5.9-3.1-5.1-6.8c0.4-2.2,2.6-2.8,4.9-2.3
				c1.4,0.3,3.6,1.2,3.3,3l-0.2,1.1l-2-0.4l0.1-0.6c0.1-0.7-0.8-1.2-1.5-1.3c-1.3-0.3-2.2,0-2.4,0.9c-0.4,2.2,5.9,2.9,5.1,6.8
				c-0.4,2-2.5,3-4.9,2.5c-3-0.6-4.2-2.9-4.2-2.9L101.7,123.4z"/>
			<path fill="#006838" d="M119.5,119.2c3.1,1.2,3.8,4.1,2.8,6.9c-0.1,0.3-0.4,0.8-0.4,0.8l-7.9-3c-0.8,2.4,0.4,4.3,2.4,5.1
				c1.9,0.7,3.7-0.1,3.7-0.1l0.3,1.8c0,0-2.2,1-4.8,0c-3.4-1.3-4.9-4.7-3.6-7.9C113.2,119.3,116.4,118,119.5,119.2z M120.4,124.6
				c0.6-1.8-0.2-3.2-1.5-3.7c-1.6-0.6-3.2-0.1-4.3,1.6L120.4,124.6z"/>
		</g>
		<path fill="#2BB673" stroke="#006838" stroke-miterlimit="10" d="M74.5,177.9c-21.2,0-38.4-4.6-38.4-10.2"/>
		<path fill="#2BB673" stroke="#006838" stroke-miterlimit="10" d="M112.9,167.7c0,5.6-17.2,10.2-38.4,10.2"/>
		<path fill="#2BB673" stroke="#006838" stroke-miterlimit="10" d="M74.5,202.4c-21.2,0-38.4-4.6-38.4-10.2"/>
		<path fill="#2BB673" stroke="#006838" stroke-miterlimit="10" d="M112.9,192.2c0,5.6-17.2,10.2-38.4,10.2"/>
	</g>
	<g>
		<path fill="#2BB673" d="M212.2,40.1c-1.9,0-3.6,1.3-3.6,4.5c0,2.2,1.2,4.5,3.6,4.5c2,0,3.6-1.6,3.6-4.5
			C215.8,41.9,214.3,40.1,212.2,40.1z"/>
		<path fill="#2BB673" d="M264.4,47.3c0,1,0.8,2,2.4,2c2,0,3.4-2.1,3.4-4v-0.4h-0.6C267.7,44.9,264.4,45,264.4,47.3z"/>
		<path fill="#2BB673" d="M298,40.1c-2.4,0-4.3,1.9-4.3,4.5c0,2.6,2,4.5,4.3,4.5c2.4,0,4.3-1.9,4.3-4.5
			C302.3,42,300.4,40.1,298,40.1z"/>
		<path fill="#2BB673" d="M227.3,40.1c-1.9,0-3.6,1.3-3.6,4.5c0,2.2,1.2,4.5,3.6,4.5c2,0,3.6-1.6,3.6-4.5
			C230.9,41.9,229.4,40.1,227.3,40.1z"/>
		<path fill="#2BB673" d="M195.8,35.9L195.8,35.9c0,0-0.4,1.5-0.7,2.5l-1.9,5.4h5.3l-1.9-5.4C196.2,37.5,195.8,35.9,195.8,35.9z"/>
		<path fill="#2BB673" d="M431.8,215.3v-73.4h16V34.5c0-5.8-4.7-10.6-10.6-10.6H184.7c-5.8,0-10.6,4.7-10.6,10.6v221
			c0,5.8,4.7,10.6,10.6,10.6h252.5c5.8,0,10.6-4.7,10.6-10.6v-40.1H431.8z M285.7,33.3h2.2v2.5h-2.2V33.3z M243.1,33.3h2.2v2.5h-2.2
			V33.3z M203.8,51h-1.4c-1.2,0-1.6-0.3-2-1.4l-1.3-3.6h-6.5l-1.3,3.6c-0.4,1.1-0.8,1.4-2.1,1.4h-1.4v-2.1h0.4
			c0.4,0,0.7-0.1,0.8-0.5l5.5-14.9h2.6l5.5,14.9c0.1,0.4,0.4,0.5,0.8,0.5h0.4V51z M212.5,51.3c-2.8,0-3.9-2-3.9-2h0c0,0,0,0.5,0,1.1
			V56h-2.4v-15c0-0.4-0.2-0.5-0.5-0.5h-1v-2.1h2.3c1.1,0,1.5,0.5,1.5,1.3c0,0.4,0,0.7,0,0.7h0c0,0,1-2.2,4.2-2.2
			c3.4,0,5.6,2.7,5.6,6.6C218.3,48.7,215.8,51.3,212.5,51.3z M227.6,51.3c-2.8,0-3.9-2-3.9-2h0c0,0,0,0.5,0,1.1V56h-2.4v-15
			c0-0.4-0.2-0.5-0.5-0.5h-1v-2.1h2.3c1.1,0,1.5,0.5,1.5,1.3c0,0.4,0,0.7,0,0.7h0c0,0,1-2.2,4.2-2.2c3.4,0,5.6,2.7,5.6,6.6
			C233.4,48.7,230.9,51.3,227.6,51.3z M240.2,51h-2.4c-1.1,0-1.6-0.5-1.6-1.6V35.9c0-0.4-0.2-0.5-0.6-0.5h-1v-2.1h2.4
			c1.1,0,1.6,0.5,1.6,1.6v13.4c0,0.4,0.2,0.5,0.5,0.5h1V51z M247,51h-2.4c-1.1,0-1.6-0.5-1.6-1.6v-8.4c0-0.4-0.2-0.5-0.5-0.5h-1
			v-2.1h2.4c1.1,0,1.6,0.5,1.6,1.6v8.4c0,0.4,0.2,0.5,0.5,0.5h1V51z M255.3,51.3c-4,0-6.7-2.8-6.7-6.6c0-3.7,2.7-6.6,6.8-6.6
			c1.5,0,4.5,0.6,4.5,2.8v1.3h-2.2v-0.7c0-0.9-1.4-1.3-2.3-1.3c-2.5,0-4.3,1.8-4.3,4.5c0,2.9,2.1,4.5,4.4,4.5c2.4,0,3.9-1.7,3.9-1.7
			l1,1.7C260.5,49.1,258.7,51.3,255.3,51.3z M274.1,51h-2.3c-1.1,0-1.6-0.5-1.6-1.4c0-0.4,0.1-0.7,0.1-0.7h-0.1c0,0-1,2.5-4,2.5
			c-2.2,0-4.3-1.3-4.3-3.8c0-4.1,5.5-4.3,7.6-4.3h0.5V43c0-2.2-0.8-3-2.8-3c-0.6,0-2.1,0.1-2.1,1v0.7h-2.3v-1.2
			c0-2.1,3.1-2.4,4.4-2.4c4.1,0,5.2,2.1,5.2,4.9v5.4c0,0.4,0.2,0.5,0.5,0.5h1V51z M282.5,51c0,0-0.3,0-0.8,0c-1.6,0-4.8-0.5-4.8-4.7
			v-6.1h-1.6v-1.9h1.7v-3.5h2.4v3.5h3v1.9h-3v5.8c0,2.5,1.7,2.8,2.7,2.8c0.3,0,0.6-0.1,0.6-0.1V51z M289.6,51h-2.4
			c-1.1,0-1.6-0.5-1.6-1.6v-8.4c0-0.4-0.2-0.5-0.6-0.5h-1v-2.1h2.4c1.1,0,1.6,0.5,1.6,1.6v8.4c0,0.4,0.2,0.5,0.6,0.5h1V51z
			 M298,51.3c-3.8,0-6.8-2.8-6.8-6.6c0-3.8,3-6.6,6.8-6.6s6.8,2.8,6.8,6.6C304.8,48.5,301.7,51.3,298,51.3z M320.8,51h-2.4
			c-1.1,0-1.6-0.5-1.6-1.6v-5.9c0-1.8-0.3-3.2-2.4-3.2c-1.9,0-3.5,1.3-4,3.1c-0.2,0.5-0.2,1.1-0.2,1.7V51h-2.4v-10
			c0-0.4-0.2-0.5-0.5-0.5h-1v-2.1h2.3c1.1,0,1.6,0.5,1.6,1.4v0.5c0,0.4,0,0.7,0,0.7h0c0.5-1.1,2-2.9,4.7-2.9c3,0,4.3,1.6,4.3,4.8
			v5.5c0,0.4,0.2,0.5,0.5,0.5h1V51z"/>
	</g>
	<g>
		<g>
			<path fill="#1C75BC" d="M296.5,162.6h-36c-4.8,0-8.7-3.9-8.7-8.7v-24c0-4.8,3.9-8.7,8.7-8.7h36c4.8,0,8.7,3.9,8.7,8.7v24
				C305.2,158.7,301.3,162.6,296.5,162.6z"/>
		</g>
		<g>
			<line fill="#1C75BC" x1="335.7" y1="139.6" x2="305.2" y2="139.6"/>
			<g>
				<line fill="none" stroke="#1C75BC" stroke-width="4" stroke-miterlimit="10" x1="335.7" y1="139.6" x2="319.5" y2="139.6"/>
				<g>
					<polygon fill="#1C75BC" points="322.4,129.6 305.2,139.6 322.4,149.5 					"/>
				</g>
			</g>
		</g>
		<g>
			<path fill="#1C75BC" d="M380.3,162.6h-36c-4.8,0-8.7-3.9-8.7-8.7v-24c0-4.8,3.9-8.7,8.7-8.7h36c4.8,0,8.7,3.9,8.7,8.7v24
				C389,158.7,385.1,162.6,380.3,162.6z"/>
		</g>
		<g>
			<line fill="#1C75BC" x1="362.3" y1="188.1" x2="362.3" y2="162"/>
			<g>
				<line fill="none" stroke="#1C75BC" stroke-width="4" stroke-miterlimit="10" x1="362.3" y1="188.1" x2="362.3" y2="176.4"/>
				<g>
					<polygon fill="#1C75BC" points="372.3,179.3 362.3,162 352.4,179.3 					"/>
				</g>
			</g>
		</g>
		<g>
			<path fill="#1C75BC" d="M380.3,229.4h-36c-4.8,0-8.7-3.9-8.7-8.7v-24c0-4.8,3.9-8.7,8.7-8.7h36c4.8,0,8.7,3.9,8.7,8.7v24
				C389,225.5,385.1,229.4,380.3,229.4z"/>
		</g>
		<g>
			<path fill="#1C75BC" d="M285.7,114.1h0.8c0.3,0,0.5-0.2,0.5-0.5l1.2-14.9h2.6l4.1,9.3c0.4,0.9,0.9,2.2,0.9,2.2h0
				c0,0,0.5-1.3,0.9-2.2l4.1-9.3h2.6l1.2,14.9c0,0.3,0.2,0.5,0.5,0.5h0.8v2.1h-2.2c-1.1,0-1.5-0.5-1.6-1.6l-0.7-9.3
				c-0.1-1-0.1-2.6-0.1-2.6h0c0,0-0.5,1.6-0.9,2.6l-3.6,7.7h-2.1l-3.6-7.7c-0.4-0.9-1-2.6-1-2.6h0c0,0,0,1.6,0,2.6l-0.7,9.3
				c-0.1,1.1-0.5,1.6-1.6,1.6h-2.2V114.1z"/>
			<path fill="#1C75BC" d="M314.3,103.3c3.8,0,6.8,2.8,6.8,6.6c0,3.8-3,6.6-6.8,6.6c-3.8,0-6.8-2.8-6.8-6.6
				C307.5,106,310.5,103.3,314.3,103.3z M314.3,114.4c2.4,0,4.3-1.9,4.3-4.5c0-2.6-1.9-4.5-4.3-4.5c-2.4,0-4.3,1.9-4.3,4.5
				C310,112.5,311.9,114.4,314.3,114.4z"/>
			<path fill="#1C75BC" d="M328.7,103.3c2.9,0,3.9,1.9,3.9,1.9h0.1c0,0-0.1-0.4-0.1-0.9v-3.2c0-0.4-0.2-0.5-0.5-0.5h-1v-2.1h2.4
				c1.1,0,1.6,0.5,1.6,1.6v13.4c0,0.4,0.2,0.5,0.5,0.5h1v2.1h-2.3c-1.1,0-1.5-0.5-1.5-1.3c0-0.4,0-0.6,0-0.6h0c0,0-1,2.3-4.1,2.3
				c-3.4,0-5.6-2.7-5.6-6.6C322.9,105.9,325.3,103.3,328.7,103.3z M332.6,109.9c0-2.2-1.2-4.5-3.6-4.5c-2,0-3.6,1.6-3.6,4.5
				c0,2.7,1.5,4.5,3.6,4.5C330.9,114.4,332.6,113.1,332.6,109.9z"/>
			<path fill="#1C75BC" d="M344.4,103.3c3.5,0,5.4,2.6,5.4,5.9c0,0.3-0.1,1-0.1,1h-9.2c0.1,2.7,2.1,4.2,4.3,4.2
				c2.2,0,3.7-1.5,3.7-1.5l1,1.7c0,0-1.9,1.8-4.9,1.8c-4,0-6.7-2.9-6.7-6.6C338,105.9,340.8,103.3,344.4,103.3z M347.3,108.4
				c-0.1-2.1-1.4-3.2-3-3.2c-1.8,0-3.3,1.1-3.7,3.2H347.3z"/>
			<path fill="#1C75BC" d="M353,101.2c0-0.4-0.2-0.5-0.6-0.5h-1v-2.1h2.4c1.1,0,1.6,0.5,1.6,1.6v13.4c0,0.4,0.2,0.5,0.5,0.5h1v2.1
				h-2.4c-1.1,0-1.6-0.5-1.6-1.6V101.2z"/>
		</g>
	</g>
	<g>
		<line fill="#006838" x1="222.5" y1="199.1" x2="126.5" y2="199.1"/>
		<g>
			<line fill="none" stroke="#006838" stroke-width="6" stroke-miterlimit="10" x1="222.5" y1="199.1" x2="148" y2="199.1"/>
			<g>
				<polygon fill="#006838" points="152.4,184.1 126.5,199.1 152.4,214 				"/>
			</g>
		</g>
	</g>
	<g>
		<line fill="#006838" x1="137.2" y1="162" x2="235" y2="162"/>
		<g>
			<line fill="none" stroke="#006838" stroke-width="6" stroke-miterlimit="10" x1="137.2" y1="162" x2="213.5" y2="162"/>
			<g>
				<polygon fill="#006838" points="209.1,177 235,162 209.1,147.1 				"/>
			</g>
		</g>
	</g>
	<g>
		<path fill="#006838" d="M456.7,118.3h-24.3c-3.5,0-6.3,2.8-6.3,6.3v97.7c0,3.5,2.8,6.3,6.3,6.3h24.3c3.5,0,6.3-2.8,6.3-6.3v-97.7
			C463.1,121.1,460.2,118.3,456.7,118.3z M452.2,178.2c0,1.2-0.3,1.6-1.4,2l-3.6,1.3v6.5l3.6,1.3c1.1,0.4,1.4,0.8,1.4,2.1v1.4h-2.1
			v-0.4c0-0.4-0.1-0.7-0.5-0.8l-14.9-5.5v-2.6l14.9-5.5c0.5-0.1,0.5-0.4,0.5-0.8v-0.4h2.1V178.2z M452.2,174h-15.5v1.6h-2.1v-7.8
			c0-3.2,2.2-5.5,5.5-5.5s5.6,2.3,5.6,5.5v3.6h6.5V174z M452.2,160.7h-2.1V159h-13.3v1.7h-2.1v-5.8h2.1v1.7h13.3v-1.7h2.1V160.7z"/>
		<path fill="#006838" d="M440.1,164.9c-2.1,0-3.4,1.3-3.4,3.3v3.3h6.8v-3.2C443.6,166.2,442.2,164.9,440.1,164.9z"/>
		<path fill="#006838" d="M437.2,184.9L437.2,184.9c0,0,1.5,0.4,2.5,0.7l5.4,1.9v-5.3l-5.4,1.9C438.8,184.5,437.2,184.9,437.2,184.9
			z"/>
	</g>
	<g>
		<line fill="#006838" x1="565.2" y1="180.5" x2="469.5" y2="180.5"/>
		<g>
			<line fill="none" stroke="#006838" stroke-width="6" stroke-miterlimit="10" x1="565.2" y1="180.5" x2="491" y2="180.5"/>
			<g>
				<polygon fill="#006838" points="495.4,165.6 469.5,180.5 495.4,195.5 				"/>
			</g>
		</g>
	</g>
	<g>
		<line fill="#006838" x1="478.5" y1="143.5" x2="578" y2="143.5"/>
		<g>
			<line fill="none" stroke="#006838" stroke-width="6" stroke-miterlimit="10" x1="478.5" y1="143.5" x2="556.5" y2="143.5"/>
			<g>
				<polygon fill="#006838" points="552.1,158.5 578,143.5 552.1,128.5 				"/>
			</g>
		</g>
	</g>
	<g>
		<path fill="#2BB673" d="M642.8,110.6c-1.8,0-3.3,1.1-3.7,3.2h6.7C645.7,111.8,644.4,110.6,642.8,110.6z"/>
		<path fill="#2BB673" d="M694.6,94.6h-92.9c-5.8,0-10.6,4.7-10.6,10.6v118.6c0,5.8,4.7,10.6,10.6,10.6h92.9
			c5.8,0,10.6-4.7,10.6-10.6V105.1C705.2,99.3,700.4,94.6,694.6,94.6z M631,104h2.2v2.5H631V104z M614.3,122c-5.3,0-8.9-4.1-8.9-9.3
			c0-5.1,3.8-9,8.8-9c2.4,0,6.6,1,6.6,3.8v1.7h-2.3v-1c0-1.5-2.5-2.2-4.3-2.2c-3.5,0-6.3,2.7-6.3,6.6c0,3.8,2.8,6.9,6.4,6.9
			c3.5,0,5.6-2.4,5.6-2.4l1.3,1.8C621.2,119,618.7,122,614.3,122z M628.1,121.7h-2.4c-1.1,0-1.6-0.5-1.6-1.6v-13.4
			c0-0.4-0.2-0.5-0.6-0.5h-1V104h2.4c1.1,0,1.6,0.5,1.6,1.6V119c0,0.4,0.2,0.5,0.6,0.5h1V121.7z M634.9,121.7h-2.4
			c-1.1,0-1.6-0.5-1.6-1.6v-8.4c0-0.4-0.2-0.5-0.6-0.5h-1V109h2.4c1.1,0,1.6,0.5,1.6,1.6v8.4c0,0.4,0.2,0.5,0.6,0.5h1V121.7z
			 M648.2,115.6H639c0.2,2.7,2.1,4.2,4.3,4.2c2.2,0,3.7-1.5,3.7-1.5l1,1.7c0,0-1.9,1.8-4.9,1.8c-4,0-6.7-2.9-6.7-6.6
			c0-4,2.7-6.6,6.3-6.6c3.5,0,5.4,2.6,5.4,5.9C648.3,115,648.2,115.6,648.2,115.6z M664.5,121.7h-2.4c-1.1,0-1.6-0.5-1.6-1.6v-5.9
			c0-1.8-0.4-3.2-2.4-3.2c-1.9,0-3.5,1.3-4,3.1c-0.2,0.5-0.2,1.1-0.2,1.7v5.9h-2.4v-10c0-0.4-0.2-0.5-0.5-0.5h-1V109h2.3
			c1.1,0,1.6,0.5,1.6,1.4v0.5c0,0.4-0.1,0.7-0.1,0.7h0.1c0.5-1.1,2-2.9,4.7-2.9c3,0,4.3,1.6,4.3,4.8v5.5c0,0.4,0.2,0.5,0.5,0.5h1
			V121.7z M672.9,121.7c0,0-0.3,0-0.8,0c-1.6,0-4.8-0.5-4.8-4.7V111h-1.7V109h1.7v-3.5h2.4v3.5h3v1.9h-3v5.8c0,2.5,1.8,2.8,2.7,2.8
			c0.4,0,0.6-0.1,0.6-0.1V121.7z"/>
	</g>
</g>
<g id="Layer_2">
</g>
</svg>
