<?xml version="1.0" encoding="utf-8"?>
<!-- Generator: Adobe Illustrator 18.1.1, SVG Export Plug-In . SVG Version: 6.00 Build 0)  -->
<!DOCTYPE svg PUBLIC "-//W3C//DTD SVG 1.1//EN" "http://www.w3.org/Graphics/SVG/1.1/DTD/svg11.dtd">
<svg version="1.1" xmlns="http://www.w3.org/2000/svg" xmlns:xlink="http://www.w3.org/1999/xlink" x="0px" y="0px"
	 viewBox="0 0 724.5 470" enable-background="new 0 0 724.5 470" xml:space="preserve">
<g id="Layer_1">
</g>
<g id="Layer_2">
</g>
<g id="Layer_3">
</g>
<g id="Layer_4">
	<path fill="#2BB673" d="M427,408.5v-71.3h8V283h-8v-64.1h8v-49.3h-8v-83h8V56.3c0-5.5-4.4-9.9-9.9-9.9h-41.8
		c-5.5,0-9.9,4.4-9.9,9.9v377.3c0,5.5,4.4,9.9,9.9,9.9H425c5.5,0,9.9-4.4,9.9-9.9v-25.1H427z"/>
	<g>
		<path fill="#2BB673" stroke="#006838" stroke-miterlimit="10" d="M254.9,93.7v72c0,5.6,17.2,10.2,38.4,10.2
			c21.2,0,38.4-4.6,38.4-10.2v-72H254.9z"/>
		<ellipse fill="#2BB673" stroke="#006838" stroke-miterlimit="10" cx="293.3" cy="93.7" rx="38.4" ry="10.2"/>
		<g>
			<path fill="#006838" d="M243,69l-1.4,0.5l-0.7-1.9l6.2-2.2c4.6-1.7,8.7,0,10.5,4.8c1.8,4.8-0.3,8.8-4.9,10.4l-3.4,1.2
				c-1,0.4-1.5,0.1-1.9-0.9L243,69z M249.8,79.6l2-0.7c3.4-1.2,4.9-4.1,3.5-7.8c-1.4-3.7-4.3-4.9-7.7-3.7l-2.5,0.9l4,11.1
				C249.3,79.6,249.5,79.7,249.8,79.6z"/>
			<path fill="#006838" d="M267.2,69.7l0.5-0.1l0-0.1c-0.3-2-1.2-2.6-3-2.3c-0.5,0.1-1.9,0.5-1.7,1.2l0.1,0.7l-2.1,0.3l-0.2-1.1
				c-0.3-1.9,2.5-2.6,3.6-2.8c3.7-0.6,5,1.2,5.5,3.7l0.8,4.9c0.1,0.3,0.3,0.5,0.6,0.4l0.9-0.2l0.3,1.9l-2.1,0.3
				c-1,0.2-1.5-0.3-1.6-1.1c-0.1-0.4-0.1-0.7-0.1-0.7l0,0c0,0-0.5,2.4-3.3,2.9c-2,0.3-4.1-0.5-4.5-2.8
				C260.4,71.1,265.3,70,267.2,69.7z M265.6,75.8c1.9-0.3,2.7-2.5,2.5-4.2l-0.1-0.4l-0.6,0.1c-1.7,0.3-4.6,0.9-4.3,3
				C263.3,75.2,264.2,76,265.6,75.8z"/>
			<path fill="#006838" d="M273.8,66.2l-1.5,0.1l-0.2-1.8l1.6-0.1l-0.3-3.2l2.2-0.2l0.3,3.2l2.8-0.3l0.2,1.8l-2.8,0.3l0.5,5.3
				c0.2,2.3,1.8,2.5,2.7,2.4c0.3,0,0.5-0.1,0.5-0.1l0.2,2c0,0-0.3,0.1-0.8,0.1c-1.5,0.1-4.5,0-4.8-3.9L273.8,66.2z"/>
			<path fill="#006838" d="M288.1,67.9l0.5,0l0-0.1c-0.1-2-0.9-2.8-2.7-2.7c-0.6,0-1.9,0.2-1.9,1l0,0.7l-2.1,0.1l0-1.1
				c-0.1-1.9,2.8-2.3,3.9-2.3c3.8-0.1,4.8,1.8,4.9,4.4l0.2,4.9c0,0.3,0.2,0.5,0.5,0.5l0.9,0l0.1,1.9l-2.1,0.1c-1,0-1.5-0.5-1.5-1.3
				c0-0.4,0-0.7,0-0.7l0,0c0,0-0.8,2.3-3.6,2.4c-2,0.1-4-1.1-4.1-3.4C281,68.4,286.1,68,288.1,67.9z M285.7,73.7
				c1.9-0.1,3-2.1,3-3.8l0-0.4l-0.6,0c-1.7,0.1-4.7,0.3-4.6,2.4C283.5,72.9,284.2,73.8,285.7,73.7z"/>
			<path fill="#006838" d="M295,61.2c0-0.3-0.2-0.5-0.5-0.5l-0.9,0l0.1-1.9l2.2,0.1c1,0,1.5,0.5,1.4,1.5l-0.1,3.8c0,0.6-0.1,1-0.1,1
				l0,0c0,0,1.1-1.9,3.8-1.8c3.1,0.1,5,2.7,4.9,6.3c-0.1,3.7-2.4,6-5.5,5.9c-2.6-0.1-3.6-2.1-3.6-2.1l0,0c0,0,0,0.4,0,0.9l0,0.8
				l-2.1-0.1L295,61.2z M300.1,73.6c1.8,0.1,3.4-1.4,3.5-4c0.1-2.5-1.2-4.2-3.2-4.3c-1.7-0.1-3.4,1.1-3.5,4.1
				C296.9,71.4,297.9,73.5,300.1,73.6z"/>
			<path fill="#006838" d="M314.7,69.1l0.5,0.1l0-0.1c0.2-2-0.4-2.8-2.3-3c-0.5-0.1-1.9-0.1-2,0.7l-0.1,0.7l-2.1-0.2l0.1-1.1
				c0.2-1.9,3.1-1.9,4.2-1.7c3.7,0.4,4.5,2.5,4.3,5l-0.5,4.9c0,0.3,0.1,0.5,0.4,0.6l0.9,0.1l-0.2,1.9l-2.1-0.2
				c-1-0.1-1.4-0.7-1.3-1.5c0-0.4,0.1-0.7,0.1-0.7l0,0c0,0-1.2,2.2-3.9,1.9c-2-0.2-3.8-1.6-3.5-4C307.7,68.5,312.7,68.8,314.7,69.1z
				 M311.5,74.5c1.9,0.2,3.3-1.6,3.5-3.3l0-0.4l-0.6-0.1c-1.7-0.2-4.7-0.4-4.9,1.7C309.4,73.3,310,74.3,311.5,74.5z"/>
			<path fill="#006838" d="M320.5,73.9c0,0,1,2,3.1,2.4c1.1,0.2,2.1-0.1,2.3-1.1c0.4-2.1-5.9-3.1-5.1-6.8c0.4-2.2,2.6-2.8,4.9-2.3
				c1.4,0.3,3.6,1.2,3.3,3l-0.2,1.1l-2-0.4l0.1-0.6c0.1-0.7-0.8-1.2-1.5-1.3c-1.3-0.3-2.2,0-2.4,0.9c-0.4,2.2,5.9,2.9,5.1,6.8
				c-0.4,2-2.5,3-4.9,2.5c-3-0.6-4.2-2.9-4.2-2.9L320.5,73.9z"/>
			<path fill="#006838" d="M338.3,69.6c3.1,1.2,3.8,4.1,2.8,6.9c-0.1,0.3-0.4,0.8-0.4,0.8l-7.9-3c-0.8,2.4,0.4,4.3,2.4,5.1
				c1.9,0.7,3.7-0.1,3.7-0.1l0.3,1.8c0,0-2.2,1-4.8,0c-3.4-1.3-4.9-4.7-3.6-7.9C332,69.8,335.2,68.4,338.3,69.6z M339.2,75
				c0.6-1.8-0.2-3.2-1.5-3.7c-1.6-0.6-3.2-0.1-4.3,1.6L339.2,75z"/>
		</g>
		<path fill="#2BB673" stroke="#006838" stroke-miterlimit="10" d="M293.3,128.4c-21.2,0-38.4-4.6-38.4-10.2"/>
		<path fill="#2BB673" stroke="#006838" stroke-miterlimit="10" d="M331.7,118.2c0,5.6-17.2,10.2-38.4,10.2"/>
		<path fill="#2BB673" stroke="#006838" stroke-miterlimit="10" d="M293.3,152.9c-21.2,0-38.4-4.6-38.4-10.2"/>
		<path fill="#2BB673" stroke="#006838" stroke-miterlimit="10" d="M331.7,142.7c0,5.6-17.2,10.2-38.4,10.2"/>
	</g>
	<g>
		<path fill="#2BB673" d="M640.3,197.4c-1.8,0-3.3,1.1-3.7,3.2h6.7C643.2,198.6,641.8,197.4,640.3,197.4z"/>
		<path fill="#2BB673" d="M692,181.4h-92.9c-5.8,0-10.6,4.7-10.6,10.6v118.6c0,5.8,4.7,10.6,10.6,10.6H692c5.8,0,10.6-4.7,10.6-10.6
			V192C702.6,186.1,697.9,181.4,692,181.4z M628.5,190.8h2.2v2.5h-2.2V190.8z M611.7,208.8c-5.3,0-8.9-4.1-8.9-9.3
			c0-5.1,3.8-9,8.8-9c2.4,0,6.6,1,6.6,3.8v1.7H616v-1c0-1.5-2.5-2.2-4.3-2.2c-3.5,0-6.3,2.7-6.3,6.6c0,3.8,2.8,6.9,6.4,6.9
			c3.5,0,5.6-2.4,5.6-2.4l1.3,1.8C618.7,205.8,616.2,208.8,611.7,208.8z M625.5,208.5h-2.4c-1.1,0-1.6-0.5-1.6-1.6v-13.4
			c0-0.4-0.2-0.5-0.6-0.5h-1v-2.1h2.4c1.1,0,1.6,0.5,1.6,1.6v13.4c0,0.4,0.2,0.5,0.6,0.5h1V208.5z M632.4,208.5H630
			c-1.1,0-1.6-0.5-1.6-1.6v-8.4c0-0.4-0.2-0.5-0.6-0.5h-1v-2.1h2.4c1.1,0,1.6,0.5,1.6,1.6v8.4c0,0.4,0.2,0.5,0.6,0.5h1V208.5z
			 M645.7,202.4h-9.2c0.2,2.7,2.1,4.2,4.3,4.2c2.2,0,3.7-1.5,3.7-1.5l1,1.7c0,0-1.9,1.8-4.9,1.8c-4,0-6.7-2.9-6.7-6.6
			c0-4,2.7-6.6,6.3-6.6c3.5,0,5.4,2.6,5.4,5.9C645.7,201.8,645.7,202.4,645.7,202.4z M662,208.5h-2.4c-1.1,0-1.6-0.5-1.6-1.6v-5.9
			c0-1.8-0.4-3.2-2.4-3.2c-1.9,0-3.5,1.3-4,3.1c-0.2,0.5-0.2,1.1-0.2,1.7v5.9H649v-10c0-0.4-0.2-0.5-0.5-0.5h-1v-2.1h2.3
			c1.1,0,1.6,0.5,1.6,1.4v0.5c0,0.4-0.1,0.7-0.1,0.7h0.1c0.5-1.1,2-2.9,4.7-2.9c3,0,4.3,1.6,4.3,4.8v5.5c0,0.4,0.2,0.5,0.5,0.5h1
			V208.5z M670.4,208.5c0,0-0.3,0-0.8,0c-1.6,0-4.8-0.5-4.8-4.7v-6.1h-1.7v-1.9h1.7v-3.5h2.4v3.5h3v1.9h-3v5.8
			c0,2.5,1.8,2.8,2.7,2.8c0.4,0,0.6-0.1,0.6-0.1V208.5z"/>
	</g>
	<g>
		<path fill="#006838" d="M452.6,192.2h-24.3c-3.5,0-6.3,2.8-6.3,6.3v97.7c0,3.5,2.8,6.3,6.3,6.3h24.3c3.5,0,6.3-2.8,6.3-6.3v-97.7
			C459,195,456.1,192.2,452.6,192.2z M448.1,252.1c0,1.2-0.3,1.6-1.4,2l-3.6,1.3v6.5l3.6,1.3c1.1,0.4,1.4,0.8,1.4,2.1v1.4H446v-0.4
			c0-0.4-0.1-0.7-0.5-0.8l-14.9-5.5v-2.6l14.9-5.5c0.5-0.1,0.5-0.4,0.5-0.8v-0.4h2.1V252.1z M448.1,247.9h-15.5v1.6h-2.1v-7.8
			c0-3.2,2.2-5.5,5.5-5.5s5.6,2.3,5.6,5.5v3.6h6.5V247.9z M448.1,234.6H446v-1.7h-13.3v1.7h-2.1v-5.8h2.1v1.7H446v-1.7h2.1V234.6z"
			/>
		<path fill="#006838" d="M436,238.8c-2.1,0-3.4,1.3-3.4,3.3v3.3h6.8v-3.2C439.5,240,438.1,238.8,436,238.8z"/>
		<path fill="#006838" d="M433.1,258.7L433.1,258.7c0,0,1.5,0.4,2.5,0.7l5.4,1.9v-5.3l-5.4,1.9C434.7,258.4,433.1,258.7,433.1,258.7
			z"/>
	</g>
	<g>
		<path fill="#006838" d="M452.1,67.7h-24.3c-3.5,0-6.3,2.8-6.3,6.3v97.7c0,3.5,2.8,6.3,6.3,6.3h24.3c3.5,0,6.3-2.8,6.3-6.3V74
			C458.5,70.5,455.6,67.7,452.1,67.7z M447.6,127.6c0,1.2-0.3,1.6-1.4,2l-3.6,1.3v6.5l3.6,1.3c1.1,0.4,1.4,0.8,1.4,2.1v1.4h-2.1
			v-0.4c0-0.4-0.1-0.7-0.5-0.8l-14.9-5.5v-2.6l14.9-5.5c0.5-0.1,0.5-0.4,0.5-0.8v-0.4h2.1V127.6z M447.6,123.4h-15.5v1.6H430v-7.8
			c0-3.2,2.2-5.5,5.5-5.5s5.6,2.3,5.6,5.5v3.6h6.5V123.4z M447.6,110.1h-2.1v-1.7h-13.3v1.7H430v-5.8h2.1v1.7h13.3v-1.7h2.1V110.1z"
			/>
		<path fill="#006838" d="M435.5,114.3c-2.1,0-3.4,1.3-3.4,3.3v3.3h6.8v-3.2C439,115.5,437.6,114.3,435.5,114.3z"/>
		<path fill="#006838" d="M432.6,134.2L432.6,134.2c0,0,1.5,0.4,2.5,0.7l5.4,1.9v-5.3l-5.4,1.9C434.2,133.9,432.6,134.2,432.6,134.2
			z"/>
	</g>
	<g>
		<path fill="#2BB673" stroke="#006838" stroke-miterlimit="10" d="M38.2,223.8v72c0,5.6,17.2,10.2,38.4,10.2
			c21.2,0,38.4-4.6,38.4-10.2v-72H38.2z"/>
		<ellipse fill="#2BB673" stroke="#006838" stroke-miterlimit="10" cx="76.6" cy="223.8" rx="38.4" ry="10.2"/>
		<g>
			<path fill="#006838" d="M22.8,206l-1.2,0.6l-0.8-1.5l7.4-3.8c0.8-0.4,1.3-0.3,1.7,0.5l0.8,1.6l-1.6,0.8l-0.4-0.8
				c-0.1-0.3-0.3-0.3-0.6-0.2l-3.6,1.9l2,3.9l4.4-2.3l0.8,1.5l-4.4,2.3l1.9,3.6c0.1,0.2,0.3,0.3,0.6,0.2l3.7-1.9
				c0.2-0.1,0.3-0.3,0.2-0.6l-0.4-0.8l1.6-0.8l0.8,1.6c0.4,0.8,0.3,1.3-0.5,1.7l-5.6,2.9c-0.8,0.4-1.3,0.3-1.7-0.5L22.8,206z"/>
			<path fill="#006838" d="M35.2,205.2c-0.2-0.3-0.4-0.3-0.7-0.2l-0.2,0.1l-0.4-1.6l1-0.3c0.9-0.2,1.3-0.1,1.7,0.6l3.6,5.1
				c0.3,0.5,0.7,1.2,0.7,1.2l0,0c0,0,0-0.8,0-1.4l0.6-6.2c0.1-0.9,0.4-1.2,1.2-1.4l0.9-0.2l0.4,1.6l-0.2,0c-0.3,0.1-0.5,0.2-0.5,0.6
				l-1,8.6l-2.2,0.6L35.2,205.2z"/>
			<path fill="#006838" d="M50.1,199.6c2.8-0.4,4.6,1.4,5,4c0,0.3,0.1,0.8,0.1,0.8l-7.3,1.1c0.4,2.1,2.2,3.1,4,2.8
				c1.7-0.3,2.7-1.6,2.7-1.6l1,1.2c0,0-1.3,1.7-3.6,2.1c-3.2,0.5-5.7-1.5-6.1-4.4C45.4,202.5,47.3,200.1,50.1,199.6z M53.1,203.3
				c-0.3-1.7-1.5-2.4-2.7-2.2c-1.5,0.2-2.5,1.3-2.6,3L53.1,203.3z"/>
			<path fill="#006838" d="M57.7,201c0-0.3-0.2-0.4-0.5-0.4l-0.8,0.1l-0.1-1.7l1.9-0.1c0.9-0.1,1.3,0.3,1.4,1l0,0.4
				c0,0.3,0,0.6,0,0.6l0,0c0.3-0.9,1.4-2.4,3.6-2.6c2.4-0.2,3.6,1,3.8,3.6l0.3,4.4c0,0.3,0.2,0.4,0.5,0.4l0.8-0.1l0.1,1.7l-1.9,0.1
				c-0.9,0.1-1.3-0.3-1.4-1.2l-0.4-4.7c-0.1-1.4-0.5-2.5-2.1-2.4c-1.6,0.1-2.7,1.2-3,2.7c-0.1,0.4-0.1,0.9-0.1,1.4l0.4,4.7l-1.9,0.1
				L57.7,201z"/>
			<path fill="#006838" d="M70.5,199.7l-1.3,0l0-1.6l1.4,0l-0.1-2.8l1.9,0l0.1,2.8l2.4-0.1l0,1.6l-2.4,0.1l0.1,4.6
				c0,2,1.4,2.2,2.2,2.2c0.3,0,0.5,0,0.5,0l0,1.7c0,0-0.3,0-0.7,0.1c-1.3,0-3.9-0.3-3.9-3.7L70.5,199.7z"/>
			<path fill="#006838" d="M83.1,204.9c0,0,1.3,1.8,3.4,1.9c1.3,0.1,2.5-0.7,2.5-2c0.2-3-6.7-2.9-6.5-7.2c0.1-2.1,2.1-3.7,4.7-3.5
				c1.5,0.1,4,0.9,3.9,2.8l-0.1,1.2l-1.8-0.1l0-0.7c0-0.7-1-1.3-2.1-1.4c-1.5-0.1-2.5,0.7-2.6,1.8c-0.1,2.9,6.7,2.6,6.4,7.2
				c-0.1,2.2-1.9,3.9-4.7,3.8c-3-0.2-4.6-2.3-4.6-2.3L83.1,204.9z"/>
			<path fill="#006838" d="M94.2,200.4l-1.3-0.1l0.2-1.6l1.4,0.1l0.3-2.8l1.9,0.2l-0.3,2.8l2.4,0.3l-0.2,1.6l-2.4-0.3l-0.5,4.6
				c-0.2,2,1.2,2.4,1.9,2.5c0.3,0,0.5,0,0.5,0l-0.2,1.7c0,0-0.3,0-0.7,0c-1.3-0.1-3.8-0.8-3.4-4.2L94.2,200.4z"/>
			<path fill="#006838" d="M106,200.1c3,0.5,5,3.1,4.5,6.1c-0.5,3-3.3,4.8-6.3,4.3c-3-0.5-5-3.1-4.4-6.2
				C100.3,201.4,103,199.6,106,200.1z M104.5,208.9c1.9,0.3,3.7-0.9,4.1-3c0.4-2.1-0.9-3.8-2.8-4.1c-1.9-0.3-3.7,0.9-4,3
				C101.3,206.8,102.6,208.6,104.5,208.9z"/>
			<path fill="#006838" d="M113.8,204.1c0.1-0.3,0-0.5-0.3-0.5l-0.8-0.2l0.5-1.6l1.8,0.5c0.8,0.2,1.2,0.7,0.9,1.5l-0.2,0.6
				c-0.1,0.4-0.2,0.7-0.2,0.7l0,0c0.9-1.3,2.3-2.1,3.8-1.7c0.3,0.1,0.5,0.2,0.5,0.2l-0.5,1.8c0,0-0.2-0.1-0.5-0.2
				c-1.2-0.3-2.5,0.2-3.4,1.5c-0.3,0.5-0.6,1.1-0.7,1.7l-1.1,4l-1.9-0.5L113.8,204.1z"/>
			<path fill="#006838" d="M126.5,206.3c2.5,1.3,2.9,3.9,1.7,6.2c-0.1,0.2-0.4,0.7-0.4,0.7l-6.5-3.4c-0.9,2-0.1,3.8,1.5,4.6
				c1.5,0.8,3.2,0.3,3.2,0.3l0.1,1.6c0,0-2,0.6-4.1-0.5c-2.8-1.5-3.7-4.5-2.3-7.2C121,205.8,123.9,205,126.5,206.3z M126.7,211.1
				c0.7-1.5,0.2-2.8-0.9-3.4c-1.3-0.7-2.8-0.4-3.8,0.9L126.7,211.1z"/>
		</g>
		<path fill="#2BB673" stroke="#006838" stroke-miterlimit="10" d="M76.6,258.5c-21.2,0-38.4-4.6-38.4-10.2"/>
		<path fill="#2BB673" stroke="#006838" stroke-miterlimit="10" d="M115,248.3c0,5.6-17.2,10.2-38.4,10.2"/>
		<path fill="#2BB673" stroke="#006838" stroke-miterlimit="10" d="M76.6,283c-21.2,0-38.4-4.6-38.4-10.2"/>
		<path fill="#2BB673" stroke="#006838" stroke-miterlimit="10" d="M115,272.8c0,5.6-17.2,10.2-38.4,10.2"/>
	</g>
	<g>
		<line fill="#006838" x1="135.1" y1="180.2" x2="223.5" y2="120"/>
		<g>
			<line fill="none" stroke="#006838" stroke-width="7" stroke-miterlimit="10" x1="135.1" y1="180.2" x2="202.8" y2="134.1"/>
			<g>
				<polygon fill="#006838" points="208.4,151.4 223.5,120 188.7,122.6 				"/>
			</g>
		</g>
	</g>
	<g>
		<line fill="#006838" x1="345.5" y1="125.4" x2="414.3" y2="125.4"/>
		<g>
			<line fill="none" stroke="#006838" stroke-width="7" stroke-miterlimit="10" x1="345.5" y1="125.4" x2="389.2" y2="125.4"/>
			<g>
				<polygon fill="#006838" points="384.1,142.9 414.3,125.4 384.1,108 				"/>
			</g>
		</g>
	</g>
	<g>
		<line fill="#006838" x1="493.1" y1="256" x2="570.9" y2="256"/>
		<g>
			<line fill="none" stroke="#006838" stroke-width="7" stroke-miterlimit="10" x1="493.1" y1="256" x2="545.8" y2="256"/>
			<g>
				<polygon fill="#006838" points="540.7,273.5 570.9,256 540.7,238.5 				"/>
			</g>
		</g>
	</g>
	<g>
		<path fill="#2BB673" stroke="#006838" stroke-miterlimit="10" d="M252.6,221v72c0,5.6,17.2,10.2,38.4,10.2s38.4-4.6,38.4-10.2v-72
			H252.6z"/>
		<ellipse fill="#2BB673" stroke="#006838" stroke-miterlimit="10" cx="291" cy="221" rx="38.4" ry="10.2"/>
		<g>
			<path fill="#006838" d="M232.5,207.3l-1,0.8l-1.1-1.3l6.4-5.3c0.7-0.6,1.2-0.5,1.8,0.2l1.1,1.4l-1.4,1.2l-0.6-0.7
				c-0.2-0.2-0.4-0.2-0.6-0.1L234,206l2.8,3.4l3.8-3.1l1.1,1.3l-3.8,3.1l2.6,3.2c0.2,0.2,0.4,0.2,0.6,0.1l3.2-2.6
				c0.2-0.2,0.2-0.4,0.1-0.6l-0.6-0.7l1.4-1.2l1.1,1.4c0.6,0.7,0.5,1.2-0.2,1.8l-4.8,4c-0.7,0.6-1.2,0.5-1.8-0.2L232.5,207.3z"/>
			<path fill="#006838" d="M244.3,200.3c-0.1-0.3-0.3-0.4-0.6-0.3l-0.8,0.3l-0.6-1.5l1.8-0.7c0.8-0.3,1.3-0.1,1.7,0.7l3.9,10
				c0.1,0.3,0.3,0.4,0.6,0.3l0.8-0.3l0.6,1.5l-1.8,0.7c-0.8,0.3-1.3,0.1-1.7-0.7L244.3,200.3z"/>
			<path fill="#006838" d="M256.8,202.5l0.4-0.1l0-0.1c-0.4-1.7-1.2-2.2-2.7-1.8c-0.5,0.1-1.6,0.5-1.4,1.1l0.1,0.6l-1.8,0.4l-0.2-1
				c-0.4-1.6,2-2.4,3-2.7c3.2-0.8,4.4,0.7,5,2.9l1,4.2c0.1,0.3,0.3,0.4,0.5,0.3l0.8-0.2l0.4,1.6l-1.8,0.4c-0.9,0.2-1.3-0.1-1.5-0.8
				c-0.1-0.3-0.1-0.6-0.1-0.6l0,0c0,0-0.3,2.1-2.7,2.7c-1.7,0.4-3.6-0.2-4.1-2.2C250.9,204.1,255.1,202.9,256.8,202.5z M255.8,207.8
				c1.6-0.4,2.2-2.3,1.9-3.8l-0.1-0.3l-0.5,0.1c-1.4,0.3-4,1-3.5,2.9C253.8,207.5,254.5,208.2,255.8,207.8z"/>
			<path fill="#006838" d="M263,204.7c0,0,1.4,1.3,3.2,1c0.9-0.1,1.7-0.7,1.5-1.5c-0.3-1.8-5.7-0.8-6.2-4c-0.3-1.9,1.3-3.1,3.3-3.4
				c1.2-0.2,3.3-0.1,3.6,1.4l0.1,0.9l-1.7,0.3l-0.1-0.5c-0.1-0.6-1-0.7-1.6-0.6c-1.1,0.2-1.8,0.7-1.7,1.5c0.3,1.9,5.7,0.7,6.2,4
				c0.3,1.8-1.1,3.2-3.2,3.5c-2.7,0.4-4.3-1.2-4.3-1.2L263,204.7z"/>
			<path fill="#006838" d="M271.7,197.8l-1.3,0.1l-0.1-1.6l1.4-0.1l-0.3-2.8l1.9-0.2l0.3,2.8l2.4-0.2l0.1,1.6l-2.4,0.2l0.4,4.6
				c0.2,2,1.6,2.1,2.3,2.1c0.3,0,0.5-0.1,0.5-0.1l0.2,1.7c0,0-0.3,0.1-0.7,0.1c-1.3,0.1-3.9,0-4.2-3.4L271.7,197.8z"/>
			<path fill="#006838" d="M278.9,197.8c0-0.3-0.2-0.4-0.5-0.4l-0.8,0l-0.1-1.7l1.9-0.1c0.9-0.1,1.3,0.3,1.4,1.2l0.4,6.7
				c0,0.3,0.2,0.4,0.5,0.4l0.8,0l0.1,1.7l-1.9,0.1c-0.9,0.1-1.3-0.3-1.4-1.2L278.9,197.8z M278.6,191.7l1.7-0.1l0.1,2l-1.7,0.1
				L278.6,191.7z"/>
			<path fill="#006838" d="M284.4,202.7c0,0,1.2,1.5,3.1,1.4c0.9,0,1.8-0.5,1.7-1.3c0-1.8-5.6-1.5-5.6-4.8c0-1.9,1.6-2.9,3.7-2.9
				c1.2,0,3.3,0.4,3.4,1.9l0,1l-1.7,0l0-0.5c0-0.6-0.9-0.8-1.5-0.8c-1.1,0-1.9,0.4-1.9,1.2c0,1.9,5.5,1.4,5.6,4.8c0,1.8-1.5,3-3.7,3
				c-2.7,0-4.1-1.7-4.1-1.7L284.4,202.7z"/>
			<path fill="#006838" d="M298,195.2c2.8,0.1,4.3,2.3,4.2,4.9c0,0.3-0.1,0.8-0.1,0.8l-7.4-0.2c0,2.2,1.6,3.4,3.4,3.5
				c1.7,0.1,3-1.1,3-1.1l0.8,1.4c0,0-1.5,1.4-3.9,1.3c-3.2-0.1-5.3-2.5-5.2-5.5C292.9,197.1,295.1,195.1,298,195.2z M300.2,199.4
				c0-1.7-1-2.6-2.3-2.7c-1.5,0-2.7,0.8-3.1,2.5L300.2,199.4z"/>
			<path fill="#006838" d="M310.1,200.1l0.4,0l0-0.1c0.2-1.8-0.4-2.5-2-2.6c-0.5,0-1.7,0-1.7,0.6l-0.1,0.6l-1.8-0.2l0.1-1
				c0.2-1.7,2.7-1.7,3.7-1.6c3.3,0.3,4,2.1,3.8,4.3l-0.4,4.3c0,0.3,0.1,0.5,0.4,0.5l0.8,0.1l-0.2,1.7l-1.8-0.2
				c-0.9-0.1-1.2-0.6-1.1-1.3c0-0.3,0.1-0.6,0.1-0.6l0,0c0,0-1,1.9-3.4,1.7c-1.7-0.2-3.3-1.4-3.1-3.4
				C304,199.7,308.4,199.9,310.1,200.1z M307.4,204.8c1.6,0.2,2.9-1.5,3-2.9l0-0.3l-0.5,0c-1.5-0.1-4.1-0.3-4.3,1.5
				C305.6,203.8,306.1,204.7,307.4,204.8z"/>
			<path fill="#006838" d="M316.2,199.1c0-0.3-0.1-0.5-0.4-0.5l-0.8-0.1l0.3-1.6l1.8,0.3c0.9,0.1,1.2,0.6,1.1,1.4l-0.1,0.6
				c-0.1,0.4-0.2,0.7-0.2,0.7l0,0c0.7-1.4,2-2.3,3.6-2.1c0.3,0,0.5,0.1,0.5,0.1l-0.3,1.9c0,0-0.2-0.1-0.6-0.2
				c-1.2-0.2-2.5,0.5-3.2,1.9c-0.3,0.5-0.4,1.1-0.5,1.8l-0.7,4.1L315,207L316.2,199.1z"/>
			<path fill="#006838" d="M328.8,199.2c1.2,0.3,3.4,1.4,3,3l-0.3,1l-1.7-0.4l0.1-0.5c0.2-0.7-0.9-1.3-1.6-1.5
				c-1.9-0.5-3.7,0.6-4.2,2.7c-0.6,2.2,0.8,3.9,2.6,4.3c1.8,0.5,3.4-0.6,3.4-0.6l0.5,1.5c0,0-1.8,1.3-4.4,0.7
				c-3.1-0.8-4.7-3.5-4-6.4C322.9,200.1,325.6,198.4,328.8,199.2z"/>
			<path fill="#006838" d="M336.9,199.7c0.1-0.3,0.1-0.5-0.2-0.6l-0.7-0.4l0.8-1.5l1.7,0.9c0.8,0.4,1,0.9,0.6,1.7l-1.8,3.5
				c-0.2,0.4-0.4,0.7-0.4,0.7l0,0c0.8-0.7,2.6-1.2,4.4-0.3c2.1,1.1,2.5,2.7,1.3,5l-2,3.9c-0.1,0.3-0.1,0.5,0.2,0.6l0.7,0.4l-0.7,1.5
				l-1.7-0.9c-0.8-0.4-1-0.9-0.6-1.7l2.2-4.2c0.6-1.3,0.9-2.4-0.6-3.1c-1.4-0.7-2.9-0.3-4,0.8c-0.3,0.3-0.5,0.7-0.8,1.1l-2.1,4.2
				l-1.7-0.9L336.9,199.7z"/>
		</g>
		<path fill="#2BB673" stroke="#006838" stroke-miterlimit="10" d="M291,255.7c-21.2,0-38.4-4.6-38.4-10.2"/>
		<path fill="#2BB673" stroke="#006838" stroke-miterlimit="10" d="M329.4,245.5c0,5.6-17.2,10.2-38.4,10.2"/>
		<path fill="#2BB673" stroke="#006838" stroke-miterlimit="10" d="M291,280.2c-21.2,0-38.4-4.6-38.4-10.2"/>
		<path fill="#2BB673" stroke="#006838" stroke-miterlimit="10" d="M329.4,270c0,5.6-17.2,10.2-38.4,10.2"/>
	</g>
	<g>
		<path fill="#2BB673" stroke="#006838" stroke-miterlimit="10" d="M252.6,347.4v72c0,5.6,17.2,10.2,38.4,10.2s38.4-4.6,38.4-10.2
			v-72H252.6z"/>
		<ellipse fill="#2BB673" stroke="#006838" stroke-miterlimit="10" cx="291" cy="347.4" rx="38.4" ry="10.2"/>
		<g>
			<path fill="#006838" d="M248.1,335.9l0.3-0.1c0.3-0.1,0.5-0.2,0.5-0.6l1.1-12.7l2-0.6l7.4,10.4c0.2,0.3,0.4,0.3,0.8,0.3l0.3-0.1
				l0.5,1.7l-1.1,0.3c-1,0.3-1.3,0.1-1.9-0.7l-1.8-2.5l-5,1.4l-0.3,3.1c-0.1,1-0.3,1.3-1.3,1.6l-1.1,0.3L248.1,335.9z M255.2,329.8
				l-2.6-3.7c-0.4-0.6-1.1-1.8-1.1-1.8l0,0c0,0,0.1,1.3,0,2.1l-0.3,4.6L255.2,329.8z"/>
			<path fill="#006838" d="M261.3,326.1c0-0.3-0.2-0.4-0.5-0.4l-0.8,0.1l-0.2-1.6l1.8-0.3c0.9-0.1,1.3,0.2,1.4,0.9l0.1,0.4
				c0,0.3,0,0.6,0,0.6l0,0c0.3-0.9,1.3-2.5,3.4-2.8c2.4-0.3,3.6,0.8,4,3.3l0.6,4.3c0,0.3,0.2,0.4,0.5,0.4l0.8-0.1l0.2,1.6l-1.9,0.3
				c-0.9,0.1-1.3-0.2-1.4-1.1l-0.7-4.7c-0.2-1.4-0.6-2.5-2.2-2.2c-1.5,0.2-2.6,1.4-2.8,2.9c-0.1,0.4-0.1,0.9,0,1.4l0.7,4.7l-1.9,0.3
				L261.3,326.1z"/>
			<path fill="#006838" d="M279.3,325.8l0.4,0l0-0.1c-0.1-1.8-0.8-2.4-2.4-2.3c-0.5,0-1.6,0.2-1.6,0.9l0,0.6l-1.8,0.1l-0.1-1
				c-0.1-1.7,2.4-2.1,3.4-2.1c3.3-0.2,4.3,1.4,4.4,3.7l0.3,4.3c0,0.3,0.2,0.4,0.5,0.4l0.8-0.1l0.1,1.7l-1.8,0.1
				c-0.9,0.1-1.3-0.4-1.3-1.1c0-0.3,0-0.6,0-0.6l0,0c0,0-0.7,2.1-3.1,2.2c-1.7,0.1-3.5-0.8-3.6-2.8
				C273.2,326.4,277.6,325.9,279.3,325.8z M277.4,330.9c1.6-0.1,2.6-1.9,2.5-3.4l0-0.3l-0.5,0c-1.5,0.1-4.1,0.4-4,2.2
				C275.4,330.3,276.1,331,277.4,330.9z"/>
			<path fill="#006838" d="M285,319.8c0-0.3-0.2-0.4-0.5-0.4l-0.8,0l0-1.7l1.9,0c0.9,0,1.3,0.3,1.3,1.2l0.3,10.7
				c0,0.3,0.2,0.4,0.5,0.4l0.8,0l0,1.7l-1.9,0c-0.9,0-1.3-0.3-1.3-1.2L285,319.8z"/>
			<path fill="#006838" d="M291.2,334.3c0.8,0,1.4-0.5,1.8-1.4l0.5-1.1l-3.3-8.1c-0.1-0.3-0.3-0.4-0.6-0.4l-0.2,0l0-1.7l1.1,0
				c0.8,0,1.1,0.2,1.4,1l2.2,5.7c0.2,0.5,0.3,1.2,0.3,1.2l0,0c0,0,0.2-0.7,0.4-1.2l2.2-5.7c0.3-0.8,0.7-1,1.5-1l1.2,0l0,1.7l-0.3,0
				c-0.3,0-0.5,0.1-0.6,0.4l-4.2,9.8c-0.6,1.5-1.9,2.3-3.3,2.3c-1.5,0-2.4-1-2.4-1l0.8-1.4C289.7,333.5,290.3,334.3,291.2,334.3z"/>
			<path fill="#006838" d="M301.9,323.5l-1.3-0.1l0.1-1.6l1.4,0.1l0.2-2.8l1.9,0.1l-0.2,2.8l2.4,0.2l-0.1,1.6l-2.4-0.2l-0.3,4.6
				c-0.1,2,1.3,2.4,2,2.4c0.3,0,0.5,0,0.5,0l-0.1,1.7c0,0-0.3,0-0.7,0c-1.3-0.1-3.8-0.6-3.6-4L301.9,323.5z"/>
			<path fill="#006838" d="M309.1,324.6c0-0.3-0.1-0.5-0.4-0.5l-0.8-0.1l0.2-1.7l1.9,0.2c0.9,0.1,1.2,0.5,1.1,1.4l-0.7,6.7
				c0,0.3,0.1,0.5,0.4,0.5l0.8,0.1l-0.2,1.7l-1.9-0.2c-0.9-0.1-1.2-0.5-1.1-1.4L309.1,324.6z M309.8,318.5l1.7,0.2l-0.2,2l-1.7-0.2
				L309.8,318.5z"/>
			<path fill="#006838" d="M319.5,323.6c1.2,0.2,3.5,1.1,3.2,2.8l-0.2,1l-1.7-0.3l0.1-0.6c0.1-0.7-1-1.2-1.7-1.3c-2-0.3-3.6,0.9-4,3
				c-0.4,2.3,1.1,3.8,2.9,4.1c1.9,0.3,3.3-0.9,3.3-0.9l0.6,1.5c0,0-1.7,1.5-4.3,1.1c-3.1-0.5-5-3.1-4.5-6.1
				C313.8,325,316.3,323.1,319.5,323.6z"/>
			<path fill="#006838" d="M324.2,332.1c0,0,0.8,1.8,2.6,2.2c0.9,0.2,1.8,0,2-0.8c0.5-1.8-4.9-3-4.1-6.1c0.5-1.9,2.4-2.3,4.4-1.8
				c1.2,0.3,3.1,1.2,2.7,2.7l-0.2,0.9l-1.7-0.4l0.1-0.5c0.2-0.6-0.7-1.1-1.3-1.2c-1.1-0.3-1.9-0.1-2.1,0.7c-0.5,1.9,5,2.8,4.1,6.1
				c-0.5,1.7-2.3,2.5-4.3,1.9c-2.6-0.7-3.5-2.7-3.5-2.7L324.2,332.1z"/>
		</g>
		<path fill="#2BB673" stroke="#006838" stroke-miterlimit="10" d="M291,382.1c-21.2,0-38.4-4.6-38.4-10.2"/>
		<path fill="#2BB673" stroke="#006838" stroke-miterlimit="10" d="M329.4,371.9c0,5.6-17.2,10.2-38.4,10.2"/>
		<path fill="#2BB673" stroke="#006838" stroke-miterlimit="10" d="M291,406.6c-21.2,0-38.4-4.6-38.4-10.2"/>
		<path fill="#2BB673" stroke="#006838" stroke-miterlimit="10" d="M329.4,396.4c0,5.6-17.2,10.2-38.4,10.2"/>
	</g>
	<g>
		<line fill="#006838" x1="140.4" y1="260" x2="218.3" y2="260"/>
		<g>
			<line fill="none" stroke="#006838" stroke-width="7" stroke-miterlimit="10" x1="140.4" y1="260" x2="193.1" y2="260"/>
			<g>
				<polygon fill="#006838" points="188,277.4 218.3,260 188,242.5 				"/>
			</g>
		</g>
	</g>
	<g>
		<line fill="#006838" x1="137.2" y1="324.8" x2="225.7" y2="384.8"/>
		<g>
			<line fill="none" stroke="#006838" stroke-width="7" stroke-miterlimit="10" x1="137.2" y1="324.8" x2="204.9" y2="370.8"/>
			<g>
				<polygon fill="#006838" points="190.9,382.3 225.7,384.8 210.5,353.4 				"/>
			</g>
		</g>
	</g>
	<g>
		<path fill="#006838" d="M453.1,316.7h-24.3c-3.5,0-6.3,2.8-6.3,6.3v97.7c0,3.5,2.8,6.3,6.3,6.3h24.3c3.5,0,6.3-2.8,6.3-6.3v-97.7
			C459.5,319.5,456.6,316.7,453.1,316.7z M448.6,376.6c0,1.2-0.3,1.6-1.4,2l-3.6,1.3v6.5l3.6,1.3c1.1,0.4,1.4,0.8,1.4,2.1v1.4h-2.1
			v-0.4c0-0.4-0.1-0.7-0.5-0.8l-14.9-5.5V382l14.9-5.5c0.5-0.1,0.5-0.4,0.5-0.8v-0.4h2.1V376.6z M448.6,372.4h-15.5v1.6H431v-7.8
			c0-3.2,2.2-5.5,5.5-5.5s5.6,2.3,5.6,5.5v3.6h6.5V372.4z M448.6,359.1h-2.1v-1.7h-13.3v1.7H431v-5.8h2.1v1.7h13.3v-1.7h2.1V359.1z"
			/>
		<path fill="#006838" d="M436.5,363.3c-2.1,0-3.4,1.3-3.4,3.3v3.3h6.8v-3.2C440,364.6,438.6,363.3,436.5,363.3z"/>
		<path fill="#006838" d="M433.6,383.3L433.6,383.3c0,0,1.5,0.4,2.5,0.7l5.4,1.9v-5.3l-5.4,1.9C435.2,382.9,433.6,383.3,433.6,383.3
			z"/>
	</g>
	<g>
		<line fill="#006838" x1="345.5" y1="253.4" x2="414.3" y2="253.4"/>
		<g>
			<line fill="none" stroke="#006838" stroke-width="7" stroke-miterlimit="10" x1="345.5" y1="253.4" x2="389.2" y2="253.4"/>
			<g>
				<polygon fill="#006838" points="384.1,270.8 414.3,253.4 384.1,235.9 				"/>
			</g>
		</g>
	</g>
	<g>
		<line fill="#006838" x1="345.5" y1="376.1" x2="414.3" y2="376.1"/>
		<g>
			<line fill="none" stroke="#006838" stroke-width="7" stroke-miterlimit="10" x1="345.5" y1="376.1" x2="389.2" y2="376.1"/>
			<g>
				<polygon fill="#006838" points="384.1,393.6 414.3,376.1 384.1,358.7 				"/>
			</g>
		</g>
	</g>
</g>
</svg>
