<?xml version="1.0" encoding="utf-8"?>
<!-- Generator: Adobe Illustrator 18.1.1, SVG Export Plug-In . SVG Version: 6.00 Build 0)  -->
<!DOCTYPE svg PUBLIC "-//W3C//DTD SVG 1.1//EN" "http://www.w3.org/Graphics/SVG/1.1/DTD/svg11.dtd">
<svg version="1.1" xmlns="http://www.w3.org/2000/svg" xmlns:xlink="http://www.w3.org/1999/xlink" x="0px" y="0px"
	 viewBox="0 0 724.5 413.3" enable-background="new 0 0 724.5 413.3" xml:space="preserve">
<g id="Layer_1">
</g>
<g id="Layer_2">
</g>
<g id="Layer_3">
	<path fill="#2BB673" d="M420.2,336.7v-73.6h11.1v-98.4h-11.1V82h11.1V52.3c0-5.5-4.4-9.9-9.9-9.9H167.6c-5.5,0-9.9,4.4-9.9,9.9
		v314.5c0,5.5,4.4,9.9,9.9,9.9h253.9c5.5,0,9.9-4.4,9.9-9.9v-30.1H420.2z"/>
	<g>
		<path fill="#2BB673" stroke="#006838" stroke-miterlimit="10" d="M31.3,79v72c0,5.6,17.2,10.2,38.4,10.2
			c21.2,0,38.4-4.6,38.4-10.2V79H31.3z"/>
		<ellipse fill="#2BB673" stroke="#006838" stroke-miterlimit="10" cx="69.7" cy="79" rx="38.4" ry="10.2"/>
		<g>
			<path fill="#006838" d="M19.4,54.4L18,54.9L17.3,53l6.2-2.2c4.6-1.7,8.7,0,10.5,4.8c1.8,4.8-0.3,8.8-4.9,10.4l-3.4,1.2
				c-1,0.4-1.5,0.1-1.9-0.9L19.4,54.4z M26.2,65l2-0.7c3.4-1.2,4.9-4.1,3.5-7.8c-1.4-3.7-4.3-4.9-7.7-3.7l-2.5,0.9l4,11.1
				C25.7,65,25.9,65.1,26.2,65z"/>
			<path fill="#006838" d="M43.6,55.1l0.5-0.1l0-0.1c-0.3-2-1.2-2.6-3-2.3c-0.5,0.1-1.9,0.5-1.7,1.2l0.1,0.7l-2.1,0.3l-0.2-1.1
				c-0.3-1.9,2.5-2.6,3.6-2.8c3.7-0.6,5,1.2,5.5,3.7l0.8,4.9c0.1,0.3,0.3,0.5,0.6,0.4l0.9-0.2l0.3,1.9l-2.1,0.3
				c-1,0.2-1.5-0.3-1.6-1.1c-0.1-0.4-0.1-0.7-0.1-0.7l0,0c0,0-0.5,2.4-3.3,2.9c-2,0.3-4.1-0.5-4.5-2.8
				C36.7,56.4,41.7,55.4,43.6,55.1z M42,61.1c1.9-0.3,2.7-2.5,2.5-4.2l-0.1-0.4l-0.6,0.1c-1.7,0.3-4.6,0.9-4.3,3
				C39.7,60.6,40.6,61.4,42,61.1z"/>
			<path fill="#006838" d="M50.2,51.6l-1.5,0.1l-0.2-1.8l1.6-0.1l-0.3-3.2l2.2-0.2l0.3,3.2l2.8-0.3l0.2,1.8l-2.8,0.3l0.5,5.3
				c0.2,2.3,1.8,2.5,2.7,2.4c0.3,0,0.5-0.1,0.5-0.1l0.2,2c0,0-0.3,0.1-0.8,0.1c-1.5,0.1-4.5,0-4.8-3.9L50.2,51.6z"/>
			<path fill="#006838" d="M64.4,53.3l0.5,0l0-0.1c-0.1-2-0.9-2.8-2.7-2.7c-0.6,0-1.9,0.2-1.9,1l0,0.7l-2.1,0.1l0-1.1
				c-0.1-1.9,2.8-2.3,3.9-2.3c3.8-0.1,4.8,1.8,4.9,4.4l0.2,4.9c0,0.3,0.2,0.5,0.5,0.5l0.9,0l0.1,1.9l-2.1,0.1c-1,0-1.5-0.5-1.5-1.3
				c0-0.4,0-0.7,0-0.7l0,0c0,0-0.8,2.3-3.6,2.4c-2,0.1-4-1.1-4.1-3.4C57.4,53.7,62.5,53.3,64.4,53.3z M62.1,59.1
				c1.9-0.1,3-2.1,3-3.8l0-0.4l-0.6,0c-1.7,0.1-4.7,0.3-4.6,2.4C59.9,58.2,60.6,59.1,62.1,59.1z"/>
			<path fill="#006838" d="M71.4,46.6c0-0.3-0.2-0.5-0.5-0.5L70,46l0.1-1.9l2.2,0.1c1,0,1.5,0.5,1.4,1.5l-0.1,3.8c0,0.6-0.1,1-0.1,1
				l0,0c0,0,1.1-1.9,3.8-1.8c3.1,0.1,5,2.7,4.9,6.3c-0.1,3.7-2.4,6-5.5,5.9c-2.6-0.1-3.6-2.1-3.6-2.1l0,0c0,0,0,0.4,0,0.9l0,0.8
				l-2.1-0.1L71.4,46.6z M76.5,58.9c1.8,0.1,3.4-1.4,3.5-4c0.1-2.5-1.2-4.2-3.2-4.3c-1.7-0.1-3.4,1.1-3.5,4.1
				C73.2,56.8,74.3,58.9,76.5,58.9z"/>
			<path fill="#006838" d="M91.1,54.4l0.5,0.1l0-0.1c0.2-2-0.4-2.8-2.3-3c-0.5-0.1-1.9-0.1-2,0.7l-0.1,0.7l-2.1-0.2l0.1-1.1
				c0.2-1.9,3.1-1.9,4.2-1.7c3.7,0.4,4.5,2.5,4.3,5l-0.5,4.9c0,0.3,0.1,0.5,0.4,0.6l0.9,0.1l-0.2,1.9l-2.1-0.2
				c-1-0.1-1.4-0.7-1.3-1.5c0-0.4,0.1-0.7,0.1-0.7l0,0c0,0-1.2,2.2-3.9,1.9c-2-0.2-3.8-1.6-3.5-4C84.1,53.9,89.1,54.2,91.1,54.4z
				 M87.9,59.8c1.9,0.2,3.3-1.6,3.5-3.3l0-0.4L90.8,56c-1.7-0.2-4.7-0.4-4.9,1.7C85.8,58.7,86.4,59.7,87.9,59.8z"/>
			<path fill="#006838" d="M96.9,59.2c0,0,1,2,3.1,2.4c1.1,0.2,2.1-0.1,2.3-1.1c0.4-2.1-5.9-3.1-5.1-6.8c0.4-2.2,2.6-2.8,4.9-2.3
				c1.4,0.3,3.6,1.2,3.3,3l-0.2,1.1l-2-0.4l0.1-0.6c0.1-0.7-0.8-1.2-1.5-1.3c-1.3-0.3-2.2,0-2.4,0.9c-0.4,2.2,5.9,2.9,5.1,6.8
				c-0.4,2-2.5,3-4.9,2.5c-3-0.6-4.2-2.9-4.2-2.9L96.9,59.2z"/>
			<path fill="#006838" d="M114.7,55c3.1,1.2,3.8,4.1,2.8,6.9c-0.1,0.3-0.4,0.8-0.4,0.8l-7.9-3c-0.8,2.4,0.4,4.3,2.4,5.1
				c1.9,0.7,3.7-0.1,3.7-0.1l0.3,1.8c0,0-2.2,1-4.8,0c-3.4-1.3-4.9-4.7-3.6-7.9C108.4,55.1,111.6,53.8,114.7,55z M115.6,60.4
				c0.6-1.8-0.2-3.2-1.5-3.7c-1.6-0.6-3.2-0.1-4.3,1.6L115.6,60.4z"/>
		</g>
		<path fill="#2BB673" stroke="#006838" stroke-miterlimit="10" d="M69.7,113.7c-21.2,0-38.4-4.6-38.4-10.2"/>
		<path fill="#2BB673" stroke="#006838" stroke-miterlimit="10" d="M108.1,103.5c0,5.6-17.2,10.2-38.4,10.2"/>
		<path fill="#2BB673" stroke="#006838" stroke-miterlimit="10" d="M69.7,138.2c-21.2,0-38.4-4.6-38.4-10.2"/>
		<path fill="#2BB673" stroke="#006838" stroke-miterlimit="10" d="M108.1,128c0,5.6-17.2,10.2-38.4,10.2"/>
	</g>
	<g>
		<g>
			<path fill="#1C75BC" d="M254.7,305.3h-36c-4.8,0-8.7-3.9-8.7-8.7v-24c0-4.8,3.9-8.7,8.7-8.7h36c4.8,0,8.7,3.9,8.7,8.7v24
				C263.4,301.4,259.5,305.3,254.7,305.3z"/>
		</g>
		<g>
			<path fill="#1C75BC" d="M386.2,310.8h-36c-4.8,0-8.7-3.9-8.7-8.7v-24c0-4.8,3.9-8.7,8.7-8.7h36c4.8,0,8.7,3.9,8.7,8.7v24
				C394.9,307,391,310.8,386.2,310.8z"/>
		</g>
		<g>
			<path fill="#1C75BC" d="M298.1,317.3c2.3,0,6.4,1,6.4,3.7v1.7h-2.2v-1c0-1.4-2.4-2.1-4.1-2.1c-3.4,0-6,2.6-6,6.4
				c0,3.7,2.7,6.6,6.1,6.6c3.4,0,5.4-2.3,5.4-2.3l1.3,1.7c0,0-2.4,2.8-6.7,2.8c-5.1,0-8.6-3.9-8.6-8.9
				C289.6,321,293.3,317.3,298.1,317.3z"/>
			<path fill="#1C75BC" d="M313,322.1c3.6,0,6.6,2.7,6.6,6.3c0,3.7-2.9,6.4-6.6,6.4c-3.6,0-6.5-2.7-6.5-6.4
				C306.5,324.8,309.4,322.1,313,322.1z M313,332.8c2.3,0,4.2-1.8,4.2-4.4c0-2.5-1.9-4.3-4.2-4.3c-2.3,0-4.2,1.8-4.2,4.3
				C308.9,331,310.7,332.8,313,332.8z"/>
			<path fill="#1C75BC" d="M322.5,324.9c0-0.4-0.2-0.5-0.5-0.5h-1v-2h2.2c1.1,0,1.5,0.5,1.5,1.3v0.5c0,0.4,0,0.7,0,0.7h0
				c0.6-1.4,2.3-2.8,4.2-2.8c2.1,0,3.2,0.9,3.6,2.8h0c0.7-1.5,2.4-2.8,4.3-2.8c2.7,0,4,1.6,4,4.7v5.3c0,0.4,0.2,0.5,0.5,0.5h1v2
				h-2.3c-1.1,0-1.5-0.5-1.5-1.5v-5.7c0-1.7-0.3-3-2.1-3c-1.7,0-3,1.5-3.4,3.1c-0.1,0.5-0.2,1-0.2,1.7v5.5h-2.3v-7.3
				c0-1.6-0.2-3-2.1-3c-1.8,0-3,1.5-3.5,3.2c-0.1,0.5-0.2,1-0.2,1.6v5.5h-2.3V324.9z"/>
			<path fill="#1C75BC" d="M345,324.9c0-0.4-0.2-0.5-0.5-0.5h-1v-2h2.2c1.1,0,1.5,0.5,1.5,1.3v0.5c0,0.4,0,0.7,0,0.7h0
				c0.6-1.4,2.3-2.8,4.2-2.8c2.1,0,3.2,0.9,3.6,2.8h0c0.7-1.5,2.4-2.8,4.3-2.8c2.7,0,4,1.6,4,4.7v5.3c0,0.4,0.2,0.5,0.5,0.5h1v2
				h-2.3c-1.1,0-1.5-0.5-1.5-1.5v-5.7c0-1.7-0.3-3-2.1-3c-1.7,0-3,1.5-3.4,3.1c-0.1,0.5-0.2,1-0.2,1.7v5.5H353v-7.3
				c0-1.6-0.2-3-2.1-3c-1.8,0-3,1.5-3.5,3.2c-0.1,0.5-0.2,1-0.2,1.6v5.5H345V324.9z"/>
			<path fill="#1C75BC" d="M373.6,327h0.5v-0.1c0-2.1-0.8-2.9-2.7-2.9c-0.6,0-2,0.1-2,0.9v0.7h-2.2v-1.2c0-2,3-2.3,4.2-2.3
				c3.9,0,5,2.1,5,4.8v5.2c0,0.4,0.2,0.5,0.5,0.5h1v2h-2.2c-1.1,0-1.5-0.5-1.5-1.4c0-0.4,0-0.7,0-0.7h0c0,0-1,2.4-3.9,2.4
				c-2.1,0-4.1-1.3-4.1-3.7C366.3,327.2,371.6,327,373.6,327z M370.9,333c2,0,3.2-2.1,3.2-3.9v-0.4h-0.6c-1.8,0-4.9,0.1-4.9,2.3
				C368.6,332,369.4,333,370.9,333z"/>
			<path fill="#1C75BC" d="M380.5,324.9c0-0.4-0.2-0.5-0.5-0.5h-1v-2h2.2c1,0,1.5,0.5,1.5,1.3v0.5c0,0.4,0,0.7,0,0.7h0
				c0.5-1.1,1.9-2.8,4.6-2.8c2.9,0,4.2,1.6,4.2,4.7v5.3c0,0.4,0.2,0.5,0.5,0.5h1v2h-2.3c-1.1,0-1.5-0.5-1.5-1.5v-5.7
				c0-1.7-0.3-3-2.3-3c-1.9,0-3.4,1.2-3.8,3c-0.2,0.5-0.2,1-0.2,1.6v5.7h-2.3V324.9z"/>
			<path fill="#1C75BC" d="M399.9,322.1c2.8,0,3.7,1.9,3.7,1.9h0c0,0,0-0.4,0-0.8v-3c0-0.4-0.2-0.5-0.5-0.5h-1v-2h2.3
				c1.1,0,1.5,0.5,1.5,1.5V332c0,0.4,0.2,0.5,0.5,0.5h1v2h-2.2c-1.1,0-1.5-0.5-1.5-1.3c0-0.4,0-0.6,0-0.6h0c0,0-1,2.2-4,2.2
				c-3.3,0-5.4-2.6-5.4-6.4C394.4,324.6,396.7,322.1,399.9,322.1z M403.7,328.5c0-2.2-1.1-4.3-3.5-4.3c-1.9,0-3.5,1.6-3.5,4.3
				c0,2.6,1.4,4.3,3.4,4.3C402,332.8,403.7,331.6,403.7,328.5z"/>
		</g>
		<g>
			<path fill="#1C75BC" d="M202.5,241.3H201v-2.1h10c1.1,0,1.5,0.5,1.5,1.5v2.1h-2.2v-1.1c0-0.4-0.2-0.5-0.5-0.5h-4.8v5.3h5.9v2.1
				h-5.9v4.9c0,0.3,0.2,0.5,0.5,0.5h4.9c0.3,0,0.5-0.2,0.5-0.5v-1.1h2.2v2.1c0,1.1-0.5,1.5-1.5,1.5h-7.5c-1.1,0-1.5-0.5-1.5-1.5
				V241.3z"/>
			<path fill="#1C75BC" d="M214.9,246.5c-0.1-0.4-0.4-0.5-0.7-0.5h-0.2v-2h1.2c1.1,0,1.5,0.3,1.8,1.2l2.6,7c0.2,0.7,0.4,1.6,0.4,1.6
				h0c0,0,0.2-0.9,0.4-1.6l2.6-7c0.4-1,0.8-1.2,1.8-1.2h1.1v2h-0.2c-0.4,0-0.6,0.1-0.8,0.5l-3.7,9.7h-2.7L214.9,246.5z"/>
			<path fill="#1C75BC" d="M233.1,243.8c3.4,0,5.2,2.5,5.2,5.7c0,0.3-0.1,1-0.1,1h-8.9c0.1,2.6,2,4.1,4.2,4.1c2.1,0,3.6-1.4,3.6-1.4
				l1,1.7c0,0-1.8,1.8-4.7,1.8c-3.8,0-6.5-2.8-6.5-6.4C227,246.3,229.6,243.8,233.1,243.8z M235.9,248.7c-0.1-2-1.3-3.1-2.9-3.1
				c-1.8,0-3.2,1.1-3.6,3.1H235.9z"/>
			<path fill="#1C75BC" d="M241.4,246.6c0-0.4-0.2-0.5-0.5-0.5h-1v-2h2.2c1,0,1.5,0.5,1.5,1.3v0.5c0,0.4,0,0.7,0,0.7h0
				c0.5-1.1,1.9-2.8,4.6-2.8c2.9,0,4.2,1.6,4.2,4.7v5.3c0,0.4,0.2,0.5,0.5,0.5h1v2h-2.3c-1.1,0-1.5-0.5-1.5-1.5v-5.7
				c0-1.7-0.3-3-2.3-3c-1.9,0-3.4,1.2-3.8,3c-0.2,0.5-0.2,1-0.2,1.6v5.7h-2.3V246.6z"/>
			<path fill="#1C75BC" d="M256.6,245.9H255V244h1.6v-3.3h2.3v3.3h2.9v1.9h-2.9v5.6c0,2.4,1.7,2.7,2.6,2.7c0.3,0,0.6,0,0.6,0v2.1
				c0,0-0.3,0-0.8,0c-1.5,0-4.6-0.5-4.6-4.5V245.9z"/>
			<path fill="#1C75BC" d="M264.7,252.8c0,0,1.4,1.8,3.7,1.8c1.1,0,2.1-0.5,2.1-1.6c0-2.2-6.6-1.9-6.6-5.9c0-2.3,2-3.4,4.5-3.4
				c1.5,0,4,0.5,4,2.4v1.2h-2.1v-0.6c0-0.7-1.1-1-1.8-1c-1.4,0-2.3,0.5-2.3,1.4c0,2.3,6.6,1.8,6.6,5.9c0,2.2-1.9,3.6-4.5,3.6
				c-3.2,0-4.8-2.1-4.8-2.1L264.7,252.8z"/>
		</g>
		<path fill="#1C75BC" stroke="#39B54A" stroke-width="2" stroke-miterlimit="10" d="M259.8,310.8h-36c-4.8,0-8.7-3.9-8.7-8.7v-24
			c0-4.8,3.9-8.7,8.7-8.7h36c4.8,0,8.7,3.9,8.7,8.7v24C268.5,307,264.6,310.8,259.8,310.8z"/>
		<path fill="#1C75BC" stroke="#39B54A" stroke-width="2" stroke-miterlimit="10" d="M265.5,316.9h-36c-4.8,0-8.7-3.9-8.7-8.7v-24
			c0-4.8,3.9-8.7,8.7-8.7h36c4.8,0,8.7,3.9,8.7,8.7v24C274.2,313,270.3,316.9,265.5,316.9z"/>
	</g>
	<g>
		<line fill="#006838" x1="567.8" y1="259" x2="480.8" y2="298.9"/>
		<g>
			<line fill="none" stroke="#006838" stroke-width="7" stroke-miterlimit="10" x1="567.8" y1="259" x2="503.7" y2="288.4"/>
			<g>
				<polygon fill="#006838" points="501,270.4 480.8,298.9 515.6,302.1 				"/>
			</g>
		</g>
	</g>
	<g>
		<line fill="#006838" x1="477.9" y1="144.1" x2="570.7" y2="177.7"/>
		<g>
			<line fill="none" stroke="#006838" stroke-width="7" stroke-miterlimit="10" x1="477.9" y1="144.1" x2="547.1" y2="169.1"/>
			<g>
				<polygon fill="#006838" points="536.3,183.8 570.7,177.7 548.2,151 				"/>
			</g>
		</g>
	</g>
	<g>
		<path fill="#2BB673" d="M637,168.1c-1.8,0-3.3,1.1-3.7,3.2h6.7C639.9,169.2,638.5,168.1,637,168.1z"/>
		<path fill="#2BB673" d="M688.7,152.1h-92.9c-5.8,0-10.6,4.7-10.6,10.6v118.6c0,5.8,4.7,10.6,10.6,10.6h92.9
			c5.8,0,10.6-4.7,10.6-10.6V162.6C699.3,156.8,694.6,152.1,688.7,152.1z M625.2,161.5h2.2v2.5h-2.2V161.5z M608.4,179.4
			c-5.3,0-8.9-4.1-8.9-9.3c0-5.1,3.8-9,8.8-9c2.4,0,6.6,1,6.6,3.8v1.7h-2.3v-1c0-1.5-2.5-2.2-4.3-2.2c-3.5,0-6.3,2.7-6.3,6.6
			c0,3.8,2.8,6.9,6.4,6.9c3.5,0,5.6-2.4,5.6-2.4l1.3,1.8C615.4,176.5,612.9,179.4,608.4,179.4z M622.2,179.1h-2.4
			c-1.1,0-1.6-0.5-1.6-1.6v-13.4c0-0.4-0.2-0.5-0.6-0.5h-1v-2.1h2.4c1.1,0,1.6,0.5,1.6,1.6v13.4c0,0.4,0.2,0.5,0.6,0.5h1V179.1z
			 M629.1,179.1h-2.4c-1.1,0-1.6-0.5-1.6-1.6v-8.4c0-0.4-0.2-0.5-0.6-0.5h-1v-2.1h2.4c1.1,0,1.6,0.5,1.6,1.6v8.4
			c0,0.4,0.2,0.5,0.6,0.5h1V179.1z M642.4,173.1h-9.2c0.2,2.7,2.1,4.2,4.3,4.2c2.2,0,3.7-1.5,3.7-1.5l1,1.7c0,0-1.9,1.8-4.9,1.8
			c-4,0-6.7-2.9-6.7-6.6c0-4,2.7-6.6,6.3-6.6c3.5,0,5.4,2.6,5.4,5.9C642.4,172.4,642.4,173.1,642.4,173.1z M658.7,179.1h-2.4
			c-1.1,0-1.6-0.5-1.6-1.6v-5.9c0-1.8-0.4-3.2-2.4-3.2c-1.9,0-3.5,1.3-4,3.1c-0.2,0.5-0.2,1.1-0.2,1.7v5.9h-2.4v-10
			c0-0.4-0.2-0.5-0.5-0.5h-1v-2.1h2.3c1.1,0,1.6,0.5,1.6,1.4v0.5c0,0.4-0.1,0.7-0.1,0.7h0.1c0.5-1.1,2-2.9,4.7-2.9
			c3,0,4.3,1.6,4.3,4.8v5.5c0,0.4,0.2,0.5,0.5,0.5h1V179.1z M667.1,179.2c0,0-0.3,0-0.8,0c-1.6,0-4.8-0.5-4.8-4.7v-6.1h-1.7v-1.9
			h1.7V163h2.4v3.5h3v1.9h-3v5.8c0,2.5,1.8,2.8,2.7,2.8c0.4,0,0.6-0.1,0.6-0.1V179.2z"/>
	</g>
	<g>
		<g>
			<path fill="#1C75BC" d="M275.2,123.4h-36c-4.8,0-8.7-3.9-8.7-8.7v-24c0-4.8,3.9-8.7,8.7-8.7h36c4.8,0,8.7,3.9,8.7,8.7v24
				C283.9,119.5,280,123.4,275.2,123.4z"/>
		</g>
		<g>
			<line fill="#1C75BC" x1="295.7" y1="169" x2="271.7" y2="123.4"/>
			<g>
				<line fill="none" stroke="#1C75BC" stroke-width="4" stroke-miterlimit="10" x1="295.7" y1="169" x2="278.4" y2="136.1"/>
				<g>
					<polygon fill="#1C75BC" points="288.6,134 271.7,123.4 271,143.3 					"/>
				</g>
			</g>
		</g>
		<g>
			<path fill="#1C75BC" d="M356.4,123.4h-36c-4.8,0-8.7-3.9-8.7-8.7v-24c0-4.8,3.9-8.7,8.7-8.7h36c4.8,0,8.7,3.9,8.7,8.7v24
				C365.1,119.5,361.2,123.4,356.4,123.4z"/>
		</g>
		<g>
			<line fill="#1C75BC" x1="308.2" y1="162.8" x2="326.6" y2="123.4"/>
			<g>
				<line fill="none" stroke="#1C75BC" stroke-width="4" stroke-miterlimit="10" x1="308.2" y1="162.8" x2="320.5" y2="136.4"/>
				<g>
					<polygon fill="#1C75BC" points="328.3,143.2 326.6,123.4 310.2,134.8 					"/>
				</g>
			</g>
		</g>
		<g>
			<path fill="#1C75BC" d="M316.4,193.4h-36c-4.8,0-8.7-3.9-8.7-8.7v-24c0-4.8,3.9-8.7,8.7-8.7h36c4.8,0,8.7,3.9,8.7,8.7v24
				C325.1,189.5,321.2,193.4,316.4,193.4z"/>
		</g>
		<g>
			<path fill="#1C75BC" d="M234.9,57.9c4.9,0,8.7,3.8,8.7,8.7c0,2.1-0.8,4.1-2,5.6l1.9,1.9l-1.4,1.5l-1.9-1.9
				c-1.5,1.2-3.3,1.8-5.3,1.8c-4.9,0-8.7-3.9-8.7-8.9C226.2,61.7,230,57.9,234.9,57.9z M234.9,73.2c2.2,0,3.6-1.2,3.6-1.2l-1.9-1.8
				l1.4-1.6l1.8,1.9c0.8-1.1,1.2-2.5,1.2-3.9c0-3.7-2.7-6.4-6.2-6.4c-3.5,0-6.2,2.7-6.2,6.4C228.7,70.3,231.4,73.2,234.9,73.2z"/>
			<path fill="#1C75BC" d="M246.6,65.5c0-0.4-0.2-0.5-0.5-0.5h-1v-2h2.3c1.1,0,1.6,0.5,1.6,1.5v5.8c0,1.7,0.3,3,2.3,3
				c2.5,0,4-2.2,4-4.6V63h2.3v9.6c0,0.4,0.2,0.5,0.5,0.5h1v2h-2.2c-1,0-1.5-0.5-1.5-1.3v-0.5c0-0.4,0-0.7,0-0.7h0
				c-0.5,1.2-2.1,2.8-4.5,2.8c-2.7,0-4.1-1.4-4.1-4.7V65.5z"/>
			<path fill="#1C75BC" d="M266.5,62.7c3.4,0,5.2,2.5,5.2,5.7c0,0.3-0.1,1-0.1,1h-8.9c0.1,2.6,2,4.1,4.2,4.1c2.1,0,3.6-1.4,3.6-1.4
				l1,1.7c0,0-1.8,1.8-4.7,1.8c-3.8,0-6.5-2.8-6.5-6.4C260.4,65.2,263,62.7,266.5,62.7z M269.3,67.7c-0.1-2-1.3-3.1-2.9-3.1
				c-1.8,0-3.2,1.1-3.6,3.1H269.3z"/>
			<path fill="#1C75BC" d="M274.8,65.5c0-0.4-0.2-0.5-0.5-0.5h-1v-2h2.2c1.1,0,1.6,0.4,1.6,1.4v0.8c0,0.5,0,0.8,0,0.8h0
				c0.6-1.8,2-3.2,3.8-3.2c0.3,0,0.6,0,0.6,0v2.3c0,0-0.3-0.1-0.7-0.1c-1.5,0-2.9,1.1-3.4,2.9c-0.2,0.7-0.3,1.4-0.3,2.2v5h-2.3V65.5
				z"/>
			<path fill="#1C75BC" d="M285.2,78.2c0.9,0,1.7-0.7,2.1-1.8l0.6-1.3l-4.2-9.6c-0.2-0.4-0.4-0.5-0.8-0.5h-0.3v-2h1.4
				c1,0,1.3,0.3,1.7,1.2l2.8,6.8c0.2,0.6,0.4,1.5,0.4,1.5h0c0,0,0.2-0.8,0.4-1.5l2.5-6.8c0.4-1,0.8-1.2,1.8-1.2h1.4v2h-0.3
				c-0.4,0-0.6,0.1-0.8,0.5l-4.8,11.9c-0.7,1.9-2.2,2.9-3.9,2.9c-1.8,0-2.9-1.2-2.9-1.2l1-1.7C283.4,77.3,284.2,78.2,285.2,78.2z"/>
			<path fill="#1C75BC" d="M302.4,73.1h0.8c0.3,0,0.5-0.2,0.5-0.5l1.2-14.4h2.5l4,9c0.4,0.9,0.8,2.1,0.8,2.1h0c0,0,0.4-1.2,0.8-2.1
				l4-9h2.5l1.2,14.4c0,0.3,0.2,0.5,0.5,0.5h0.8v2.1h-2.1c-1.1,0-1.5-0.5-1.5-1.5l-0.7-9c-0.1-1,0-2.5,0-2.5h0c0,0-0.5,1.6-0.9,2.5
				l-3.4,7.4h-2l-3.4-7.4c-0.4-0.9-0.9-2.5-0.9-2.5h0c0,0,0,1.5,0,2.5l-0.7,9c-0.1,1.1-0.5,1.5-1.6,1.5h-2.1V73.1z"/>
			<path fill="#1C75BC" d="M329.9,62.7c3.6,0,6.6,2.7,6.6,6.3c0,3.7-2.9,6.4-6.6,6.4s-6.5-2.7-6.5-6.4
				C323.3,65.4,326.3,62.7,329.9,62.7z M329.9,73.4c2.3,0,4.2-1.8,4.2-4.4c0-2.5-1.9-4.3-4.2-4.3c-2.3,0-4.2,1.8-4.2,4.3
				C325.7,71.6,327.6,73.4,329.9,73.4z"/>
			<path fill="#1C75BC" d="M343.7,62.7c2.8,0,3.7,1.9,3.7,1.9h0c0,0,0-0.4,0-0.8v-3c0-0.4-0.2-0.5-0.5-0.5h-1v-2h2.3
				c1.1,0,1.5,0.5,1.5,1.5v12.9c0,0.4,0.2,0.5,0.5,0.5h1v2H349c-1.1,0-1.5-0.5-1.5-1.3c0-0.4,0-0.6,0-0.6h0c0,0-1,2.2-4,2.2
				c-3.3,0-5.4-2.6-5.4-6.4C338.2,65.2,340.5,62.7,343.7,62.7z M347.5,69.1c0-2.2-1.1-4.3-3.5-4.3c-1.9,0-3.5,1.6-3.5,4.3
				c0,2.6,1.4,4.3,3.4,4.3C345.8,73.4,347.5,72.2,347.5,69.1z"/>
			<path fill="#1C75BC" d="M358.8,62.7c3.4,0,5.2,2.5,5.2,5.7c0,0.3-0.1,1-0.1,1h-8.9c0.1,2.6,2,4.1,4.2,4.1c2.1,0,3.6-1.4,3.6-1.4
				l1,1.7c0,0-1.8,1.8-4.7,1.8c-3.8,0-6.5-2.8-6.5-6.4C352.7,65.2,355.3,62.7,358.8,62.7z M361.6,67.7c-0.1-2-1.3-3.1-2.9-3.1
				c-1.8,0-3.2,1.1-3.6,3.1H361.6z"/>
			<path fill="#1C75BC" d="M367.1,60.7c0-0.4-0.2-0.5-0.5-0.5h-1v-2h2.3c1.1,0,1.5,0.5,1.5,1.5v12.9c0,0.4,0.2,0.5,0.5,0.5h1v2h-2.3
				c-1.1,0-1.5-0.5-1.5-1.5V60.7z"/>
		</g>
	</g>
	<g>
		<path fill="#006838" d="M446.9,245.7h-24.3c-3.5,0-6.3,2.8-6.3,6.3v97.7c0,3.5,2.8,6.3,6.3,6.3h24.3c3.5,0,6.3-2.8,6.3-6.3V252
			C453.3,248.5,450.4,245.7,446.9,245.7z M442.5,305.6c0,1.2-0.3,1.6-1.4,2l-3.6,1.3v6.5l3.6,1.3c1.1,0.4,1.4,0.8,1.4,2.1v1.4h-2.1
			v-0.4c0-0.4-0.1-0.7-0.5-0.8l-14.9-5.5v-2.6l14.9-5.5c0.5-0.1,0.5-0.4,0.5-0.8v-0.4h2.1V305.6z M442.5,301.4H427v1.6h-2.1v-7.8
			c0-3.2,2.2-5.5,5.5-5.5s5.6,2.3,5.6,5.5v3.6h6.5V301.4z M442.5,288.1h-2.1v-1.7H427v1.7h-2.1v-5.8h2.1v1.7h13.3v-1.7h2.1V288.1z"
			/>
		<path fill="#006838" d="M430.3,292.3c-2.1,0-3.4,1.3-3.4,3.3v3.3h6.8v-3.2C433.8,293.5,432.5,292.3,430.3,292.3z"/>
		<path fill="#006838" d="M427.4,312.2L427.4,312.2c0,0,1.5,0.4,2.5,0.7l5.4,1.9v-5.3l-5.4,1.9C429,311.9,427.4,312.2,427.4,312.2z"
			/>
	</g>
	<g>
		<path fill="#006838" d="M446.4,69.7h-24.3c-3.5,0-6.3,2.8-6.3,6.3v97.7c0,3.5,2.8,6.3,6.3,6.3h24.3c3.5,0,6.3-2.8,6.3-6.3V76
			C452.8,72.5,450,69.7,446.4,69.7z M442,129.6c0,1.2-0.3,1.6-1.4,2l-3.6,1.3v6.5l3.6,1.3c1.1,0.4,1.4,0.8,1.4,2.1v1.4h-2.1v-0.4
			c0-0.4-0.1-0.7-0.5-0.8l-14.9-5.5v-2.6l14.9-5.5c0.5-0.1,0.5-0.4,0.5-0.8v-0.4h2.1V129.6z M442,125.4h-15.5v1.6h-2.1v-7.8
			c0-3.2,2.2-5.5,5.5-5.5s5.6,2.3,5.6,5.5v3.6h6.5V125.4z M442,112.1h-2.1v-1.7h-13.3v1.7h-2.1v-5.8h2.1v1.7h13.3v-1.7h2.1V112.1z"
			/>
		<path fill="#006838" d="M429.8,116.3c-2.1,0-3.4,1.3-3.4,3.3v3.3h6.8v-3.2C433.3,117.5,432,116.3,429.8,116.3z"/>
		<path fill="#006838" d="M426.9,136.2L426.9,136.2c0,0,1.5,0.4,2.5,0.7l5.4,1.9v-5.3l-5.4,1.9C428.5,135.9,426.9,136.2,426.9,136.2
			z"/>
	</g>
	<g>
		<path fill="#2BB673" stroke="#006838" stroke-miterlimit="10" d="M32.3,263.5v72c0,5.6,17.2,10.2,38.4,10.2
			c21.2,0,38.4-4.6,38.4-10.2v-72H32.3z"/>
		<ellipse fill="#2BB673" stroke="#006838" stroke-miterlimit="10" cx="70.7" cy="263.5" rx="38.4" ry="10.2"/>
		<g>
			<path fill="#006838" d="M16.9,245.8l-1.2,0.6l-0.8-1.5l7.4-3.8c0.8-0.4,1.3-0.3,1.7,0.5l0.8,1.6l-1.6,0.8l-0.4-0.8
				c-0.1-0.3-0.3-0.3-0.6-0.2l-3.6,1.9l2,3.9l4.4-2.3l0.8,1.5l-4.4,2.3l1.9,3.6c0.1,0.2,0.3,0.3,0.6,0.2l3.7-1.9
				c0.2-0.1,0.3-0.3,0.2-0.6l-0.4-0.8L29,250l0.8,1.6c0.4,0.8,0.3,1.3-0.5,1.7l-5.6,2.9c-0.8,0.4-1.3,0.3-1.7-0.5L16.9,245.8z"/>
			<path fill="#006838" d="M29.2,244.9c-0.2-0.3-0.4-0.3-0.7-0.2l-0.2,0.1l-0.4-1.6l1-0.3c0.9-0.2,1.3-0.1,1.7,0.6l3.6,5.1
				c0.3,0.5,0.7,1.2,0.7,1.2l0,0c0,0,0-0.8,0-1.4l0.6-6.2c0.1-0.9,0.4-1.2,1.2-1.4l0.9-0.2l0.4,1.6l-0.2,0c-0.3,0.1-0.5,0.2-0.5,0.6
				l-1,8.6l-2.2,0.6L29.2,244.9z"/>
			<path fill="#006838" d="M44.1,239.3c2.8-0.4,4.6,1.4,5,4c0,0.3,0.1,0.8,0.1,0.8l-7.3,1.1c0.4,2.1,2.2,3.1,4,2.8
				c1.7-0.3,2.7-1.6,2.7-1.6l1,1.2c0,0-1.3,1.7-3.6,2.1c-3.2,0.5-5.7-1.5-6.1-4.4C39.4,242.2,41.3,239.8,44.1,239.3z M47.1,243.1
				c-0.3-1.7-1.5-2.4-2.7-2.2c-1.5,0.2-2.5,1.3-2.6,3L47.1,243.1z"/>
			<path fill="#006838" d="M51.8,240.7c0-0.3-0.2-0.4-0.5-0.4l-0.8,0.1l-0.1-1.7l1.9-0.1c0.9-0.1,1.3,0.3,1.4,1l0,0.4
				c0,0.3,0,0.6,0,0.6l0,0c0.3-0.9,1.4-2.4,3.6-2.6c2.4-0.2,3.6,1,3.8,3.6l0.3,4.4c0,0.3,0.2,0.4,0.5,0.4l0.8-0.1l0.1,1.7l-1.9,0.1
				c-0.9,0.1-1.3-0.3-1.4-1.2l-0.4-4.7c-0.1-1.4-0.5-2.5-2.1-2.4c-1.6,0.1-2.7,1.2-3,2.7c-0.1,0.4-0.1,0.9-0.1,1.4l0.4,4.7l-1.9,0.1
				L51.8,240.7z"/>
			<path fill="#006838" d="M64.6,239.4l-1.3,0l0-1.6l1.4,0l-0.1-2.8l1.9,0l0.1,2.8l2.4-0.1l0,1.6l-2.4,0.1l0.1,4.6
				c0,2,1.4,2.2,2.2,2.2c0.3,0,0.5,0,0.5,0l0,1.7c0,0-0.3,0-0.7,0.1c-1.3,0-3.9-0.3-3.9-3.7L64.6,239.4z"/>
			<path fill="#006838" d="M77.2,244.6c0,0,1.3,1.8,3.4,1.9c1.3,0.1,2.5-0.7,2.5-2c0.2-3-6.7-2.9-6.5-7.2c0.1-2.1,2.1-3.7,4.7-3.5
				c1.5,0.1,4,0.9,3.9,2.8l-0.1,1.2l-1.8-0.1l0-0.7c0-0.7-1-1.3-2.1-1.4c-1.5-0.1-2.5,0.7-2.6,1.8c-0.1,2.9,6.7,2.6,6.4,7.2
				c-0.1,2.2-1.9,3.9-4.7,3.8c-3-0.2-4.6-2.3-4.6-2.3L77.2,244.6z"/>
			<path fill="#006838" d="M88.3,240.1l-1.3-0.1l0.2-1.6l1.4,0.1l0.3-2.8l1.9,0.2l-0.3,2.8l2.4,0.3l-0.2,1.6l-2.4-0.3l-0.5,4.6
				c-0.2,2,1.2,2.4,1.9,2.5c0.3,0,0.5,0,0.5,0l-0.2,1.7c0,0-0.3,0-0.7,0c-1.3-0.1-3.8-0.8-3.4-4.2L88.3,240.1z"/>
			<path fill="#006838" d="M100.1,239.8c3,0.5,5,3.1,4.5,6.1c-0.5,3-3.3,4.8-6.3,4.3c-3-0.5-5-3.1-4.4-6.2
				C94.3,241.1,97.1,239.3,100.1,239.8z M98.5,248.6c1.9,0.3,3.7-0.9,4.1-3c0.4-2.1-0.9-3.8-2.8-4.1c-1.9-0.3-3.7,0.9-4,3
				C95.4,246.5,96.7,248.3,98.5,248.6z"/>
			<path fill="#006838" d="M107.9,243.8c0.1-0.3,0-0.5-0.3-0.5l-0.8-0.2l0.5-1.6l1.8,0.5c0.8,0.2,1.2,0.7,0.9,1.5l-0.2,0.6
				c-0.1,0.4-0.2,0.7-0.2,0.7l0,0c0.9-1.3,2.3-2.1,3.8-1.7c0.3,0.1,0.5,0.2,0.5,0.2l-0.5,1.8c0,0-0.2-0.1-0.5-0.2
				c-1.2-0.3-2.5,0.2-3.4,1.5c-0.3,0.5-0.6,1.1-0.7,1.7l-1.1,4l-1.9-0.5L107.9,243.8z"/>
			<path fill="#006838" d="M120.5,246c2.5,1.3,2.9,3.9,1.7,6.2c-0.1,0.2-0.4,0.7-0.4,0.7l-6.5-3.4c-0.9,2-0.1,3.8,1.5,4.6
				c1.5,0.8,3.2,0.3,3.2,0.3l0.1,1.6c0,0-2,0.6-4.1-0.5c-2.8-1.5-3.7-4.5-2.3-7.2C115.1,245.5,118,244.7,120.5,246z M120.7,250.8
				c0.7-1.5,0.2-2.8-0.9-3.4c-1.3-0.7-2.8-0.4-3.8,0.9L120.7,250.8z"/>
		</g>
		<path fill="#2BB673" stroke="#006838" stroke-miterlimit="10" d="M70.7,298.2c-21.2,0-38.4-4.6-38.4-10.2"/>
		<path fill="#2BB673" stroke="#006838" stroke-miterlimit="10" d="M109,288c0,5.6-17.2,10.2-38.4,10.2"/>
		<path fill="#2BB673" stroke="#006838" stroke-miterlimit="10" d="M70.7,322.7c-21.2,0-38.4-4.6-38.4-10.2"/>
		<path fill="#2BB673" stroke="#006838" stroke-miterlimit="10" d="M109,312.5c0,5.6-17.2,10.2-38.4,10.2"/>
	</g>
	<g>
		<line fill="#006838" x1="196.6" y1="291.8" x2="118.8" y2="291.8"/>
		<g>
			<line fill="none" stroke="#006838" stroke-width="7" stroke-miterlimit="10" x1="196.6" y1="291.8" x2="143.9" y2="291.8"/>
			<g>
				<polygon fill="#006838" points="149,274.4 118.8,291.8 149,309.3 				"/>
			</g>
		</g>
	</g>
	<g>
		<line fill="#006838" x1="329.3" y1="291.8" x2="285.8" y2="291.8"/>
		<g>
			<line fill="none" stroke="#006838" stroke-width="7" stroke-miterlimit="10" x1="329.3" y1="291.8" x2="310.9" y2="291.8"/>
			<g>
				<polygon fill="#006838" points="316,274.4 285.8,291.8 316,309.3 				"/>
			</g>
		</g>
	</g>
	<g>
		<line fill="#006838" x1="72.3" y1="225.7" x2="72.3" y2="176.1"/>
		<g>
			<line fill="none" stroke="#006838" stroke-width="7" stroke-miterlimit="10" x1="72.3" y1="225.7" x2="72.3" y2="201.2"/>
			<g>
				<polygon fill="#006838" points="89.8,206.3 72.3,176.1 54.8,206.3 				"/>
			</g>
		</g>
	</g>
	<g>
		<line fill="#006838" x1="122.2" y1="108.6" x2="200" y2="108.6"/>
		<g>
			<line fill="none" stroke="#006838" stroke-width="7" stroke-miterlimit="10" x1="122.2" y1="108.6" x2="174.9" y2="108.6"/>
			<g>
				<polygon fill="#006838" points="169.8,126.1 200,108.6 169.8,91.2 				"/>
			</g>
		</g>
	</g>
</g>
<g id="Layer_4">
</g>
</svg>
