<?xml version="1.0" encoding="utf-8"?>
<!-- Generator: Adobe Illustrator 19.0.0, SVG Export Plug-In . SVG Version: 6.00 Build 0)  -->
<!DOCTYPE svg PUBLIC "-//W3C//DTD SVG 1.1//EN" "http://www.w3.org/Graphics/SVG/1.1/DTD/svg11.dtd">
<svg version="1.1" xmlns="http://www.w3.org/2000/svg" xmlns:xlink="http://www.w3.org/1999/xlink" x="0px" y="0px"
	 viewBox="0 0 708.4 357.9" enable-background="new 0 0 708.4 357.9" xml:space="preserve">
<g id="Layer_7">
	<path fill="#DC7676" d="M432.1,52V22.2c0-5.5-4.4-9.9-9.9-9.9H168.3c-5.5,0-9.9,4.4-9.9,9.9v314.5c0,5.5,4.4,9.9,9.9,9.9h253.9
		c5.5,0,9.9-4.4,9.9-9.9v-17h-11.3v-16.5h0.2v-70.2h11.1v-82.6v-15.8V114h-11.1V52H432.1z"/>
	<g>
		<path fill="#DC7676" stroke="#F8E2D2" stroke-miterlimit="10" d="M25.2,132.5v72c0,5.6,17.2,10.2,38.4,10.2
			c21.2,0,38.4-4.6,38.4-10.2v-72H25.2z"/>
		<ellipse fill="#DC7676" stroke="#F8E2D2" stroke-miterlimit="10" cx="63.6" cy="132.5" rx="38.4" ry="10.2"/>
		<g>
			<path fill="#DC7676" d="M13.3,107.8l-1.4,0.5l-0.7-1.9l6.2-2.2c4.6-1.7,8.7,0,10.5,4.8c1.8,4.8-0.3,8.8-4.9,10.4l-3.4,1.2
				c-1,0.4-1.5,0.1-1.9-0.9L13.3,107.8z M20.1,118.4l2-0.7c3.4-1.2,4.9-4.1,3.5-7.8c-1.4-3.7-4.3-4.9-7.7-3.7l-2.5,0.9l4,11.1
				C19.6,118.4,19.8,118.5,20.1,118.4z"/>
			<path fill="#DC7676" d="M37.5,108.5l0.5-0.1l0-0.1c-0.3-2-1.2-2.6-3-2.3c-0.5,0.1-1.9,0.5-1.7,1.2l0.1,0.7l-2.1,0.3l-0.2-1.1
				c-0.3-1.9,2.5-2.6,3.6-2.8c3.7-0.6,5,1.2,5.5,3.7l0.8,4.9c0.1,0.3,0.3,0.5,0.6,0.4l0.9-0.2l0.3,1.9l-2.1,0.3
				c-1,0.2-1.5-0.3-1.6-1.1c-0.1-0.4-0.1-0.7-0.1-0.7l0,0c0,0-0.5,2.4-3.3,2.9c-2,0.3-4.1-0.5-4.5-2.8
				C30.6,109.9,35.6,108.8,37.5,108.5z M35.9,114.6c1.9-0.3,2.7-2.5,2.5-4.2l-0.1-0.4l-0.6,0.1c-1.7,0.3-4.6,0.9-4.3,3
				C33.6,114,34.5,114.8,35.9,114.6z"/>
			<path fill="#DC7676" d="M44.1,105l-1.5,0.1l-0.2-1.8l1.6-0.1l-0.3-3.2l2.2-0.2l0.3,3.2l2.8-0.3l0.2,1.8l-2.8,0.3l0.5,5.3
				c0.2,2.3,1.8,2.5,2.7,2.4c0.3,0,0.5-0.1,0.5-0.1l0.2,2c0,0-0.3,0.1-0.8,0.1c-1.5,0.1-4.5,0-4.8-3.9L44.1,105z"/>
			<path fill="#DC7676" d="M58.3,106.7l0.5,0l0-0.1c-0.1-2-0.9-2.8-2.7-2.7c-0.6,0-1.9,0.2-1.9,1l0,0.7l-2.1,0.1l0-1.1
				c-0.1-1.9,2.8-2.3,3.9-2.3c3.8-0.1,4.8,1.8,4.9,4.4l0.2,4.9c0,0.3,0.2,0.5,0.5,0.5l0.9,0l0.1,1.9l-2.1,0.1c-1,0-1.5-0.5-1.5-1.3
				c0-0.4,0-0.7,0-0.7l0,0c0,0-0.8,2.3-3.6,2.4c-2,0.1-4-1.1-4.1-3.4C51.3,107.2,56.4,106.8,58.3,106.7z M56,112.5
				c1.9-0.1,3-2.1,3-3.8l0-0.4l-0.6,0c-1.7,0.1-4.7,0.3-4.6,2.4C53.8,111.7,54.5,112.6,56,112.5z"/>
			<path fill="#DC7676" d="M65.3,100c0-0.3-0.2-0.5-0.5-0.5l-0.9,0l0.1-1.9l2.2,0.1c1,0,1.5,0.5,1.4,1.5l-0.1,3.8c0,0.6-0.1,1-0.1,1
				l0,0c0,0,1.1-1.9,3.8-1.8c3.1,0.1,5,2.7,4.9,6.3c-0.1,3.7-2.4,6-5.5,5.9c-2.6-0.1-3.6-2.1-3.6-2.1l0,0c0,0,0,0.4,0,0.9l0,0.8
				l-2.1-0.1L65.3,100z M70.4,112.4c1.8,0.1,3.4-1.4,3.5-4c0.1-2.5-1.2-4.2-3.2-4.3c-1.7-0.1-3.4,1.1-3.5,4.1
				C67.2,110.2,68.2,112.3,70.4,112.4z"/>
			<path fill="#DC7676" d="M85,107.9l0.5,0.1l0-0.1c0.2-2-0.4-2.8-2.3-3c-0.5-0.1-1.9-0.1-2,0.7l-0.1,0.7l-2.1-0.2l0.1-1.1
				c0.2-1.9,3.1-1.9,4.2-1.7c3.7,0.4,4.5,2.5,4.3,5l-0.5,4.9c0,0.3,0.1,0.5,0.4,0.6l0.9,0.1l-0.2,1.9l-2.1-0.2
				c-1-0.1-1.4-0.7-1.3-1.5c0-0.4,0.1-0.7,0.1-0.7l0,0c0,0-1.2,2.2-3.9,1.9c-2-0.2-3.8-1.6-3.5-4C78,107.3,83,107.6,85,107.9z
				 M81.8,113.3c1.9,0.2,3.3-1.6,3.5-3.3l0-0.4l-0.6-0.1c-1.7-0.2-4.7-0.4-4.9,1.7C79.7,112.1,80.3,113.1,81.8,113.3z"/>
			<path fill="#DC7676" d="M90.8,112.7c0,0,1,2,3.1,2.4c1.1,0.2,2.1-0.1,2.3-1.1c0.4-2.1-5.9-3.1-5.1-6.8c0.4-2.2,2.6-2.8,4.9-2.3
				c1.4,0.3,3.6,1.2,3.3,3l-0.2,1.1l-2-0.4l0.1-0.6c0.1-0.7-0.8-1.2-1.5-1.3c-1.3-0.3-2.2,0-2.4,0.9c-0.4,2.2,5.9,2.9,5.1,6.8
				c-0.4,2-2.5,3-4.9,2.5c-3-0.6-4.2-2.9-4.2-2.9L90.8,112.7z"/>
			<path fill="#DC7676" d="M108.6,108.4c3.1,1.2,3.8,4.1,2.8,6.9c-0.1,0.3-0.4,0.8-0.4,0.8l-7.9-3c-0.8,2.4,0.4,4.3,2.4,5.1
				c1.9,0.7,3.7-0.1,3.7-0.1l0.3,1.8c0,0-2.2,1-4.8,0c-3.4-1.3-4.9-4.7-3.6-7.9C102.3,108.6,105.5,107.2,108.6,108.4z M109.5,113.8
				c0.6-1.8-0.2-3.2-1.5-3.7c-1.6-0.6-3.2-0.1-4.3,1.6L109.5,113.8z"/>
		</g>
		<path fill="#DC7676" stroke="#F8E2D2" stroke-miterlimit="10" d="M63.6,167.2c-21.2,0-38.4-4.6-38.4-10.2"/>
		<path fill="#DC7676" stroke="#F8E2D2" stroke-miterlimit="10" d="M102,157c0,5.6-17.2,10.2-38.4,10.2"/>
		<path fill="#DC7676" stroke="#F8E2D2" stroke-miterlimit="10" d="M63.6,191.7c-21.2,0-38.4-4.6-38.4-10.2"/>
		<path fill="#DC7676" stroke="#F8E2D2" stroke-miterlimit="10" d="M102,181.5c0,5.6-17.2,10.2-38.4,10.2"/>
	</g>
	<g>
		<g>
			<path fill="#F8E2D2" d="M275.2,264.7h-36c-4.8,0-8.7-3.9-8.7-8.7v-24c0-4.8,3.9-8.7,8.7-8.7h36c4.8,0,8.7,3.9,8.7,8.7v24
				C283.8,260.8,280,264.7,275.2,264.7z"/>
		</g>
		<g>
			<line fill="#F8E2D2" x1="314.3" y1="241.7" x2="283.8" y2="241.7"/>
			<g>
				<line fill="none" stroke="#F8E2D2" stroke-width="4" stroke-miterlimit="10" x1="314.3" y1="241.7" x2="298.2" y2="241.7"/>
				<g>
					<polygon fill="#F8E2D2" points="301.1,231.7 283.8,241.7 301.1,251.7 					"/>
				</g>
			</g>
		</g>
		<g>
			<path fill="#F8E2D2" d="M359,264.7h-36c-4.8,0-8.7-3.9-8.7-8.7v-24c0-4.8,3.9-8.7,8.7-8.7h36c4.8,0,8.7,3.9,8.7,8.7v24
				C367.7,260.8,363.8,264.7,359,264.7z"/>
		</g>
		<g>
			<line fill="#F8E2D2" x1="341" y1="290.2" x2="341" y2="264.2"/>
			<g>
				<line fill="none" stroke="#F8E2D2" stroke-width="4" stroke-miterlimit="10" x1="341" y1="290.2" x2="341" y2="278.5"/>
				<g>
					<polygon fill="#F8E2D2" points="351,281.4 341,264.2 331,281.4 					"/>
				</g>
			</g>
		</g>
		<g>
			<path fill="#F8E2D2" d="M359,331.5h-36c-4.8,0-8.7-3.9-8.7-8.7v-24c0-4.8,3.9-8.7,8.7-8.7h36c4.8,0,8.7,3.9,8.7,8.7v24
				C367.7,327.7,363.8,331.5,359,331.5z"/>
		</g>
		<g>
			<g>
				<path fill="#F8E2D2" d="M235.4,203.7c-0.1-0.4-0.4-0.5-0.8-0.5h-0.4v-2.1h1.4c1.2,0,1.8,0.2,2.1,1.4l2.6,10.9
					c0.2,0.9,0.3,1.8,0.3,1.8h0c0,0,0.1-0.9,0.4-1.8l3.4-12.2h2.2l3.2,12.2c0.2,0.9,0.4,1.8,0.4,1.8h0c0,0,0.1-0.9,0.3-1.8l2.7-10.9
					c0.3-1.2,0.9-1.4,2.1-1.4h1.4v2.1h-0.4c-0.4,0-0.7,0.1-0.8,0.5l-3.7,14.4H249l-2.9-10.7c-0.3-1.1-0.5-2.3-0.5-2.3h0
					c0,0-0.2,1.2-0.6,2.3l-3.1,10.7h-2.8L235.4,203.7z"/>
			</g>
			<g>
				<path fill="#F8E2D2" d="M258.6,208.4c0-0.4-0.2-0.5-0.5-0.5h-1v-2h2.2c1.1,0,1.6,0.4,1.6,1.4v0.8c0,0.5,0,0.8,0,0.8h0
					c0.6-1.8,2-3.2,3.8-3.2c0.3,0,0.6,0,0.6,0v2.3c0,0-0.3-0.1-0.7-0.1c-1.5,0-2.9,1.1-3.4,2.9c-0.2,0.7-0.3,1.4-0.3,2.2v5h-2.3
					V208.4z"/>
			</g>
			<g>
				<path fill="#F8E2D2" d="M268,208.4c0-0.4-0.2-0.5-0.5-0.5h-1v-2h2.3c1.1,0,1.5,0.5,1.5,1.5v8.1c0,0.4,0.2,0.5,0.5,0.5h1v2h-2.3
					c-1.1,0-1.5-0.5-1.5-1.5V208.4z M268.1,201.1h2.1v2.4h-2.1V201.1z"/>
			</g>
			<g>
				<path fill="#F8E2D2" d="M274.6,207.7H273v-1.9h1.6v-3.3h2.3v3.3h2.9v1.9h-2.9v5.6c0,2.4,1.7,2.7,2.6,2.7c0.3,0,0.6,0,0.6,0v2.1
					c0,0-0.3,0-0.8,0c-1.5,0-4.6-0.5-4.6-4.5V207.7z"/>
			</g>
			<g>
				<path fill="#F8E2D2" d="M287.7,205.6c3.4,0,5.2,2.5,5.2,5.7c0,0.3-0.1,1-0.1,1H284c0.1,2.6,2,4.1,4.2,4.1c2.1,0,3.6-1.4,3.6-1.4
					l1,1.7c0,0-1.8,1.8-4.7,1.8c-3.8,0-6.5-2.8-6.5-6.4C281.6,208.1,284.2,205.6,287.7,205.6z M290.5,210.5c-0.1-2-1.3-3.1-2.9-3.1
					c-1.8,0-3.2,1.1-3.6,3.1H290.5z"/>
			</g>
			<g>
				<path fill="#F8E2D2" d="M300.9,215.9h0.8c0.3,0,0.5-0.2,0.5-0.5l1.2-14.4h2.5l4,9c0.4,0.9,0.8,2.1,0.8,2.1h0
					c0,0,0.4-1.2,0.8-2.1l4-9h2.5l1.2,14.4c0,0.3,0.2,0.5,0.5,0.5h0.8v2.1h-2.1c-1.1,0-1.5-0.5-1.5-1.5l-0.7-9c-0.1-1,0-2.5,0-2.5h0
					c0,0-0.5,1.6-0.9,2.5l-3.4,7.4h-2l-3.4-7.4c-0.4-0.9-0.9-2.5-0.9-2.5h0c0,0,0,1.5,0,2.5l-0.7,9c-0.1,1.1-0.5,1.5-1.6,1.5h-2.1
					V215.9z"/>
			</g>
			<g>
				<path fill="#F8E2D2" d="M328.4,205.6c3.6,0,6.6,2.7,6.6,6.3c0,3.7-2.9,6.4-6.6,6.4s-6.5-2.7-6.5-6.4
					C321.8,208.2,324.7,205.6,328.4,205.6z M328.4,216.3c2.3,0,4.2-1.8,4.2-4.4c0-2.5-1.9-4.3-4.2-4.3c-2.3,0-4.2,1.8-4.2,4.3
					C324.2,214.5,326.1,216.3,328.4,216.3z"/>
			</g>
			<g>
				<path fill="#F8E2D2" d="M342.2,205.6c2.8,0,3.7,1.9,3.7,1.9h0c0,0,0-0.4,0-0.8v-3c0-0.4-0.2-0.5-0.5-0.5h-1v-2h2.3
					c1.1,0,1.5,0.5,1.5,1.5v12.9c0,0.4,0.2,0.5,0.5,0.5h1v2h-2.2c-1.1,0-1.5-0.5-1.5-1.3c0-0.4,0-0.6,0-0.6h0c0,0-1,2.2-4,2.2
					c-3.3,0-5.4-2.6-5.4-6.4C336.7,208.1,339,205.6,342.2,205.6z M346,211.9c0-2.2-1.1-4.3-3.5-4.3c-1.9,0-3.5,1.6-3.5,4.3
					c0,2.6,1.4,4.3,3.4,4.3C344.3,216.3,346,215,346,211.9z"/>
			</g>
			<g>
				<path fill="#F8E2D2" d="M357.3,205.6c3.4,0,5.2,2.5,5.2,5.7c0,0.3-0.1,1-0.1,1h-8.9c0.1,2.6,2,4.1,4.2,4.1
					c2.1,0,3.6-1.4,3.6-1.4l1,1.7c0,0-1.8,1.8-4.7,1.8c-3.8,0-6.5-2.8-6.5-6.4C351.2,208.1,353.8,205.6,357.3,205.6z M360.1,210.5
					c-0.1-2-1.3-3.1-2.9-3.1c-1.8,0-3.2,1.1-3.6,3.1H360.1z"/>
			</g>
			<g>
				<path fill="#F8E2D2" d="M365.5,203.6c0-0.4-0.2-0.5-0.5-0.5h-1v-2h2.3c1.1,0,1.5,0.5,1.5,1.5v12.9c0,0.4,0.2,0.5,0.5,0.5h1v2
					h-2.3c-1.1,0-1.5-0.5-1.5-1.5V203.6z"/>
			</g>
		</g>
	</g>
	<g>
		<line fill="#DC7676" x1="208.1" y1="233.1" x2="121.3" y2="191.9"/>
		<g>
			<line fill="none" stroke="#FAAE24" stroke-width="7" stroke-miterlimit="10" x1="208.1" y1="233.1" x2="144" y2="202.7"/>
			<g>
				<polygon fill="#FAAE24" points="156.1,189.1 121.3,191.9 141.1,220.6 				"/>
			</g>
		</g>
	</g>
	<g>
		<line fill="#DC7676" x1="123.7" y1="125.3" x2="207.5" y2="74.9"/>
		<g>
			<line fill="none" stroke="#FAAE24" stroke-width="7" stroke-miterlimit="10" x1="123.7" y1="125.3" x2="186" y2="87.8"/>
			<g>
				<polygon fill="#FAAE24" points="190.6,105.4 207.5,74.9 172.6,75.5 				"/>
			</g>
		</g>
	</g>
	<g>
		<line fill="#FAAE24" x1="565.4" y1="229" x2="458.6" y2="277.9"/>
		<g>
			<line fill="none" stroke="#FAAE24" stroke-width="7" stroke-miterlimit="10" x1="565.4" y1="229" x2="481.4" y2="267.5"/>
			<g>
				<polygon fill="#FAAE24" points="478.8,249.5 458.6,277.9 493.3,281.2 				"/>
			</g>
		</g>
	</g>
	<g>
		<line fill="#DC7676" x1="457.1" y1="84.7" x2="566.9" y2="141.5"/>
		<g>
			<line fill="none" stroke="#FAAE24" stroke-width="7" stroke-miterlimit="10" x1="457.1" y1="84.7" x2="544.5" y2="129.9"/>
			<g>
				<polygon fill="#FAAE24" points="532,143.1 566.9,141.5 548,112.1 				"/>
			</g>
		</g>
	</g>
	<g>
		<g>
			<path fill="#F8E2D2" d="M275.9,93.3h-36c-4.8,0-8.7-3.9-8.7-8.7v-24c0-4.8,3.9-8.7,8.7-8.7h36c4.8,0,8.7,3.9,8.7,8.7v24
				C284.6,89.4,280.7,93.3,275.9,93.3z"/>
		</g>
		<g>
			<line fill="#F8E2D2" x1="296.4" y1="138.9" x2="272.4" y2="93.3"/>
			<g>
				<line fill="none" stroke="#F8E2D2" stroke-width="4" stroke-miterlimit="10" x1="296.4" y1="138.9" x2="279.1" y2="106"/>
				<g>
					<polygon fill="#F8E2D2" points="289.3,104 272.4,93.3 271.6,113.3 					"/>
				</g>
			</g>
		</g>
		<g>
			<path fill="#F8E2D2" d="M357.1,93.3h-36c-4.8,0-8.7-3.9-8.7-8.7v-24c0-4.8,3.9-8.7,8.7-8.7h36c4.8,0,8.7,3.9,8.7,8.7v24
				C365.8,89.4,361.9,93.3,357.1,93.3z"/>
		</g>
		<g>
			<line fill="#F8E2D2" x1="308.9" y1="132.8" x2="327.3" y2="93.3"/>
			<g>
				<line fill="none" stroke="#F8E2D2" stroke-width="4" stroke-miterlimit="10" x1="308.9" y1="132.8" x2="321.2" y2="106.3"/>
				<g>
					<polygon fill="#F8E2D2" points="329,113.2 327.3,93.3 310.9,104.8 					"/>
				</g>
			</g>
		</g>
		<g>
			<path fill="#F8E2D2" d="M317.1,163.3h-36c-4.8,0-8.7-3.9-8.7-8.7v-24c0-4.8,3.9-8.7,8.7-8.7h36c4.8,0,8.7,3.9,8.7,8.7v24
				C325.8,159.5,321.9,163.3,317.1,163.3z"/>
		</g>
		<g>
			<g>
				<path fill="#F8E2D2" d="M235.6,27.9c4.9,0,8.7,3.8,8.7,8.7c0,2.1-0.8,4.1-2,5.6l1.9,1.9l-1.4,1.5l-1.9-1.9
					c-1.5,1.2-3.3,1.8-5.3,1.8c-4.9,0-8.7-3.9-8.7-8.9C226.9,31.7,230.7,27.9,235.6,27.9z M235.6,43.2c2.2,0,3.6-1.2,3.6-1.2
					l-1.9-1.8l1.4-1.6l1.8,1.9c0.8-1.1,1.2-2.5,1.2-3.9c0-3.7-2.7-6.4-6.2-6.4c-3.5,0-6.2,2.7-6.2,6.4
					C229.4,40.3,232.1,43.2,235.6,43.2z"/>
			</g>
			<g>
				<path fill="#F8E2D2" d="M247.3,35.5c0-0.4-0.2-0.5-0.5-0.5h-1v-2h2.3c1.1,0,1.6,0.5,1.6,1.5v5.8c0,1.7,0.3,3,2.3,3
					c2.5,0,4-2.2,4-4.6V33h2.3v9.6c0,0.4,0.2,0.5,0.5,0.5h1v2h-2.2c-1,0-1.5-0.5-1.5-1.3v-0.5c0-0.4,0-0.7,0-0.7h0
					c-0.5,1.2-2.1,2.8-4.5,2.8c-2.7,0-4.1-1.4-4.1-4.7V35.5z"/>
			</g>
			<g>
				<path fill="#F8E2D2" d="M267.2,32.7c3.4,0,5.2,2.5,5.2,5.7c0,0.3-0.1,1-0.1,1h-8.9c0.1,2.6,2,4.1,4.2,4.1c2.1,0,3.6-1.4,3.6-1.4
					l1,1.7c0,0-1.8,1.8-4.7,1.8c-3.8,0-6.5-2.8-6.5-6.4C261.1,35.2,263.7,32.7,267.2,32.7z M270,37.6c-0.1-2-1.3-3.1-2.9-3.1
					c-1.8,0-3.2,1.1-3.6,3.1H270z"/>
			</g>
			<g>
				<path fill="#F8E2D2" d="M275.5,35.5c0-0.4-0.2-0.5-0.5-0.5h-1v-2h2.2c1.1,0,1.6,0.4,1.6,1.4v0.8c0,0.5,0,0.8,0,0.8h0
					c0.6-1.8,2-3.2,3.8-3.2c0.3,0,0.6,0,0.6,0v2.3c0,0-0.3-0.1-0.7-0.1c-1.5,0-2.9,1.1-3.4,2.9c-0.2,0.7-0.3,1.4-0.3,2.2v5h-2.3
					V35.5z"/>
			</g>
			<g>
				<path fill="#F8E2D2" d="M285.9,48.2c0.9,0,1.7-0.7,2.1-1.8l0.6-1.3l-4.2-9.6c-0.2-0.4-0.4-0.5-0.8-0.5h-0.3v-2h1.4
					c1,0,1.3,0.3,1.7,1.2l2.8,6.8c0.2,0.6,0.4,1.5,0.4,1.5h0c0,0,0.2-0.8,0.4-1.5l2.5-6.8c0.4-1,0.8-1.2,1.8-1.2h1.4v2h-0.3
					c-0.4,0-0.6,0.1-0.8,0.5l-4.8,11.9c-0.7,1.9-2.2,2.9-3.9,2.9c-1.8,0-2.9-1.2-2.9-1.2l1-1.7C284.1,47.3,284.9,48.2,285.9,48.2z"
					/>
			</g>
			<g>
				<path fill="#F8E2D2" d="M303.1,43.1h0.8c0.3,0,0.5-0.2,0.5-0.5l1.2-14.4h2.5l4,9c0.4,0.9,0.8,2.1,0.8,2.1h0c0,0,0.4-1.2,0.8-2.1
					l4-9h2.5l1.2,14.4c0,0.3,0.2,0.5,0.5,0.5h0.8v2.1h-2.1c-1.1,0-1.5-0.5-1.5-1.5l-0.7-9c-0.1-1,0-2.5,0-2.5h0c0,0-0.5,1.6-0.9,2.5
					l-3.4,7.4h-2l-3.4-7.4c-0.4-0.9-0.9-2.5-0.9-2.5h0c0,0,0,1.5,0,2.5l-0.7,9c-0.1,1.1-0.5,1.5-1.6,1.5h-2.1V43.1z"/>
			</g>
			<g>
				<path fill="#F8E2D2" d="M330.6,32.7c3.6,0,6.6,2.7,6.6,6.3c0,3.7-2.9,6.4-6.6,6.4S324,42.7,324,39
					C324,35.4,326.9,32.7,330.6,32.7z M330.6,43.4c2.3,0,4.2-1.8,4.2-4.4c0-2.5-1.9-4.3-4.2-4.3c-2.3,0-4.2,1.8-4.2,4.3
					C326.4,41.6,328.3,43.4,330.6,43.4z"/>
			</g>
			<g>
				<path fill="#F8E2D2" d="M344.4,32.7c2.8,0,3.7,1.9,3.7,1.9h0c0,0,0-0.4,0-0.8v-3c0-0.4-0.2-0.5-0.5-0.5h-1v-2h2.3
					c1.1,0,1.5,0.5,1.5,1.5v12.9c0,0.4,0.2,0.5,0.5,0.5h1v2h-2.2c-1.1,0-1.5-0.5-1.5-1.3c0-0.4,0-0.6,0-0.6h0c0,0-1,2.2-4,2.2
					c-3.3,0-5.4-2.6-5.4-6.4C338.9,35.2,341.1,32.7,344.4,32.7z M348.2,39c0-2.2-1.1-4.3-3.5-4.3c-1.9,0-3.5,1.6-3.5,4.3
					c0,2.6,1.4,4.3,3.4,4.3C346.5,43.4,348.2,42.1,348.2,39z"/>
			</g>
			<g>
				<path fill="#F8E2D2" d="M359.5,32.7c3.4,0,5.2,2.5,5.2,5.7c0,0.3-0.1,1-0.1,1h-8.9c0.1,2.6,2,4.1,4.2,4.1c2.1,0,3.6-1.4,3.6-1.4
					l1,1.7c0,0-1.8,1.8-4.7,1.8c-3.8,0-6.5-2.8-6.5-6.4C353.4,35.2,356,32.7,359.5,32.7z M362.3,37.6c-0.1-2-1.3-3.1-2.9-3.1
					c-1.8,0-3.2,1.1-3.6,3.1H362.3z"/>
			</g>
			<g>
				<path fill="#F8E2D2" d="M367.7,30.7c0-0.4-0.2-0.5-0.5-0.5h-1v-2h2.3c1.1,0,1.5,0.5,1.5,1.5v12.9c0,0.4,0.2,0.5,0.5,0.5h1v2
					h-2.3c-1.1,0-1.5-0.5-1.5-1.5V30.7z"/>
			</g>
		</g>
	</g>
	<g>
		<path fill="#FAAE24" d="M433,279c0.8,0,1.6-0.6,1.6-1.9c0-1.6-1.7-2.7-3.2-2.7h-0.3v0.5C431.1,276.3,431.2,279,433,279z"/>
		<path fill="#FAAE24" d="M427.3,252.1c0,1.9,1.5,3.5,3.6,3.5c2.1,0,3.6-1.6,3.6-3.5c0-1.9-1.5-3.5-3.6-3.5
			C428.8,248.7,427.3,250.2,427.3,252.1z"/>
		<path fill="#FAAE24" d="M415.7,233.1v86.9c0,3.3,2.7,5.9,5.9,5.9h16.5c3.3,0,5.9-2.7,5.9-5.9v-86.9c0-3.3-2.7-5.9-5.9-5.9h-16.5
			C418.3,227.2,415.7,229.9,415.7,233.1z M421.9,261.9v-1.7h2v1.7H421.9z M435.9,301.4v1.9c0,0.9-0.4,1.3-1.3,1.3h-4.8
			c-1.4,0-2.5,0.3-2.5,1.8c0,1.4,1.2,2.5,2.6,2.8c0.4,0.1,0.9,0.2,1.4,0.2h4.6v1.9h-6c-1.3,0-2.5,0.2-2.5,1.7c0,1.5,1.2,2.5,2.7,2.9
			c0.4,0.1,0.8,0.1,1.3,0.1h4.6v1.9h-8c-0.3,0-0.4,0.2-0.4,0.4v0.8h-1.7v-1.9c0-0.9,0.4-1.3,1.1-1.3h0.4c0.3,0,0.6,0,0.6,0v0
			c-1.2-0.5-2.3-1.9-2.3-3.5c0-1.7,0.8-2.7,2.3-3v0c-1.2-0.6-2.3-2-2.3-3.6c0-2.3,1.3-3.3,3.9-3.3h4.4c0.3,0,0.4-0.2,0.4-0.4v-0.8
			H435.9z M435.9,289v1.9c0,0.9-0.4,1.3-1.1,1.3h-0.4c-0.3,0-0.6,0-0.6,0v0c1,0.4,2.3,1.7,2.3,3.7c0,2.3-1.2,3.4-3.9,3.4h-4.4
			c-0.3,0-0.4,0.2-0.4,0.4v0.8h-1.7v-1.9c0-0.9,0.4-1.3,1.2-1.3h4.8c1.4,0,2.5-0.3,2.5-1.9c0-2.1-1.8-3.3-3.8-3.3h-4.7v-1.9h8
			c0.3,0,0.4-0.2,0.4-0.4V289H435.9z M436,282.3c0,0,0,0.3,0,0.7c0,1.3-0.4,3.9-3.8,3.9h-4.8v1.3h-1.6v-1.4h-2.8v-1.9h2.8v-2.4h1.6
			v2.4h4.6c2,0,2.3-1.4,2.3-2.1c0-0.3,0-0.5,0-0.5H436z M435.9,271.2v1.8c0,0.9-0.4,1.3-1.2,1.3c-0.3,0-0.6,0-0.6,0v0
			c0,0,2,0.8,2,3.2c0,1.7-1.1,3.4-3.1,3.4c-3.3,0-3.5-4.4-3.5-6.1v-0.4h-0.1c-1.8,0-2.4,0.7-2.4,2.2c0,0.5,0.1,1.7,0.8,1.7h0.6v1.8
			h-1c-1.7,0-1.9-2.5-1.9-3.5c0-3.3,1.7-4.2,4-4.2h4.3c0.3,0,0.4-0.2,0.4-0.4v-0.8H435.9z M436,264.5c0,0,0,0.3,0,0.7
			c0,1.3-0.4,3.9-3.8,3.9h-4.8v1.3h-1.6V269h-2.8v-1.9h2.8v-2.4h1.6v2.4h4.6c2,0,2.3-1.4,2.3-2.1c0-0.3,0-0.5,0-0.5H436z
			 M435.9,258.8v1.9c0,0.9-0.4,1.3-1.3,1.3h-6.7c-0.3,0-0.4,0.2-0.4,0.4v0.8h-1.7v-1.9c0-0.9,0.4-1.3,1.3-1.3h6.7
			c0.3,0,0.4-0.2,0.4-0.4v-0.8H435.9z M436.2,252.1c0,3-2.2,5.4-5.3,5.4c-3.1,0-5.3-2.4-5.3-5.4c0-3,2.2-5.4,5.3-5.4
			C434,246.7,436.2,249.1,436.2,252.1z M435.9,233.9v1.9c0,0.9-0.4,1.3-1.3,1.3h-4.8c-1.4,0-2.5,0.3-2.5,1.9c0,1.6,1,2.8,2.5,3.2
			c0.4,0.1,0.9,0.2,1.4,0.2h4.7v1.9h-8c-0.3,0-0.4,0.2-0.4,0.4v0.8h-1.7v-1.9c0-0.9,0.4-1.3,1.1-1.3h0.4c0.3,0,0.6,0,0.6,0v0
			c-0.9-0.4-2.3-1.6-2.3-3.8c0-2.4,1.3-3.5,3.9-3.5h4.4c0.3,0,0.4-0.2,0.4-0.4v-0.8H435.9z"/>
	</g>
	<g>
		<path fill="#FAAE24" d="M426.7,79.3c0,1.5,0.9,2.7,2.6,3V77C427.6,77,426.7,78.1,426.7,79.3z"/>
		<path fill="#FAAE24" d="M426.8,103.9c0,1.6,1.3,2.9,3.6,2.9c2.2,0,3.6-1.2,3.6-2.9c0-1.5-1.1-2.9-3.6-2.9
			C428.6,101.1,426.8,102,426.8,103.9z"/>
		<path fill="#FAAE24" d="M415.2,54.6v55.5c0,3.3,2.7,5.9,5.9,5.9h16.5c3.3,0,5.9-2.7,5.9-5.9V54.6c0-3.3-2.7-5.9-5.9-5.9h-16.5
			C417.9,48.7,415.2,51.4,415.2,54.6z M427.1,97.9v0.8c0,0.3,0.1,0.4,0.4,0.4h12v1.9h-4.6c-0.5,0-0.9,0-0.9,0v0c0,0,1.7,0.9,1.7,3.3
			c0,2.7-2.2,4.4-5.3,4.4c-3.2,0-5.3-1.9-5.3-4.6c0-2.4,1.7-3.3,1.7-3.3v0c0,0-0.2,0-0.5,0c-0.6,0-1-0.4-1-1.2v-1.8H427.1z
			 M435.5,85.6v1.9c0,0.9-0.4,1.3-1.1,1.3H434c-0.3,0-0.6,0-0.6,0v0c1,0.4,2.3,1.7,2.3,3.7c0,2.3-1.2,3.4-3.9,3.4h-4.4
			c-0.3,0-0.4,0.2-0.4,0.4v0.8h-1.7v-1.9c0-0.9,0.4-1.3,1.2-1.3h4.8c1.4,0,2.5-0.3,2.5-1.9c0-2.1-1.8-3.3-3.8-3.3h-4.7v-1.9h8
			c0.3,0,0.4-0.2,0.4-0.4v-0.8H435.5z M430.7,75v7.4c2.2-0.1,3.4-1.7,3.4-3.5c0-1.7-1.2-3-1.2-3l1.4-0.8c0,0,1.5,1.5,1.5,3.9
			c0,3.2-2.3,5.4-5.3,5.4c-3.2,0-5.3-2.2-5.3-5.1c0-2.8,2.1-4.4,4.7-4.4C430.2,75,430.7,75,430.7,75z M427.2,66.8
			c0,0-0.1,0.3-0.1,0.6c0,1.2,0.9,2.4,2.4,2.8c0.6,0.2,1.2,0.2,1.8,0.2h4.1v1.9h-8c-0.3,0-0.4,0.2-0.4,0.4v0.8h-1.7v-1.8
			c0-0.9,0.4-1.3,1.2-1.3h0.6c0.4,0,0.7,0,0.7,0v0c-1.5-0.5-2.6-1.6-2.6-3.2c0-0.3,0-0.5,0-0.5H427.2z M427.1,55.5v0.3
			c0,0.3,0.1,0.5,0.4,0.6l9.9,4c1.6,0.6,2.4,1.8,2.4,3.3c0,1.5-1,2.4-1,2.4l-1.4-0.8c0,0,0.7-0.6,0.7-1.5c0-0.8-0.6-1.4-1.5-1.8
			l-1.1-0.5l-8,3.5c-0.3,0.1-0.4,0.3-0.4,0.6v0.2h-1.7v-1.1c0-0.8,0.2-1.1,1-1.4l5.7-2.3c0.5-0.2,1.2-0.4,1.2-0.4v0
			c0,0-0.7-0.1-1.2-0.3l-5.7-2.1c-0.8-0.3-1-0.7-1-1.5v-1.2H427.1z"/>
	</g>
	<g>
		<path fill="#DC7676" d="M686.7,115.6h-92.9c-5.8,0-10.6,4.7-10.6,10.6v118.6c0,5.8,4.7,10.6,10.6,10.6h92.9
			c5.8,0,10.6-4.7,10.6-10.6V126.2C697.3,120.4,692.6,115.6,686.7,115.6z"/>
		<g>
			<path fill="#F8E2D2" d="M603.7,128.8c2,0,5.4,0.8,5.4,3.1v1.4h-1.9v-0.8c0-1.2-2.1-1.8-3.5-1.8c-2.9,0-5.2,2.2-5.2,5.5
				c0,3.2,2.3,5.7,5.2,5.7c2.9,0,4.6-2,4.6-2l1.1,1.5c0,0-2.1,2.4-5.7,2.4c-4.3,0-7.4-3.3-7.4-7.6
				C596.4,132,599.6,128.8,603.7,128.8z"/>
			<path fill="#F8E2D2" d="M611.8,131.2c0-0.3-0.2-0.5-0.5-0.5h-0.8V129h2c0.9,0,1.3,0.4,1.3,1.3v11c0,0.3,0.2,0.5,0.5,0.5h0.8v1.7
				h-2c-0.9,0-1.3-0.4-1.3-1.3V131.2z"/>
			<path fill="#F8E2D2" d="M617.5,135.3c0-0.3-0.2-0.5-0.5-0.5h-0.8v-1.7h2c0.9,0,1.3,0.4,1.3,1.3v6.9c0,0.3,0.2,0.5,0.5,0.5h0.8
				v1.7h-2c-0.9,0-1.3-0.4-1.3-1.3V135.3z M617.5,129h1.8v2.1h-1.8V129z"/>
			<path fill="#F8E2D2" d="M627.2,132.9c2.9,0,4.5,2.2,4.5,4.9c0,0.3-0.1,0.8-0.1,0.8h-7.6c0.1,2.2,1.7,3.5,3.6,3.5
				c1.8,0,3-1.2,3-1.2l0.9,1.4c0,0-1.5,1.5-4,1.5c-3.3,0-5.5-2.4-5.5-5.4C622,135,624.3,132.9,627.2,132.9z M629.7,137.1
				c-0.1-1.7-1.2-2.6-2.4-2.6c-1.5,0-2.8,0.9-3.1,2.6H629.7z"/>
			<path fill="#F8E2D2" d="M634.4,135.3c0-0.3-0.2-0.5-0.5-0.5h-0.8v-1.7h1.9c0.9,0,1.3,0.4,1.3,1.2v0.4c0,0.3,0,0.6,0,0.6h0
				c0.4-0.9,1.6-2.4,3.9-2.4c2.5,0,3.6,1.3,3.6,4v4.5c0,0.3,0.2,0.5,0.5,0.5h0.8v1.7h-2c-0.9,0-1.3-0.4-1.3-1.3v-4.9
				c0-1.5-0.3-2.6-2-2.6c-1.6,0-2.9,1-3.3,2.5c-0.1,0.4-0.2,0.9-0.2,1.4v4.9h-2V135.3z"/>
			<path fill="#F8E2D2" d="M647.3,134.8h-1.4v-1.6h1.4v-2.9h2v2.9h2.5v1.6h-2.5v4.8c0,2.1,1.4,2.3,2.2,2.3c0.3,0,0.5,0,0.5,0v1.8
				c0,0-0.3,0-0.7,0c-1.3,0-4-0.4-4-3.9V134.8z"/>
		</g>
	</g>
</g>
<g id="Layer_8">
	<path fill="#DC7676" d="M434.9,498.3v-29.8c0-5.5-4.4-9.9-9.9-9.9H171.1c-5.5,0-9.9,4.4-9.9,9.9v314.5c0,5.5,4.4,9.9,9.9,9.9H425
		c5.5,0,9.9-4.4,9.9-9.9v-17h-11.3v-16.5h0.2v-70.2h11.1v-82.6V581v-20.6h-11.1v-62H434.9z"/>
	<g>
		<path fill="#FAAE24" d="M435.8,725.3c0.8,0,1.6-0.6,1.6-1.9c0-1.6-1.7-2.7-3.2-2.7h-0.3v0.5C433.9,722.6,434,725.3,435.8,725.3z"
			/>
		<path fill="#FAAE24" d="M430.1,698.4c0,1.9,1.5,3.5,3.6,3.5c2.1,0,3.6-1.6,3.6-3.5c0-1.9-1.5-3.5-3.6-3.5
			C431.6,695,430.1,696.5,430.1,698.4z"/>
		<path fill="#FAAE24" d="M418.5,679.4v86.9c0,3.3,2.7,5.9,5.9,5.9h16.5c3.3,0,5.9-2.7,5.9-5.9v-86.9c0-3.3-2.7-5.9-5.9-5.9h-16.5
			C421.2,673.5,418.5,676.2,418.5,679.4z M424.7,708.2v-1.7h2v1.7H424.7z M438.8,747.7v1.9c0,0.9-0.4,1.3-1.3,1.3h-4.8
			c-1.4,0-2.5,0.3-2.5,1.8c0,1.4,1.2,2.5,2.6,2.8c0.4,0.1,0.9,0.2,1.4,0.2h4.6v1.9h-6c-1.3,0-2.5,0.2-2.5,1.7c0,1.5,1.2,2.5,2.7,2.9
			c0.4,0.1,0.8,0.1,1.3,0.1h4.6v1.9h-8c-0.3,0-0.4,0.2-0.4,0.4v0.8h-1.7v-1.9c0-0.9,0.4-1.3,1.1-1.3h0.4c0.3,0,0.6,0,0.6,0v0
			c-1.2-0.5-2.3-1.9-2.3-3.5c0-1.7,0.8-2.7,2.3-3v0c-1.2-0.6-2.3-2-2.3-3.6c0-2.3,1.3-3.3,3.9-3.3h4.4c0.3,0,0.4-0.2,0.4-0.4v-0.8
			H438.8z M438.8,735.3v1.9c0,0.9-0.4,1.3-1.1,1.3h-0.4c-0.3,0-0.6,0-0.6,0v0c1,0.4,2.3,1.7,2.3,3.7c0,2.3-1.2,3.4-3.9,3.4h-4.4
			c-0.3,0-0.4,0.2-0.4,0.4v0.8h-1.7V745c0-0.9,0.4-1.3,1.2-1.3h4.8c1.4,0,2.5-0.3,2.5-1.9c0-2.1-1.8-3.3-3.8-3.3h-4.7v-1.9h8
			c0.3,0,0.4-0.2,0.4-0.4v-0.8H438.8z M438.8,728.6c0,0,0,0.3,0,0.7c0,1.3-0.4,3.9-3.8,3.9h-4.8v1.3h-1.6v-1.4h-2.8v-1.9h2.8v-2.4
			h1.6v2.4h4.6c2,0,2.3-1.4,2.3-2.1c0-0.3,0-0.5,0-0.5H438.8z M438.8,717.5v1.8c0,0.9-0.4,1.3-1.2,1.3c-0.3,0-0.6,0-0.6,0v0
			c0,0,2,0.8,2,3.2c0,1.7-1.1,3.4-3.1,3.4c-3.3,0-3.5-4.4-3.5-6.1v-0.4h-0.1c-1.8,0-2.4,0.7-2.4,2.2c0,0.5,0.1,1.7,0.8,1.7h0.6v1.8
			h-1c-1.7,0-1.9-2.5-1.9-3.5c0-3.3,1.7-4.2,4-4.2h4.3c0.3,0,0.4-0.2,0.4-0.4v-0.8H438.8z M438.8,710.8c0,0,0,0.3,0,0.7
			c0,1.3-0.4,3.9-3.8,3.9h-4.8v1.3h-1.6v-1.4h-2.8v-1.9h2.8V711h1.6v2.4h4.6c2,0,2.3-1.4,2.3-2.1c0-0.3,0-0.5,0-0.5H438.8z
			 M438.8,705.1v1.9c0,0.9-0.4,1.3-1.3,1.3h-6.7c-0.3,0-0.4,0.2-0.4,0.4v0.8h-1.7v-1.9c0-0.9,0.4-1.3,1.3-1.3h6.7
			c0.3,0,0.4-0.2,0.4-0.4v-0.8H438.8z M439,698.4c0,3-2.2,5.4-5.3,5.4c-3.1,0-5.3-2.4-5.3-5.4c0-3,2.2-5.4,5.3-5.4
			C436.8,693,439,695.4,439,698.4z M438.8,680.2v1.9c0,0.9-0.4,1.3-1.3,1.3h-4.8c-1.4,0-2.5,0.3-2.5,1.9c0,1.6,1,2.8,2.5,3.2
			c0.4,0.1,0.9,0.2,1.4,0.2h4.7v1.9h-8c-0.3,0-0.4,0.2-0.4,0.4v0.8h-1.7V690c0-0.9,0.4-1.3,1.1-1.3h0.4c0.3,0,0.6,0,0.6,0v0
			c-0.9-0.4-2.3-1.6-2.3-3.8c0-2.4,1.3-3.5,3.9-3.5h4.4c0.3,0,0.4-0.2,0.4-0.4v-0.8H438.8z"/>
	</g>
	<g>
		<path fill="#FAAE24" d="M429.5,525.6c0,1.5,0.9,2.7,2.6,3v-5.3C430.4,523.3,429.5,524.4,429.5,525.6z"/>
		<path fill="#FAAE24" d="M429.7,550.2c0,1.6,1.3,2.9,3.6,2.9c2.2,0,3.6-1.2,3.6-2.9c0-1.5-1.1-2.9-3.6-2.9
			C431.5,547.4,429.7,548.3,429.7,550.2z"/>
		<path fill="#FAAE24" d="M418,500.9v55.5c0,3.3,2.7,5.9,5.9,5.9h16.5c3.3,0,5.9-2.7,5.9-5.9v-55.5c0-3.3-2.7-5.9-5.9-5.9H424
			C420.7,495,418,497.7,418,500.9z M429.9,544.2v0.8c0,0.3,0.1,0.4,0.4,0.4h12v1.9h-4.6c-0.5,0-0.9,0-0.9,0v0c0,0,1.7,0.9,1.7,3.3
			c0,2.7-2.2,4.4-5.3,4.4c-3.2,0-5.3-1.9-5.3-4.6c0-2.4,1.7-3.3,1.7-3.3v0c0,0-0.2,0-0.5,0c-0.6,0-1-0.4-1-1.2v-1.8H429.9z
			 M438.3,531.9v1.9c0,0.9-0.4,1.3-1.1,1.3h-0.4c-0.3,0-0.6,0-0.6,0v0c1,0.4,2.3,1.7,2.3,3.7c0,2.3-1.2,3.4-3.9,3.4h-4.4
			c-0.3,0-0.4,0.2-0.4,0.4v0.8h-1.7v-1.9c0-0.9,0.4-1.3,1.2-1.3h4.8c1.4,0,2.5-0.3,2.5-1.9c0-2.1-1.8-3.3-3.8-3.3h-4.7v-1.9h8
			c0.3,0,0.4-0.2,0.4-0.4v-0.8H438.3z M433.5,521.3v7.4c2.2-0.1,3.4-1.7,3.4-3.5c0-1.7-1.2-3-1.2-3l1.4-0.8c0,0,1.5,1.5,1.5,3.9
			c0,3.2-2.3,5.4-5.3,5.4c-3.2,0-5.3-2.2-5.3-5.1c0-2.8,2.1-4.4,4.7-4.4C433,521.3,433.5,521.3,433.5,521.3z M430.1,513.1
			c0,0-0.1,0.3-0.1,0.6c0,1.2,0.9,2.4,2.4,2.8c0.6,0.2,1.2,0.2,1.8,0.2h4.1v1.9h-8c-0.3,0-0.4,0.2-0.4,0.4v0.8h-1.7v-1.8
			c0-0.9,0.4-1.3,1.2-1.3h0.6c0.4,0,0.7,0,0.7,0v0c-1.5-0.5-2.6-1.6-2.6-3.2c0-0.3,0-0.5,0-0.5H430.1z M429.9,501.8v0.3
			c0,0.3,0.1,0.5,0.4,0.6l9.9,4c1.6,0.6,2.4,1.8,2.4,3.3c0,1.5-1,2.4-1,2.4l-1.4-0.8c0,0,0.7-0.6,0.7-1.5c0-0.8-0.6-1.4-1.5-1.8
			l-1.1-0.5l-8,3.5c-0.3,0.1-0.4,0.3-0.4,0.6v0.2h-1.7V511c0-0.8,0.2-1.1,1-1.4l5.7-2.3c0.5-0.2,1.2-0.4,1.2-0.4v0
			c0,0-0.7-0.1-1.2-0.3l-5.7-2.1c-0.8-0.3-1-0.7-1-1.5v-1.2H429.9z"/>
	</g>
	<g>
		<path fill="#DC7676" stroke="#F8E2D2" stroke-miterlimit="10" d="M18.1,511.5v72c0,5.6,17.2,10.2,38.4,10.2
			c21.2,0,38.4-4.6,38.4-10.2v-72H18.1z"/>
		<ellipse fill="#DC7676" stroke="#F8E2D2" stroke-miterlimit="10" cx="56.5" cy="511.5" rx="38.4" ry="10.2"/>
		<g>
			<path fill="#DC7676" d="M6.3,486.8l-1.4,0.5l-0.7-1.9l6.2-2.2c4.6-1.7,8.7,0,10.5,4.8c1.8,4.8-0.3,8.8-4.9,10.4l-3.4,1.2
				c-1,0.4-1.5,0.1-1.9-0.9L6.3,486.8z M13.1,497.4l2-0.7c3.4-1.2,4.9-4.1,3.5-7.8c-1.4-3.7-4.3-4.9-7.7-3.7L8.4,486l4,11.1
				C12.5,497.4,12.8,497.5,13.1,497.4z"/>
			<path fill="#DC7676" d="M30.5,487.5l0.5-0.1l0-0.1c-0.3-2-1.2-2.6-3-2.3c-0.5,0.1-1.9,0.5-1.7,1.2l0.1,0.7l-2.1,0.3l-0.2-1.1
				c-0.3-1.9,2.5-2.6,3.6-2.8c3.7-0.6,5,1.2,5.5,3.7l0.8,4.9c0.1,0.3,0.3,0.5,0.6,0.4l0.9-0.2l0.3,1.9l-2.1,0.3
				c-1,0.2-1.5-0.3-1.6-1.1c-0.1-0.4-0.1-0.7-0.1-0.7l0,0c0,0-0.5,2.4-3.3,2.9c-2,0.3-4.1-0.5-4.5-2.8
				C23.6,488.9,28.5,487.8,30.5,487.5z M28.9,493.6c1.9-0.3,2.7-2.5,2.5-4.2l-0.1-0.4l-0.6,0.1c-1.7,0.3-4.6,0.9-4.3,3
				C26.6,493,27.4,493.8,28.9,493.6z"/>
			<path fill="#DC7676" d="M37.1,484l-1.5,0.1l-0.2-1.8l1.6-0.1l-0.3-3.2l2.2-0.2l0.3,3.2l2.8-0.3l0.2,1.8l-2.8,0.3l0.5,5.3
				c0.2,2.3,1.8,2.5,2.7,2.4c0.3,0,0.5-0.1,0.5-0.1l0.2,2c0,0-0.3,0.1-0.8,0.1c-1.5,0.1-4.5,0-4.8-3.9L37.1,484z"/>
			<path fill="#DC7676" d="M51.3,485.7l0.5,0l0-0.1c-0.1-2-0.9-2.8-2.7-2.7c-0.6,0-1.9,0.2-1.9,1l0,0.7l-2.1,0.1l0-1.1
				c-0.1-1.9,2.8-2.3,3.9-2.3c3.8-0.1,4.8,1.8,4.9,4.4l0.2,4.9c0,0.3,0.2,0.5,0.5,0.5l0.9,0l0.1,1.9l-2.1,0.1c-1,0-1.5-0.5-1.5-1.3
				c0-0.4,0-0.7,0-0.7l0,0c0,0-0.8,2.3-3.6,2.4c-2,0.1-4-1.1-4.1-3.4C44.3,486.2,49.3,485.8,51.3,485.7z M48.9,491.5
				c1.9-0.1,3-2.1,3-3.8l0-0.4l-0.6,0c-1.7,0.1-4.7,0.3-4.6,2.4C46.7,490.7,47.4,491.6,48.9,491.5z"/>
			<path fill="#DC7676" d="M58.2,479c0-0.3-0.2-0.5-0.5-0.5l-0.9,0l0.1-1.9l2.2,0.1c1,0,1.5,0.5,1.4,1.5l-0.1,3.8c0,0.6-0.1,1-0.1,1
				l0,0c0,0,1.1-1.9,3.8-1.8c3.1,0.1,5,2.7,4.9,6.3c-0.1,3.7-2.4,6-5.5,5.9c-2.6-0.1-3.6-2.1-3.6-2.1l0,0c0,0,0,0.4,0,0.9l0,0.8
				l-2.1-0.1L58.2,479z M63.3,491.4c1.8,0.1,3.4-1.4,3.5-4c0.1-2.5-1.2-4.2-3.2-4.3c-1.7-0.1-3.4,1.1-3.5,4.1
				C60.1,489.2,61.1,491.3,63.3,491.4z"/>
			<path fill="#DC7676" d="M77.9,486.9l0.5,0.1l0-0.1c0.2-2-0.4-2.8-2.3-3c-0.5-0.1-1.9-0.1-2,0.7l-0.1,0.7l-2.1-0.2l0.1-1.1
				c0.2-1.9,3.1-1.9,4.2-1.7c3.7,0.4,4.5,2.5,4.3,5l-0.5,4.9c0,0.3,0.1,0.5,0.4,0.6l0.9,0.1l-0.2,1.9l-2.1-0.2
				c-1-0.1-1.4-0.7-1.3-1.5c0-0.4,0.1-0.7,0.1-0.7l0,0c0,0-1.2,2.2-3.9,1.9c-2-0.2-3.8-1.6-3.5-4C70.9,486.3,76,486.6,77.9,486.9z
				 M74.7,492.3c1.9,0.2,3.3-1.6,3.5-3.3l0-0.4l-0.6-0.1c-1.7-0.2-4.7-0.4-4.9,1.7C72.6,491.1,73.2,492.1,74.7,492.3z"/>
			<path fill="#DC7676" d="M83.8,491.7c0,0,1,2,3.1,2.4c1.1,0.2,2.1-0.1,2.3-1.1c0.4-2.1-5.9-3.1-5.1-6.8c0.4-2.2,2.6-2.8,4.9-2.3
				c1.4,0.3,3.6,1.2,3.3,3l-0.2,1.1l-2-0.4l0.1-0.6c0.1-0.7-0.8-1.2-1.5-1.3c-1.3-0.3-2.2,0-2.4,0.9c-0.4,2.2,5.9,2.9,5.1,6.8
				c-0.4,2-2.5,3-4.9,2.5c-3-0.6-4.2-2.9-4.2-2.9L83.8,491.7z"/>
			<path fill="#DC7676" d="M101.5,487.4c3.1,1.2,3.8,4.1,2.8,6.9c-0.1,0.3-0.4,0.8-0.4,0.8l-7.9-3c-0.8,2.4,0.4,4.3,2.4,5.1
				c1.9,0.7,3.7-0.1,3.7-0.1l0.3,1.8c0,0-2.2,1-4.8,0c-3.4-1.3-4.9-4.7-3.6-7.9C95.2,487.6,98.5,486.2,101.5,487.4z M102.4,492.8
				c0.6-1.8-0.2-3.2-1.5-3.7c-1.6-0.6-3.2-0.1-4.3,1.6L102.4,492.8z"/>
		</g>
		<path fill="#DC7676" stroke="#F8E2D2" stroke-miterlimit="10" d="M56.5,546.2c-21.2,0-38.4-4.6-38.4-10.2"/>
		<path fill="#DC7676" stroke="#F8E2D2" stroke-miterlimit="10" d="M94.9,536c0,5.6-17.2,10.2-38.4,10.2"/>
		<path fill="#DC7676" stroke="#F8E2D2" stroke-miterlimit="10" d="M56.5,570.7c-21.2,0-38.4-4.6-38.4-10.2"/>
		<path fill="#DC7676" stroke="#F8E2D2" stroke-miterlimit="10" d="M94.9,560.5c0,5.6-17.2,10.2-38.4,10.2"/>
	</g>
	<g>
		<g>
			<path fill="#F8E2D2" d="M241.6,737.7h-36c-4.8,0-8.7-3.9-8.7-8.7v-24c0-4.8,3.9-8.7,8.7-8.7h36c4.8,0,8.7,3.9,8.7,8.7v24
				C250.2,733.8,246.4,737.7,241.6,737.7z"/>
		</g>
		<g>
			<path fill="#F8E2D2" d="M373,743.3h-36c-4.8,0-8.7-3.9-8.7-8.7v-24c0-4.8,3.9-8.7,8.7-8.7h36c4.8,0,8.7,3.9,8.7,8.7v24
				C381.7,739.4,377.8,743.3,373,743.3z"/>
		</g>
		<g>
			<path fill="#F8E2D2" d="M284.9,749.8c2.3,0,6.4,1,6.4,3.7v1.7h-2.2v-1c0-1.4-2.4-2.1-4.1-2.1c-3.4,0-6,2.6-6,6.4
				c0,3.7,2.7,6.6,6.1,6.6c3.4,0,5.4-2.3,5.4-2.3l1.3,1.7c0,0-2.4,2.8-6.7,2.8c-5.1,0-8.6-3.9-8.6-8.9
				C276.5,753.5,280.1,749.8,284.9,749.8z"/>
			<path fill="#F8E2D2" d="M299.9,754.6c3.6,0,6.6,2.7,6.6,6.3c0,3.7-2.9,6.4-6.6,6.4c-3.6,0-6.5-2.7-6.5-6.4
				C293.3,757.2,296.2,754.6,299.9,754.6z M299.9,765.3c2.3,0,4.2-1.8,4.2-4.4c0-2.5-1.9-4.3-4.2-4.3c-2.3,0-4.2,1.8-4.2,4.3
				C295.7,763.4,297.6,765.3,299.9,765.3z"/>
			<path fill="#F8E2D2" d="M309.3,757.4c0-0.4-0.2-0.5-0.5-0.5h-1v-2h2.2c1.1,0,1.5,0.5,1.5,1.3v0.5c0,0.4,0,0.7,0,0.7h0
				c0.6-1.4,2.3-2.8,4.2-2.8c2.1,0,3.2,0.9,3.6,2.8h0c0.7-1.5,2.4-2.8,4.3-2.8c2.7,0,4,1.6,4,4.7v5.3c0,0.4,0.2,0.5,0.5,0.5h1v2H327
				c-1.1,0-1.5-0.5-1.5-1.5v-5.7c0-1.7-0.3-3-2.1-3c-1.7,0-3,1.5-3.4,3.1c-0.1,0.5-0.2,1-0.2,1.7v5.5h-2.3v-7.3c0-1.6-0.2-3-2.1-3
				c-1.8,0-3,1.5-3.5,3.2c-0.1,0.5-0.2,1-0.2,1.6v5.5h-2.3V757.4z"/>
			<path fill="#F8E2D2" d="M331.8,757.4c0-0.4-0.2-0.5-0.5-0.5h-1v-2h2.2c1.1,0,1.5,0.5,1.5,1.3v0.5c0,0.4,0,0.7,0,0.7h0
				c0.6-1.4,2.3-2.8,4.2-2.8c2.1,0,3.2,0.9,3.6,2.8h0c0.7-1.5,2.4-2.8,4.3-2.8c2.7,0,4,1.6,4,4.7v5.3c0,0.4,0.2,0.5,0.5,0.5h1v2
				h-2.3c-1.1,0-1.5-0.5-1.5-1.5v-5.7c0-1.7-0.3-3-2.1-3c-1.7,0-3,1.5-3.4,3.1c-0.1,0.5-0.2,1-0.2,1.7v5.5h-2.3v-7.3
				c0-1.6-0.2-3-2.1-3c-1.8,0-3,1.5-3.5,3.2c-0.1,0.5-0.2,1-0.2,1.6v5.5h-2.3V757.4z"/>
			<path fill="#F8E2D2" d="M360.5,759.4h0.5v-0.1c0-2.1-0.8-2.9-2.7-2.9c-0.6,0-2,0.1-2,0.9v0.7h-2.2v-1.2c0-2,3-2.3,4.2-2.3
				c3.9,0,5,2.1,5,4.8v5.2c0,0.4,0.2,0.5,0.5,0.5h1v2h-2.2c-1.1,0-1.5-0.5-1.5-1.4c0-0.4,0-0.7,0-0.7h0c0,0-1,2.4-3.9,2.4
				c-2.1,0-4.1-1.3-4.1-3.7C353.1,759.7,358.4,759.4,360.5,759.4z M357.8,765.4c2,0,3.2-2.1,3.2-3.9v-0.4h-0.6
				c-1.8,0-4.9,0.1-4.9,2.3C355.5,764.4,356.2,765.4,357.8,765.4z"/>
			<path fill="#F8E2D2" d="M367.3,757.4c0-0.4-0.2-0.5-0.5-0.5h-1v-2h2.2c1,0,1.5,0.5,1.5,1.3v0.5c0,0.4,0,0.7,0,0.7h0
				c0.5-1.1,1.9-2.8,4.6-2.8c2.9,0,4.2,1.6,4.2,4.7v5.3c0,0.4,0.2,0.5,0.5,0.5h1v2h-2.3c-1.1,0-1.5-0.5-1.5-1.5v-5.7
				c0-1.7-0.3-3-2.3-3c-1.9,0-3.4,1.2-3.8,3c-0.2,0.5-0.2,1-0.2,1.6v5.7h-2.3V757.4z"/>
			<path fill="#F8E2D2" d="M386.7,754.6c2.8,0,3.7,1.9,3.7,1.9h0c0,0,0-0.4,0-0.8v-3c0-0.4-0.2-0.5-0.5-0.5h-1v-2h2.3
				c1.1,0,1.5,0.5,1.5,1.5v12.9c0,0.4,0.2,0.5,0.5,0.5h1v2h-2.2c-1.1,0-1.5-0.5-1.5-1.3c0-0.4,0-0.6,0-0.6h0c0,0-1,2.2-4,2.2
				c-3.3,0-5.4-2.6-5.4-6.4C381.2,757.1,383.5,754.6,386.7,754.6z M390.5,760.9c0-2.2-1.1-4.3-3.5-4.3c-1.9,0-3.5,1.6-3.5,4.3
				c0,2.6,1.4,4.3,3.4,4.3C388.8,765.3,390.5,764,390.5,760.9z"/>
		</g>
		<g>
			<path fill="#F8E2D2" d="M189.4,673.7h-1.6v-2.1h10c1.1,0,1.5,0.5,1.5,1.5v2.1h-2.2v-1.1c0-0.4-0.2-0.5-0.5-0.5h-4.8v5.3h5.9v2.1
				h-5.9v4.9c0,0.3,0.2,0.5,0.5,0.5h4.9c0.3,0,0.5-0.2,0.5-0.5V685h2.2v2.1c0,1.1-0.5,1.5-1.5,1.5h-7.5c-1.1,0-1.5-0.5-1.5-1.5
				V673.7z"/>
			<path fill="#F8E2D2" d="M201.7,679c-0.1-0.4-0.4-0.5-0.7-0.5h-0.2v-2h1.2c1.1,0,1.5,0.3,1.8,1.2l2.6,7c0.2,0.7,0.4,1.6,0.4,1.6h0
				c0,0,0.2-0.9,0.4-1.6l2.6-7c0.4-1,0.8-1.2,1.8-1.2h1.1v2h-0.2c-0.4,0-0.6,0.1-0.8,0.5l-3.7,9.7h-2.7L201.7,679z"/>
			<path fill="#F8E2D2" d="M219.9,676.2c3.4,0,5.2,2.5,5.2,5.7c0,0.3-0.1,1-0.1,1h-8.9c0.1,2.6,2,4.1,4.2,4.1c2.1,0,3.6-1.4,3.6-1.4
				l1,1.7c0,0-1.8,1.8-4.7,1.8c-3.8,0-6.5-2.8-6.5-6.4C213.8,678.7,216.5,676.2,219.9,676.2z M222.8,681.1c-0.1-2-1.3-3.1-2.9-3.1
				c-1.8,0-3.2,1.1-3.6,3.1H222.8z"/>
			<path fill="#F8E2D2" d="M228.3,679c0-0.4-0.2-0.5-0.5-0.5h-1v-2h2.2c1,0,1.5,0.5,1.5,1.3v0.5c0,0.4,0,0.7,0,0.7h0
				c0.5-1.1,1.9-2.8,4.6-2.8c2.9,0,4.2,1.6,4.2,4.7v5.3c0,0.4,0.2,0.5,0.5,0.5h1v2h-2.3c-1.1,0-1.5-0.5-1.5-1.5v-5.7
				c0-1.7-0.3-3-2.3-3c-1.9,0-3.4,1.2-3.8,3c-0.2,0.5-0.2,1-0.2,1.6v5.7h-2.3V679z"/>
			<path fill="#F8E2D2" d="M243.4,678.4h-1.6v-1.9h1.6v-3.3h2.3v3.3h2.9v1.9h-2.9v5.6c0,2.4,1.7,2.7,2.6,2.7c0.3,0,0.6,0,0.6,0v2.1
				c0,0-0.3,0-0.8,0c-1.5,0-4.6-0.5-4.6-4.5V678.4z"/>
			<path fill="#F8E2D2" d="M251.5,685.2c0,0,1.4,1.8,3.7,1.8c1.1,0,2.1-0.5,2.1-1.6c0-2.2-6.6-1.9-6.6-5.9c0-2.3,2-3.4,4.5-3.4
				c1.5,0,4,0.5,4,2.4v1.2h-2.1v-0.6c0-0.7-1.1-1-1.8-1c-1.4,0-2.3,0.5-2.3,1.4c0,2.3,6.6,1.8,6.6,5.9c0,2.2-1.9,3.6-4.5,3.6
				c-3.2,0-4.8-2.1-4.8-2.1L251.5,685.2z"/>
		</g>
		<path fill="#F8E2D2" stroke="#DC7676" stroke-width="2" stroke-miterlimit="10" d="M246.7,743.3h-36c-4.8,0-8.7-3.9-8.7-8.7v-24
			c0-4.8,3.9-8.7,8.7-8.7h36c4.8,0,8.7,3.9,8.7,8.7v24C255.3,739.4,251.5,743.3,246.7,743.3z"/>
		<path fill="#F8E2D2" stroke="#DC7676" stroke-width="2" stroke-miterlimit="10" d="M252.3,749.3h-36c-4.8,0-8.7-3.9-8.7-8.7v-24
			c0-4.8,3.9-8.7,8.7-8.7h36c4.8,0,8.7,3.9,8.7,8.7v24C261,745.5,257.1,749.3,252.3,749.3z"/>
	</g>
	<g>
		<line fill="#FAAE24" x1="554.6" y1="691.4" x2="467.7" y2="731.3"/>
		<g>
			<line fill="none" stroke="#FAAE24" stroke-width="7" stroke-miterlimit="10" x1="554.6" y1="691.4" x2="490.5" y2="720.8"/>
			<g>
				<polygon fill="#FAAE24" points="487.9,702.8 467.7,731.3 502.4,734.6 				"/>
			</g>
		</g>
	</g>
	<g>
		<line fill="#FAAE24" x1="468.9" y1="541.8" x2="561.7" y2="575.4"/>
		<g>
			<line fill="none" stroke="#FAAE24" stroke-width="7" stroke-miterlimit="10" x1="468.9" y1="541.8" x2="538.1" y2="566.9"/>
			<g>
				<polygon fill="#FAAE24" points="527.3,581.5 561.7,575.4 539.2,548.7 				"/>
			</g>
		</g>
	</g>
	<g>
		<g>
			<path fill="#F8E2D2" d="M274.5,555.8h-36c-4.8,0-8.7-3.9-8.7-8.7v-24c0-4.8,3.9-8.7,8.7-8.7h36c4.8,0,8.7,3.9,8.7,8.7v24
				C283.1,551.9,279.3,555.8,274.5,555.8z"/>
		</g>
		<g>
			<line fill="#F8E2D2" x1="295" y1="601.4" x2="271" y2="555.8"/>
			<g>
				<line fill="none" stroke="#F8E2D2" stroke-width="4" stroke-miterlimit="10" x1="295" y1="601.4" x2="277.7" y2="568.5"/>
				<g>
					<polygon fill="#F8E2D2" points="287.8,566.4 271,555.8 270.2,575.7 					"/>
				</g>
			</g>
		</g>
		<g>
			<path fill="#F8E2D2" d="M355.6,555.8h-36c-4.8,0-8.7-3.9-8.7-8.7v-24c0-4.8,3.9-8.7,8.7-8.7h36c4.8,0,8.7,3.9,8.7,8.7v24
				C364.3,551.9,360.4,555.8,355.6,555.8z"/>
		</g>
		<g>
			<line fill="#F8E2D2" x1="307.4" y1="595.3" x2="325.8" y2="555.8"/>
			<g>
				<line fill="none" stroke="#F8E2D2" stroke-width="4" stroke-miterlimit="10" x1="307.4" y1="595.3" x2="319.7" y2="568.8"/>
				<g>
					<polygon fill="#F8E2D2" points="327.6,575.7 325.8,555.8 309.5,567.2 					"/>
				</g>
			</g>
		</g>
		<g>
			<path fill="#F8E2D2" d="M315.6,625.8h-36c-4.8,0-8.7-3.9-8.7-8.7v-24c0-4.8,3.9-8.7,8.7-8.7h36c4.8,0,8.7,3.9,8.7,8.7v24
				C324.3,621.9,320.4,625.8,315.6,625.8z"/>
		</g>
		<g>
			<path fill="#F8E2D2" d="M234.1,490.4c4.9,0,8.7,3.8,8.7,8.7c0,2.1-0.8,4.1-2,5.6l1.9,1.9l-1.4,1.5l-1.9-1.9
				c-1.5,1.2-3.3,1.8-5.3,1.8c-4.9,0-8.7-3.9-8.7-8.9C225.5,494.1,229.2,490.4,234.1,490.4z M234.1,505.6c2.2,0,3.6-1.2,3.6-1.2
				l-1.9-1.8l1.4-1.6l1.8,1.9c0.8-1.1,1.2-2.5,1.2-3.9c0-3.7-2.7-6.4-6.2-6.4c-3.5,0-6.2,2.7-6.2,6.4
				C228,502.7,230.7,505.6,234.1,505.6z"/>
			<path fill="#F8E2D2" d="M245.8,498c0-0.4-0.2-0.5-0.5-0.5h-1v-2h2.3c1.1,0,1.6,0.5,1.6,1.5v5.8c0,1.7,0.3,3,2.3,3
				c2.5,0,4-2.2,4-4.6v-5.7h2.3v9.6c0,0.4,0.2,0.5,0.5,0.5h1v2H256c-1,0-1.5-0.5-1.5-1.3v-0.5c0-0.4,0-0.7,0-0.7h0
				c-0.5,1.2-2.1,2.8-4.5,2.8c-2.7,0-4.1-1.4-4.1-4.7V498z"/>
			<path fill="#F8E2D2" d="M265.7,495.2c3.4,0,5.2,2.5,5.2,5.7c0,0.3-0.1,1-0.1,1H262c0.1,2.6,2,4.1,4.2,4.1c2.1,0,3.6-1.4,3.6-1.4
				l1,1.7c0,0-1.8,1.8-4.7,1.8c-3.8,0-6.5-2.8-6.5-6.4C259.6,497.7,262.2,495.2,265.7,495.2z M268.5,500.1c-0.1-2-1.3-3.1-2.9-3.1
				c-1.8,0-3.2,1.1-3.6,3.1H268.5z"/>
			<path fill="#F8E2D2" d="M274,498c0-0.4-0.2-0.5-0.5-0.5h-1v-2h2.2c1.1,0,1.6,0.4,1.6,1.4v0.8c0,0.5,0,0.8,0,0.8h0
				c0.6-1.8,2-3.2,3.8-3.2c0.3,0,0.6,0,0.6,0v2.3c0,0-0.3-0.1-0.7-0.1c-1.5,0-2.9,1.1-3.4,2.9c-0.2,0.7-0.3,1.4-0.3,2.2v5H274V498z"
				/>
			<path fill="#F8E2D2" d="M284.4,510.6c0.9,0,1.7-0.7,2.1-1.8l0.6-1.3l-4.2-9.6c-0.2-0.4-0.4-0.5-0.8-0.5h-0.3v-2h1.4
				c1,0,1.3,0.3,1.7,1.2l2.8,6.8c0.2,0.6,0.4,1.5,0.4,1.5h0c0,0,0.2-0.8,0.4-1.5l2.5-6.8c0.4-1,0.8-1.2,1.8-1.2h1.4v2H294
				c-0.4,0-0.6,0.1-0.8,0.5l-4.8,11.9c-0.7,1.9-2.2,2.9-3.9,2.9c-1.8,0-2.9-1.2-2.9-1.2l1-1.7C282.7,509.8,283.4,510.6,284.4,510.6z
				"/>
			<path fill="#F8E2D2" d="M301.6,505.5h0.8c0.3,0,0.5-0.2,0.5-0.5l1.2-14.4h2.5l4,9c0.4,0.9,0.8,2.1,0.8,2.1h0c0,0,0.4-1.2,0.8-2.1
				l4-9h2.5l1.2,14.4c0,0.3,0.2,0.5,0.5,0.5h0.8v2.1h-2.1c-1.1,0-1.5-0.5-1.5-1.5l-0.7-9c-0.1-1,0-2.5,0-2.5h0c0,0-0.5,1.6-0.9,2.5
				l-3.4,7.4h-2l-3.4-7.4c-0.4-0.9-0.9-2.5-0.9-2.5h0c0,0,0,1.5,0,2.5l-0.7,9c-0.1,1.1-0.5,1.5-1.6,1.5h-2.1V505.5z"/>
			<path fill="#F8E2D2" d="M329.1,495.2c3.6,0,6.6,2.7,6.6,6.3c0,3.7-2.9,6.4-6.6,6.4s-6.5-2.7-6.5-6.4
				C322.6,497.8,325.5,495.2,329.1,495.2z M329.1,505.9c2.3,0,4.2-1.8,4.2-4.4c0-2.5-1.9-4.3-4.2-4.3c-2.3,0-4.2,1.8-4.2,4.3
				C325,504,326.8,505.9,329.1,505.9z"/>
			<path fill="#F8E2D2" d="M342.9,495.2c2.8,0,3.7,1.9,3.7,1.9h0c0,0,0-0.4,0-0.8v-3c0-0.4-0.2-0.5-0.5-0.5h-1v-2h2.3
				c1.1,0,1.5,0.5,1.5,1.5v12.9c0,0.4,0.2,0.5,0.5,0.5h1v2h-2.2c-1.1,0-1.5-0.5-1.5-1.3c0-0.4,0-0.6,0-0.6h0c0,0-1,2.2-4,2.2
				c-3.3,0-5.4-2.6-5.4-6.4C337.4,497.7,339.7,495.2,342.9,495.2z M346.7,501.5c0-2.2-1.1-4.3-3.5-4.3c-1.9,0-3.5,1.6-3.5,4.3
				c0,2.6,1.4,4.3,3.4,4.3C345,505.9,346.7,504.6,346.7,501.5z"/>
			<path fill="#F8E2D2" d="M358,495.2c3.4,0,5.2,2.5,5.2,5.7c0,0.3-0.1,1-0.1,1h-8.9c0.1,2.6,2,4.1,4.2,4.1c2.1,0,3.6-1.4,3.6-1.4
				l1,1.7c0,0-1.8,1.8-4.7,1.8c-3.8,0-6.5-2.8-6.5-6.4C351.9,497.7,354.5,495.2,358,495.2z M360.8,500.1c-0.1-2-1.3-3.1-2.9-3.1
				c-1.8,0-3.2,1.1-3.6,3.1H360.8z"/>
			<path fill="#F8E2D2" d="M366.3,493.2c0-0.4-0.2-0.5-0.5-0.5h-1v-2h2.3c1.1,0,1.5,0.5,1.5,1.5v12.9c0,0.4,0.2,0.5,0.5,0.5h1v2
				h-2.3c-1.1,0-1.5-0.5-1.5-1.5V493.2z"/>
		</g>
	</g>
	<g>
		<path fill="#DC7676" stroke="#F8E2D2" stroke-miterlimit="10" d="M19.1,695.9v72c0,5.6,17.2,10.2,38.4,10.2
			c21.2,0,38.4-4.6,38.4-10.2v-72H19.1z"/>
		<ellipse fill="#DC7676" stroke="#F8E2D2" stroke-miterlimit="10" cx="57.5" cy="695.9" rx="38.4" ry="10.2"/>
		<g>
			<path fill="#DC7676" d="M3.7,678.2l-1.2,0.6l-0.8-1.5l7.4-3.8c0.8-0.4,1.3-0.3,1.7,0.5l0.8,1.6l-1.6,0.8l-0.4-0.8
				c-0.1-0.3-0.3-0.3-0.6-0.2l-3.6,1.9l2,3.9l4.4-2.3l0.8,1.5l-4.4,2.3l1.9,3.6c0.1,0.2,0.3,0.3,0.6,0.2l3.7-1.9
				c0.2-0.1,0.3-0.3,0.2-0.6l-0.4-0.8l1.6-0.8l0.8,1.6c0.4,0.8,0.3,1.3-0.5,1.7l-5.6,2.9c-0.8,0.4-1.3,0.3-1.7-0.5L3.7,678.2z"/>
			<path fill="#DC7676" d="M16.1,677.4c-0.2-0.3-0.4-0.3-0.7-0.2l-0.2,0.1l-0.4-1.6l1-0.3c0.9-0.2,1.3-0.1,1.7,0.6L21,681
				c0.3,0.5,0.7,1.2,0.7,1.2l0,0c0,0,0-0.8,0-1.4l0.6-6.2c0.1-0.9,0.4-1.2,1.2-1.4l0.9-0.2l0.4,1.6l-0.2,0c-0.3,0.1-0.5,0.2-0.5,0.6
				l-1,8.6l-2.2,0.6L16.1,677.4z"/>
			<path fill="#DC7676" d="M31,671.8c2.8-0.4,4.6,1.4,5,4c0,0.3,0.1,0.8,0.1,0.8l-7.3,1.1c0.4,2.1,2.2,3.1,4,2.8
				c1.7-0.3,2.7-1.6,2.7-1.6l1,1.2c0,0-1.3,1.7-3.6,2.1c-3.2,0.5-5.7-1.5-6.1-4.4C26.3,674.6,28.1,672.2,31,671.8z M33.9,675.5
				c-0.3-1.7-1.5-2.4-2.7-2.2c-1.5,0.2-2.5,1.3-2.6,3L33.9,675.5z"/>
			<path fill="#DC7676" d="M38.6,673.1c0-0.3-0.2-0.4-0.5-0.4l-0.8,0.1l-0.1-1.7L39,671c0.9-0.1,1.3,0.3,1.4,1l0,0.4
				c0,0.3,0,0.6,0,0.6l0,0c0.3-0.9,1.4-2.4,3.6-2.6c2.4-0.2,3.6,1,3.8,3.6l0.3,4.4c0,0.3,0.2,0.4,0.5,0.4l0.8-0.1l0.1,1.7l-1.9,0.1
				c-0.9,0.1-1.3-0.3-1.4-1.2l-0.4-4.7c-0.1-1.4-0.5-2.5-2.1-2.4c-1.6,0.1-2.7,1.2-3,2.7c-0.1,0.4-0.1,0.9-0.1,1.4l0.4,4.7l-1.9,0.1
				L38.6,673.1z"/>
			<path fill="#DC7676" d="M51.4,671.8l-1.3,0l0-1.6l1.4,0l-0.1-2.8l1.9,0l0.1,2.8l2.4-0.1l0,1.6l-2.4,0.1l0.1,4.6
				c0,2,1.4,2.2,2.2,2.2c0.3,0,0.5,0,0.5,0l0,1.7c0,0-0.3,0-0.7,0.1c-1.3,0-3.9-0.3-3.9-3.7L51.4,671.8z"/>
			<path fill="#DC7676" d="M64,677.1c0,0,1.3,1.8,3.4,1.9c1.3,0.1,2.5-0.7,2.5-2c0.2-3-6.7-2.9-6.5-7.2c0.1-2.1,2.1-3.7,4.7-3.5
				c1.5,0.1,4,0.9,3.9,2.8l-0.1,1.2l-1.8-0.1l0-0.7c0-0.7-1-1.3-2.1-1.4c-1.5-0.1-2.5,0.7-2.6,1.8c-0.1,2.9,6.7,2.6,6.4,7.2
				c-0.1,2.2-1.9,3.9-4.7,3.8c-3-0.2-4.6-2.3-4.6-2.3L64,677.1z"/>
			<path fill="#DC7676" d="M75.1,672.5l-1.3-0.1l0.2-1.6l1.4,0.1l0.3-2.8l1.9,0.2l-0.3,2.8l2.4,0.3l-0.2,1.6l-2.4-0.3l-0.5,4.6
				c-0.2,2,1.2,2.4,1.9,2.5c0.3,0,0.5,0,0.5,0l-0.2,1.7c0,0-0.3,0-0.7,0c-1.3-0.1-3.8-0.8-3.4-4.2L75.1,672.5z"/>
			<path fill="#DC7676" d="M86.9,672.3c3,0.5,5,3.1,4.5,6.1c-0.5,3-3.3,4.8-6.3,4.3c-3-0.5-5-3.1-4.4-6.2
				C81.2,673.5,83.9,671.7,86.9,672.3z M85.4,681c1.9,0.3,3.7-0.9,4.1-3c0.4-2.1-0.9-3.8-2.8-4.1c-1.9-0.3-3.7,0.9-4,3
				C82.2,678.9,83.5,680.7,85.4,681z"/>
			<path fill="#DC7676" d="M94.7,676.3c0.1-0.3,0-0.5-0.3-0.5l-0.8-0.2l0.5-1.6l1.8,0.5c0.8,0.2,1.2,0.7,0.9,1.5l-0.2,0.6
				c-0.1,0.4-0.2,0.7-0.2,0.7l0,0c0.9-1.3,2.3-2.1,3.8-1.7c0.3,0.1,0.5,0.2,0.5,0.2l-0.5,1.8c0,0-0.2-0.1-0.5-0.2
				c-1.2-0.3-2.5,0.2-3.4,1.5c-0.3,0.5-0.6,1.1-0.7,1.7l-1.1,4l-1.9-0.5L94.7,676.3z"/>
			<path fill="#DC7676" d="M107.4,678.5c2.5,1.3,2.9,3.9,1.7,6.2c-0.1,0.2-0.4,0.7-0.4,0.7l-6.5-3.4c-0.9,2-0.1,3.8,1.5,4.6
				c1.5,0.8,3.2,0.3,3.2,0.3l0.1,1.6c0,0-2,0.6-4.1-0.5c-2.8-1.5-3.7-4.5-2.3-7.2C101.9,678,104.8,677.1,107.4,678.5z M107.6,683.2
				c0.7-1.5,0.2-2.8-0.9-3.4c-1.3-0.7-2.8-0.4-3.8,0.9L107.6,683.2z"/>
		</g>
		<path fill="#DC7676" stroke="#F8E2D2" stroke-miterlimit="10" d="M57.5,730.6c-21.2,0-38.4-4.6-38.4-10.2"/>
		<path fill="#DC7676" stroke="#F8E2D2" stroke-miterlimit="10" d="M95.9,720.4c0,5.6-17.2,10.2-38.4,10.2"/>
		<path fill="#DC7676" stroke="#F8E2D2" stroke-miterlimit="10" d="M57.5,755.1c-21.2,0-38.4-4.6-38.4-10.2"/>
		<path fill="#DC7676" stroke="#F8E2D2" stroke-miterlimit="10" d="M95.9,744.9c0,5.6-17.2,10.2-38.4,10.2"/>
	</g>
	<g>
		<line fill="#FAAE24" x1="183.4" y1="724.3" x2="105.6" y2="724.3"/>
		<g>
			<line fill="none" stroke="#FAAE24" stroke-width="7" stroke-miterlimit="10" x1="183.4" y1="724.3" x2="130.7" y2="724.3"/>
			<g>
				<polygon fill="#FAAE24" points="135.8,706.8 105.6,724.3 135.8,741.7 				"/>
			</g>
		</g>
	</g>
	<g>
		<line fill="#FAAE24" x1="316.1" y1="724.3" x2="272.6" y2="724.3"/>
		<g>
			<line fill="none" stroke="#FAAE24" stroke-width="7" stroke-miterlimit="10" x1="316.1" y1="724.3" x2="297.7" y2="724.3"/>
			<g>
				<polygon fill="#FAAE24" points="302.9,706.8 272.6,724.3 302.9,741.7 				"/>
			</g>
		</g>
	</g>
	<g>
		<line fill="#FAAE24" x1="59.1" y1="658.2" x2="59.1" y2="608.5"/>
		<g>
			<line fill="none" stroke="#FAAE24" stroke-width="7" stroke-miterlimit="10" x1="59.1" y1="658.2" x2="59.1" y2="633.7"/>
			<g>
				<polygon fill="#FAAE24" points="76.6,638.8 59.1,608.5 41.7,638.8 				"/>
			</g>
		</g>
	</g>
	<g>
		<line fill="#FAAE24" x1="109" y1="541.1" x2="186.8" y2="541.1"/>
		<g>
			<line fill="none" stroke="#FAAE24" stroke-width="7" stroke-miterlimit="10" x1="109" y1="541.1" x2="161.7" y2="541.1"/>
			<g>
				<polygon fill="#FAAE24" points="156.6,558.5 186.8,541.1 156.6,523.6 				"/>
			</g>
		</g>
	</g>
	<g>
		<path fill="#DC7676" d="M677.1,555.9h-92.9c-5.8,0-10.6,4.7-10.6,10.6v118.6c0,5.8,4.7,10.6,10.6,10.6h92.9
			c5.8,0,10.6-4.7,10.6-10.6V566.5C687.7,560.7,682.9,555.9,677.1,555.9z"/>
		<g>
			<path fill="#F8E2D2" d="M594.1,569.1c2,0,5.4,0.8,5.4,3.1v1.4h-1.9v-0.8c0-1.2-2.1-1.8-3.5-1.8c-2.9,0-5.2,2.2-5.2,5.5
				c0,3.2,2.3,5.7,5.2,5.7c2.9,0,4.6-2,4.6-2l1.1,1.5c0,0-2.1,2.4-5.7,2.4c-4.3,0-7.4-3.3-7.4-7.6
				C586.8,572.3,589.9,569.1,594.1,569.1z"/>
			<path fill="#F8E2D2" d="M602.2,571.5c0-0.3-0.2-0.5-0.5-0.5h-0.8v-1.7h2c0.9,0,1.3,0.4,1.3,1.3v11c0,0.3,0.2,0.5,0.5,0.5h0.8v1.7
				h-2c-0.9,0-1.3-0.4-1.3-1.3V571.5z"/>
			<path fill="#F8E2D2" d="M607.9,575.6c0-0.3-0.2-0.5-0.5-0.5h-0.8v-1.7h2c0.9,0,1.3,0.4,1.3,1.3v6.9c0,0.3,0.2,0.5,0.5,0.5h0.8
				v1.7h-2c-0.9,0-1.3-0.4-1.3-1.3V575.6z M607.9,569.3h1.8v2.1h-1.8V569.3z"/>
			<path fill="#F8E2D2" d="M617.6,573.2c2.9,0,4.5,2.2,4.5,4.9c0,0.3-0.1,0.8-0.1,0.8h-7.6c0.1,2.2,1.7,3.5,3.6,3.5
				c1.8,0,3-1.2,3-1.2l0.9,1.4c0,0-1.5,1.5-4,1.5c-3.3,0-5.5-2.4-5.5-5.4C612.4,575.3,614.7,573.2,617.6,573.2z M620,577.4
				c-0.1-1.7-1.2-2.6-2.4-2.6c-1.5,0-2.8,0.9-3.1,2.6H620z"/>
			<path fill="#F8E2D2" d="M624.7,575.6c0-0.3-0.2-0.5-0.5-0.5h-0.8v-1.7h1.9c0.9,0,1.3,0.4,1.3,1.2v0.4c0,0.3,0,0.6,0,0.6h0
				c0.4-0.9,1.6-2.4,3.9-2.4c2.5,0,3.6,1.3,3.6,4v4.5c0,0.3,0.2,0.5,0.5,0.5h0.8v1.7h-2c-0.9,0-1.3-0.4-1.3-1.3v-4.9
				c0-1.5-0.3-2.6-2-2.6c-1.6,0-2.9,1-3.3,2.5c-0.1,0.4-0.2,0.9-0.2,1.4v4.9h-2V575.6z"/>
			<path fill="#F8E2D2" d="M637.7,575h-1.4v-1.6h1.4v-2.9h2v2.9h2.5v1.6h-2.5v4.8c0,2.1,1.4,2.3,2.2,2.3c0.3,0,0.5,0,0.5,0v1.8
				c0,0-0.3,0-0.7,0c-1.3,0-4-0.4-4-3.9V575z"/>
		</g>
	</g>
</g>
<g id="Layer_9">
	<path fill="#DC7676" d="M426.9,1230.3v-39.6h0.2v-4.4v-26.2h11.1v-21.4h-12v-122.6h12v-19h-11.1v-62h11.1v-29.8
		c0-5.5-4.4-9.9-9.9-9.9H174.5c-5.5,0-9.9,4.4-9.9,9.9v165.6v148.9v44c0,5.5,4.4,9.9,9.9,9.9h253.9c5.5,0,9.9-4.4,9.9-9.9v-17h-11.3
		v-6V1230.3z"/>
	<g>
		<path fill="#FAAE24" d="M438.8,1205.5c0.8,0,1.6-0.6,1.6-1.9c0-1.6-1.7-2.7-3.2-2.7h-0.3v0.5
			C436.8,1202.9,436.9,1205.5,438.8,1205.5z"/>
		<path fill="#FAAE24" d="M433,1178.7c0,1.9,1.5,3.5,3.6,3.5c2.1,0,3.6-1.6,3.6-3.5c0-1.9-1.5-3.5-3.6-3.5
			C434.5,1175.2,433,1176.8,433,1178.7z"/>
		<path fill="#FAAE24" d="M421.4,1159.7v86.9c0,3.3,2.7,5.9,5.9,5.9h16.5c3.3,0,5.9-2.7,5.9-5.9v-86.9c0-3.3-2.7-5.9-5.9-5.9h-16.5
			C424.1,1153.7,421.4,1156.4,421.4,1159.7z M427.6,1188.5v-1.7h2v1.7H427.6z M441.7,1227.9v1.9c0,0.9-0.4,1.3-1.3,1.3h-4.8
			c-1.4,0-2.5,0.3-2.5,1.8c0,1.4,1.2,2.5,2.6,2.8c0.4,0.1,0.9,0.2,1.4,0.2h4.6v1.9h-6c-1.3,0-2.5,0.2-2.5,1.7c0,1.5,1.2,2.5,2.7,2.9
			c0.4,0.1,0.8,0.1,1.3,0.1h4.6v1.9h-8c-0.3,0-0.4,0.2-0.4,0.4v0.8h-1.7v-1.9c0-0.9,0.4-1.3,1.1-1.3h0.4c0.3,0,0.6,0,0.6,0v0
			c-1.2-0.5-2.3-1.9-2.3-3.5c0-1.7,0.8-2.7,2.3-3v0c-1.2-0.6-2.3-2-2.3-3.6c0-2.3,1.3-3.3,3.9-3.3h4.4c0.3,0,0.4-0.2,0.4-0.4v-0.8
			H441.7z M441.7,1215.6v1.9c0,0.9-0.4,1.3-1.1,1.3h-0.4c-0.3,0-0.6,0-0.6,0v0c1,0.4,2.3,1.7,2.3,3.7c0,2.3-1.2,3.4-3.9,3.4h-4.4
			c-0.3,0-0.4,0.2-0.4,0.4v0.8h-1.7v-1.9c0-0.9,0.4-1.3,1.2-1.3h4.8c1.4,0,2.5-0.3,2.5-1.9c0-2.1-1.8-3.3-3.8-3.3h-4.7v-1.9h8
			c0.3,0,0.4-0.2,0.4-0.4v-0.8H441.7z M441.7,1208.8c0,0,0,0.3,0,0.7c0,1.3-0.4,3.9-3.8,3.9h-4.8v1.3h-1.6v-1.4h-2.8v-1.9h2.8v-2.4
			h1.6v2.4h4.6c2,0,2.3-1.4,2.3-2.1c0-0.3,0-0.5,0-0.5H441.7z M441.7,1197.8v1.8c0,0.9-0.4,1.3-1.2,1.3c-0.3,0-0.6,0-0.6,0v0
			c0,0,2,0.8,2,3.2c0,1.7-1.1,3.4-3.1,3.4c-3.3,0-3.5-4.4-3.5-6.1v-0.4h-0.1c-1.8,0-2.4,0.7-2.4,2.2c0,0.5,0.1,1.7,0.8,1.7h0.6v1.8
			h-1c-1.7,0-1.9-2.5-1.9-3.5c0-3.3,1.7-4.2,4-4.2h4.3c0.3,0,0.4-0.2,0.4-0.4v-0.8H441.7z M441.7,1191c0,0,0,0.3,0,0.7
			c0,1.3-0.4,3.9-3.8,3.9h-4.8v1.3h-1.6v-1.4h-2.8v-1.9h2.8v-2.4h1.6v2.4h4.6c2,0,2.3-1.4,2.3-2.1c0-0.3,0-0.5,0-0.5H441.7z
			 M441.7,1185.4v1.9c0,0.9-0.4,1.3-1.3,1.3h-6.7c-0.3,0-0.4,0.2-0.4,0.4v0.8h-1.7v-1.9c0-0.9,0.4-1.3,1.3-1.3h6.7
			c0.3,0,0.4-0.2,0.4-0.4v-0.8H441.7z M441.9,1178.7c0,3-2.2,5.4-5.3,5.4c-3.1,0-5.3-2.4-5.3-5.4c0-3,2.2-5.4,5.3-5.4
			C439.7,1173.2,441.9,1175.7,441.9,1178.7z M441.7,1160.4v1.9c0,0.9-0.4,1.3-1.3,1.3h-4.8c-1.4,0-2.5,0.3-2.5,1.9
			c0,1.6,1,2.8,2.5,3.2c0.4,0.1,0.9,0.2,1.4,0.2h4.7v1.9h-8c-0.3,0-0.4,0.2-0.4,0.4v0.8h-1.7v-1.9c0-0.9,0.4-1.3,1.1-1.3h0.4
			c0.3,0,0.6,0,0.6,0v0c-0.9-0.4-2.3-1.6-2.3-3.8c0-2.4,1.3-3.5,3.9-3.5h4.4c0.3,0,0.4-0.2,0.4-0.4v-0.8H441.7z"/>
	</g>
	<g>
		<path fill="#FAAE24" d="M432.9,962.4c0,1.5,0.9,2.7,2.6,3V960C433.8,960,432.9,961.1,432.9,962.4z"/>
		<path fill="#FAAE24" d="M433,986.9c0,1.6,1.3,2.9,3.6,2.9c2.2,0,3.6-1.2,3.6-2.9c0-1.5-1.1-2.9-3.6-2.9
			C434.8,984.1,433,985,433,986.9z"/>
		<path fill="#FAAE24" d="M421.4,937.6v55.5c0,3.3,2.7,5.9,5.9,5.9h16.5c3.3,0,5.9-2.7,5.9-5.9v-55.5c0-3.3-2.7-5.9-5.9-5.9h-16.5
			C424.1,931.7,421.4,934.4,421.4,937.6z M433.3,980.9v0.8c0,0.3,0.1,0.4,0.4,0.4h12v1.9h-4.6c-0.5,0-0.9,0-0.9,0v0
			c0,0,1.7,0.9,1.7,3.3c0,2.7-2.2,4.4-5.3,4.4c-3.2,0-5.3-1.9-5.3-4.6c0-2.4,1.7-3.3,1.7-3.3v0c0,0-0.2,0-0.5,0c-0.6,0-1-0.4-1-1.2
			v-1.8H433.3z M441.7,968.6v1.9c0,0.9-0.4,1.3-1.1,1.3h-0.4c-0.3,0-0.6,0-0.6,0v0c1,0.4,2.3,1.7,2.3,3.7c0,2.3-1.2,3.4-3.9,3.4
			h-4.4c-0.3,0-0.4,0.2-0.4,0.4v0.8h-1.7v-1.9c0-0.9,0.4-1.3,1.2-1.3h4.8c1.4,0,2.5-0.3,2.5-1.9c0-2.1-1.8-3.3-3.8-3.3h-4.7v-1.9h8
			c0.3,0,0.4-0.2,0.4-0.4v-0.8H441.7z M436.9,958v7.4c2.2-0.1,3.4-1.7,3.4-3.5c0-1.7-1.2-3-1.2-3l1.4-0.8c0,0,1.5,1.5,1.5,3.9
			c0,3.2-2.3,5.4-5.3,5.4c-3.2,0-5.3-2.2-5.3-5.1c0-2.8,2.1-4.4,4.7-4.4C436.4,958,436.9,958,436.9,958z M433.4,949.8
			c0,0-0.1,0.3-0.1,0.6c0,1.2,0.9,2.4,2.4,2.8c0.6,0.2,1.2,0.2,1.8,0.2h4.1v1.9h-8c-0.3,0-0.4,0.2-0.4,0.4v0.8h-1.7v-1.8
			c0-0.9,0.4-1.3,1.2-1.3h0.6c0.4,0,0.7,0,0.7,0v0c-1.5-0.5-2.6-1.6-2.6-3.2c0-0.3,0-0.5,0-0.5H433.4z M433.3,938.5v0.3
			c0,0.3,0.1,0.5,0.4,0.6l9.9,4c1.6,0.6,2.4,1.8,2.4,3.3c0,1.5-1,2.4-1,2.4l-1.4-0.8c0,0,0.7-0.6,0.7-1.5c0-0.8-0.6-1.4-1.5-1.8
			l-1.1-0.5l-8,3.5c-0.3,0.1-0.4,0.3-0.4,0.6v0.2h-1.7v-1.1c0-0.8,0.2-1.1,1-1.4l5.7-2.3c0.5-0.2,1.2-0.4,1.2-0.4v0
			c0,0-0.7-0.1-1.2-0.3l-5.7-2.1c-0.8-0.3-1-0.7-1-1.5v-1.2H433.3z"/>
	</g>
	<g>
		<path fill="#DC7676" stroke="#F8E2D2" stroke-miterlimit="10" d="M21.5,948.2v72c0,5.6,17.2,10.2,38.4,10.2
			c21.2,0,38.4-4.6,38.4-10.2v-72H21.5z"/>
		<ellipse fill="#DC7676" stroke="#F8E2D2" stroke-miterlimit="10" cx="59.9" cy="948.2" rx="38.4" ry="10.2"/>
		<g>
			<path fill="#DC7676" d="M9.6,923.5L8.2,924l-0.7-1.9l6.2-2.2c4.6-1.7,8.7,0,10.5,4.8c1.8,4.8-0.3,8.8-4.9,10.4l-3.4,1.2
				c-1,0.4-1.5,0.1-1.9-0.9L9.6,923.5z M16.4,934.1l2-0.7c3.4-1.2,4.9-4.1,3.5-7.8c-1.4-3.7-4.3-4.9-7.7-3.7l-2.5,0.9l4,11.1
				C15.9,934.1,16.1,934.2,16.4,934.1z"/>
			<path fill="#DC7676" d="M33.8,924.2l0.5-0.1l0-0.1c-0.3-2-1.2-2.6-3-2.3c-0.5,0.1-1.9,0.5-1.7,1.2l0.1,0.7l-2.1,0.3l-0.2-1.1
				c-0.3-1.9,2.5-2.6,3.6-2.8c3.7-0.6,5,1.2,5.5,3.7l0.8,4.9c0.1,0.3,0.3,0.5,0.6,0.4l0.9-0.2l0.3,1.9l-2.1,0.3
				c-1,0.2-1.5-0.3-1.6-1.1c-0.1-0.4-0.1-0.7-0.1-0.7l0,0c0,0-0.5,2.4-3.3,2.9c-2,0.3-4.1-0.5-4.5-2.8
				C26.9,925.6,31.9,924.5,33.8,924.2z M32.2,930.3c1.9-0.3,2.7-2.5,2.5-4.2l-0.1-0.4l-0.6,0.1c-1.7,0.3-4.6,0.9-4.3,3
				C29.9,929.7,30.8,930.5,32.2,930.3z"/>
			<path fill="#DC7676" d="M40.4,920.7l-1.5,0.1l-0.2-1.8l1.6-0.1l-0.3-3.2l2.2-0.2l0.3,3.2l2.8-0.3l0.2,1.8l-2.8,0.3l0.5,5.3
				c0.2,2.3,1.8,2.5,2.7,2.4c0.3,0,0.5-0.1,0.5-0.1l0.2,2c0,0-0.3,0.1-0.8,0.1c-1.5,0.1-4.5,0-4.8-3.9L40.4,920.7z"/>
			<path fill="#DC7676" d="M54.6,922.4l0.5,0l0-0.1c-0.1-2-0.9-2.8-2.7-2.7c-0.6,0-1.9,0.2-1.9,1l0,0.7l-2.1,0.1l0-1.1
				c-0.1-1.9,2.8-2.3,3.9-2.3c3.8-0.1,4.8,1.8,4.9,4.4l0.2,4.9c0,0.3,0.2,0.5,0.5,0.5l0.9,0l0.1,1.9l-2.1,0.1c-1,0-1.5-0.5-1.5-1.3
				c0-0.4,0-0.7,0-0.7l0,0c0,0-0.8,2.3-3.6,2.4c-2,0.1-4-1.1-4.1-3.4C47.6,922.9,52.7,922.5,54.6,922.4z M52.3,928.2
				c1.9-0.1,3-2.1,3-3.8l0-0.4l-0.6,0c-1.7,0.1-4.7,0.3-4.6,2.4C50.1,927.4,50.8,928.3,52.3,928.2z"/>
			<path fill="#DC7676" d="M61.6,915.7c0-0.3-0.2-0.5-0.5-0.5l-0.9,0l0.1-1.9l2.2,0.1c1,0,1.5,0.5,1.4,1.5l-0.1,3.8
				c0,0.6-0.1,1-0.1,1l0,0c0,0,1.1-1.9,3.8-1.8c3.1,0.1,5,2.7,4.9,6.3c-0.1,3.7-2.4,6-5.5,5.9c-2.6-0.1-3.6-2.1-3.6-2.1l0,0
				c0,0,0,0.4,0,0.9l0,0.8l-2.1-0.1L61.6,915.7z M66.7,928.1c1.8,0.1,3.4-1.4,3.5-4c0.1-2.5-1.2-4.2-3.2-4.3
				c-1.7-0.1-3.4,1.1-3.5,4.1C63.5,925.9,64.5,928,66.7,928.1z"/>
			<path fill="#DC7676" d="M81.3,923.6l0.5,0.1l0-0.1c0.2-2-0.4-2.8-2.3-3c-0.5-0.1-1.9-0.1-2,0.7l-0.1,0.7l-2.1-0.2l0.1-1.1
				c0.2-1.9,3.1-1.9,4.2-1.7c3.7,0.4,4.5,2.5,4.3,5l-0.5,4.9c0,0.3,0.1,0.5,0.4,0.6l0.9,0.1l-0.2,1.9l-2.1-0.2
				c-1-0.1-1.4-0.7-1.3-1.5c0-0.4,0.1-0.7,0.1-0.7l0,0c0,0-1.2,2.2-3.9,1.9c-2-0.2-3.8-1.6-3.5-4C74.3,923,79.3,923.3,81.3,923.6z
				 M78.1,929c1.9,0.2,3.3-1.6,3.5-3.3l0-0.4l-0.6-0.1c-1.7-0.2-4.7-0.4-4.9,1.7C76,927.8,76.6,928.8,78.1,929z"/>
			<path fill="#DC7676" d="M87.1,928.4c0,0,1,2,3.1,2.4c1.1,0.2,2.1-0.1,2.3-1.1c0.4-2.1-5.9-3.1-5.1-6.8c0.4-2.2,2.6-2.8,4.9-2.3
				c1.4,0.3,3.6,1.2,3.3,3l-0.2,1.1l-2-0.4l0.1-0.6c0.1-0.7-0.8-1.2-1.5-1.3c-1.3-0.3-2.2,0-2.4,0.9c-0.4,2.2,5.9,2.9,5.1,6.8
				c-0.4,2-2.5,3-4.9,2.5c-3-0.6-4.2-2.9-4.2-2.9L87.1,928.4z"/>
			<path fill="#DC7676" d="M104.9,924.1c3.1,1.2,3.8,4.1,2.8,6.9c-0.1,0.3-0.4,0.8-0.4,0.8l-7.9-3c-0.8,2.4,0.4,4.3,2.4,5.1
				c1.9,0.7,3.7-0.1,3.7-0.1l0.3,1.8c0,0-2.2,1-4.8,0c-3.4-1.3-4.9-4.7-3.6-7.9C98.6,924.3,101.8,922.9,104.9,924.1z M105.8,929.5
				c0.6-1.8-0.2-3.2-1.5-3.7c-1.6-0.6-3.2-0.1-4.3,1.6L105.8,929.5z"/>
		</g>
		<path fill="#DC7676" stroke="#F8E2D2" stroke-miterlimit="10" d="M59.9,982.9c-21.2,0-38.4-4.6-38.4-10.2"/>
		<path fill="#DC7676" stroke="#F8E2D2" stroke-miterlimit="10" d="M98.3,972.7c0,5.6-17.2,10.2-38.4,10.2"/>
		<path fill="#DC7676" stroke="#F8E2D2" stroke-miterlimit="10" d="M59.9,1007.4c-21.2,0-38.4-4.6-38.4-10.2"/>
		<path fill="#DC7676" stroke="#F8E2D2" stroke-miterlimit="10" d="M98.3,997.2c0,5.6-17.2,10.2-38.4,10.2"/>
	</g>
	<g>
		<g>
			<path fill="#F8E2D2" d="M244.9,1227.6h-36c-4.8,0-8.7-3.9-8.7-8.7v-24c0-4.8,3.9-8.7,8.7-8.7h36c4.8,0,8.7,3.9,8.7,8.7v24
				C253.6,1223.7,249.7,1227.6,244.9,1227.6z"/>
		</g>
		<g>
			<path fill="#F8E2D2" d="M376.4,1233.2h-36c-4.8,0-8.7-3.9-8.7-8.7v-24c0-4.8,3.9-8.7,8.7-8.7h36c4.8,0,8.7,3.9,8.7,8.7v24
				C385.1,1229.3,381.2,1233.2,376.4,1233.2z"/>
		</g>
		<g>
			<path fill="#F8E2D2" d="M288.3,1239.7c2.3,0,6.4,1,6.4,3.7v1.7h-2.2v-1c0-1.4-2.4-2.1-4.1-2.1c-3.4,0-6,2.6-6,6.4
				c0,3.7,2.7,6.6,6.1,6.6c3.4,0,5.4-2.3,5.4-2.3l1.3,1.7c0,0-2.4,2.8-6.7,2.8c-5.1,0-8.6-3.9-8.6-8.9
				C279.8,1243.4,283.5,1239.7,288.3,1239.7z"/>
			<path fill="#F8E2D2" d="M303.2,1244.5c3.6,0,6.6,2.7,6.6,6.3c0,3.7-2.9,6.4-6.6,6.4c-3.6,0-6.5-2.7-6.5-6.4
				C296.7,1247.1,299.6,1244.5,303.2,1244.5z M303.2,1255.2c2.3,0,4.2-1.8,4.2-4.4c0-2.5-1.9-4.3-4.2-4.3c-2.3,0-4.2,1.8-4.2,4.3
				C299.1,1253.3,300.9,1255.2,303.2,1255.2z"/>
			<path fill="#F8E2D2" d="M312.7,1247.3c0-0.4-0.2-0.5-0.5-0.5h-1v-2h2.2c1.1,0,1.5,0.5,1.5,1.3v0.5c0,0.4,0,0.7,0,0.7h0
				c0.6-1.4,2.3-2.8,4.2-2.8c2.1,0,3.2,0.9,3.6,2.8h0c0.7-1.5,2.4-2.8,4.3-2.8c2.7,0,4,1.6,4,4.7v5.3c0,0.4,0.2,0.5,0.5,0.5h1v2
				h-2.3c-1.1,0-1.5-0.5-1.5-1.5v-5.7c0-1.7-0.3-3-2.1-3c-1.7,0-3,1.5-3.4,3.1c-0.1,0.5-0.2,1-0.2,1.7v5.5h-2.3v-7.3
				c0-1.6-0.2-3-2.1-3c-1.8,0-3,1.5-3.5,3.2c-0.1,0.5-0.2,1-0.2,1.6v5.5h-2.3V1247.3z"/>
			<path fill="#F8E2D2" d="M335.2,1247.3c0-0.4-0.2-0.5-0.5-0.5h-1v-2h2.2c1.1,0,1.5,0.5,1.5,1.3v0.5c0,0.4,0,0.7,0,0.7h0
				c0.6-1.4,2.3-2.8,4.2-2.8c2.1,0,3.2,0.9,3.6,2.8h0c0.7-1.5,2.4-2.8,4.3-2.8c2.7,0,4,1.6,4,4.7v5.3c0,0.4,0.2,0.5,0.5,0.5h1v2
				h-2.3c-1.1,0-1.5-0.5-1.5-1.5v-5.7c0-1.7-0.3-3-2.1-3c-1.7,0-3,1.5-3.4,3.1c-0.1,0.5-0.2,1-0.2,1.7v5.5h-2.3v-7.3
				c0-1.6-0.2-3-2.1-3c-1.8,0-3,1.5-3.5,3.2c-0.1,0.5-0.2,1-0.2,1.6v5.5h-2.3V1247.3z"/>
			<path fill="#F8E2D2" d="M363.8,1249.3h0.5v-0.1c0-2.1-0.8-2.9-2.7-2.9c-0.6,0-2,0.1-2,0.9v0.7h-2.2v-1.2c0-2,3-2.3,4.2-2.3
				c3.9,0,5,2.1,5,4.8v5.2c0,0.4,0.2,0.5,0.5,0.5h1v2H366c-1.1,0-1.5-0.5-1.5-1.4c0-0.4,0-0.7,0-0.7h0c0,0-1,2.4-3.9,2.4
				c-2.1,0-4.1-1.3-4.1-3.7C356.5,1249.6,361.8,1249.3,363.8,1249.3z M361.1,1255.3c2,0,3.2-2.1,3.2-3.9v-0.4h-0.6
				c-1.8,0-4.9,0.1-4.9,2.3C358.9,1254.3,359.6,1255.3,361.1,1255.3z"/>
			<path fill="#F8E2D2" d="M370.7,1247.3c0-0.4-0.2-0.5-0.5-0.5h-1v-2h2.2c1,0,1.5,0.5,1.5,1.3v0.5c0,0.4,0,0.7,0,0.7h0
				c0.5-1.1,1.9-2.8,4.6-2.8c2.9,0,4.2,1.6,4.2,4.7v5.3c0,0.4,0.2,0.5,0.5,0.5h1v2h-2.3c-1.1,0-1.5-0.5-1.5-1.5v-5.7
				c0-1.7-0.3-3-2.3-3c-1.9,0-3.4,1.2-3.8,3c-0.2,0.5-0.2,1-0.2,1.6v5.7h-2.3V1247.3z"/>
			<path fill="#F8E2D2" d="M390.1,1244.5c2.8,0,3.7,1.9,3.7,1.9h0c0,0,0-0.4,0-0.8v-3c0-0.4-0.2-0.5-0.5-0.5h-1v-2h2.3
				c1.1,0,1.5,0.5,1.5,1.5v12.9c0,0.4,0.2,0.5,0.5,0.5h1v2h-2.2c-1.1,0-1.5-0.5-1.5-1.3c0-0.4,0-0.6,0-0.6h0c0,0-1,2.2-4,2.2
				c-3.3,0-5.4-2.6-5.4-6.4C384.6,1247,386.9,1244.5,390.1,1244.5z M393.9,1250.8c0-2.2-1.1-4.3-3.5-4.3c-1.9,0-3.5,1.6-3.5,4.3
				c0,2.6,1.4,4.3,3.4,4.3C392.2,1255.2,393.9,1253.9,393.9,1250.8z"/>
		</g>
		<g>
			<path fill="#F8E2D2" d="M192.7,1163.6h-1.6v-2.1h10c1.1,0,1.5,0.5,1.5,1.5v2.1h-2.2v-1.1c0-0.4-0.2-0.5-0.5-0.5h-4.8v5.3h5.9v2.1
				h-5.9v4.9c0,0.3,0.2,0.5,0.5,0.5h4.9c0.3,0,0.5-0.2,0.5-0.5v-1.1h2.2v2.1c0,1.1-0.5,1.5-1.5,1.5h-7.5c-1.1,0-1.5-0.5-1.5-1.5
				V1163.6z"/>
			<path fill="#F8E2D2" d="M205.1,1168.9c-0.1-0.4-0.4-0.5-0.7-0.5h-0.2v-2h1.2c1.1,0,1.5,0.3,1.8,1.2l2.6,7
				c0.2,0.7,0.4,1.6,0.4,1.6h0c0,0,0.2-0.9,0.4-1.6l2.6-7c0.4-1,0.8-1.2,1.8-1.2h1.1v2H216c-0.4,0-0.6,0.1-0.8,0.5l-3.7,9.7h-2.7
				L205.1,1168.9z"/>
			<path fill="#F8E2D2" d="M223.3,1166.1c3.4,0,5.2,2.5,5.2,5.7c0,0.3-0.1,1-0.1,1h-8.9c0.1,2.6,2,4.1,4.2,4.1
				c2.1,0,3.6-1.4,3.6-1.4l1,1.7c0,0-1.8,1.8-4.7,1.8c-3.8,0-6.5-2.8-6.5-6.4C217.2,1168.6,219.9,1166.1,223.3,1166.1z M226.1,1171
				c-0.1-2-1.3-3.1-2.9-3.1c-1.8,0-3.2,1.1-3.6,3.1H226.1z"/>
			<path fill="#F8E2D2" d="M231.6,1168.9c0-0.4-0.2-0.5-0.5-0.5h-1v-2h2.2c1,0,1.5,0.5,1.5,1.3v0.5c0,0.4,0,0.7,0,0.7h0
				c0.5-1.1,1.9-2.8,4.6-2.8c2.9,0,4.2,1.6,4.2,4.7v5.3c0,0.4,0.2,0.5,0.5,0.5h1v2h-2.3c-1.1,0-1.5-0.5-1.5-1.5v-5.7
				c0-1.7-0.3-3-2.3-3c-1.9,0-3.4,1.2-3.8,3c-0.2,0.5-0.2,1-0.2,1.6v5.7h-2.3V1168.9z"/>
			<path fill="#F8E2D2" d="M246.8,1168.3h-1.6v-1.9h1.6v-3.3h2.3v3.3h2.9v1.9h-2.9v5.6c0,2.4,1.7,2.7,2.6,2.7c0.3,0,0.6,0,0.6,0v2.1
				c0,0-0.3,0-0.8,0c-1.5,0-4.6-0.5-4.6-4.5V1168.3z"/>
			<path fill="#F8E2D2" d="M254.9,1175.1c0,0,1.4,1.8,3.7,1.8c1.1,0,2.1-0.5,2.1-1.6c0-2.2-6.6-1.9-6.6-5.9c0-2.3,2-3.4,4.5-3.4
				c1.5,0,4,0.5,4,2.4v1.2h-2.1v-0.6c0-0.7-1.1-1-1.8-1c-1.4,0-2.3,0.5-2.3,1.4c0,2.3,6.6,1.8,6.6,5.9c0,2.2-1.9,3.6-4.5,3.6
				c-3.2,0-4.8-2.1-4.8-2.1L254.9,1175.1z"/>
		</g>
		<path fill="#F8E2D2" stroke="#DC7676" stroke-width="2" stroke-miterlimit="10" d="M250,1233.2h-36c-4.8,0-8.7-3.9-8.7-8.7v-24
			c0-4.8,3.9-8.7,8.7-8.7h36c4.8,0,8.7,3.9,8.7,8.7v24C258.7,1229.3,254.8,1233.2,250,1233.2z"/>
		<path fill="#F8E2D2" stroke="#DC7676" stroke-width="2" stroke-miterlimit="10" d="M255.7,1239.2h-36c-4.8,0-8.7-3.9-8.7-8.7v-24
			c0-4.8,3.9-8.7,8.7-8.7h36c4.8,0,8.7,3.9,8.7,8.7v24C264.4,1235.4,260.5,1239.2,255.7,1239.2z"/>
	</g>
	<g>
		<line fill="#FAAE24" x1="558.8" y1="1168.6" x2="471.8" y2="1208.4"/>
		<g>
			<line fill="none" stroke="#FAAE24" stroke-width="7" stroke-miterlimit="10" x1="558.8" y1="1168.6" x2="494.7" y2="1198"/>
			<g>
				<polygon fill="#FAAE24" points="492,1180 471.8,1208.4 506.6,1211.7 				"/>
			</g>
		</g>
	</g>
	<g>
		<line fill="#FAAE24" x1="471.8" y1="973.9" x2="560.7" y2="1016.8"/>
		<g>
			<line fill="none" stroke="#FAAE24" stroke-width="7" stroke-miterlimit="10" x1="471.8" y1="973.9" x2="538.1" y2="1005.8"/>
			<g>
				<polygon fill="#FAAE24" points="525.9,1019.3 560.7,1016.8 541.1,987.9 				"/>
			</g>
		</g>
	</g>
	<g>
		<g>
			<path fill="#F8E2D2" d="M267.6,973.9h-36c-4.8,0-8.7-3.9-8.7-8.7v-24c0-4.8,3.9-8.7,8.7-8.7h36c4.8,0,8.7,3.9,8.7,8.7v24
				C276.3,970,272.4,973.9,267.6,973.9z"/>
		</g>
		<g>
			<line fill="#F8E2D2" x1="288.1" y1="1019.5" x2="264.1" y2="973.9"/>
			<g>
				<line fill="none" stroke="#F8E2D2" stroke-width="4" stroke-miterlimit="10" x1="288.1" y1="1019.5" x2="270.8" y2="986.6"/>
				<g>
					<polygon fill="#F8E2D2" points="281,984.5 264.1,973.9 263.3,993.8 					"/>
				</g>
			</g>
		</g>
		<g>
			<path fill="#F8E2D2" d="M348.8,973.9h-36c-4.8,0-8.7-3.9-8.7-8.7v-24c0-4.8,3.9-8.7,8.7-8.7h36c4.8,0,8.7,3.9,8.7,8.7v24
				C357.4,970,353.5,973.9,348.8,973.9z"/>
		</g>
		<g>
			<line fill="#F8E2D2" x1="300.5" y1="1013.4" x2="318.9" y2="973.9"/>
			<g>
				<line fill="none" stroke="#F8E2D2" stroke-width="4" stroke-miterlimit="10" x1="300.5" y1="1013.4" x2="312.9" y2="986.9"/>
				<g>
					<polygon fill="#F8E2D2" points="320.7,993.7 318.9,973.9 302.6,985.3 					"/>
				</g>
			</g>
		</g>
		<g>
			<path fill="#F8E2D2" d="M308.8,1043.9h-36c-4.8,0-8.7-3.9-8.7-8.7v-24c0-4.8,3.9-8.7,8.7-8.7h36c4.8,0,8.7,3.9,8.7,8.7v24
				C317.4,1040,313.5,1043.9,308.8,1043.9z"/>
		</g>
		<g>
			<path fill="#F8E2D2" d="M227.2,908.4c4.9,0,8.7,3.8,8.7,8.7c0,2.1-0.8,4.1-2,5.6l1.9,1.9l-1.4,1.5l-1.9-1.9
				c-1.5,1.2-3.3,1.8-5.3,1.8c-4.9,0-8.7-3.9-8.7-8.9C218.6,912.2,222.3,908.4,227.2,908.4z M227.2,923.7c2.2,0,3.6-1.2,3.6-1.2
				l-1.9-1.8l1.4-1.6l1.8,1.9c0.8-1.1,1.2-2.5,1.2-3.9c0-3.7-2.7-6.4-6.2-6.4c-3.5,0-6.2,2.7-6.2,6.4
				C221.1,920.8,223.8,923.7,227.2,923.7z"/>
			<path fill="#F8E2D2" d="M239,916c0-0.4-0.2-0.5-0.5-0.5h-1v-2h2.3c1.1,0,1.6,0.5,1.6,1.5v5.8c0,1.7,0.3,3,2.3,3
				c2.5,0,4-2.2,4-4.6v-5.7h2.3v9.6c0,0.4,0.2,0.5,0.5,0.5h1v2h-2.2c-1,0-1.5-0.5-1.5-1.3v-0.5c0-0.4,0-0.7,0-0.7h0
				c-0.5,1.2-2.1,2.8-4.5,2.8c-2.7,0-4.1-1.4-4.1-4.7V916z"/>
			<path fill="#F8E2D2" d="M258.8,913.2c3.4,0,5.2,2.5,5.2,5.7c0,0.3-0.1,1-0.1,1h-8.9c0.1,2.6,2,4.1,4.2,4.1c2.1,0,3.6-1.4,3.6-1.4
				l1,1.7c0,0-1.8,1.8-4.7,1.8c-3.8,0-6.5-2.8-6.5-6.4C252.7,915.7,255.4,913.2,258.8,913.2z M261.7,918.2c-0.1-2-1.3-3.1-2.9-3.1
				c-1.8,0-3.2,1.1-3.6,3.1H261.7z"/>
			<path fill="#F8E2D2" d="M267.2,916c0-0.4-0.2-0.5-0.5-0.5h-1v-2h2.2c1.1,0,1.6,0.4,1.6,1.4v0.8c0,0.5,0,0.8,0,0.8h0
				c0.6-1.8,2-3.2,3.8-3.2c0.3,0,0.6,0,0.6,0v2.3c0,0-0.3-0.1-0.7-0.1c-1.5,0-2.9,1.1-3.4,2.9c-0.2,0.7-0.3,1.4-0.3,2.2v5h-2.3V916z
				"/>
			<path fill="#F8E2D2" d="M277.6,928.7c0.9,0,1.7-0.7,2.1-1.8l0.6-1.3l-4.2-9.6c-0.2-0.4-0.4-0.5-0.8-0.5H275v-2h1.4
				c1,0,1.3,0.3,1.7,1.2l2.8,6.8c0.2,0.6,0.4,1.5,0.4,1.5h0c0,0,0.2-0.8,0.4-1.5l2.5-6.8c0.4-1,0.8-1.2,1.8-1.2h1.4v2h-0.3
				c-0.4,0-0.6,0.1-0.8,0.5l-4.8,11.9c-0.7,1.9-2.2,2.9-3.9,2.9c-1.8,0-2.9-1.2-2.9-1.2l1-1.7C275.8,927.9,276.5,928.7,277.6,928.7z
				"/>
			<path fill="#F8E2D2" d="M294.7,923.6h0.8c0.3,0,0.5-0.2,0.5-0.5l1.2-14.4h2.5l4,9c0.4,0.9,0.8,2.1,0.8,2.1h0c0,0,0.4-1.2,0.8-2.1
				l4-9h2.5l1.2,14.4c0,0.3,0.2,0.5,0.5,0.5h0.8v2.1h-2.1c-1.1,0-1.5-0.5-1.5-1.5l-0.7-9c-0.1-1,0-2.5,0-2.5h0c0,0-0.5,1.6-0.9,2.5
				l-3.4,7.4h-2l-3.4-7.4c-0.4-0.9-0.9-2.5-0.9-2.5h0c0,0,0,1.5,0,2.5l-0.7,9c-0.1,1.1-0.5,1.5-1.6,1.5h-2.1V923.6z"/>
			<path fill="#F8E2D2" d="M322.2,913.2c3.6,0,6.6,2.7,6.6,6.3c0,3.7-2.9,6.4-6.6,6.4s-6.5-2.7-6.5-6.4
				C315.7,915.9,318.6,913.2,322.2,913.2z M322.2,923.9c2.3,0,4.2-1.8,4.2-4.4c0-2.5-1.9-4.3-4.2-4.3c-2.3,0-4.2,1.8-4.2,4.3
				C318.1,922.1,319.9,923.9,322.2,923.9z"/>
			<path fill="#F8E2D2" d="M336,913.2c2.8,0,3.7,1.9,3.7,1.9h0c0,0,0-0.4,0-0.8v-3c0-0.4-0.2-0.5-0.5-0.5h-1v-2h2.3
				c1.1,0,1.5,0.5,1.5,1.5v12.9c0,0.4,0.2,0.5,0.5,0.5h1v2h-2.2c-1.1,0-1.5-0.5-1.5-1.3c0-0.4,0-0.6,0-0.6h0c0,0-1,2.2-4,2.2
				c-3.3,0-5.4-2.6-5.4-6.4C330.5,915.7,332.8,913.2,336,913.2z M339.8,919.6c0-2.2-1.1-4.3-3.5-4.3c-1.9,0-3.5,1.6-3.5,4.3
				c0,2.6,1.4,4.3,3.4,4.3C338.1,923.9,339.8,922.7,339.8,919.6z"/>
			<path fill="#F8E2D2" d="M351.1,913.2c3.4,0,5.2,2.5,5.2,5.7c0,0.3-0.1,1-0.1,1h-8.9c0.1,2.6,2,4.1,4.2,4.1c2.1,0,3.6-1.4,3.6-1.4
				l1,1.7c0,0-1.8,1.8-4.7,1.8c-3.8,0-6.5-2.8-6.5-6.4C345,915.7,347.7,913.2,351.1,913.2z M354,918.2c-0.1-2-1.3-3.1-2.9-3.1
				c-1.8,0-3.2,1.1-3.6,3.1H354z"/>
			<path fill="#F8E2D2" d="M359.4,911.2c0-0.4-0.2-0.5-0.5-0.5h-1v-2h2.3c1.1,0,1.5,0.5,1.5,1.5v12.9c0,0.4,0.2,0.5,0.5,0.5h1v2
				h-2.3c-1.1,0-1.5-0.5-1.5-1.5V911.2z"/>
		</g>
	</g>
	<g>
		<path fill="#DC7676" stroke="#F8E2D2" stroke-miterlimit="10" d="M19.8,1089.4v72c0,5.6,17.2,10.2,38.4,10.2
			c21.2,0,38.4-4.6,38.4-10.2v-72H19.8z"/>
		<ellipse fill="#DC7676" stroke="#F8E2D2" stroke-miterlimit="10" cx="58.2" cy="1089.4" rx="38.4" ry="10.2"/>
		<g>
			<path fill="#DC7676" d="M4.4,1071.7l-1.2,0.6l-0.8-1.5l7.4-3.8c0.8-0.4,1.3-0.3,1.7,0.5l0.8,1.6l-1.6,0.8l-0.4-0.8
				c-0.1-0.3-0.3-0.3-0.6-0.2l-3.6,1.9l2,3.9l4.4-2.3l0.8,1.5l-4.4,2.3l1.9,3.6c0.1,0.2,0.3,0.3,0.6,0.2l3.7-1.9
				c0.2-0.1,0.3-0.3,0.2-0.6l-0.4-0.8l1.6-0.8l0.8,1.6c0.4,0.8,0.3,1.3-0.5,1.7l-5.6,2.9c-0.8,0.4-1.3,0.3-1.7-0.5L4.4,1071.7z"/>
			<path fill="#DC7676" d="M16.8,1070.8c-0.2-0.3-0.4-0.3-0.7-0.2l-0.2,0.1l-0.4-1.6l1-0.3c0.9-0.2,1.3-0.1,1.7,0.6l3.6,5.1
				c0.3,0.5,0.7,1.2,0.7,1.2l0,0c0,0,0-0.8,0-1.4l0.6-6.2c0.1-0.9,0.4-1.2,1.2-1.4l0.9-0.2l0.4,1.6l-0.2,0c-0.3,0.1-0.5,0.2-0.5,0.6
				l-1,8.6l-2.2,0.6L16.8,1070.8z"/>
			<path fill="#DC7676" d="M31.7,1065.3c2.8-0.4,4.6,1.4,5,4c0,0.3,0.1,0.8,0.1,0.8l-7.3,1.1c0.4,2.1,2.2,3.1,4,2.8
				c1.7-0.3,2.7-1.6,2.7-1.6l1,1.2c0,0-1.3,1.7-3.6,2.1c-3.2,0.5-5.7-1.5-6.1-4.4C27,1068.1,28.9,1065.7,31.7,1065.3z M34.7,1069
				c-0.3-1.7-1.5-2.4-2.7-2.2c-1.5,0.2-2.5,1.3-2.6,3L34.7,1069z"/>
			<path fill="#DC7676" d="M39.3,1066.6c0-0.3-0.2-0.4-0.5-0.4l-0.8,0.1l-0.1-1.7l1.9-0.1c0.9-0.1,1.3,0.3,1.4,1l0,0.4
				c0,0.3,0,0.6,0,0.6l0,0c0.3-0.9,1.4-2.4,3.6-2.6c2.4-0.2,3.6,1,3.8,3.6l0.3,4.4c0,0.3,0.2,0.4,0.5,0.4l0.8-0.1l0.1,1.7l-1.9,0.1
				c-0.9,0.1-1.3-0.3-1.4-1.2l-0.4-4.7c-0.1-1.4-0.5-2.5-2.1-2.4c-1.6,0.1-2.7,1.2-3,2.7c-0.1,0.4-0.1,0.9-0.1,1.4l0.4,4.7l-1.9,0.1
				L39.3,1066.6z"/>
			<path fill="#DC7676" d="M52.1,1065.3l-1.3,0l0-1.6l1.4,0l-0.1-2.8l1.9,0l0.1,2.8l2.4-0.1l0,1.6l-2.4,0.1l0.1,4.6
				c0,2,1.4,2.2,2.2,2.2c0.3,0,0.5,0,0.5,0l0,1.7c0,0-0.3,0-0.7,0.1c-1.3,0-3.9-0.3-3.9-3.7L52.1,1065.3z"/>
			<path fill="#DC7676" d="M64.7,1070.6c0,0,1.3,1.8,3.4,1.9c1.3,0.1,2.5-0.7,2.5-2c0.2-3-6.7-2.9-6.5-7.2c0.1-2.1,2.1-3.7,4.7-3.5
				c1.5,0.1,4,0.9,3.9,2.8l-0.1,1.2l-1.8-0.1l0-0.7c0-0.7-1-1.3-2.1-1.4c-1.5-0.1-2.5,0.7-2.6,1.8c-0.1,2.9,6.7,2.6,6.4,7.2
				c-0.1,2.2-1.9,3.9-4.7,3.8c-3-0.2-4.6-2.3-4.6-2.3L64.7,1070.6z"/>
			<path fill="#DC7676" d="M75.8,1066l-1.3-0.1l0.2-1.6l1.4,0.1l0.3-2.8l1.9,0.2l-0.3,2.8l2.4,0.3l-0.2,1.6l-2.4-0.3l-0.5,4.6
				c-0.2,2,1.2,2.4,1.9,2.5c0.3,0,0.5,0,0.5,0l-0.2,1.7c0,0-0.3,0-0.7,0c-1.3-0.1-3.8-0.8-3.4-4.2L75.8,1066z"/>
			<path fill="#DC7676" d="M87.6,1065.7c3,0.5,5,3.1,4.5,6.1c-0.5,3-3.3,4.8-6.3,4.3c-3-0.5-5-3.1-4.4-6.2
				C81.9,1067,84.6,1065.2,87.6,1065.7z M86.1,1074.5c1.9,0.3,3.7-0.9,4.1-3c0.4-2.1-0.9-3.8-2.8-4.1c-1.9-0.3-3.7,0.9-4,3
				C82.9,1072.4,84.2,1074.2,86.1,1074.5z"/>
			<path fill="#DC7676" d="M95.4,1069.8c0.1-0.3,0-0.5-0.3-0.5l-0.8-0.2l0.5-1.6l1.8,0.5c0.8,0.2,1.2,0.7,0.9,1.5l-0.2,0.6
				c-0.1,0.4-0.2,0.7-0.2,0.7l0,0c0.9-1.3,2.3-2.1,3.8-1.7c0.3,0.1,0.5,0.2,0.5,0.2l-0.5,1.8c0,0-0.2-0.1-0.5-0.2
				c-1.2-0.3-2.5,0.2-3.4,1.5c-0.3,0.5-0.6,1.1-0.7,1.7l-1.1,4l-1.9-0.5L95.4,1069.8z"/>
			<path fill="#DC7676" d="M108.1,1071.9c2.5,1.3,2.9,3.9,1.7,6.2c-0.1,0.2-0.4,0.7-0.4,0.7l-6.5-3.4c-0.9,2-0.1,3.8,1.5,4.6
				c1.5,0.8,3.2,0.3,3.2,0.3l0.1,1.6c0,0-2,0.6-4.1-0.5c-2.8-1.5-3.7-4.5-2.3-7.2C102.6,1071.4,105.5,1070.6,108.1,1071.9z
				 M108.3,1076.7c0.7-1.5,0.2-2.8-0.9-3.4c-1.3-0.7-2.8-0.4-3.8,0.9L108.3,1076.7z"/>
		</g>
		<path fill="#DC7676" stroke="#F8E2D2" stroke-miterlimit="10" d="M58.2,1124.1c-21.2,0-38.4-4.6-38.4-10.2"/>
		<path fill="#DC7676" stroke="#F8E2D2" stroke-miterlimit="10" d="M96.6,1113.9c0,5.6-17.2,10.2-38.4,10.2"/>
		<path fill="#DC7676" stroke="#F8E2D2" stroke-miterlimit="10" d="M58.2,1148.6c-21.2,0-38.4-4.6-38.4-10.2"/>
		<path fill="#DC7676" stroke="#F8E2D2" stroke-miterlimit="10" d="M96.6,1138.4c0,5.6-17.2,10.2-38.4,10.2"/>
	</g>
	<g>
		<line fill="#FAAE24" x1="319.5" y1="1214.2" x2="276" y2="1214.2"/>
		<g>
			<line fill="none" stroke="#FAAE24" stroke-width="7" stroke-miterlimit="10" x1="319.5" y1="1214.2" x2="301.1" y2="1214.2"/>
			<g>
				<polygon fill="#FAAE24" points="306.2,1196.7 276,1214.2 306.2,1231.6 				"/>
			</g>
		</g>
	</g>
	<g>
		<line fill="#FAAE24" x1="112.4" y1="977.8" x2="190.2" y2="977.8"/>
		<g>
			<line fill="none" stroke="#FAAE24" stroke-width="7" stroke-miterlimit="10" x1="112.4" y1="977.8" x2="165.1" y2="977.8"/>
			<g>
				<polygon fill="#FAAE24" points="160,995.2 190.2,977.8 160,960.3 				"/>
			</g>
		</g>
	</g>
	<g>
		<path fill="#DC7676" d="M680.5,1019.5h-92.9c-5.8,0-10.6,4.7-10.6,10.6v118.6c0,5.8,4.7,10.6,10.6,10.6h92.9
			c5.8,0,10.6-4.7,10.6-10.6v-118.6C691,1024.2,686.3,1019.5,680.5,1019.5z"/>
		<g>
			<path fill="#F8E2D2" d="M597.5,1032.7c2,0,5.4,0.8,5.4,3.1v1.4H601v-0.8c0-1.2-2.1-1.8-3.5-1.8c-2.9,0-5.2,2.2-5.2,5.5
				c0,3.2,2.3,5.7,5.2,5.7c2.9,0,4.6-2,4.6-2l1.1,1.5c0,0-2.1,2.4-5.7,2.4c-4.3,0-7.4-3.3-7.4-7.6
				C590.2,1035.9,593.3,1032.7,597.5,1032.7z"/>
			<path fill="#F8E2D2" d="M605.6,1035.1c0-0.3-0.2-0.5-0.5-0.5h-0.8v-1.7h2c0.9,0,1.3,0.4,1.3,1.3v11c0,0.3,0.2,0.5,0.5,0.5h0.8
				v1.7h-2c-0.9,0-1.3-0.4-1.3-1.3V1035.1z"/>
			<path fill="#F8E2D2" d="M611.2,1039.2c0-0.3-0.2-0.5-0.5-0.5h-0.8v-1.7h2c0.9,0,1.3,0.4,1.3,1.3v6.9c0,0.3,0.2,0.5,0.5,0.5h0.8
				v1.7h-2c-0.9,0-1.3-0.4-1.3-1.3V1039.2z M611.3,1032.9h1.8v2.1h-1.8V1032.9z"/>
			<path fill="#F8E2D2" d="M621,1036.8c2.9,0,4.5,2.2,4.5,4.9c0,0.3-0.1,0.8-0.1,0.8h-7.6c0.1,2.2,1.7,3.5,3.6,3.5
				c1.8,0,3-1.2,3-1.2l0.9,1.4c0,0-1.5,1.5-4,1.5c-3.3,0-5.5-2.4-5.5-5.4C615.8,1038.9,618,1036.8,621,1036.8z M623.4,1041
				c-0.1-1.7-1.2-2.7-2.4-2.7c-1.5,0-2.8,0.9-3.1,2.7H623.4z"/>
			<path fill="#F8E2D2" d="M628.1,1039.2c0-0.3-0.2-0.5-0.5-0.5h-0.8v-1.7h1.9c0.9,0,1.3,0.4,1.3,1.2v0.4c0,0.3,0,0.6,0,0.6h0
				c0.4-0.9,1.6-2.4,3.9-2.4c2.5,0,3.6,1.3,3.6,4v4.5c0,0.3,0.2,0.5,0.5,0.5h0.8v1.7h-2c-0.9,0-1.3-0.4-1.3-1.3v-4.9
				c0-1.5-0.3-2.6-2-2.6c-1.6,0-2.9,1-3.3,2.5c-0.1,0.4-0.2,0.9-0.2,1.4v4.9h-2V1039.2z"/>
			<path fill="#F8E2D2" d="M641,1038.6h-1.4v-1.6h1.4v-2.9h2v2.9h2.5v1.6H643v4.8c0,2.1,1.4,2.3,2.2,2.3c0.3,0,0.5,0,0.5,0v1.8
				c0,0-0.3,0-0.7,0c-1.3,0-4-0.4-4-3.9V1038.6z"/>
		</g>
	</g>
	<g>
		<path fill="#FAAE24" d="M433.1,1107.5c0,1.5,1.1,2.9,3.6,2.9c1.8,0,3.6-0.9,3.6-2.9c0-1.6-1.3-2.9-3.6-2.9
			C434.5,1104.6,433.1,1105.8,433.1,1107.5z"/>
		<path fill="#FAAE24" d="M433,1038.3c0,1.9,1.5,3.5,3.6,3.5c2.1,0,3.6-1.6,3.6-3.5c0-1.9-1.5-3.5-3.6-3.5
			C434.5,1034.8,433,1036.4,433,1038.3z"/>
		<path fill="#FAAE24" d="M421.4,1019.3v116.4c0,3.3,2.7,5.9,5.9,5.9h16.5c3.3,0,5.9-2.7,5.9-5.9v-116.4c0-3.3-2.7-5.9-5.9-5.9
			h-16.5C424.1,1013.4,421.4,1016,421.4,1019.3z M427.6,1048.1v-1.7h2v1.7H427.6z M427.6,1072.7v-1.7h2v1.7H427.6z M441.9,1130.8
			c0,2.7-1.8,4-1.8,4l-1.3-1c0,0,1.5-1.2,1.5-3.1c0-0.9-0.4-1.8-1.3-1.8c-1.8,0-1.6,5.5-4.9,5.5c-1.9,0-2.8-1.7-2.8-3.8
			c0-1.2,0.4-3.3,2-3.3h1v1.7h-0.5c-0.6,0-0.9,0.9-0.9,1.5c0,1.1,0.4,1.9,1.2,1.9c1.9,0,1.5-5.5,4.9-5.5
			C440.8,1127.1,441.9,1128.7,441.9,1130.8z M441.7,1114.4v1.9c0,0.9-0.4,1.3-1.1,1.3h-0.4c-0.3,0-0.6,0-0.6,0v0
			c1,0.4,2.3,1.7,2.3,3.7c0,2.3-1.2,3.4-3.9,3.4h-4.4c-0.3,0-0.4,0.2-0.4,0.4v0.8h-1.7v-1.9c0-0.9,0.4-1.3,1.2-1.3h4.8
			c1.4,0,2.5-0.3,2.5-1.9c0-2.1-1.8-3.3-3.8-3.3h-4.7v-1.9h8c0.3,0,0.4-0.2,0.4-0.4v-0.8H441.7z M441.9,1107.3
			c0,2.3-1.7,3.2-1.7,3.2v0c0,0,0.3,0,0.8,0h0.7v1.9h-12c-0.3,0-0.4,0.2-0.4,0.4v0.8h-1.7v-1.9c0-0.9,0.4-1.3,1.3-1.3h3.3
			c0.5,0,0.8,0,0.8,0v0c0,0-1.7-0.9-1.7-3.3c0-2.7,2.2-4.4,5.3-4.4C439.9,1102.7,441.9,1104.6,441.9,1107.3z M441.9,1097.4
			c0,2.7-1.8,4-1.8,4l-1.3-1c0,0,1.5-1.2,1.5-3.1c0-0.9-0.4-1.8-1.3-1.8c-1.8,0-1.6,5.5-4.9,5.5c-1.9,0-2.8-1.7-2.8-3.8
			c0-1.2,0.4-3.3,2-3.3h1v1.7h-0.5c-0.6,0-0.9,0.9-0.9,1.5c0,1.1,0.4,1.9,1.2,1.9c1.9,0,1.5-5.5,4.9-5.5
			C440.8,1093.7,441.9,1095.3,441.9,1097.4z M441.9,1086.8c0,3.2-2.3,5.4-5.3,5.4c-3,0-5.3-2.2-5.3-5.4c0-1.2,0.5-3.6,2.2-3.6h1v1.8
			h-0.6c-0.7,0-1,1.1-1,1.9c0,2,1.5,3.5,3.6,3.5c2.3,0,3.6-1.7,3.6-3.6c0-1.9-1.4-3.1-1.4-3.1l1.4-0.8
			C440.2,1082.7,441.9,1084.1,441.9,1086.8z M433.4,1074.9c0,0-0.1,0.3-0.1,0.6c0,1.2,0.9,2.4,2.4,2.8c0.6,0.2,1.2,0.2,1.8,0.2h4.1
			v1.9h-8c-0.3,0-0.4,0.2-0.4,0.4v0.8h-1.7v-1.8c0-0.9,0.4-1.3,1.2-1.3h0.6c0.4,0,0.7,0,0.7,0v0c-1.5-0.5-2.6-1.6-2.6-3.2
			c0-0.3,0-0.5,0-0.5H433.4z M441.7,1069.5v1.9c0,0.9-0.4,1.3-1.3,1.3h-6.7c-0.3,0-0.4,0.2-0.4,0.4v0.8h-1.7v-1.9
			c0-0.9,0.4-1.3,1.3-1.3h6.7c0.3,0,0.4-0.2,0.4-0.4v-0.8H441.7z M441.9,1062.3c0,2.2-1.6,3.1-1.6,3.1v0c0,0,0.4,0,0.9,0h4.5v1.9
			h-12c-0.3,0-0.4,0.2-0.4,0.4v0.8h-1.7v-1.8c0-0.9,0.4-1.2,1-1.2c0.3,0,0.5,0,0.5,0v0c0,0-1.8-0.8-1.8-3.4c0-2.7,2.2-4.5,5.3-4.5
			C439.9,1057.7,441.9,1059.7,441.9,1062.3z M441.7,1050.7c0,0,0,0.3,0,0.7c0,1.3-0.4,3.9-3.8,3.9h-4.8v1.3h-1.6v-1.4h-2.8v-1.9h2.8
			v-2.4h1.6v2.4h4.6c2,0,2.3-1.4,2.3-2.1c0-0.3,0-0.5,0-0.5H441.7z M441.7,1045v1.9c0,0.9-0.4,1.3-1.3,1.3h-6.7
			c-0.3,0-0.4,0.2-0.4,0.4v0.8h-1.7v-1.9c0-0.9,0.4-1.3,1.3-1.3h6.7c0.3,0,0.4-0.2,0.4-0.4v-0.8H441.7z M441.9,1038.3
			c0,3-2.2,5.4-5.3,5.4c-3.1,0-5.3-2.4-5.3-5.4c0-3,2.2-5.4,5.3-5.4C439.7,1032.8,441.9,1035.3,441.9,1038.3z M441.7,1020v1.9
			c0,0.9-0.4,1.3-1.3,1.3h-4.8c-1.4,0-2.5,0.3-2.5,1.9c0,1.6,1,2.8,2.5,3.2c0.4,0.1,0.9,0.2,1.4,0.2h4.7v1.9h-8
			c-0.3,0-0.4,0.2-0.4,0.4v0.8h-1.7v-1.9c0-0.9,0.4-1.3,1.1-1.3h0.4c0.3,0,0.6,0,0.6,0v0c-0.9-0.4-2.3-1.6-2.3-3.8
			c0-2.4,1.3-3.5,3.9-3.5h4.4c0.3,0,0.4-0.2,0.4-0.4v-0.8H441.7z"/>
		<path fill="#FAAE24" d="M433.1,1062.5c0,1.5,1.1,2.9,3.6,2.9c1.8,0,3.6-1,3.6-2.9c0-1.6-1.3-2.9-3.6-2.9
			C434.5,1059.7,433.1,1060.9,433.1,1062.5z"/>
	</g>
	<path fill="none" stroke="#FAAE24" stroke-width="7" stroke-miterlimit="10" d="M138.5,993.1"/>
	<g>
		<g>
			<path fill="none" stroke="#FAAE24" stroke-width="7" stroke-miterlimit="10" d="M5.8,1120.1h-44.4c-8.1,0-14.7-6.6-14.7-14.7
				V993.1c0-8.1,6.6-14.7,14.7-14.7h19.2"/>
			<g>
				<polygon fill="#FAAE24" points="-24.4,995.9 5.8,978.5 -24.4,961 				"/>
			</g>
		</g>
	</g>
	<g>
		<g>
			<path fill="none" stroke="#FAAE24" stroke-width="7" stroke-miterlimit="10" d="M188.3,1230.6H75.2c-8.1,0-14.7-6.6-14.7-14.7
				v-7.6"/>
			<g>
				<polygon fill="#FAAE24" points="78,1213.5 60.5,1183.2 43.1,1213.5 				"/>
			</g>
		</g>
	</g>
	<g>
		<line fill="#FAAE24" x1="112.4" y1="1104.6" x2="190.2" y2="1104.6"/>
		<g>
			<line fill="none" stroke="#FAAE24" stroke-width="7" stroke-miterlimit="10" x1="112.4" y1="1104.6" x2="165.1" y2="1104.6"/>
			<g>
				<polygon fill="#FAAE24" points="160,1122.1 190.2,1104.6 160,1087.2 				"/>
			</g>
		</g>
	</g>
	<g>
		<g>
			<path fill="#F8E2D2" d="M248.1,1121.4h-36c-4.8,0-8.7-3.9-8.7-8.7v-24c0-4.8,3.9-8.7,8.7-8.7h36c4.8,0,8.7,3.9,8.7,8.7v24
				C256.8,1117.5,252.9,1121.4,248.1,1121.4z"/>
		</g>
		<g>
			<path fill="#F8E2D2" d="M201.2,1059.5h-1.6v-2.1h10c1.1,0,1.5,0.5,1.5,1.5v2.1h-2.2v-1.1c0-0.4-0.2-0.5-0.5-0.5h-4.8v5.3h5.9v2.1
				h-5.9v4.9c0,0.3,0.2,0.5,0.5,0.5h4.9c0.3,0,0.5-0.2,0.5-0.5v-1.1h2.2v2.1c0,1.1-0.5,1.5-1.5,1.5h-7.5c-1.1,0-1.5-0.5-1.5-1.5
				V1059.5z"/>
			<path fill="#F8E2D2" d="M213.6,1064.7c-0.1-0.4-0.4-0.5-0.7-0.5h-0.2v-2h1.2c1.1,0,1.5,0.3,1.8,1.2l2.6,7
				c0.2,0.7,0.4,1.6,0.4,1.6h0c0,0,0.2-0.9,0.4-1.6l2.6-7c0.4-1,0.8-1.2,1.8-1.2h1.1v2h-0.2c-0.4,0-0.6,0.1-0.8,0.5l-3.7,9.7h-2.7
				L213.6,1064.7z"/>
			<path fill="#F8E2D2" d="M231.7,1061.9c3.4,0,5.2,2.5,5.2,5.7c0,0.3-0.1,1-0.1,1h-8.9c0.1,2.6,2,4.1,4.2,4.1
				c2.1,0,3.6-1.4,3.6-1.4l1,1.7c0,0-1.8,1.8-4.7,1.8c-3.8,0-6.5-2.8-6.5-6.4C225.6,1064.4,228.3,1061.9,231.7,1061.9z
				 M234.6,1066.9c-0.1-2-1.3-3.1-2.9-3.1c-1.8,0-3.2,1.1-3.6,3.1H234.6z"/>
			<path fill="#F8E2D2" d="M240.1,1064.7c0-0.4-0.2-0.5-0.5-0.5h-1v-2h2.2c1,0,1.5,0.5,1.5,1.3v0.5c0,0.4,0,0.7,0,0.7h0
				c0.5-1.1,1.9-2.8,4.6-2.8c2.9,0,4.2,1.6,4.2,4.7v5.3c0,0.4,0.2,0.5,0.5,0.5h1v2h-2.3c-1.1,0-1.5-0.5-1.5-1.5v-5.7
				c0-1.7-0.3-3-2.3-3c-1.9,0-3.4,1.2-3.8,3c-0.2,0.5-0.2,1-0.2,1.6v5.7h-2.3V1064.7z"/>
			<path fill="#F8E2D2" d="M255.2,1064.1h-1.6v-1.9h1.6v-3.3h2.3v3.3h2.9v1.9h-2.9v5.6c0,2.4,1.7,2.7,2.6,2.7c0.3,0,0.6,0,0.6,0v2.1
				c0,0-0.3,0-0.8,0c-1.5,0-4.6-0.5-4.6-4.5V1064.1z"/>
		</g>
	</g>
	<g>
		<g>
			<path fill="#F8E2D2" d="M362.1,1121.4h-36c-4.8,0-8.7-3.9-8.7-8.7v-24c0-4.8,3.9-8.7,8.7-8.7h36c4.8,0,8.7,3.9,8.7,8.7v24
				C370.8,1117.5,366.9,1121.4,362.1,1121.4z"/>
		</g>
		<g>
			<path fill="#F8E2D2" d="M315.2,1059.5h-1.6v-2.1h10c1.1,0,1.5,0.5,1.5,1.5v2.1h-2.2v-1.1c0-0.4-0.2-0.5-0.5-0.5h-4.8v5.3h5.9v2.1
				h-5.9v4.9c0,0.3,0.2,0.5,0.5,0.5h4.9c0.3,0,0.5-0.2,0.5-0.5v-1.1h2.2v2.1c0,1.1-0.5,1.5-1.5,1.5h-7.5c-1.1,0-1.5-0.5-1.5-1.5
				V1059.5z"/>
			<path fill="#F8E2D2" d="M327.6,1064.7c-0.1-0.4-0.4-0.5-0.7-0.5h-0.2v-2h1.2c1.1,0,1.5,0.3,1.8,1.2l2.6,7
				c0.2,0.7,0.4,1.6,0.4,1.6h0c0,0,0.2-0.9,0.4-1.6l2.6-7c0.4-1,0.8-1.2,1.8-1.2h1.1v2h-0.2c-0.4,0-0.6,0.1-0.8,0.5l-3.7,9.7h-2.7
				L327.6,1064.7z"/>
			<path fill="#F8E2D2" d="M345.7,1061.9c3.4,0,5.2,2.5,5.2,5.7c0,0.3-0.1,1-0.1,1h-8.9c0.1,2.6,2,4.1,4.2,4.1
				c2.1,0,3.6-1.4,3.6-1.4l1,1.7c0,0-1.8,1.8-4.7,1.8c-3.8,0-6.5-2.8-6.5-6.4C339.6,1064.4,342.3,1061.9,345.7,1061.9z
				 M348.6,1066.9c-0.1-2-1.3-3.1-2.9-3.1c-1.8,0-3.2,1.1-3.6,3.1H348.6z"/>
			<path fill="#F8E2D2" d="M354.1,1064.7c0-0.4-0.2-0.5-0.5-0.5h-1v-2h2.2c1,0,1.5,0.5,1.5,1.3v0.5c0,0.4,0,0.7,0,0.7h0
				c0.5-1.1,1.9-2.8,4.6-2.8c2.9,0,4.2,1.6,4.2,4.7v5.3c0,0.4,0.2,0.5,0.5,0.5h1v2h-2.3c-1.1,0-1.5-0.5-1.5-1.5v-5.7
				c0-1.7-0.3-3-2.3-3c-1.9,0-3.4,1.2-3.8,3c-0.2,0.5-0.2,1-0.2,1.6v5.7h-2.3V1064.7z"/>
			<path fill="#F8E2D2" d="M369.2,1064.1h-1.6v-1.9h1.6v-3.3h2.3v3.3h2.9v1.9h-2.9v5.6c0,2.4,1.7,2.7,2.6,2.7c0.3,0,0.6,0,0.6,0v2.1
				c0,0-0.3,0-0.8,0c-1.5,0-4.6-0.5-4.6-4.5V1064.1z"/>
		</g>
	</g>
	<g>
		<line fill="#FAAE24" x1="264.9" y1="1104.6" x2="308.4" y2="1104.6"/>
		<g>
			<line fill="none" stroke="#FAAE24" stroke-width="7" stroke-miterlimit="10" x1="264.9" y1="1104.6" x2="283.3" y2="1104.6"/>
			<g>
				<polygon fill="#FAAE24" points="278.2,1122.1 308.4,1104.6 278.2,1087.2 				"/>
			</g>
		</g>
	</g>
	<g>
		<line fill="#FAAE24" x1="375.9" y1="1104.6" x2="414.6" y2="1104.6"/>
		<g>
			<line fill="none" stroke="#FAAE24" stroke-width="7" stroke-miterlimit="10" x1="375.9" y1="1104.6" x2="389.5" y2="1104.6"/>
			<g>
				<polygon fill="#FAAE24" points="384.4,1122.1 414.6,1104.6 384.4,1087.2 				"/>
			</g>
		</g>
	</g>
	<g>
		<line fill="#FAAE24" x1="371.1" y1="977.8" x2="414.6" y2="977.8"/>
		<g>
			<line fill="none" stroke="#FAAE24" stroke-width="7" stroke-miterlimit="10" x1="371.1" y1="977.8" x2="389.5" y2="977.8"/>
			<g>
				<polygon fill="#FAAE24" points="384.4,995.2 414.6,977.8 384.4,960.3 				"/>
			</g>
		</g>
	</g>
	<g>
		<line fill="#FAAE24" x1="469.7" y1="1092.2" x2="555.7" y2="1092.2"/>
		<g>
			
				<line fill="none" stroke="#FAAE24" stroke-width="7" stroke-linecap="round" stroke-miterlimit="10" x1="469.7" y1="1092.2" x2="469.7" y2="1092.2"/>
			
				<line fill="none" stroke="#FAAE24" stroke-width="7" stroke-linecap="round" stroke-miterlimit="10" stroke-dasharray="0,10.1359" x1="479.9" y1="1092.2" x2="525.5" y2="1092.2"/>
			
				<line fill="none" stroke="#FAAE24" stroke-width="7" stroke-linecap="round" stroke-miterlimit="10" x1="530.6" y1="1092.2" x2="530.6" y2="1092.2"/>
			<g>
				<polygon fill="#FAAE24" points="525.4,1109.6 555.7,1092.2 525.4,1074.7 				"/>
			</g>
		</g>
	</g>
</g>
</svg>
