<?xml version="1.0" encoding="utf-8"?>
<!-- Generator: Adobe Illustrator 18.1.1, SVG Export Plug-In . SVG Version: 6.00 Build 0)  -->
<!DOCTYPE svg PUBLIC "-//W3C//DTD SVG 1.1//EN" "http://www.w3.org/Graphics/SVG/1.1/DTD/svg11.dtd">
<svg version="1.1" xmlns="http://www.w3.org/2000/svg" xmlns:xlink="http://www.w3.org/1999/xlink" x="0px" y="0px"
	 viewBox="0 0 649 442.5" enable-background="new 0 0 649 442.5" xml:space="preserve">
<g id="Layer_1">
</g>
<g id="Layer_2">
</g>
<g id="Layer_3">
</g>
<g id="Layer_4">
</g>
<g id="Layer_5">
	<path fill="#2BB673" d="M198.7,242.3H32.8c-8.1,0-14.7-6.6-14.7-14.7V114c0-8.1,6.6-14.7,14.7-14.7h165.9c8.1,0,14.7,6.6,14.7,14.7
		v113.7C213.4,235.7,206.8,242.3,198.7,242.3z"/>
	<path fill="#006838" d="M373,347.7H267.6c-4.8,0-8.7-3.9-8.7-8.7V76c0-4.8,3.9-8.7,8.7-8.7H373c4.8,0,8.7,3.9,8.7,8.7v263.1
		C381.7,343.9,377.8,347.7,373,347.7z"/>
	<g>
		<path fill="#006838" d="M203.1,20.9c3.4,0,5,1.7,5,1.7l-1.1,1.5c0,0-1.5-1.4-3.9-1.4c-2.8,0-5.1,2.3-5.1,5.4
			c0,3.3,2.3,5.5,5.1,5.5c2.5,0,4-1.8,4-1.8v-1.4c0-0.3-0.2-0.4-0.4-0.4h-0.9v-1.7h1.9c0.9,0,1.3,0.4,1.3,1.3v5.7h-1.8v-0.9
			c0-0.3,0-0.6,0-0.6h0c0,0-1.6,1.7-4.4,1.7c-3.8,0-6.9-3-6.9-7.4C196,24.1,199,20.9,203.1,20.9z"/>
		<path fill="#006838" d="M211.9,22.9h-1.3v-1.7h8.3c0.9,0,1.3,0.4,1.3,1.3v1.8h-1.8v-0.9c0-0.3-0.2-0.4-0.4-0.4h-4v4.4h4.9V29h-4.9
			v4.1c0,0.3,0.2,0.4,0.4,0.4h4.1c0.3,0,0.4-0.2,0.4-0.4v-0.9h1.8V34c0,0.9-0.4,1.3-1.3,1.3h-6.3c-0.9,0-1.3-0.4-1.3-1.3V22.9z"/>
		<path fill="#006838" d="M226.4,22.9h-2.8c-0.3,0-0.4,0.1-0.4,0.4v0.9h-1.8v-1.9c0-0.9,0.3-1.2,1.2-1.2h9.7c0.9,0,1.2,0.3,1.2,1.2
			v1.9h-1.8v-0.9c0-0.3-0.2-0.4-0.4-0.4h-2.8v12.4h-2V22.9z"/>
		<path fill="#006838" d="M243.9,20.4h1.7l-5.1,15.7h-1.7L243.9,20.4z"/>
		<path fill="#006838" d="M247.2,32.5c0,0,1.2,1.5,3.1,1.5c0.9,0,1.8-0.4,1.8-1.3c0-1.8-5.5-1.6-5.5-4.9c0-1.9,1.7-2.8,3.8-2.8
			c1.2,0,3.3,0.4,3.3,2v1h-1.7v-0.5c0-0.6-0.9-0.9-1.5-0.9c-1.1,0-1.9,0.4-1.9,1.2c0,1.9,5.5,1.5,5.5,4.9c0,1.8-1.6,3-3.7,3
			c-2.7,0-4-1.8-4-1.8L247.2,32.5z"/>
		<path fill="#006838" d="M256.6,26.7h-1.3v-1.6h1.4v-2.8h1.9v2.8h2.4v1.6h-2.4v4.6c0,2,1.4,2.3,2.1,2.3c0.3,0,0.5,0,0.5,0v1.7
			c0,0-0.3,0-0.7,0c-1.3,0-3.9-0.4-3.9-3.8V26.7z"/>
		<path fill="#006838" d="M267.8,24.9c3,0,5.5,2.2,5.5,5.3c0,3.1-2.4,5.3-5.5,5.3s-5.4-2.2-5.4-5.3
			C262.4,27.2,264.8,24.9,267.8,24.9z M267.8,33.9c1.9,0,3.5-1.5,3.5-3.6c0-2.1-1.6-3.6-3.5-3.6c-1.9,0-3.5,1.5-3.5,3.6
			C264.3,32.3,265.9,33.9,267.8,33.9z"/>
		<path fill="#006838" d="M280.1,24.9c1.2,0,3.6,0.5,3.6,2.2v1H282v-0.6c0-0.7-1.1-1-1.9-1c-2,0-3.5,1.5-3.5,3.6
			c0,2.3,1.7,3.6,3.6,3.6c1.9,0,3.1-1.4,3.1-1.4l0.8,1.4c0,0-1.4,1.7-4.1,1.7c-3.2,0-5.4-2.3-5.4-5.3
			C274.7,27.3,276.9,24.9,280.1,24.9z"/>
		<path fill="#006838" d="M286.2,23.3c0-0.3-0.2-0.4-0.4-0.4h-0.8v-1.7h1.9c0.9,0,1.3,0.3,1.3,1.2v6.6h0.9c0.4,0,0.8-0.1,1.1-0.4
			l2.3-3.3h2.2l-2.7,3.8c-0.5,0.6-0.8,0.8-0.8,0.8v0c0,0,0.3,0.1,0.7,0.8l1.5,2.7c0.2,0.3,0.4,0.4,0.9,0.4h0.6v1.7h-1.4
			c-0.9,0-1.2-0.2-1.7-0.9l-1.8-3.4c-0.2-0.4-0.7-0.4-1-0.4h-0.8v4.8h-1.9V23.3z"/>
		<path fill="#006838" d="M300.2,20.4h1.7l-5.1,15.7h-1.7L300.2,20.4z"/>
		<path fill="#006838" d="M303.3,33.6h3.1v-9.1c0-0.4,0-0.9,0-0.9h0c0,0-0.2,0.3-0.7,0.8l-1.3,1.3l-1.2-1.2l3.4-3.3h1.8v12.4h3.1
			v1.7h-8.2V33.6z"/>
		<path fill="#006838" d="M320,25c0-1.3-1-2.2-2.5-2.2c-1.3,0-2.2,0.6-2.2,1.3v0.6h-1.8v-1.2c0-1.8,2.5-2.6,4.1-2.6
			c2.6,0,4.4,1.6,4.4,4.1c0,4.9-7.2,4.9-7.2,8.2c0,0.3,0.2,0.4,0.5,0.4h5c0.3,0,0.4-0.2,0.4-0.4v-0.9h1.8V34c0,0.9-0.4,1.3-1.3,1.3
			h-7.2c-1.1,0-1.3-0.5-1.3-1.6C312.8,28.5,320,28.8,320,25z"/>
		<path fill="#006838" d="M325.1,32.1c0,0,1.4,1.6,3.6,1.6c1.5,0,2.8-1.1,2.8-2.6c0-1.6-1.4-2.5-3-2.5h-1l-0.4-1.1l2.9-3.7
			c0.4-0.6,0.8-0.9,0.8-0.9v0c0,0-0.4,0.1-1.2,0.1h-2.7c-0.3,0-0.4,0.1-0.4,0.4v0.9h-1.8v-1.8c0-0.9,0.3-1.3,1.2-1.3h7.4v1.3
			l-3.7,4.5c1.8,0.2,4,1.4,4,4.1c0,2.4-1.9,4.5-4.8,4.5s-4.7-2-4.7-2L325.1,32.1z"/>
		<path fill="#006838" d="M197.5,55.8c0-2-1.7-2.2-1.7-2.2v-1.7c0,0,1.7-0.1,1.7-2.2V48c0-3.2,2.3-3.5,3.2-3.5c0.3,0,0.5,0,0.5,0
			v1.5c0,0-0.1,0-0.3,0c-0.5,0-1.7,0.2-1.7,2.1v2.1c0,2-1.6,2.5-1.6,2.5v0c0,0,1.6,0.5,1.6,2.5v2.3c0,1.9,1.2,2.1,1.7,2.1
			c0.2,0,0.3,0,0.3,0v1.5c0,0-0.2,0-0.5,0c-1,0-3.2-0.3-3.2-3.5V55.8z"/>
		<path fill="#006838" d="M203.8,44.9h1.8l-1.3,3.9H203L203.8,44.9z M206.6,44.9h1.8l-1.3,3.9h-1.4L206.6,44.9z"/>
		<path fill="#006838" d="M210.6,51.2c-0.1-0.3-0.3-0.4-0.6-0.4h-0.2v-1.7h1c0.9,0,1.2,0.2,1.5,1l2.2,5.8c0.2,0.6,0.4,1.3,0.4,1.3h0
			c0,0,0.2-0.8,0.4-1.3l2.2-5.8c0.3-0.8,0.7-1,1.5-1h0.9v1.7h-0.2c-0.3,0-0.5,0.1-0.7,0.4l-3.1,8.1h-2.2L210.6,51.2z"/>
		<path fill="#006838" d="M225.8,48.9c2.8,0,4.4,2.1,4.4,4.7c0,0.3-0.1,0.8-0.1,0.8h-7.4c0.1,2.2,1.7,3.4,3.5,3.4c1.7,0,3-1.2,3-1.2
			l0.8,1.4c0,0-1.5,1.5-3.9,1.5c-3.2,0-5.4-2.3-5.4-5.3C220.7,51,222.9,48.9,225.8,48.9z M228.1,53.1c-0.1-1.7-1.1-2.6-2.4-2.6
			c-1.5,0-2.7,0.9-3,2.6H228.1z"/>
		<path fill="#006838" d="M232.7,51.3c0-0.3-0.2-0.4-0.4-0.4h-0.8v-1.7h1.8c0.9,0,1.3,0.4,1.3,1.2V51c0,0.4,0,0.7,0,0.7h0
			c0.5-1.5,1.6-2.6,3.2-2.6c0.3,0,0.5,0,0.5,0V51c0,0-0.3-0.1-0.6-0.1c-1.2,0-2.4,0.9-2.8,2.4c-0.2,0.6-0.2,1.2-0.2,1.8v4.1h-1.9
			V51.3z"/>
		<path fill="#006838" d="M240.3,56.5c0,0,1.2,1.5,3.1,1.5c0.9,0,1.8-0.4,1.8-1.3c0-1.8-5.5-1.6-5.5-4.9c0-1.9,1.7-2.8,3.8-2.8
			c1.2,0,3.3,0.4,3.3,2v1h-1.7v-0.5c0-0.6-0.9-0.9-1.5-0.9c-1.1,0-1.9,0.4-1.9,1.2c0,1.9,5.5,1.5,5.5,4.9c0,1.8-1.6,3-3.7,3
			c-2.7,0-4-1.8-4-1.8L240.3,56.5z"/>
		<path fill="#006838" d="M254,48.9c3,0,5.5,2.2,5.5,5.3c0,3.1-2.4,5.3-5.5,5.3c-3,0-5.4-2.2-5.4-5.3C248.5,51.2,251,48.9,254,48.9z
			 M254,57.9c1.9,0,3.5-1.5,3.5-3.6c0-2.1-1.6-3.6-3.5-3.6c-1.9,0-3.5,1.5-3.5,3.6C250.5,56.3,252.1,57.9,254,57.9z"/>
		<path fill="#006838" d="M262,51.3c0-0.3-0.2-0.4-0.4-0.4h-0.8v-1.7h1.9c0.9,0,1.3,0.4,1.3,1.3v6.7c0,0.3,0.2,0.4,0.4,0.4h0.8v1.7
			h-1.9c-0.9,0-1.3-0.4-1.3-1.3V51.3z M262,45.2h1.7v2H262V45.2z"/>
		<path fill="#006838" d="M271.8,48.9c3,0,5.5,2.2,5.5,5.3c0,3.1-2.4,5.3-5.5,5.3s-5.4-2.2-5.4-5.3
			C266.4,51.2,268.8,48.9,271.8,48.9z M271.8,57.9c1.9,0,3.5-1.5,3.5-3.6c0-2.1-1.6-3.6-3.5-3.6c-1.9,0-3.5,1.5-3.5,3.6
			C268.4,56.3,269.9,57.9,271.8,57.9z"/>
		<path fill="#006838" d="M279.7,51.3c0-0.3-0.2-0.4-0.4-0.4h-0.8v-1.7h1.9c0.9,0,1.3,0.4,1.3,1.1v0.4c0,0.3,0,0.6,0,0.6h0
			c0.4-0.9,1.6-2.3,3.8-2.3c2.4,0,3.5,1.3,3.5,3.9v4.4c0,0.3,0.2,0.4,0.4,0.4h0.8v1.7h-1.9c-0.9,0-1.3-0.4-1.3-1.3v-4.8
			c0-1.4-0.3-2.5-1.9-2.5c-1.6,0-2.8,1-3.2,2.5c-0.1,0.4-0.2,0.9-0.2,1.4v4.7h-1.9V51.3z"/>
		<path fill="#006838" d="M291.6,44.9h1.8l-1.3,3.9h-1.4L291.6,44.9z M294.3,44.9h1.8l-1.3,3.9h-1.4L294.3,44.9z"/>
		<path fill="#006838" d="M299.1,49.2h2v2.1h-2V49.2z M299.1,57.2h2v2.1h-2V57.2z"/>
		<path fill="#006838" d="M310.5,56.1c0,0,1.1,1.6,3.3,1.6c1.8,0,3-1.2,3-2.8c0-1.8-1.5-2.9-3.4-2.9c-1.6,0-2.7,0.7-2.7,0.7
			l-0.8-0.4l0.6-5.8c0.1-0.9,0.4-1.3,1.3-1.3h4.9c0.9,0,1.3,0.4,1.3,1.3v1.8h-1.8v-0.9c0-0.3-0.2-0.4-0.4-0.4h-3
			c-0.3,0-0.4,0.1-0.4,0.4l-0.3,2.6c0,0.4-0.1,0.7-0.1,0.7h0c0,0,0.8-0.4,1.8-0.4c3,0,5,2.1,5,4.6c0,2.5-2,4.7-5.1,4.7
			c-2.9,0-4.4-2-4.4-2L310.5,56.1z"/>
		<path fill="#006838" d="M323.4,57.2l-1.7,4.1h-1.5l1.2-4.1H323.4z"/>
		<path fill="#006838" d="M330.3,44.9h1.8l-1.3,3.9h-1.4L330.3,44.9z M333.1,44.9h1.8l-1.3,3.9h-1.4L333.1,44.9z"/>
		<path fill="#006838" d="M339.8,48.9c2.4,0,3.3,1.7,3.3,1.7h0c0,0,0-0.2,0-0.5c0-0.6,0.4-1,1.2-1h1.8v1.7h-0.8
			c-0.3,0-0.4,0.1-0.4,0.4v12h-1.9v-4.6c0-0.5,0-0.9,0-0.9h0c0,0-0.9,1.7-3.3,1.7c-2.7,0-4.4-2.2-4.4-5.3
			C335.2,51,337.1,48.9,339.8,48.9z M343,54.2c0-1.8-0.9-3.6-2.9-3.6c-1.6,0-2.9,1.3-2.9,3.6c0,2.2,1.2,3.6,2.9,3.6
			C341.6,57.9,343,56.8,343,54.2z"/>
		<path fill="#006838" d="M348.2,51.3c0-0.3-0.2-0.4-0.4-0.4h-0.8v-1.7h1.9c0.9,0,1.3,0.4,1.3,1.2v4.8c0,1.4,0.3,2.5,1.9,2.5
			c2.1,0,3.3-1.8,3.3-3.8v-4.7h1.9v8c0,0.3,0.2,0.4,0.4,0.4h0.8v1.7h-1.9c-0.9,0-1.3-0.4-1.3-1.1v-0.4c0-0.3,0-0.6,0-0.6h0
			c-0.4,1-1.7,2.3-3.7,2.3c-2.3,0-3.4-1.2-3.4-3.9V51.3z"/>
		<path fill="#006838" d="M365.8,53h0.4v-0.1c0-1.8-0.7-2.4-2.2-2.4c-0.5,0-1.7,0.1-1.7,0.8v0.6h-1.8v-1c0-1.7,2.5-1.9,3.5-1.9
			c3.3,0,4.2,1.7,4.2,4v4.3c0,0.3,0.2,0.4,0.4,0.4h0.8v1.7h-1.8c-0.9,0-1.3-0.4-1.3-1.2c0-0.3,0-0.6,0-0.6h0c0,0-0.8,2-3.2,2
			c-1.7,0-3.4-1.1-3.4-3.1C359.7,53.2,364.1,53,365.8,53z M363.6,58c1.6,0,2.7-1.7,2.7-3.2v-0.3h-0.5c-1.5,0-4.1,0.1-4.1,1.9
			C361.7,57.2,362.3,58,363.6,58z"/>
		<path fill="#006838" d="M371.5,51.3c0-0.3-0.2-0.4-0.4-0.4h-0.8v-1.7h1.9c0.9,0,1.3,0.4,1.3,1.1v0.4c0,0.3,0,0.6,0,0.6h0
			c0.4-0.9,1.6-2.3,3.8-2.3c2.4,0,3.5,1.3,3.5,3.9v4.4c0,0.3,0.2,0.4,0.4,0.4h0.8v1.7H380c-0.9,0-1.3-0.4-1.3-1.3v-4.8
			c0-1.4-0.3-2.5-1.9-2.5c-1.6,0-2.8,1-3.2,2.5c-0.1,0.4-0.2,0.9-0.2,1.4v4.7h-1.9V51.3z"/>
		<path fill="#006838" d="M384.1,50.7h-1.3v-1.6h1.4v-2.8h1.9v2.8h2.4v1.6h-2.4v4.6c0,2,1.4,2.3,2.1,2.3c0.3,0,0.5,0,0.5,0v1.7
			c0,0-0.3,0-0.7,0c-1.3,0-3.9-0.4-3.9-3.8V50.7z"/>
		<path fill="#006838" d="M391.2,51.3c0-0.3-0.2-0.4-0.4-0.4h-0.8v-1.7h1.9c0.9,0,1.3,0.4,1.3,1.3v6.7c0,0.3,0.2,0.4,0.4,0.4h0.8
			v1.7h-1.9c-0.9,0-1.3-0.4-1.3-1.3V51.3z M391.2,45.2h1.7v2h-1.7V45.2z"/>
		<path fill="#006838" d="M396.7,50.7h-1.3v-1.6h1.4v-2.8h1.9v2.8h2.4v1.6h-2.4v4.6c0,2,1.4,2.3,2.1,2.3c0.3,0,0.5,0,0.5,0v1.7
			c0,0-0.3,0-0.7,0c-1.3,0-3.9-0.4-3.9-3.8V50.7z"/>
		<path fill="#006838" d="M404.1,61.8c0.8,0,1.4-0.6,1.8-1.5l0.5-1.1l-3.5-8c-0.1-0.3-0.3-0.4-0.6-0.4H402v-1.7h1.1
			c0.8,0,1.1,0.2,1.4,1l2.3,5.7c0.2,0.5,0.4,1.2,0.4,1.2h0c0,0,0.1-0.7,0.3-1.2l2.1-5.7c0.3-0.8,0.7-1,1.5-1h1.2v1.7h-0.3
			c-0.3,0-0.5,0.1-0.6,0.4l-4,9.9c-0.6,1.6-1.8,2.4-3.3,2.4c-1.5,0-2.4-1-2.4-1l0.8-1.4C402.6,61.1,403.3,61.8,404.1,61.8z"/>
		<path fill="#006838" d="M415,44.9h1.8l-1.3,3.9h-1.4L415,44.9z M417.8,44.9h1.8l-1.3,3.9h-1.4L417.8,44.9z"/>
		<path fill="#006838" d="M422.5,49.2h2v2.1h-2V49.2z M422.5,57.2h2v2.1h-2V57.2z"/>
		<path fill="#006838" d="M439.8,49c0-1.3-1-2.2-2.5-2.2c-1.3,0-2.2,0.6-2.2,1.3v0.6h-1.8v-1.2c0-1.8,2.5-2.6,4.1-2.6
			c2.6,0,4.4,1.6,4.4,4.1c0,4.9-7.2,4.9-7.2,8.2c0,0.3,0.2,0.4,0.5,0.4h5c0.3,0,0.4-0.2,0.4-0.4v-0.9h1.8V58c0,0.9-0.4,1.3-1.3,1.3
			h-7.2c-1.1,0-1.3-0.5-1.3-1.6C432.6,52.5,439.8,52.8,439.8,49z"/>
		<path fill="#006838" d="M444.3,52.2c0-4.1,1.2-7.3,5-7.3c3.8,0,5,3.2,5,7.3c0,4.1-1.2,7.3-5,7.3C445.5,59.5,444.3,56.3,444.3,52.2
			z M452.2,52.2c0-3.1-0.7-5.5-3-5.5c-2.3,0-3,2.4-3,5.5c0,3.1,0.7,5.5,3,5.5C451.6,57.7,452.2,55.3,452.2,52.2z"/>
		<path fill="#006838" d="M456.4,59.7c0.5,0,1.7-0.2,1.7-2.1v-2.3c0-2.1,1.6-2.5,1.6-2.5v0c0,0-1.6-0.6-1.6-2.5v-2.1
			c0-1.9-1.2-2.1-1.7-2.1c-0.2,0-0.3,0-0.3,0v-1.5c0,0,0.2,0,0.5,0c1,0,3.2,0.3,3.2,3.5v1.7c0,2.1,1.7,2.2,1.7,2.2v1.7
			c0,0-1.7,0.1-1.7,2.2v1.9c0,3.2-2.3,3.5-3.2,3.5c-0.3,0-0.5,0-0.5,0v-1.5C456.1,59.7,456.2,59.7,456.4,59.7z"/>
	</g>
	<g>
		<path fill="#1C75BC" d="M180.3,203.3h-119c-4.4,0-8-3.6-8-8v-36c0-4.4,3.6-8,8-8h119c4.4,0,8,3.6,8,8v36
			C188.3,199.7,184.7,203.3,180.3,203.3z"/>
		<g>
			<path fill="#FFFFFF" d="M72.3,173.1c2.4,0,3.3,1.7,3.3,1.7h0c0,0,0-0.2,0-0.5c0-0.6,0.4-1,1.2-1h1.8v1.7h-0.8
				c-0.3,0-0.4,0.1-0.4,0.4v12h-1.9v-4.6c0-0.5,0-0.9,0-0.9h0c0,0-0.9,1.7-3.3,1.7c-2.7,0-4.4-2.2-4.4-5.3
				C67.7,175.1,69.6,173.1,72.3,173.1z M75.5,178.3c0-1.8-0.9-3.6-2.9-3.6c-1.6,0-2.9,1.3-2.9,3.6c0,2.2,1.2,3.6,2.9,3.6
				C74.1,182,75.5,180.9,75.5,178.3z"/>
			<path fill="#FFFFFF" d="M80.7,175.4c0-0.3-0.2-0.4-0.4-0.4h-0.8v-1.7h1.9c0.9,0,1.3,0.4,1.3,1.2v4.8c0,1.4,0.3,2.5,1.9,2.5
				c2.1,0,3.3-1.8,3.3-3.8v-4.7h1.9v8c0,0.3,0.2,0.4,0.4,0.4H91v1.7h-1.9c-0.9,0-1.3-0.4-1.3-1.1v-0.4c0-0.3,0-0.6,0-0.6h0
				c-0.4,1-1.7,2.3-3.7,2.3c-2.3,0-3.4-1.2-3.4-3.9V175.4z"/>
			<path fill="#FFFFFF" d="M98.3,177.1h0.4V177c0-1.8-0.7-2.4-2.2-2.4c-0.5,0-1.7,0.1-1.7,0.8v0.6H93v-1c0-1.7,2.5-1.9,3.5-1.9
				c3.3,0,4.2,1.7,4.2,4v4.3c0,0.3,0.2,0.4,0.4,0.4h0.8v1.7h-1.8c-0.9,0-1.3-0.4-1.3-1.2c0-0.3,0-0.6,0-0.6h0c0,0-0.8,2-3.2,2
				c-1.7,0-3.4-1.1-3.4-3.1C92.2,177.3,96.6,177.1,98.3,177.1z M96.1,182.1c1.6,0,2.7-1.7,2.7-3.2v-0.3h-0.5c-1.5,0-4.1,0.1-4.1,1.9
				C94.2,181.3,94.8,182.1,96.1,182.1z"/>
			<path fill="#FFFFFF" d="M104,175.4c0-0.3-0.2-0.4-0.4-0.4h-0.8v-1.7h1.9c0.9,0,1.3,0.4,1.3,1.1v0.4c0,0.3,0,0.6,0,0.6h0
				c0.4-0.9,1.6-2.3,3.8-2.3c2.4,0,3.5,1.3,3.5,3.9v4.4c0,0.3,0.2,0.4,0.4,0.4h0.8v1.7h-1.9c-0.9,0-1.3-0.4-1.3-1.3v-4.8
				c0-1.4-0.3-2.5-1.9-2.5c-1.6,0-2.8,1-3.2,2.5c-0.1,0.4-0.2,0.9-0.2,1.4v4.7H104V175.4z"/>
			<path fill="#FFFFFF" d="M116.6,174.9h-1.3v-1.6h1.4v-2.8h1.9v2.8h2.4v1.6h-2.4v4.6c0,2,1.4,2.3,2.1,2.3c0.3,0,0.5,0,0.5,0v1.7
				c0,0-0.3,0-0.7,0c-1.3,0-3.9-0.4-3.9-3.8V174.9z"/>
			<path fill="#FFFFFF" d="M123.7,175.4c0-0.3-0.2-0.4-0.4-0.4h-0.8v-1.7h1.9c0.9,0,1.3,0.4,1.3,1.3v6.7c0,0.3,0.2,0.4,0.4,0.4h0.8
				v1.7H125c-0.9,0-1.3-0.4-1.3-1.3V175.4z M123.7,169.3h1.7v2h-1.7V169.3z"/>
			<path fill="#FFFFFF" d="M129.2,174.9h-1.3v-1.6h1.4v-2.8h1.9v2.8h2.4v1.6h-2.4v4.6c0,2,1.4,2.3,2.1,2.3c0.3,0,0.5,0,0.5,0v1.7
				c0,0-0.3,0-0.7,0c-1.3,0-3.9-0.4-3.9-3.8V174.9z"/>
			<path fill="#FFFFFF" d="M136.6,186c0.8,0,1.4-0.6,1.8-1.5l0.5-1.1l-3.5-8c-0.1-0.3-0.3-0.4-0.6-0.4h-0.2v-1.7h1.1
				c0.8,0,1.1,0.2,1.4,1l2.3,5.7c0.2,0.5,0.4,1.2,0.4,1.2h0c0,0,0.1-0.7,0.3-1.2l2.1-5.7c0.3-0.8,0.7-1,1.5-1h1.2v1.7h-0.3
				c-0.3,0-0.5,0.1-0.6,0.4l-4,9.9c-0.6,1.6-1.8,2.4-3.3,2.4c-1.5,0-2.4-1-2.4-1l0.8-1.4C135.1,185.3,135.8,186,136.6,186z"/>
			<path fill="#FFFFFF" d="M151.9,176.9h5.8v1.7h-5.8V176.9z"/>
			<path fill="#FFFFFF" d="M165.8,181.7h3.1v-9.1c0-0.4,0-0.9,0-0.9h0c0,0-0.2,0.3-0.7,0.8l-1.3,1.3l-1.2-1.2l3.4-3.3h1.8v12.4h3.1
				v1.7h-8.2V181.7z"/>
		</g>
	</g>
	<g>
		<g>
			<path fill="none" stroke="#006838" stroke-width="6" stroke-miterlimit="10" d="M144.7,116.6v-9.7c0-12,9.7-21.6,21.6-21.6h84.9"
				/>
			<g>
				<polygon fill="#006838" points="159.7,112.3 144.7,138.2 129.8,112.3 				"/>
			</g>
		</g>
	</g>
	<g>
		<path fill="#FFFFFF" d="M37.6,109.1c2.3,0,6.4,1,6.4,3.7v1.7h-2.2v-1c0-1.4-2.4-2.1-4.1-2.1c-3.4,0-6,2.6-6,6.4
			c0,3.7,2.7,6.6,6.1,6.6c3.4,0,5.4-2.3,5.4-2.3l1.3,1.7c0,0-2.4,2.8-6.7,2.8c-5.1,0-8.6-3.9-8.6-8.9
			C29.1,112.8,32.7,109.1,37.6,109.1z"/>
		<path fill="#FFFFFF" d="M47.1,111.9c0-0.4-0.2-0.5-0.5-0.5h-1v-2h2.3c1.1,0,1.5,0.5,1.5,1.5v12.9c0,0.4,0.2,0.5,0.5,0.5h1v2h-2.3
			c-1.1,0-1.5-0.5-1.5-1.5V111.9z"/>
		<path fill="#FFFFFF" d="M53.7,116.7c0-0.4-0.2-0.5-0.5-0.5h-1v-2h2.3c1.1,0,1.5,0.5,1.5,1.5v8.1c0,0.4,0.2,0.5,0.5,0.5h1v2h-2.3
			c-1.1,0-1.5-0.5-1.5-1.5V116.7z M53.7,109.4h2.1v2.4h-2.1V109.4z"/>
		<path fill="#FFFFFF" d="M65.1,113.9c3.4,0,5.2,2.5,5.2,5.7c0,0.3-0.1,1-0.1,1h-8.9c0.1,2.6,2,4.1,4.2,4.1c2.1,0,3.6-1.4,3.6-1.4
			l1,1.7c0,0-1.8,1.8-4.7,1.8c-3.8,0-6.5-2.8-6.5-6.4C59,116.4,61.6,113.9,65.1,113.9z M67.9,118.8c-0.1-2-1.3-3.1-2.9-3.1
			c-1.8,0-3.2,1.1-3.6,3.1H67.9z"/>
		<path fill="#FFFFFF" d="M73.4,116.7c0-0.4-0.2-0.5-0.5-0.5h-1v-2h2.2c1,0,1.5,0.5,1.5,1.3v0.5c0,0.4,0,0.7,0,0.7h0
			c0.5-1.1,1.9-2.8,4.6-2.8c2.9,0,4.2,1.6,4.2,4.7v5.3c0,0.4,0.2,0.5,0.5,0.5h1v2h-2.3c-1.1,0-1.5-0.5-1.5-1.5v-5.7
			c0-1.7-0.3-3-2.3-3c-1.9,0-3.4,1.2-3.8,3c-0.2,0.5-0.2,1-0.2,1.6v5.7h-2.3V116.7z"/>
		<path fill="#FFFFFF" d="M88.5,116h-1.6v-1.9h1.6v-3.3h2.3v3.3h2.9v1.9h-2.9v5.6c0,2.4,1.7,2.7,2.6,2.7c0.3,0,0.6,0,0.6,0v2.1
			c0,0-0.3,0-0.8,0c-1.5,0-4.6-0.5-4.6-4.5V116z"/>
		<path fill="#FFFFFF" d="M102.8,124.2h3.7v-10.9c0-0.5,0-1.1,0-1.1h0c0,0-0.2,0.4-0.8,1l-1.6,1.6l-1.4-1.5l4.1-3.9h2.2v14.9h3.7
			v2.1h-9.8V124.2z"/>
	</g>
	<g>
		<g>
			<path fill="none" stroke="#006838" stroke-width="6" stroke-miterlimit="10" d="M139.7,215.9v31.2c0,12,9.7,21.6,21.6,21.6h63.4"
				/>
			<g>
				<polygon fill="#006838" points="220.3,283.7 246.3,268.7 220.3,253.8 				"/>
			</g>
		</g>
	</g>
	<path fill="#2BB673" d="M441.8,242.3h165.9c8.1,0,14.7-6.6,14.7-14.7V114c0-8.1-6.6-14.7-14.7-14.7H441.8
		c-8.1,0-14.7,6.6-14.7,14.7v113.7C427.1,235.7,433.7,242.3,441.8,242.3z"/>
	<g>
		<path fill="#1C75BC" d="M461.3,203.3h119c4.4,0,8-3.6,8-8v-36c0-4.4-3.6-8-8-8h-119c-4.4,0-8,3.6-8,8v36
			C453.3,199.7,456.8,203.3,461.3,203.3z"/>
		<g>
			<path fill="#FFFFFF" d="M472.2,173.1c2.4,0,3.3,1.7,3.3,1.7h0c0,0,0-0.2,0-0.5c0-0.6,0.4-1,1.2-1h1.8v1.7h-0.8
				c-0.3,0-0.4,0.1-0.4,0.4v12h-1.9v-4.6c0-0.5,0-0.9,0-0.9h0c0,0-0.9,1.7-3.3,1.7c-2.7,0-4.4-2.2-4.4-5.3
				C467.7,175.1,469.6,173.1,472.2,173.1z M475.4,178.3c0-1.8-0.9-3.6-2.9-3.6c-1.6,0-2.9,1.3-2.9,3.6c0,2.2,1.2,3.6,2.9,3.6
				C474,182,475.4,180.9,475.4,178.3z"/>
			<path fill="#FFFFFF" d="M480.7,175.4c0-0.3-0.2-0.4-0.4-0.4h-0.8v-1.7h1.9c0.9,0,1.3,0.4,1.3,1.2v4.8c0,1.4,0.3,2.5,1.9,2.5
				c2.1,0,3.3-1.8,3.3-3.8v-4.7h1.9v8c0,0.3,0.2,0.4,0.4,0.4h0.8v1.7h-1.9c-0.9,0-1.3-0.4-1.3-1.1v-0.4c0-0.3,0-0.6,0-0.6h0
				c-0.4,1-1.7,2.3-3.7,2.3c-2.3,0-3.4-1.2-3.4-3.9V175.4z"/>
			<path fill="#FFFFFF" d="M498.3,177.1h0.4V177c0-1.8-0.7-2.4-2.2-2.4c-0.5,0-1.7,0.1-1.7,0.8v0.6H493v-1c0-1.7,2.5-1.9,3.5-1.9
				c3.3,0,4.2,1.7,4.2,4v4.3c0,0.3,0.2,0.4,0.4,0.4h0.8v1.7h-1.8c-0.9,0-1.3-0.4-1.3-1.2c0-0.3,0-0.6,0-0.6h0c0,0-0.8,2-3.2,2
				c-1.7,0-3.4-1.1-3.4-3.1C492.2,177.3,496.6,177.1,498.3,177.1z M496,182.1c1.6,0,2.7-1.7,2.7-3.2v-0.3h-0.5
				c-1.5,0-4.1,0.1-4.1,1.9C494.1,181.3,494.7,182.1,496,182.1z"/>
			<path fill="#FFFFFF" d="M504,175.4c0-0.3-0.2-0.4-0.4-0.4h-0.8v-1.7h1.9c0.9,0,1.3,0.4,1.3,1.1v0.4c0,0.3,0,0.6,0,0.6h0
				c0.4-0.9,1.6-2.3,3.8-2.3c2.4,0,3.5,1.3,3.5,3.9v4.4c0,0.3,0.2,0.4,0.4,0.4h0.8v1.7h-1.9c-0.9,0-1.3-0.4-1.3-1.3v-4.8
				c0-1.4-0.3-2.5-1.9-2.5c-1.6,0-2.8,1-3.2,2.5c-0.1,0.4-0.2,0.9-0.2,1.4v4.7H504V175.4z"/>
			<path fill="#FFFFFF" d="M516.6,174.9h-1.3v-1.6h1.4v-2.8h1.9v2.8h2.4v1.6h-2.4v4.6c0,2,1.4,2.3,2.1,2.3c0.3,0,0.5,0,0.5,0v1.7
				c0,0-0.3,0-0.7,0c-1.3,0-3.9-0.4-3.9-3.8V174.9z"/>
			<path fill="#FFFFFF" d="M523.7,175.4c0-0.3-0.2-0.4-0.4-0.4h-0.8v-1.7h1.9c0.9,0,1.3,0.4,1.3,1.3v6.7c0,0.3,0.2,0.4,0.4,0.4h0.8
				v1.7h-1.9c-0.9,0-1.3-0.4-1.3-1.3V175.4z M523.7,169.3h1.7v2h-1.7V169.3z"/>
			<path fill="#FFFFFF" d="M529.1,174.9h-1.3v-1.6h1.4v-2.8h1.9v2.8h2.4v1.6h-2.4v4.6c0,2,1.4,2.3,2.1,2.3c0.3,0,0.5,0,0.5,0v1.7
				c0,0-0.3,0-0.7,0c-1.3,0-3.9-0.4-3.9-3.8V174.9z"/>
			<path fill="#FFFFFF" d="M536.6,186c0.8,0,1.4-0.6,1.8-1.5l0.5-1.1l-3.5-8c-0.1-0.3-0.3-0.4-0.6-0.4h-0.2v-1.7h1.1
				c0.8,0,1.1,0.2,1.4,1l2.3,5.7c0.2,0.5,0.4,1.2,0.4,1.2h0c0,0,0.1-0.7,0.3-1.2l2.1-5.7c0.3-0.8,0.7-1,1.5-1h1.2v1.7h-0.3
				c-0.3,0-0.5,0.1-0.6,0.4l-4,9.9c-0.6,1.6-1.8,2.4-3.3,2.4c-1.5,0-2.4-1-2.4-1l0.8-1.4C535.1,185.3,535.7,186,536.6,186z"/>
			<path fill="#FFFFFF" d="M551.9,176.9h5.8v1.7h-5.8V176.9z"/>
			<path fill="#FFFFFF" d="M565.8,181.7h3.1v-9.1c0-0.4,0-0.9,0-0.9h0c0,0-0.2,0.3-0.7,0.8l-1.3,1.3l-1.2-1.2l3.4-3.3h1.8v12.4h3.1
				v1.7h-8.2V181.7z"/>
		</g>
	</g>
	<g>
		<g>
			<path fill="none" stroke="#006838" stroke-width="6" stroke-miterlimit="10" d="M495.8,116.6v-9.7c0-12-9.7-21.6-21.6-21.6h-84.9
				"/>
			<g>
				<polygon fill="#006838" points="510.7,112.3 495.8,138.2 480.8,112.3 				"/>
			</g>
		</g>
	</g>
	<g>
		<g>
			<path fill="none" stroke="#006838" stroke-width="6" stroke-miterlimit="10" d="M500.8,215.9v83.6c0,12-9.7,21.6-21.6,21.6h-63.4
				"/>
			<g>
				<polygon fill="#006838" points="420.2,306.2 394.3,321.1 420.2,336.1 				"/>
			</g>
		</g>
	</g>
	<g>
		<path fill="#006838" d="M152.3,290.4H151v-1.7h6.2c2.6,0,4.4,1.7,4.4,4.4s-1.8,4.5-4.4,4.5h-2.9v5.2h-2V290.4z M156.9,295.9
			c1.7,0,2.7-1.1,2.7-2.8s-1-2.7-2.7-2.7h-2.6v5.5H156.9z"/>
		<path fill="#006838" d="M170,288.4c4.1,0,7.3,3.1,7.3,7.2c0,4.2-3.2,7.4-7.3,7.4c-4.1,0-7.2-3.2-7.2-7.4
			C162.8,291.6,165.9,288.4,170,288.4z M170,301.2c2.9,0,5.2-2.4,5.2-5.5c0-3-2.3-5.3-5.2-5.3c-2.9,0-5.2,2.3-5.2,5.3
			C164.9,298.8,167.2,301.2,170,301.2z"/>
		<path fill="#006838" d="M179.8,299.5c0,0,1.4,1.7,3.5,1.7c1.3,0,2.4-0.8,2.4-2.1c0-3-6.8-2.5-6.8-6.9c0-2.1,1.9-3.8,4.5-3.8
			c1.5,0,4,0.7,4,2.6v1.2h-1.8v-0.7c0-0.7-1.1-1.3-2.2-1.3c-1.5,0-2.5,0.8-2.5,1.9c0,2.9,6.8,2.2,6.8,6.9c0,2.2-1.7,4-4.5,4
			c-3,0-4.7-2.1-4.7-2.1L179.8,299.5z"/>
		<path fill="#006838" d="M194,290.4h-2.8c-0.3,0-0.4,0.1-0.4,0.4v0.9h-1.8v-1.9c0-0.9,0.3-1.2,1.2-1.2h9.7c0.9,0,1.2,0.3,1.2,1.2
			v1.9h-1.8v-0.9c0-0.3-0.2-0.4-0.4-0.4H196v12.4h-2V290.4z"/>
		<path fill="#006838" d="M158.2,316.5c0-1.3-1-2.2-2.5-2.2c-1.3,0-2.2,0.6-2.2,1.3v0.6h-1.8V315c0-1.8,2.5-2.6,4.1-2.6
			c2.6,0,4.4,1.6,4.4,4.1c0,4.9-7.2,4.9-7.2,8.2c0,0.3,0.2,0.4,0.5,0.4h5c0.3,0,0.4-0.2,0.4-0.4v-0.9h1.8v1.8c0,0.9-0.4,1.3-1.3,1.3
			h-7.2c-1.1,0-1.3-0.5-1.3-1.6C151,320,158.2,320.3,158.2,316.5z"/>
		<path fill="#006838" d="M162.7,319.7c0-4.1,1.2-7.3,5-7.3c3.8,0,5,3.2,5,7.3c0,4.1-1.2,7.3-5,7.3
			C163.9,327,162.7,323.8,162.7,319.7z M170.7,319.7c0-3.1-0.7-5.5-3-5.5c-2.3,0-3,2.4-3,5.5c0,3.1,0.7,5.5,3,5.5
			C170,325.2,170.7,322.8,170.7,319.7z"/>
		<path fill="#006838" d="M174.8,319.7c0-4.1,1.2-7.3,5-7.3c3.8,0,5,3.2,5,7.3c0,4.1-1.2,7.3-5,7.3
			C176.1,327,174.8,323.8,174.8,319.7z M182.8,319.7c0-3.1-0.7-5.5-3-5.5c-2.3,0-3,2.4-3,5.5c0,3.1,0.7,5.5,3,5.5
			C182.1,325.2,182.8,322.8,182.8,319.7z"/>
		<path fill="#006838" d="M199.2,312.4c4.1,0,7.3,3.1,7.3,7.2c0,4.2-3.2,7.4-7.3,7.4s-7.2-3.2-7.2-7.4
			C192,315.6,195.1,312.4,199.2,312.4z M199.2,325.2c2.9,0,5.2-2.4,5.2-5.5c0-3-2.3-5.3-5.2-5.3c-2.9,0-5.2,2.3-5.2,5.3
			C194,322.8,196.3,325.2,199.2,325.2z"/>
		<path fill="#006838" d="M209.2,314.8c0-0.3-0.2-0.4-0.4-0.4h-0.9v-1.7h2c0.9,0,1.3,0.4,1.3,1.3v4.7h1.3c0.5,0,0.9-0.1,1.2-0.5
			l3.1-5.5h2.2l-3.4,5.9c-0.4,0.7-0.8,0.9-0.8,0.9v0c0,0,0.4,0.1,0.8,0.9l2.1,4.2c0.2,0.4,0.5,0.5,1,0.5h0.4v1.7h-1.1
			c-1.1,0-1.5-0.1-2-1.1l-2.4-4.9c-0.2-0.5-0.7-0.5-1.3-0.5h-1.2v6.5h-2V314.8z"/>
	</g>
	<g>
		<path fill="#FFFFFF" d="M270.5,82.5c-0.1-0.3-0.3-0.4-0.6-0.4h-0.2v-1.5h0.9c0.8,0,1.1,0.2,1.4,0.9l2,5.2c0.2,0.5,0.3,1.2,0.3,1.2
			h0c0,0,0.1-0.7,0.3-1.2l1.9-5.2c0.3-0.7,0.6-0.9,1.4-0.9h0.8v1.5h-0.2c-0.3,0-0.5,0.1-0.6,0.4l-2.8,7.3h-2L270.5,82.5z"/>
		<path fill="#FFFFFF" d="M284.1,80.4c2.6,0,3.9,1.9,3.9,4.3c0,0.2-0.1,0.7-0.1,0.7h-6.6c0.1,1.9,1.5,3,3.1,3c1.6,0,2.7-1.1,2.7-1.1
			l0.8,1.2c0,0-1.4,1.3-3.5,1.3c-2.9,0-4.8-2.1-4.8-4.8C279.6,82.3,281.5,80.4,284.1,80.4z M286.2,84.1c-0.1-1.5-1-2.3-2.1-2.3
			c-1.3,0-2.4,0.8-2.7,2.3H286.2z"/>
		<path fill="#FFFFFF" d="M290.4,82.5c0-0.3-0.1-0.4-0.4-0.4h-0.7v-1.5h1.7c0.8,0,1.2,0.3,1.2,1.1v0.6c0,0.4,0,0.6,0,0.6h0
			c0.4-1.3,1.5-2.4,2.9-2.4c0.2,0,0.5,0,0.5,0v1.7c0,0-0.2-0.1-0.5-0.1c-1.1,0-2.1,0.8-2.6,2.1c-0.2,0.5-0.2,1.1-0.2,1.6v3.7h-1.7
			V82.5z"/>
		<path fill="#FFFFFF" d="M297.2,87.2c0,0,1.1,1.4,2.8,1.4c0.8,0,1.6-0.4,1.6-1.2c0-1.6-5-1.5-5-4.4c0-1.7,1.5-2.6,3.4-2.6
			c1.1,0,3,0.4,3,1.8V83h-1.6v-0.5c0-0.5-0.8-0.8-1.4-0.8c-1,0-1.7,0.4-1.7,1.1c0,1.7,5,1.4,5,4.4c0,1.6-1.4,2.7-3.3,2.7
			c-2.4,0-3.6-1.6-3.6-1.6L297.2,87.2z"/>
		<path fill="#FFFFFF" d="M309.5,80.4c2.7,0,4.9,2,4.9,4.8c0,2.8-2.2,4.8-4.9,4.8s-4.9-2-4.9-4.8C304.6,82.4,306.8,80.4,309.5,80.4z
			 M309.5,88.4c1.7,0,3.1-1.4,3.1-3.3c0-1.9-1.4-3.2-3.1-3.2c-1.7,0-3.1,1.4-3.1,3.2C306.4,87.1,307.8,88.4,309.5,88.4z"/>
		<path fill="#FFFFFF" d="M316.7,82.5c0-0.3-0.1-0.4-0.4-0.4h-0.7v-1.5h1.7c0.8,0,1.2,0.3,1.2,1.2v6.1c0,0.3,0.1,0.4,0.4,0.4h0.7
			v1.5h-1.7c-0.8,0-1.2-0.3-1.2-1.2V82.5z M316.7,77h1.6v1.8h-1.6V77z"/>
		<path fill="#FFFFFF" d="M325.6,80.4c2.7,0,4.9,2,4.9,4.8c0,2.8-2.2,4.8-4.9,4.8s-4.9-2-4.9-4.8C320.7,82.4,322.9,80.4,325.6,80.4z
			 M325.6,88.4c1.7,0,3.1-1.4,3.1-3.3c0-1.9-1.4-3.2-3.1-3.2c-1.7,0-3.1,1.4-3.1,3.2C322.5,87.1,323.9,88.4,325.6,88.4z"/>
		<path fill="#FFFFFF" d="M332.7,82.5c0-0.3-0.1-0.4-0.4-0.4h-0.7v-1.5h1.7c0.8,0,1.2,0.3,1.2,1V82c0,0.3,0,0.5,0,0.5h0
			c0.4-0.8,1.4-2.1,3.4-2.1c2.2,0,3.1,1.2,3.1,3.5v3.9c0,0.3,0.1,0.4,0.4,0.4h0.7v1.5h-1.7c-0.8,0-1.2-0.3-1.2-1.2v-4.3
			c0-1.3-0.3-2.3-1.7-2.3c-1.4,0-2.5,0.9-2.9,2.2c-0.1,0.4-0.2,0.8-0.2,1.2v4.3h-1.7V82.5z"/>
		<path fill="#FFFFFF" d="M344.2,80.6h1.8v1.9h-1.8V80.6z M344.2,87.9h1.8v1.9h-1.8V87.9z"/>
		<path fill="#FFFFFF" d="M354.4,86.8c0,0,1,1.4,3,1.4c1.6,0,2.7-1.1,2.7-2.5c0-1.6-1.4-2.6-3-2.6c-1.4,0-2.4,0.6-2.4,0.6l-0.7-0.3
			l0.5-5.3c0.1-0.8,0.3-1.2,1.2-1.2h4.4c0.8,0,1.2,0.3,1.2,1.2v1.6h-1.6V79c0-0.3-0.1-0.4-0.4-0.4h-2.7c-0.3,0-0.4,0.1-0.4,0.4
			l-0.3,2.3c0,0.4-0.1,0.7-0.1,0.7h0c0,0,0.7-0.4,1.6-0.4c2.7,0,4.5,1.9,4.5,4.2c0,2.2-1.8,4.2-4.6,4.2c-2.6,0-3.9-1.8-3.9-1.8
			L354.4,86.8z"/>
		<path fill="#FFFFFF" d="M274.3,102c2.2,0,2.9,1.5,2.9,1.5h0c0,0,0-0.2,0-0.5c0-0.5,0.3-0.9,1.1-0.9h1.6v1.5h-0.7
			c-0.3,0-0.4,0.1-0.4,0.4v10.8h-1.7v-4.1c0-0.5,0-0.8,0-0.8h0c0,0-0.8,1.5-2.9,1.5c-2.4,0-4-1.9-4-4.8
			C270.2,103.9,271.9,102,274.3,102z M277.2,106.8c0-1.6-0.8-3.2-2.6-3.2c-1.4,0-2.6,1.2-2.6,3.3c0,2,1.1,3.3,2.6,3.3
			C275.9,110,277.2,109.1,277.2,106.8z"/>
		<path fill="#FFFFFF" d="M281.9,104.1c0-0.3-0.1-0.4-0.4-0.4h-0.7v-1.5h1.7c0.8,0,1.2,0.3,1.2,1.1v4.3c0,1.3,0.3,2.3,1.7,2.3
			c1.9,0,3-1.6,3-3.4v-4.3h1.7v7.2c0,0.3,0.1,0.4,0.4,0.4h0.7v1.5h-1.7c-0.8,0-1.2-0.4-1.2-1V110c0-0.3,0-0.5,0-0.5h0
			c-0.4,0.9-1.5,2.1-3.3,2.1c-2.1,0-3.1-1.1-3.1-3.5V104.1z"/>
		<path fill="#FFFFFF" d="M297.7,105.7h0.4v-0.1c0-1.6-0.6-2.2-2-2.2c-0.4,0-1.5,0.1-1.5,0.7v0.5H293v-0.9c0-1.5,2.3-1.7,3.2-1.7
			c3,0,3.7,1.5,3.7,3.6v3.9c0,0.3,0.1,0.4,0.4,0.4h0.7v1.5h-1.6c-0.8,0-1.1-0.4-1.1-1c0-0.3,0-0.5,0-0.5h0c0,0-0.7,1.8-2.9,1.8
			c-1.6,0-3.1-1-3.1-2.8C292.2,105.8,296.2,105.7,297.7,105.7z M295.7,110.1c1.5,0,2.4-1.5,2.4-2.9v-0.3h-0.5
			c-1.3,0-3.7,0.1-3.7,1.7C294,109.4,294.5,110.1,295.7,110.1z"/>
		<path fill="#FFFFFF" d="M302.9,104.1c0-0.3-0.1-0.4-0.4-0.4h-0.7v-1.5h1.7c0.8,0,1.2,0.3,1.2,1v0.3c0,0.3,0,0.5,0,0.5h0
			c0.4-0.8,1.4-2.1,3.4-2.1c2.2,0,3.1,1.2,3.1,3.5v3.9c0,0.3,0.1,0.4,0.4,0.4h0.7v1.5h-1.7c-0.8,0-1.2-0.3-1.2-1.2v-4.3
			c0-1.3-0.3-2.3-1.7-2.3c-1.4,0-2.5,0.9-2.9,2.2c-0.1,0.4-0.2,0.8-0.2,1.2v4.3h-1.7V104.1z"/>
		<path fill="#FFFFFF" d="M314.2,103.6H313v-1.4h1.2v-2.5h1.7v2.5h2.2v1.4H316v4.2c0,1.8,1.3,2.1,1.9,2.1c0.3,0,0.4,0,0.4,0v1.5
			c0,0-0.2,0-0.6,0c-1.2,0-3.5-0.4-3.5-3.4V103.6z"/>
		<path fill="#FFFFFF" d="M320.6,104.1c0-0.3-0.1-0.4-0.4-0.4h-0.7v-1.5h1.7c0.8,0,1.2,0.3,1.2,1.2v6.1c0,0.3,0.1,0.4,0.4,0.4h0.7
			v1.5h-1.7c-0.8,0-1.2-0.3-1.2-1.2V104.1z M320.6,98.6h1.6v1.8h-1.6V98.6z"/>
		<path fill="#FFFFFF" d="M325.5,103.6h-1.2v-1.4h1.2v-2.5h1.7v2.5h2.2v1.4h-2.2v4.2c0,1.8,1.3,2.1,1.9,2.1c0.3,0,0.4,0,0.4,0v1.5
			c0,0-0.2,0-0.6,0c-1.2,0-3.5-0.4-3.5-3.4V103.6z"/>
		<path fill="#FFFFFF" d="M332.2,113.6c0.7,0,1.3-0.5,1.6-1.3l0.4-1l-3.1-7.2c-0.1-0.3-0.3-0.4-0.6-0.4h-0.2v-1.5h1
			c0.7,0,1,0.2,1.3,0.9l2.1,5.1c0.2,0.5,0.3,1.1,0.3,1.1h0c0,0,0.1-0.6,0.3-1.1l1.9-5.1c0.3-0.7,0.6-0.9,1.3-0.9h1v1.5h-0.2
			c-0.3,0-0.5,0.1-0.6,0.4l-3.6,8.9c-0.6,1.4-1.7,2.1-2.9,2.1c-1.4,0-2.1-0.9-2.1-0.9l0.7-1.3C330.9,113,331.4,113.6,332.2,113.6z"
			/>
		<path fill="#FFFFFF" d="M341.7,102.2h1.8v1.9h-1.8V102.2z M341.7,109.5h1.8v1.9h-1.8V109.5z"/>
		<path fill="#FFFFFF" d="M357.2,102.1c0-1.2-0.9-2-2.2-2c-1.1,0-2,0.6-2,1.2v0.6h-1.7v-1.1c0-1.7,2.2-2.3,3.7-2.3
			c2.3,0,4,1.5,4,3.7c0,4.4-6.4,4.4-6.4,7.4c0,0.3,0.1,0.3,0.5,0.3h4.5c0.3,0,0.4-0.1,0.4-0.4v-0.8h1.7v1.6c0,0.8-0.3,1.2-1.2,1.2
			h-6.5c-1,0-1.2-0.4-1.2-1.5C350.7,105.2,357.2,105.5,357.2,102.1z"/>
		<path fill="#FFFFFF" d="M361.2,105c0-3.7,1.1-6.6,4.5-6.6c3.4,0,4.5,2.9,4.5,6.6c0,3.7-1.1,6.6-4.5,6.6
			C362.3,111.5,361.2,108.6,361.2,105z M368.4,105c0-2.8-0.6-4.9-2.7-4.9c-2.1,0-2.7,2.2-2.7,4.9c0,2.8,0.6,5,2.7,5
			C367.8,109.9,368.4,107.7,368.4,105z"/>
	</g>
	<g>
		<path fill="#FFFFFF" d="M271.5,265.5c-0.1-0.3-0.3-0.4-0.6-0.4h-0.2v-1.5h0.9c0.8,0,1.1,0.2,1.4,0.9l2,5.2
			c0.2,0.5,0.3,1.2,0.3,1.2h0c0,0,0.1-0.7,0.3-1.2l1.9-5.2c0.3-0.7,0.6-0.9,1.4-0.9h0.8v1.5h-0.2c-0.3,0-0.5,0.1-0.6,0.4l-2.8,7.3
			h-2L271.5,265.5z"/>
		<path fill="#FFFFFF" d="M285.2,263.4c2.6,0,3.9,1.9,3.9,4.3c0,0.2-0.1,0.7-0.1,0.7h-6.6c0.1,1.9,1.5,3,3.1,3
			c1.6,0,2.7-1.1,2.7-1.1l0.8,1.2c0,0-1.4,1.3-3.5,1.3c-2.9,0-4.8-2.1-4.8-4.8C280.6,265.3,282.6,263.4,285.2,263.4z M287.3,267.1
			c-0.1-1.5-1-2.3-2.1-2.3c-1.3,0-2.4,0.8-2.7,2.3H287.3z"/>
		<path fill="#FFFFFF" d="M291.4,265.5c0-0.3-0.1-0.4-0.4-0.4h-0.7v-1.5h1.7c0.8,0,1.2,0.3,1.2,1.1v0.6c0,0.4,0,0.6,0,0.6h0
			c0.4-1.3,1.5-2.4,2.9-2.4c0.2,0,0.5,0,0.5,0v1.7c0,0-0.2-0.1-0.5-0.1c-1.1,0-2.1,0.8-2.6,2.1c-0.2,0.5-0.2,1.1-0.2,1.6v3.7h-1.7
			V265.5z"/>
		<path fill="#FFFFFF" d="M298.2,270.2c0,0,1.1,1.4,2.8,1.4c0.8,0,1.6-0.4,1.6-1.2c0-1.6-5-1.5-5-4.4c0-1.7,1.5-2.6,3.4-2.6
			c1.1,0,3,0.4,3,1.8v0.9h-1.6v-0.5c0-0.5-0.8-0.8-1.4-0.8c-1,0-1.7,0.4-1.7,1.1c0,1.7,5,1.4,5,4.4c0,1.6-1.4,2.7-3.3,2.7
			c-2.4,0-3.6-1.6-3.6-1.6L298.2,270.2z"/>
		<path fill="#FFFFFF" d="M310.6,263.4c2.7,0,4.9,2,4.9,4.8c0,2.8-2.2,4.8-4.9,4.8s-4.9-2-4.9-4.8
			C305.7,265.4,307.8,263.4,310.6,263.4z M310.6,271.4c1.7,0,3.1-1.4,3.1-3.3c0-1.9-1.4-3.2-3.1-3.2c-1.7,0-3.1,1.4-3.1,3.2
			C307.5,270.1,308.9,271.4,310.6,271.4z"/>
		<path fill="#FFFFFF" d="M317.7,265.5c0-0.3-0.1-0.4-0.4-0.4h-0.7v-1.5h1.7c0.8,0,1.2,0.3,1.2,1.2v6.1c0,0.3,0.1,0.4,0.4,0.4h0.7
			v1.5h-1.7c-0.8,0-1.2-0.3-1.2-1.2V265.5z M317.8,260h1.6v1.8h-1.6V260z"/>
		<path fill="#FFFFFF" d="M326.6,263.4c2.7,0,4.9,2,4.9,4.8c0,2.8-2.2,4.8-4.9,4.8s-4.9-2-4.9-4.8
			C321.7,265.4,323.9,263.4,326.6,263.4z M326.6,271.4c1.7,0,3.1-1.4,3.1-3.3c0-1.9-1.4-3.2-3.1-3.2c-1.7,0-3.1,1.4-3.1,3.2
			C323.5,270.1,324.9,271.4,326.6,271.4z"/>
		<path fill="#FFFFFF" d="M333.7,265.5c0-0.3-0.1-0.4-0.4-0.4h-0.7v-1.5h1.7c0.8,0,1.2,0.3,1.2,1v0.3c0,0.3,0,0.5,0,0.5h0
			c0.4-0.8,1.4-2.1,3.4-2.1c2.2,0,3.1,1.2,3.1,3.5v3.9c0,0.3,0.1,0.4,0.4,0.4h0.7v1.5h-1.7c-0.8,0-1.2-0.3-1.2-1.2v-4.3
			c0-1.3-0.3-2.3-1.7-2.3c-1.4,0-2.5,0.9-2.9,2.2c-0.1,0.4-0.2,0.8-0.2,1.2v4.3h-1.7V265.5z"/>
		<path fill="#FFFFFF" d="M345.2,263.6h1.8v1.9h-1.8V263.6z M345.2,270.9h1.8v1.9h-1.8V270.9z"/>
		<path fill="#FFFFFF" d="M354.3,267.1c0-3.3,1.8-7.3,5.7-7.3c1.5,0,2.5,0.5,2.5,0.5l-0.6,1.5c0,0-0.8-0.4-1.8-0.4
			c-2.3,0-3.5,2.2-3.8,4.4h0c0.5-0.8,1.7-1.2,2.8-1.2c2.4,0,4,1.8,4,4.1c0,2.5-1.7,4.2-4.1,4.2C356.3,272.9,354.3,270.6,354.3,267.1
			z M359,271.3c1.5,0,2.3-1.1,2.3-2.6c0-1.5-1-2.6-2.6-2.6c-1.4,0-2.6,0.9-2.6,1.8C356.2,269.5,357.4,271.3,359,271.3z"/>
		<path fill="#FFFFFF" d="M275.3,285c2.2,0,2.9,1.5,2.9,1.5h0c0,0,0-0.2,0-0.5c0-0.5,0.3-0.9,1.1-0.9h1.6v1.5h-0.7
			c-0.3,0-0.4,0.1-0.4,0.4v10.8h-1.7v-4.1c0-0.5,0-0.8,0-0.8h0c0,0-0.8,1.5-2.9,1.5c-2.4,0-4-1.9-4-4.8
			C271.2,286.9,272.9,285,275.3,285z M278.2,289.8c0-1.6-0.8-3.2-2.6-3.2c-1.4,0-2.6,1.2-2.6,3.3c0,2,1.1,3.3,2.6,3.3
			C276.9,293,278.2,292.1,278.2,289.8z"/>
		<path fill="#FFFFFF" d="M282.9,287.1c0-0.3-0.1-0.4-0.4-0.4h-0.7v-1.5h1.7c0.8,0,1.2,0.3,1.2,1.1v4.3c0,1.3,0.3,2.3,1.7,2.3
			c1.9,0,3-1.6,3-3.4v-4.3h1.7v7.2c0,0.3,0.1,0.4,0.4,0.4h0.7v1.5h-1.7c-0.8,0-1.2-0.4-1.2-1V293c0-0.3,0-0.5,0-0.5h0
			c-0.4,0.9-1.5,2.1-3.3,2.1c-2.1,0-3.1-1.1-3.1-3.5V287.1z"/>
		<path fill="#FFFFFF" d="M298.8,288.7h0.4v-0.1c0-1.6-0.6-2.2-2-2.2c-0.4,0-1.5,0.1-1.5,0.7v0.5H294v-0.9c0-1.5,2.3-1.7,3.2-1.7
			c3,0,3.7,1.5,3.7,3.6v3.9c0,0.3,0.1,0.4,0.4,0.4h0.7v1.5h-1.6c-0.8,0-1.1-0.4-1.1-1c0-0.3,0-0.5,0-0.5h0c0,0-0.7,1.8-2.9,1.8
			c-1.6,0-3.1-1-3.1-2.8C293.3,288.8,297.2,288.7,298.8,288.7z M296.7,293.1c1.5,0,2.4-1.5,2.4-2.9v-0.3h-0.5
			c-1.3,0-3.7,0.1-3.7,1.7C295,292.4,295.6,293.1,296.7,293.1z"/>
		<path fill="#FFFFFF" d="M303.9,287.1c0-0.3-0.1-0.4-0.4-0.4h-0.7v-1.5h1.7c0.8,0,1.2,0.3,1.2,1v0.3c0,0.3,0,0.5,0,0.5h0
			c0.4-0.8,1.4-2.1,3.4-2.1c2.2,0,3.1,1.2,3.1,3.5v3.9c0,0.3,0.1,0.4,0.4,0.4h0.7v1.5h-1.7c-0.8,0-1.2-0.3-1.2-1.2v-4.3
			c0-1.3-0.3-2.3-1.7-2.3c-1.4,0-2.5,0.9-2.9,2.2c-0.1,0.4-0.2,0.8-0.2,1.2v4.3h-1.7V287.1z"/>
		<path fill="#FFFFFF" d="M315.3,286.6h-1.2v-1.4h1.2v-2.5h1.7v2.5h2.2v1.4H317v4.2c0,1.8,1.3,2.1,1.9,2.1c0.3,0,0.4,0,0.4,0v1.5
			c0,0-0.2,0-0.6,0c-1.2,0-3.5-0.4-3.5-3.4V286.6z"/>
		<path fill="#FFFFFF" d="M321.6,287.1c0-0.3-0.1-0.4-0.4-0.4h-0.7v-1.5h1.7c0.8,0,1.2,0.3,1.2,1.2v6.1c0,0.3,0.1,0.4,0.4,0.4h0.7
			v1.5h-1.7c-0.8,0-1.2-0.3-1.2-1.2V287.1z M321.7,281.6h1.6v1.8h-1.6V281.6z"/>
		<path fill="#FFFFFF" d="M326.5,286.6h-1.2v-1.4h1.2v-2.5h1.7v2.5h2.2v1.4h-2.2v4.2c0,1.8,1.3,2.1,1.9,2.1c0.3,0,0.4,0,0.4,0v1.5
			c0,0-0.2,0-0.6,0c-1.2,0-3.5-0.4-3.5-3.4V286.6z"/>
		<path fill="#FFFFFF" d="M333.2,296.6c0.7,0,1.3-0.5,1.6-1.3l0.4-1l-3.1-7.2c-0.1-0.3-0.3-0.4-0.6-0.4h-0.2v-1.5h1
			c0.7,0,1,0.2,1.3,0.9l2.1,5.1c0.2,0.5,0.3,1.1,0.3,1.1h0c0,0,0.1-0.6,0.3-1.1l1.9-5.1c0.3-0.7,0.6-0.9,1.3-0.9h1v1.5h-0.2
			c-0.3,0-0.5,0.1-0.6,0.4l-3.6,8.9c-0.6,1.4-1.7,2.1-2.9,2.1c-1.4,0-2.1-0.9-2.1-0.9l0.7-1.3C331.9,296,332.5,296.6,333.2,296.6z"
			/>
		<path fill="#FFFFFF" d="M342.7,285.2h1.8v1.9h-1.8V285.2z M342.7,292.5h1.8v1.9h-1.8V292.5z"/>
		<path fill="#FFFFFF" d="M352.2,292.8h2.8v-8.2c0-0.4,0-0.8,0-0.8h0c0,0-0.1,0.3-0.6,0.7l-1.2,1.2l-1.1-1.1l3-3h1.6v11.2h2.8v1.5
			h-7.4V292.8z"/>
		<path fill="#FFFFFF" d="M361.8,292.5c0,0,0.8,0.4,1.8,0.4c2.3,0,3.5-2.2,3.8-4.4h0c-0.5,0.8-1.7,1.2-2.8,1.2c-2.4,0-4-1.8-4-4.1
			c0-2.5,1.7-4.2,4.1-4.2c2.7,0,4.8,2.3,4.8,5.9c0,3.3-1.8,7.3-5.7,7.3c-1.5,0-2.5-0.5-2.5-0.5L361.8,292.5z M367.6,286.5
			c0-1.6-1.2-3.5-2.8-3.5c-1.5,0-2.3,1.1-2.3,2.6c0,1.5,1,2.6,2.6,2.6C366.4,288.3,367.6,287.4,367.6,286.5z"/>
	</g>
	<g>
		<path fill="#FFFFFF" d="M534,109.1c2.3,0,6.4,1,6.4,3.7v1.7h-2.2v-1c0-1.4-2.4-2.1-4.1-2.1c-3.4,0-6,2.6-6,6.4
			c0,3.7,2.7,6.6,6.1,6.6c3.4,0,5.4-2.3,5.4-2.3l1.3,1.7c0,0-2.4,2.8-6.7,2.8c-5.1,0-8.6-3.9-8.6-8.9
			C525.5,112.8,529.2,109.1,534,109.1z"/>
		<path fill="#FFFFFF" d="M543.5,111.9c0-0.4-0.2-0.5-0.5-0.5h-1v-2h2.3c1.1,0,1.5,0.5,1.5,1.5v12.9c0,0.4,0.2,0.5,0.5,0.5h1v2h-2.3
			c-1.1,0-1.5-0.5-1.5-1.5V111.9z"/>
		<path fill="#FFFFFF" d="M550.1,116.7c0-0.4-0.2-0.5-0.5-0.5h-1v-2h2.3c1.1,0,1.5,0.5,1.5,1.5v8.1c0,0.4,0.2,0.5,0.5,0.5h1v2h-2.3
			c-1.1,0-1.5-0.5-1.5-1.5V116.7z M550.2,109.4h2.1v2.4h-2.1V109.4z"/>
		<path fill="#FFFFFF" d="M561.5,113.9c3.4,0,5.2,2.5,5.2,5.7c0,0.3-0.1,1-0.1,1h-8.9c0.1,2.6,2,4.1,4.2,4.1c2.1,0,3.6-1.4,3.6-1.4
			l1,1.7c0,0-1.8,1.8-4.7,1.8c-3.8,0-6.5-2.8-6.5-6.4C555.4,116.4,558.1,113.9,561.5,113.9z M564.4,118.8c-0.1-2-1.3-3.1-2.9-3.1
			c-1.8,0-3.2,1.1-3.6,3.1H564.4z"/>
		<path fill="#FFFFFF" d="M569.9,116.7c0-0.4-0.2-0.5-0.5-0.5h-1v-2h2.2c1,0,1.5,0.5,1.5,1.3v0.5c0,0.4,0,0.7,0,0.7h0
			c0.5-1.1,1.9-2.8,4.6-2.8c2.9,0,4.2,1.6,4.2,4.7v5.3c0,0.4,0.2,0.5,0.5,0.5h1v2h-2.3c-1.1,0-1.5-0.5-1.5-1.5v-5.7
			c0-1.7-0.3-3-2.3-3c-1.9,0-3.4,1.2-3.8,3c-0.2,0.5-0.2,1-0.2,1.6v5.7h-2.3V116.7z"/>
		<path fill="#FFFFFF" d="M585,116h-1.6v-1.9h1.6v-3.3h2.3v3.3h2.9v1.9h-2.9v5.6c0,2.4,1.7,2.7,2.6,2.7c0.3,0,0.6,0,0.6,0v2.1
			c0,0-0.3,0-0.8,0c-1.5,0-4.6-0.5-4.6-4.5V116z"/>
		<path fill="#FFFFFF" d="M607.3,114c0-1.6-1.2-2.7-3-2.7c-1.5,0-2.6,0.8-2.6,1.6v0.7h-2.2v-1.4c0-2.2,3-3.1,4.9-3.1
			c3.1,0,5.3,2,5.3,4.9c0,5.8-8.6,5.9-8.6,9.8c0,0.3,0.2,0.5,0.6,0.5h6c0.3,0,0.5-0.2,0.5-0.5v-1.1h2.2v2.1c0,1.1-0.5,1.5-1.5,1.5
			h-8.7c-1.3,0-1.6-0.6-1.6-1.9C598.7,118.1,607.3,118.5,607.3,114z"/>
	</g>
	<g>
		<path fill="#006838" d="M449.6,342.4h-1.3v-1.7h6.2c2.6,0,4.4,1.7,4.4,4.4s-1.8,4.5-4.4,4.5h-2.9v5.2h-2V342.4z M454.2,347.9
			c1.7,0,2.7-1.1,2.7-2.8s-1-2.7-2.7-2.7h-2.6v5.5H454.2z"/>
		<path fill="#006838" d="M467.3,340.4c4.1,0,7.3,3.1,7.3,7.2c0,4.2-3.2,7.4-7.3,7.4c-4.1,0-7.2-3.2-7.2-7.4
			C460,343.6,463.2,340.4,467.3,340.4z M467.3,353.2c2.9,0,5.2-2.4,5.2-5.5c0-3-2.3-5.3-5.2-5.3c-2.9,0-5.2,2.3-5.2,5.3
			C462.1,350.8,464.4,353.2,467.3,353.2z"/>
		<path fill="#006838" d="M477.1,351.5c0,0,1.4,1.7,3.5,1.7c1.3,0,2.4-0.8,2.4-2.1c0-3-6.8-2.5-6.8-6.9c0-2.1,1.9-3.8,4.5-3.8
			c1.5,0,4,0.7,4,2.6v1.2h-1.8v-0.7c0-0.7-1.1-1.3-2.2-1.3c-1.5,0-2.5,0.8-2.5,1.9c0,2.9,6.8,2.2,6.8,6.9c0,2.2-1.7,4-4.5,4
			c-3,0-4.7-2.1-4.7-2.1L477.1,351.5z"/>
		<path fill="#006838" d="M491.2,342.4h-2.8c-0.3,0-0.4,0.1-0.4,0.4v0.9h-1.8v-1.9c0-0.9,0.3-1.2,1.2-1.2h9.7c0.9,0,1.2,0.3,1.2,1.2
			v1.9h-1.8v-0.9c0-0.3-0.2-0.4-0.4-0.4h-2.8v12.4h-2V342.4z"/>
		<path fill="#E78A24" d="M447.9,373.8l6.4-9.1h2.3v8.7h2.2v1.7h-2.2v3.7h-2v-3.7h-6.6V373.8z M454.5,368.5c0-0.6,0.1-1.4,0.1-1.4h0
			c0,0-0.4,0.7-0.7,1.2l-3.1,4.2c-0.4,0.5-0.7,0.9-0.7,0.9v0c0,0,0.6-0.1,1.2-0.1h3.3V368.5z"/>
		<path fill="#E78A24" d="M460.1,371.7c0-4.1,1.2-7.3,5-7.3c3.8,0,5,3.2,5,7.3c0,4.1-1.2,7.3-5,7.3
			C461.3,379,460.1,375.8,460.1,371.7z M468.1,371.7c0-3.1-0.7-5.5-3-5.5c-2.3,0-3,2.4-3,5.5c0,3.1,0.7,5.5,3,5.5
			C467.4,377.2,468.1,374.8,468.1,371.7z"/>
		<path fill="#E78A24" d="M473.3,376.7c0,0,0.9,0.5,2,0.5c2.6,0,3.9-2.4,4.2-4.9h0c-0.6,0.9-1.9,1.4-3.1,1.4c-2.7,0-4.5-2-4.5-4.6
			c0-2.8,1.9-4.7,4.5-4.7c3,0,5.3,2.6,5.3,6.5c0,3.7-2,8.1-6.4,8.1c-1.7,0-2.7-0.6-2.7-0.6L473.3,376.7z M479.6,370.1
			c0-1.8-1.4-3.8-3.2-3.8c-1.6,0-2.6,1.3-2.6,2.9c0,1.7,1.1,2.9,2.9,2.9C478.4,372.1,479.6,371.1,479.6,370.1z"/>
		<path fill="#E78A24" d="M495.6,364.4c1.9,0,5.3,0.8,5.3,3.1v1.4h-1.8v-0.8c0-1.2-2-1.8-3.4-1.8c-2.8,0-5,2.1-5,5.3
			c0,3.1,2.2,5.5,5.1,5.5c2.8,0,4.5-1.9,4.5-1.9l1.1,1.4c0,0-2,2.4-5.6,2.4c-4.2,0-7.2-3.3-7.2-7.4
			C488.6,367.5,491.6,364.4,495.6,364.4z"/>
		<path fill="#E78A24" d="M508.1,368.4c3,0,5.5,2.2,5.5,5.3c0,3.1-2.4,5.3-5.5,5.3c-3,0-5.4-2.2-5.4-5.3
			C502.6,370.7,505,368.4,508.1,368.4z M508.1,377.4c1.9,0,3.5-1.5,3.5-3.6c0-2.1-1.6-3.6-3.5-3.6c-1.9,0-3.5,1.5-3.5,3.6
			C504.6,375.8,506.2,377.4,508.1,377.4z"/>
		<path fill="#E78A24" d="M515.9,370.8c0-0.3-0.2-0.4-0.4-0.4h-0.8v-1.7h1.9c0.9,0,1.3,0.4,1.3,1.1v0.4c0,0.3,0,0.6,0,0.6h0
			c0.4-0.9,1.6-2.3,3.8-2.3c2.4,0,3.5,1.3,3.5,3.9v4.4c0,0.3,0.2,0.4,0.4,0.4h0.8v1.7h-1.9c-0.9,0-1.3-0.4-1.3-1.3v-4.8
			c0-1.4-0.3-2.5-1.9-2.5c-1.6,0-2.8,1-3.2,2.5c-0.1,0.4-0.2,0.9-0.2,1.4v4.7h-1.9V370.8z"/>
		<path fill="#E78A24" d="M535.4,364.7c0.9,0,1.3,0.4,1.3,1.3v10.7c0,0.3,0.2,0.4,0.4,0.4h0.8v1.7H536c-0.9,0-1.3-0.4-1.3-1.3v-10.7
			c0-0.3-0.2-0.4-0.4-0.4h-1.8c-0.8,0-2.1,0.2-2.1,2v0.3h2.4v1.6h-2.4v8.6h-1.9v-8.6h-1.3v-1.6h1.3v-0.3c0-3.3,2.5-3.7,3.8-3.7
			H535.4z"/>
		<path fill="#E78A24" d="M540.2,370.8c0-0.3-0.2-0.4-0.4-0.4H539v-1.7h1.9c0.9,0,1.3,0.4,1.3,1.3v6.7c0,0.3,0.2,0.4,0.4,0.4h0.8
			v1.7h-1.9c-0.9,0-1.3-0.4-1.3-1.3V370.8z M540.3,364.7h1.7v2h-1.7V364.7z"/>
		<path fill="#E78A24" d="M550.1,368.4c1.2,0,3.6,0.5,3.6,2.2v1H552v-0.6c0-0.7-1.1-1-1.9-1c-2,0-3.5,1.5-3.5,3.6
			c0,2.3,1.7,3.6,3.6,3.6c1.9,0,3.1-1.4,3.1-1.4l0.8,1.4c0,0-1.4,1.7-4.1,1.7c-3.2,0-5.4-2.3-5.4-5.3
			C544.6,370.8,546.8,368.4,550.1,368.4z"/>
		<path fill="#E78A24" d="M556.4,370.2H555v-1.6h1.4v-2.8h1.9v2.8h2.4v1.6h-2.4v4.6c0,2,1.4,2.3,2.1,2.3c0.3,0,0.5,0,0.5,0v1.7
			c0,0-0.3,0-0.7,0c-1.3,0-3.9-0.4-3.9-3.8V370.2z"/>
	</g>
</g>
</svg>
