<?xml version="1.0" encoding="utf-8"?>
<!-- Generator: Adobe Illustrator 18.1.1, SVG Export Plug-In . SVG Version: 6.00 Build 0)  -->
<svg version="1.1" xmlns="http://www.w3.org/2000/svg" xmlns:xlink="http://www.w3.org/1999/xlink" x="0px" y="0px"
	 viewBox="0 0 649 442.5" enable-background="new 0 0 649 442.5" xml:space="preserve">
<g id="Layer_1">
</g>
<g id="Layer_2">
</g>
<g id="Layer_3">
</g>
<g id="Layer_4">
</g>
<g id="Layer_5">
	<path fill="#2BB673" d="M198.7,242.3H32.8c-8.1,0-14.7-6.6-14.7-14.7V114c0-8.1,6.6-14.7,14.7-14.7h165.9c8.1,0,14.7,6.6,14.7,14.7
		v113.7C213.4,235.7,206.8,242.3,198.7,242.3z"/>
	<path fill="#006838" d="M373,347.7H267.6c-4.8,0-8.7-3.9-8.7-8.7V76c0-4.8,3.9-8.7,8.7-8.7H373c4.8,0,8.7,3.9,8.7,8.7v263.1
		C381.7,343.9,377.8,347.7,373,347.7z"/>
	<g>
		<path fill="#1C75BC" d="M180.3,203.3h-119c-4.4,0-8-3.6-8-8v-36c0-4.4,3.6-8,8-8h119c4.4,0,8,3.6,8,8v36
			C188.3,199.7,184.7,203.3,180.3,203.3z"/>
		<g>
			<path fill="#FFFFFF" d="M72.3,173.1c2.4,0,3.3,1.7,3.3,1.7h0c0,0,0-0.2,0-0.5c0-0.6,0.4-1,1.2-1h1.8v1.7h-0.8
				c-0.3,0-0.4,0.1-0.4,0.4v12h-1.9v-4.6c0-0.5,0-0.9,0-0.9h0c0,0-0.9,1.7-3.3,1.7c-2.7,0-4.4-2.2-4.4-5.3
				C67.7,175.1,69.6,173.1,72.3,173.1z M75.5,178.3c0-1.8-0.9-3.6-2.9-3.6c-1.6,0-2.9,1.3-2.9,3.6c0,2.2,1.2,3.6,2.9,3.6
				C74.1,182,75.5,180.9,75.5,178.3z"/>
			<path fill="#FFFFFF" d="M80.7,175.4c0-0.3-0.2-0.4-0.4-0.4h-0.8v-1.7h1.9c0.9,0,1.3,0.4,1.3,1.2v4.8c0,1.4,0.3,2.5,1.9,2.5
				c2.1,0,3.3-1.8,3.3-3.8v-4.7h1.9v8c0,0.3,0.2,0.4,0.4,0.4H91v1.7h-1.9c-0.9,0-1.3-0.4-1.3-1.1v-0.4c0-0.3,0-0.6,0-0.6h0
				c-0.4,1-1.7,2.3-3.7,2.3c-2.3,0-3.4-1.2-3.4-3.9V175.4z"/>
			<path fill="#FFFFFF" d="M98.3,177.1h0.4V177c0-1.8-0.7-2.4-2.2-2.4c-0.5,0-1.7,0.1-1.7,0.8v0.6H93v-1c0-1.7,2.5-1.9,3.5-1.9
				c3.3,0,4.2,1.7,4.2,4v4.3c0,0.3,0.2,0.4,0.4,0.4h0.8v1.7h-1.8c-0.9,0-1.3-0.4-1.3-1.2c0-0.3,0-0.6,0-0.6h0c0,0-0.8,2-3.2,2
				c-1.7,0-3.4-1.1-3.4-3.1C92.2,177.3,96.6,177.1,98.3,177.1z M96.1,182.1c1.6,0,2.7-1.7,2.7-3.2v-0.3h-0.5c-1.5,0-4.1,0.1-4.1,1.9
				C94.2,181.3,94.8,182.1,96.1,182.1z"/>
			<path fill="#FFFFFF" d="M104,175.4c0-0.3-0.2-0.4-0.4-0.4h-0.8v-1.7h1.9c0.9,0,1.3,0.4,1.3,1.1v0.4c0,0.3,0,0.6,0,0.6h0
				c0.4-0.9,1.6-2.3,3.8-2.3c2.4,0,3.5,1.3,3.5,3.9v4.4c0,0.3,0.2,0.4,0.4,0.4h0.8v1.7h-1.9c-0.9,0-1.3-0.4-1.3-1.3v-4.8
				c0-1.4-0.3-2.5-1.9-2.5c-1.6,0-2.8,1-3.2,2.5c-0.1,0.4-0.2,0.9-0.2,1.4v4.7H104V175.4z"/>
			<path fill="#FFFFFF" d="M116.6,174.9h-1.3v-1.6h1.4v-2.8h1.9v2.8h2.4v1.6h-2.4v4.6c0,2,1.4,2.3,2.1,2.3c0.3,0,0.5,0,0.5,0v1.7
				c0,0-0.3,0-0.7,0c-1.3,0-3.9-0.4-3.9-3.8V174.9z"/>
			<path fill="#FFFFFF" d="M123.7,175.4c0-0.3-0.2-0.4-0.4-0.4h-0.8v-1.7h1.9c0.9,0,1.3,0.4,1.3,1.3v6.7c0,0.3,0.2,0.4,0.4,0.4h0.8
				v1.7H125c-0.9,0-1.3-0.4-1.3-1.3V175.4z M123.7,169.3h1.7v2h-1.7V169.3z"/>
			<path fill="#FFFFFF" d="M129.2,174.9h-1.3v-1.6h1.4v-2.8h1.9v2.8h2.4v1.6h-2.4v4.6c0,2,1.4,2.3,2.1,2.3c0.3,0,0.5,0,0.5,0v1.7
				c0,0-0.3,0-0.7,0c-1.3,0-3.9-0.4-3.9-3.8V174.9z"/>
			<path fill="#FFFFFF" d="M136.6,186c0.8,0,1.4-0.6,1.8-1.5l0.5-1.1l-3.5-8c-0.1-0.3-0.3-0.4-0.6-0.4h-0.2v-1.7h1.1
				c0.8,0,1.1,0.2,1.4,1l2.3,5.7c0.2,0.5,0.4,1.2,0.4,1.2h0c0,0,0.1-0.7,0.3-1.2l2.1-5.7c0.3-0.8,0.7-1,1.5-1h1.2v1.7h-0.3
				c-0.3,0-0.5,0.1-0.6,0.4l-4,9.9c-0.6,1.6-1.8,2.4-3.3,2.4c-1.5,0-2.4-1-2.4-1l0.8-1.4C135.1,185.2,135.8,186,136.6,186z"/>
			<path fill="#FFFFFF" d="M151.9,176.9h5.8v1.7h-5.8V176.9z"/>
			<path fill="#FFFFFF" d="M165.8,181.7h3.1v-9.1c0-0.4,0-0.9,0-0.9h0c0,0-0.2,0.3-0.7,0.8l-1.3,1.3l-1.2-1.2l3.4-3.3h1.8v12.4h3.1
				v1.7h-8.2V181.7z"/>
		</g>
	</g>
	<g>
		<g>
			<path fill="none" stroke="#006838" stroke-width="6" stroke-miterlimit="10" d="M144.7,116.6v-9.7c0-12,9.7-21.6,21.6-21.6h84.9"
				/>
			<g>
				<polygon fill="#006838" points="159.7,112.3 144.7,138.2 129.8,112.3 				"/>
			</g>
		</g>
	</g>
	<g>
		<path fill="#FFFFFF" d="M37.6,109.1c2.3,0,6.4,1,6.4,3.7v1.7h-2.2v-1c0-1.4-2.4-2.1-4.1-2.1c-3.4,0-6,2.6-6,6.4
			c0,3.7,2.7,6.6,6.1,6.6c3.4,0,5.4-2.3,5.4-2.3l1.3,1.7c0,0-2.4,2.8-6.7,2.8c-5.1,0-8.6-3.9-8.6-8.9
			C29.1,112.8,32.7,109.1,37.6,109.1z"/>
		<path fill="#FFFFFF" d="M47.1,111.9c0-0.4-0.2-0.5-0.5-0.5h-1v-2h2.3c1.1,0,1.5,0.5,1.5,1.5v12.9c0,0.4,0.2,0.5,0.5,0.5h1v2h-2.3
			c-1.1,0-1.5-0.5-1.5-1.5V111.9z"/>
		<path fill="#FFFFFF" d="M53.7,116.7c0-0.4-0.2-0.5-0.5-0.5h-1v-2h2.3c1.1,0,1.5,0.5,1.5,1.5v8.1c0,0.4,0.2,0.5,0.5,0.5h1v2h-2.3
			c-1.1,0-1.5-0.5-1.5-1.5V116.7z M53.7,109.4h2.1v2.4h-2.1V109.4z"/>
		<path fill="#FFFFFF" d="M65.1,113.9c3.4,0,5.2,2.5,5.2,5.7c0,0.3-0.1,1-0.1,1h-8.9c0.1,2.6,2,4.1,4.2,4.1c2.1,0,3.6-1.4,3.6-1.4
			l1,1.7c0,0-1.8,1.8-4.7,1.8c-3.8,0-6.5-2.8-6.5-6.4C59,116.4,61.6,113.9,65.1,113.9z M67.9,118.8c-0.1-2-1.3-3.1-2.9-3.1
			c-1.8,0-3.2,1.1-3.6,3.1H67.9z"/>
		<path fill="#FFFFFF" d="M73.4,116.7c0-0.4-0.2-0.5-0.5-0.5h-1v-2h2.2c1,0,1.5,0.5,1.5,1.3v0.5c0,0.4,0,0.7,0,0.7h0
			c0.5-1.1,1.9-2.8,4.6-2.8c2.9,0,4.2,1.6,4.2,4.7v5.3c0,0.4,0.2,0.5,0.5,0.5h1v2h-2.3c-1.1,0-1.5-0.5-1.5-1.5v-5.7
			c0-1.7-0.3-3-2.3-3c-1.9,0-3.4,1.2-3.8,3c-0.2,0.5-0.2,1-0.2,1.6v5.7h-2.3V116.7z"/>
		<path fill="#FFFFFF" d="M88.5,116h-1.6v-1.9h1.6v-3.3h2.3v3.3h2.9v1.9h-2.9v5.6c0,2.4,1.7,2.7,2.6,2.7c0.3,0,0.6,0,0.6,0v2.1
			c0,0-0.3,0-0.8,0c-1.5,0-4.6-0.5-4.6-4.5V116z"/>
		<path fill="#FFFFFF" d="M102.8,124.2h3.7v-10.9c0-0.5,0-1.1,0-1.1h0c0,0-0.2,0.4-0.8,1l-1.6,1.6l-1.4-1.5l4.1-3.9h2.2v14.9h3.7
			v2.1h-9.8V124.2z"/>
	</g>
	<g>
		<g>
			<path fill="none" stroke="#006838" stroke-width="6" stroke-miterlimit="10" d="M139.7,215.9v31.2c0,12,9.7,21.6,21.6,21.6h63.4"
				/>
			<g>
				<polygon fill="#006838" points="220.3,283.7 246.3,268.7 220.3,253.8 				"/>
			</g>
		</g>
	</g>
	<path fill="#2BB673" d="M441.8,242.3h165.9c8.1,0,14.7-6.6,14.7-14.7V114c0-8.1-6.6-14.7-14.7-14.7H441.8
		c-8.1,0-14.7,6.6-14.7,14.7v113.7C427.1,235.7,433.7,242.3,441.8,242.3z"/>
	<g>
		<path fill="#1C75BC" d="M461.3,203.3h119c4.4,0,8-3.6,8-8v-36c0-4.4-3.6-8-8-8h-119c-4.4,0-8,3.6-8,8v36
			C453.3,199.7,456.8,203.3,461.3,203.3z"/>
		<g>
			<path fill="#FFFFFF" d="M472.2,173.1c2.4,0,3.3,1.7,3.3,1.7h0c0,0,0-0.2,0-0.5c0-0.6,0.4-1,1.2-1h1.8v1.7h-0.8
				c-0.3,0-0.4,0.1-0.4,0.4v12h-1.9v-4.6c0-0.5,0-0.9,0-0.9h0c0,0-0.9,1.7-3.3,1.7c-2.7,0-4.4-2.2-4.4-5.3
				C467.7,175.1,469.6,173.1,472.2,173.1z M475.4,178.3c0-1.8-0.9-3.6-2.9-3.6c-1.6,0-2.9,1.3-2.9,3.6c0,2.2,1.2,3.6,2.9,3.6
				C474,182,475.4,180.9,475.4,178.3z"/>
			<path fill="#FFFFFF" d="M480.7,175.4c0-0.3-0.2-0.4-0.4-0.4h-0.8v-1.7h1.9c0.9,0,1.3,0.4,1.3,1.2v4.8c0,1.4,0.3,2.5,1.9,2.5
				c2.1,0,3.3-1.8,3.3-3.8v-4.7h1.9v8c0,0.3,0.2,0.4,0.4,0.4h0.8v1.7h-1.9c-0.9,0-1.3-0.4-1.3-1.1v-0.4c0-0.3,0-0.6,0-0.6h0
				c-0.4,1-1.7,2.3-3.7,2.3c-2.3,0-3.4-1.2-3.4-3.9V175.4z"/>
			<path fill="#FFFFFF" d="M498.3,177.1h0.4V177c0-1.8-0.7-2.4-2.2-2.4c-0.5,0-1.7,0.1-1.7,0.8v0.6H493v-1c0-1.7,2.5-1.9,3.5-1.9
				c3.3,0,4.2,1.7,4.2,4v4.3c0,0.3,0.2,0.4,0.4,0.4h0.8v1.7h-1.8c-0.9,0-1.3-0.4-1.3-1.2c0-0.3,0-0.6,0-0.6h0c0,0-0.8,2-3.2,2
				c-1.7,0-3.4-1.1-3.4-3.1C492.2,177.3,496.6,177.1,498.3,177.1z M496,182.1c1.6,0,2.7-1.7,2.7-3.2v-0.3h-0.5
				c-1.5,0-4.1,0.1-4.1,1.9C494.1,181.3,494.7,182.1,496,182.1z"/>
			<path fill="#FFFFFF" d="M504,175.4c0-0.3-0.2-0.4-0.4-0.4h-0.8v-1.7h1.9c0.9,0,1.3,0.4,1.3,1.1v0.4c0,0.3,0,0.6,0,0.6h0
				c0.4-0.9,1.6-2.3,3.8-2.3c2.4,0,3.5,1.3,3.5,3.9v4.4c0,0.3,0.2,0.4,0.4,0.4h0.8v1.7h-1.9c-0.9,0-1.3-0.4-1.3-1.3v-4.8
				c0-1.4-0.3-2.5-1.9-2.5c-1.6,0-2.8,1-3.2,2.5c-0.1,0.4-0.2,0.9-0.2,1.4v4.7H504V175.4z"/>
			<path fill="#FFFFFF" d="M516.6,174.9h-1.3v-1.6h1.4v-2.8h1.9v2.8h2.4v1.6h-2.4v4.6c0,2,1.4,2.3,2.1,2.3c0.3,0,0.5,0,0.5,0v1.7
				c0,0-0.3,0-0.7,0c-1.3,0-3.9-0.4-3.9-3.8V174.9z"/>
			<path fill="#FFFFFF" d="M523.7,175.4c0-0.3-0.2-0.4-0.4-0.4h-0.8v-1.7h1.9c0.9,0,1.3,0.4,1.3,1.3v6.7c0,0.3,0.2,0.4,0.4,0.4h0.8
				v1.7h-1.9c-0.9,0-1.3-0.4-1.3-1.3V175.4z M523.7,169.3h1.7v2h-1.7V169.3z"/>
			<path fill="#FFFFFF" d="M529.1,174.9h-1.3v-1.6h1.4v-2.8h1.9v2.8h2.4v1.6h-2.4v4.6c0,2,1.4,2.3,2.1,2.3c0.3,0,0.5,0,0.5,0v1.7
				c0,0-0.3,0-0.7,0c-1.3,0-3.9-0.4-3.9-3.8V174.9z"/>
			<path fill="#FFFFFF" d="M536.6,186c0.8,0,1.4-0.6,1.8-1.5l0.5-1.1l-3.5-8c-0.1-0.3-0.3-0.4-0.6-0.4h-0.2v-1.7h1.1
				c0.8,0,1.1,0.2,1.4,1l2.3,5.7c0.2,0.5,0.4,1.2,0.4,1.2h0c0,0,0.1-0.7,0.3-1.2l2.1-5.7c0.3-0.8,0.7-1,1.5-1h1.2v1.7h-0.3
				c-0.3,0-0.5,0.1-0.6,0.4l-4,9.9c-0.6,1.6-1.8,2.4-3.3,2.4c-1.5,0-2.4-1-2.4-1l0.8-1.4C535.1,185.2,535.7,186,536.6,186z"/>
			<path fill="#FFFFFF" d="M551.9,176.9h5.8v1.7h-5.8V176.9z"/>
			<path fill="#FFFFFF" d="M565.8,181.7h3.1v-9.1c0-0.4,0-0.9,0-0.9h0c0,0-0.2,0.3-0.7,0.8l-1.3,1.3l-1.2-1.2l3.4-3.3h1.8v12.4h3.1
				v1.7h-8.2V181.7z"/>
		</g>
	</g>
	<g>
		<g>
			<path fill="none" stroke="#006838" stroke-width="6" stroke-miterlimit="10" d="M495.8,116.6v-9.7c0-12-9.7-21.6-21.6-21.6h-84.9
				"/>
			<g>
				<polygon fill="#006838" points="510.7,112.3 495.8,138.2 480.8,112.3 				"/>
			</g>
		</g>
	</g>
	<g>
		<g>
			<path fill="none" stroke="#006838" stroke-width="6" stroke-miterlimit="10" d="M500.8,215.9v83.6c0,12-9.7,21.6-21.6,21.6h-63.4
				"/>
			<g>
				<polygon fill="#006838" points="420.2,306.2 394.3,321.1 420.2,336.1 				"/>
			</g>
		</g>
	</g>
	<g>
		<path fill="#006838" d="M152.3,290.4H151v-1.7h6.2c2.6,0,4.4,1.7,4.4,4.4s-1.8,4.5-4.4,4.5h-2.9v5.2h-2V290.4z M156.9,295.9
			c1.7,0,2.7-1.1,2.7-2.8s-1-2.7-2.7-2.7h-2.6v5.5H156.9z"/>
		<path fill="#006838" d="M170,288.4c4.1,0,7.3,3.1,7.3,7.2c0,4.2-3.2,7.4-7.3,7.4c-4.1,0-7.2-3.2-7.2-7.4
			C162.8,291.6,165.9,288.4,170,288.4z M170,301.2c2.9,0,5.2-2.4,5.2-5.5c0-3-2.3-5.3-5.2-5.3c-2.9,0-5.2,2.3-5.2,5.3
			C164.9,298.8,167.2,301.2,170,301.2z"/>
		<path fill="#006838" d="M179.8,299.5c0,0,1.4,1.7,3.5,1.7c1.3,0,2.4-0.8,2.4-2.1c0-3-6.8-2.5-6.8-6.9c0-2.1,1.9-3.8,4.5-3.8
			c1.5,0,4,0.7,4,2.6v1.2h-1.8v-0.7c0-0.7-1.1-1.3-2.2-1.3c-1.5,0-2.5,0.8-2.5,1.9c0,2.9,6.8,2.2,6.8,6.9c0,2.2-1.7,4-4.5,4
			c-3,0-4.7-2.1-4.7-2.1L179.8,299.5z"/>
		<path fill="#006838" d="M194,290.4h-2.8c-0.3,0-0.4,0.1-0.4,0.4v0.9h-1.8v-1.9c0-0.9,0.3-1.2,1.2-1.2h9.7c0.9,0,1.2,0.3,1.2,1.2
			v1.9h-1.8v-0.9c0-0.3-0.2-0.4-0.4-0.4H196v12.4h-2V290.4z"/>
		<path fill="#006838" d="M158.2,316.5c0-1.3-1-2.2-2.5-2.2c-1.3,0-2.2,0.6-2.2,1.3v0.6h-1.8V315c0-1.8,2.5-2.6,4.1-2.6
			c2.6,0,4.4,1.6,4.4,4.1c0,4.9-7.2,4.9-7.2,8.2c0,0.3,0.2,0.4,0.5,0.4h5c0.3,0,0.4-0.2,0.4-0.4v-0.9h1.8v1.8c0,0.9-0.4,1.3-1.3,1.3
			h-7.2c-1.1,0-1.3-0.5-1.3-1.6C151,320,158.2,320.3,158.2,316.5z"/>
		<path fill="#006838" d="M162.7,319.7c0-4.1,1.2-7.3,5-7.3c3.8,0,5,3.2,5,7.3c0,4.1-1.2,7.3-5,7.3
			C163.9,327,162.7,323.8,162.7,319.7z M170.7,319.7c0-3.1-0.7-5.5-3-5.5c-2.3,0-3,2.4-3,5.5c0,3.1,0.7,5.5,3,5.5
			C170,325.2,170.7,322.8,170.7,319.7z"/>
		<path fill="#006838" d="M174.8,319.7c0-4.1,1.2-7.3,5-7.3c3.8,0,5,3.2,5,7.3c0,4.1-1.2,7.3-5,7.3
			C176.1,327,174.8,323.8,174.8,319.7z M182.8,319.7c0-3.1-0.7-5.5-3-5.5c-2.3,0-3,2.4-3,5.5c0,3.1,0.7,5.5,3,5.5
			C182.1,325.2,182.8,322.8,182.8,319.7z"/>
		<path fill="#006838" d="M199.2,312.4c4.1,0,7.3,3.1,7.3,7.2c0,4.2-3.2,7.4-7.3,7.4s-7.2-3.2-7.2-7.4
			C192,315.6,195.1,312.4,199.2,312.4z M199.2,325.2c2.9,0,5.2-2.4,5.2-5.5c0-3-2.3-5.3-5.2-5.3c-2.9,0-5.2,2.3-5.2,5.3
			C194,322.8,196.3,325.2,199.2,325.2z"/>
		<path fill="#006838" d="M209.2,314.8c0-0.3-0.2-0.4-0.4-0.4h-0.9v-1.7h2c0.9,0,1.3,0.4,1.3,1.3v4.7h1.3c0.5,0,0.9-0.1,1.2-0.5
			l3.1-5.5h2.2l-3.4,5.9c-0.4,0.7-0.8,0.9-0.8,0.9v0c0,0,0.4,0.1,0.8,0.9l2.1,4.2c0.2,0.4,0.5,0.5,1,0.5h0.4v1.7h-1.1
			c-1.1,0-1.5-0.1-2-1.1l-2.4-4.9c-0.2-0.5-0.7-0.5-1.3-0.5h-1.2v6.5h-2V314.8z"/>
	</g>
	<g>
		<path fill="#FFFFFF" d="M534,109.1c2.3,0,6.4,1,6.4,3.7v1.7h-2.2v-1c0-1.4-2.4-2.1-4.1-2.1c-3.4,0-6,2.6-6,6.4
			c0,3.7,2.7,6.6,6.1,6.6c3.4,0,5.4-2.3,5.4-2.3l1.3,1.7c0,0-2.4,2.8-6.7,2.8c-5.1,0-8.6-3.9-8.6-8.9
			C525.5,112.8,529.2,109.1,534,109.1z"/>
		<path fill="#FFFFFF" d="M543.5,111.9c0-0.4-0.2-0.5-0.5-0.5h-1v-2h2.3c1.1,0,1.5,0.5,1.5,1.5v12.9c0,0.4,0.2,0.5,0.5,0.5h1v2h-2.3
			c-1.1,0-1.5-0.5-1.5-1.5V111.9z"/>
		<path fill="#FFFFFF" d="M550.1,116.7c0-0.4-0.2-0.5-0.5-0.5h-1v-2h2.3c1.1,0,1.5,0.5,1.5,1.5v8.1c0,0.4,0.2,0.5,0.5,0.5h1v2h-2.3
			c-1.1,0-1.5-0.5-1.5-1.5V116.7z M550.2,109.4h2.1v2.4h-2.1V109.4z"/>
		<path fill="#FFFFFF" d="M561.5,113.9c3.4,0,5.2,2.5,5.2,5.7c0,0.3-0.1,1-0.1,1h-8.9c0.1,2.6,2,4.1,4.2,4.1c2.1,0,3.6-1.4,3.6-1.4
			l1,1.7c0,0-1.8,1.8-4.7,1.8c-3.8,0-6.5-2.8-6.5-6.4C555.4,116.4,558.1,113.9,561.5,113.9z M564.4,118.8c-0.1-2-1.3-3.1-2.9-3.1
			c-1.8,0-3.2,1.1-3.6,3.1H564.4z"/>
		<path fill="#FFFFFF" d="M569.9,116.7c0-0.4-0.2-0.5-0.5-0.5h-1v-2h2.2c1,0,1.5,0.5,1.5,1.3v0.5c0,0.4,0,0.7,0,0.7h0
			c0.5-1.1,1.9-2.8,4.6-2.8c2.9,0,4.2,1.6,4.2,4.7v5.3c0,0.4,0.2,0.5,0.5,0.5h1v2h-2.3c-1.1,0-1.5-0.5-1.5-1.5v-5.7
			c0-1.7-0.3-3-2.3-3c-1.9,0-3.4,1.2-3.8,3c-0.2,0.5-0.2,1-0.2,1.6v5.7h-2.3V116.7z"/>
		<path fill="#FFFFFF" d="M585,116h-1.6v-1.9h1.6v-3.3h2.3v3.3h2.9v1.9h-2.9v5.6c0,2.4,1.7,2.7,2.6,2.7c0.3,0,0.6,0,0.6,0v2.1
			c0,0-0.3,0-0.8,0c-1.5,0-4.6-0.5-4.6-4.5V116z"/>
		<path fill="#FFFFFF" d="M607.3,114c0-1.6-1.2-2.7-3-2.7c-1.5,0-2.6,0.8-2.6,1.6v0.7h-2.2v-1.4c0-2.2,3-3.1,4.9-3.1
			c3.1,0,5.3,2,5.3,4.9c0,5.8-8.6,5.9-8.6,9.8c0,0.3,0.2,0.5,0.6,0.5h6c0.3,0,0.5-0.2,0.5-0.5v-1.1h2.2v2.1c0,1.1-0.5,1.5-1.5,1.5
			h-8.7c-1.3,0-1.6-0.6-1.6-1.9C598.7,118.1,607.3,118.5,607.3,114z"/>
	</g>
	<g>
		<path fill="#006838" d="M449.6,342.4h-1.3v-1.7h6.2c2.6,0,4.4,1.7,4.4,4.4s-1.8,4.5-4.4,4.5h-2.9v5.2h-2V342.4z M454.2,347.9
			c1.7,0,2.7-1.1,2.7-2.8s-1-2.7-2.7-2.7h-2.6v5.5H454.2z"/>
		<path fill="#006838" d="M467.3,340.4c4.1,0,7.3,3.1,7.3,7.2c0,4.2-3.2,7.4-7.3,7.4c-4.1,0-7.2-3.2-7.2-7.4
			C460,343.6,463.2,340.4,467.3,340.4z M467.3,353.2c2.9,0,5.2-2.4,5.2-5.5c0-3-2.3-5.3-5.2-5.3c-2.9,0-5.2,2.3-5.2,5.3
			C462.1,350.8,464.4,353.2,467.3,353.2z"/>
		<path fill="#006838" d="M477.1,351.5c0,0,1.4,1.7,3.5,1.7c1.3,0,2.4-0.8,2.4-2.1c0-3-6.8-2.5-6.8-6.9c0-2.1,1.9-3.8,4.5-3.8
			c1.5,0,4,0.7,4,2.6v1.2h-1.8v-0.7c0-0.7-1.1-1.3-2.2-1.3c-1.5,0-2.5,0.8-2.5,1.9c0,2.9,6.8,2.2,6.8,6.9c0,2.2-1.7,4-4.5,4
			c-3,0-4.7-2.1-4.7-2.1L477.1,351.5z"/>
		<path fill="#006838" d="M491.2,342.4h-2.8c-0.3,0-0.4,0.1-0.4,0.4v0.9h-1.8v-1.9c0-0.9,0.3-1.2,1.2-1.2h9.7c0.9,0,1.2,0.3,1.2,1.2
			v1.9h-1.8v-0.9c0-0.3-0.2-0.4-0.4-0.4h-2.8v12.4h-2V342.4z"/>
		<path fill="#E78A24" d="M447.9,373.8l6.4-9.1h2.3v8.7h2.2v1.7h-2.2v3.7h-2v-3.7h-6.6V373.8z M454.5,368.5c0-0.6,0.1-1.4,0.1-1.4h0
			c0,0-0.4,0.7-0.7,1.2l-3.1,4.2c-0.4,0.5-0.7,0.9-0.7,0.9v0c0,0,0.6-0.1,1.2-0.1h3.3V368.5z"/>
		<path fill="#E78A24" d="M460.1,371.7c0-4.1,1.2-7.3,5-7.3c3.8,0,5,3.2,5,7.3c0,4.1-1.2,7.3-5,7.3
			C461.3,379,460.1,375.8,460.1,371.7z M468.1,371.7c0-3.1-0.7-5.5-3-5.5c-2.3,0-3,2.4-3,5.5c0,3.1,0.7,5.5,3,5.5
			C467.4,377.2,468.1,374.8,468.1,371.7z"/>
		<path fill="#E78A24" d="M473.3,376.7c0,0,0.9,0.5,2,0.5c2.6,0,3.9-2.4,4.2-4.9h0c-0.6,0.9-1.9,1.4-3.1,1.4c-2.7,0-4.5-2-4.5-4.6
			c0-2.8,1.9-4.7,4.5-4.7c3,0,5.3,2.6,5.3,6.5c0,3.7-2,8.1-6.4,8.1c-1.7,0-2.7-0.6-2.7-0.6L473.3,376.7z M479.6,370.1
			c0-1.8-1.4-3.8-3.2-3.8c-1.6,0-2.6,1.3-2.6,2.9c0,1.7,1.1,2.9,2.9,2.9C478.4,372.1,479.6,371.1,479.6,370.1z"/>
		<path fill="#E78A24" d="M495.6,364.4c1.9,0,5.3,0.8,5.3,3.1v1.4h-1.8v-0.8c0-1.2-2-1.8-3.4-1.8c-2.8,0-5,2.1-5,5.3
			c0,3.1,2.2,5.5,5.1,5.5c2.8,0,4.5-1.9,4.5-1.9l1.1,1.4c0,0-2,2.4-5.6,2.4c-4.2,0-7.2-3.3-7.2-7.4
			C488.6,367.5,491.6,364.4,495.6,364.4z"/>
		<path fill="#E78A24" d="M508.1,368.4c3,0,5.5,2.2,5.5,5.3c0,3.1-2.4,5.3-5.5,5.3c-3,0-5.4-2.2-5.4-5.3
			C502.6,370.7,505,368.4,508.1,368.4z M508.1,377.4c1.9,0,3.5-1.5,3.5-3.6c0-2.1-1.6-3.6-3.5-3.6c-1.9,0-3.5,1.5-3.5,3.6
			C504.6,375.8,506.2,377.4,508.1,377.4z"/>
		<path fill="#E78A24" d="M515.9,370.8c0-0.3-0.2-0.4-0.4-0.4h-0.8v-1.7h1.9c0.9,0,1.3,0.4,1.3,1.1v0.4c0,0.3,0,0.6,0,0.6h0
			c0.4-0.9,1.6-2.3,3.8-2.3c2.4,0,3.5,1.3,3.5,3.9v4.4c0,0.3,0.2,0.4,0.4,0.4h0.8v1.7h-1.9c-0.9,0-1.3-0.4-1.3-1.3v-4.8
			c0-1.4-0.3-2.5-1.9-2.5c-1.6,0-2.8,1-3.2,2.5c-0.1,0.4-0.2,0.9-0.2,1.4v4.7h-1.9V370.8z"/>
		<path fill="#E78A24" d="M535.4,364.7c0.9,0,1.3,0.4,1.3,1.3v10.7c0,0.3,0.2,0.4,0.4,0.4h0.8v1.7H536c-0.9,0-1.3-0.4-1.3-1.3v-10.7
			c0-0.3-0.2-0.4-0.4-0.4h-1.8c-0.8,0-2.1,0.2-2.1,2v0.3h2.4v1.6h-2.4v8.6h-1.9v-8.6h-1.3v-1.6h1.3v-0.3c0-3.3,2.5-3.7,3.8-3.7
			H535.4z"/>
		<path fill="#E78A24" d="M540.2,370.8c0-0.3-0.2-0.4-0.4-0.4H539v-1.7h1.9c0.9,0,1.3,0.4,1.3,1.3v6.7c0,0.3,0.2,0.4,0.4,0.4h0.8
			v1.7h-1.9c-0.9,0-1.3-0.4-1.3-1.3V370.8z M540.3,364.7h1.7v2h-1.7V364.7z"/>
		<path fill="#E78A24" d="M550.1,368.4c1.2,0,3.6,0.5,3.6,2.2v1H552v-0.6c0-0.7-1.1-1-1.9-1c-2,0-3.5,1.5-3.5,3.6
			c0,2.3,1.7,3.6,3.6,3.6c1.9,0,3.1-1.4,3.1-1.4l0.8,1.4c0,0-1.4,1.7-4.1,1.7c-3.2,0-5.4-2.3-5.4-5.3
			C544.6,370.8,546.8,368.4,550.1,368.4z"/>
		<path fill="#E78A24" d="M556.4,370.2H555v-1.6h1.4v-2.8h1.9v2.8h2.4v1.6h-2.4v4.6c0,2,1.4,2.3,2.1,2.3c0.3,0,0.5,0,0.5,0v1.7
			c0,0-0.3,0-0.7,0c-1.3,0-3.9-0.4-3.9-3.8V370.2z"/>
	</g>
	<g>
		<path fill="#006838" d="M200.9,20.2c3.4,0,5,1.7,5,1.7l-1.1,1.5c0,0-1.5-1.4-3.9-1.4c-2.8,0-5.1,2.3-5.1,5.4
			c0,3.3,2.3,5.5,5.1,5.5c2.5,0,4-1.8,4-1.8v-1.4c0-0.3-0.2-0.4-0.4-0.4h-0.9v-1.7h1.9c0.9,0,1.3,0.4,1.3,1.3v5.7h-1.8v-0.9
			c0-0.3,0-0.6,0-0.6h0c0,0-1.6,1.7-4.4,1.7c-3.8,0-6.9-3-6.9-7.4C193.8,23.4,196.9,20.2,200.9,20.2z"/>
		<path fill="#006838" d="M209.8,22.1h-1.3v-1.7h8.3c0.9,0,1.3,0.4,1.3,1.3v1.8h-1.8v-0.9c0-0.3-0.2-0.4-0.4-0.4h-4v4.4h4.9v1.7
			h-4.9v4.1c0,0.3,0.2,0.4,0.4,0.4h4.1c0.3,0,0.4-0.2,0.4-0.4v-0.9h1.8v1.8c0,0.9-0.4,1.3-1.3,1.3H211c-0.9,0-1.3-0.4-1.3-1.3V22.1z
			"/>
		<path fill="#006838" d="M224.3,22.1h-2.8c-0.3,0-0.4,0.1-0.4,0.4v0.9h-1.8v-1.9c0-0.9,0.3-1.2,1.2-1.2h9.7c0.9,0,1.2,0.3,1.2,1.2
			v1.9h-1.8v-0.9c0-0.3-0.2-0.4-0.4-0.4h-2.8v12.4h-2V22.1z"/>
		<path fill="#006838" d="M241.7,19.7h1.7l-5.1,15.7h-1.7L241.7,19.7z"/>
		<path fill="#006838" d="M245.1,31.7c0,0,1.2,1.5,3.1,1.5c0.9,0,1.8-0.4,1.8-1.3c0-1.8-5.5-1.6-5.5-4.9c0-1.9,1.7-2.8,3.8-2.8
			c1.2,0,3.3,0.4,3.3,2v1h-1.7v-0.5c0-0.6-0.9-0.9-1.5-0.9c-1.1,0-1.9,0.4-1.9,1.2c0,1.9,5.5,1.5,5.5,4.9c0,1.8-1.6,3-3.7,3
			c-2.7,0-4-1.8-4-1.8L245.1,31.7z"/>
		<path fill="#006838" d="M254.4,26h-1.3v-1.6h1.4v-2.8h1.9v2.8h2.4V26h-2.4v4.6c0,2,1.4,2.3,2.1,2.3c0.3,0,0.5,0,0.5,0v1.7
			c0,0-0.3,0-0.7,0c-1.3,0-3.9-0.4-3.9-3.8V26z"/>
		<path fill="#006838" d="M265.6,24.2c3,0,5.5,2.2,5.5,5.3c0,3.1-2.4,5.3-5.5,5.3c-3,0-5.4-2.2-5.4-5.3
			C260.2,26.4,262.6,24.2,265.6,24.2z M265.6,33.1c1.9,0,3.5-1.5,3.5-3.6c0-2.1-1.6-3.6-3.5-3.6c-1.9,0-3.5,1.5-3.5,3.6
			C262.2,31.6,263.7,33.1,265.6,33.1z"/>
		<path fill="#006838" d="M278,24.2c1.2,0,3.6,0.5,3.6,2.2v1h-1.8v-0.6c0-0.7-1.1-1-1.9-1c-2,0-3.5,1.5-3.5,3.6
			c0,2.3,1.7,3.6,3.6,3.6c1.9,0,3.1-1.4,3.1-1.4l0.8,1.4c0,0-1.4,1.7-4.1,1.7c-3.2,0-5.4-2.3-5.4-5.3
			C272.5,26.5,274.7,24.2,278,24.2z"/>
		<path fill="#006838" d="M284,22.5c0-0.3-0.2-0.4-0.4-0.4h-0.8v-1.7h1.9c0.9,0,1.3,0.3,1.3,1.2v6.6h0.9c0.4,0,0.8-0.1,1.1-0.4
			l2.3-3.3h2.2l-2.7,3.8c-0.5,0.6-0.8,0.8-0.8,0.8v0c0,0,0.3,0.1,0.7,0.8l1.5,2.7c0.2,0.3,0.4,0.4,0.9,0.4h0.6v1.7h-1.4
			c-0.9,0-1.2-0.2-1.7-0.9l-1.8-3.4c-0.2-0.4-0.7-0.4-1-0.4H286v4.8H284V22.5z"/>
		<path fill="#006838" d="M298,19.7h1.7l-5.1,15.7h-1.7L298,19.7z"/>
		<path fill="#006838" d="M301.1,32.8h3.1v-9.1c0-0.4,0-0.9,0-0.9h0c0,0-0.2,0.3-0.7,0.8l-1.3,1.3l-1.2-1.2l3.4-3.3h1.8v12.4h3.1
			v1.7h-8.2V32.8z"/>
		<path fill="#006838" d="M317.9,24.3c0-1.3-1-2.2-2.5-2.2c-1.3,0-2.2,0.6-2.2,1.3V24h-1.8v-1.2c0-1.8,2.5-2.6,4.1-2.6
			c2.6,0,4.4,1.6,4.4,4.1c0,4.9-7.2,4.9-7.2,8.2c0,0.3,0.2,0.4,0.5,0.4h5c0.3,0,0.4-0.2,0.4-0.4v-0.9h1.8v1.8c0,0.9-0.4,1.3-1.3,1.3
			H312c-1.1,0-1.3-0.5-1.3-1.6C310.7,27.7,317.9,28.1,317.9,24.3z"/>
		<path fill="#006838" d="M323,31.3c0,0,1.4,1.6,3.6,1.6c1.5,0,2.8-1.1,2.8-2.6c0-1.6-1.4-2.5-3-2.5h-1l-0.4-1.1l2.9-3.7
			c0.4-0.6,0.8-0.9,0.8-0.9v0c0,0-0.4,0.1-1.2,0.1h-2.7c-0.3,0-0.4,0.1-0.4,0.4v0.9h-1.8v-1.8c0-0.9,0.3-1.3,1.2-1.3h7.4v1.3
			l-3.7,4.5c1.8,0.2,4,1.4,4,4.1c0,2.4-1.9,4.5-4.8,4.5c-2.9,0-4.7-2-4.7-2L323,31.3z"/>
		<path fill="#006838" d="M195.4,55.1c0-2-1.7-2.2-1.7-2.2v-1.7c0,0,1.7-0.1,1.7-2.2v-1.7c0-3.2,2.3-3.5,3.2-3.5c0.3,0,0.5,0,0.5,0
			v1.5c0,0-0.1,0-0.3,0c-0.5,0-1.7,0.2-1.7,2.1v2.1c0,2-1.6,2.5-1.6,2.5v0c0,0,1.6,0.5,1.6,2.5v2.3c0,1.9,1.2,2.1,1.7,2.1
			c0.2,0,0.3,0,0.3,0v1.5c0,0-0.2,0-0.5,0c-1,0-3.2-0.3-3.2-3.5V55.1z"/>
		<path fill="#006838" d="M201.7,44.2h1.8l-1.3,3.9h-1.4L201.7,44.2z M204.4,44.2h1.8l-1.3,3.9h-1.4L204.4,44.2z"/>
		<path fill="#006838" d="M208.4,50.5c-0.1-0.3-0.3-0.4-0.6-0.4h-0.2v-1.7h1c0.9,0,1.2,0.2,1.5,1l2.2,5.8c0.2,0.6,0.4,1.3,0.4,1.3h0
			c0,0,0.2-0.8,0.4-1.3l2.2-5.8c0.3-0.8,0.7-1,1.5-1h0.9v1.7h-0.2c-0.3,0-0.5,0.1-0.7,0.4l-3.1,8.1h-2.2L208.4,50.5z"/>
		<path fill="#006838" d="M223.6,48.2c2.8,0,4.4,2.1,4.4,4.7c0,0.3-0.1,0.8-0.1,0.8h-7.4c0.1,2.2,1.7,3.4,3.5,3.4c1.7,0,3-1.2,3-1.2
			l0.8,1.4c0,0-1.5,1.5-3.9,1.5c-3.2,0-5.4-2.3-5.4-5.3C218.5,50.3,220.7,48.2,223.6,48.2z M226,52.3c-0.1-1.7-1.1-2.6-2.4-2.6
			c-1.5,0-2.7,0.9-3,2.6H226z"/>
		<path fill="#006838" d="M230.5,50.5c0-0.3-0.2-0.4-0.4-0.4h-0.8v-1.7h1.8c0.9,0,1.3,0.4,1.3,1.2v0.6c0,0.4,0,0.7,0,0.7h0
			c0.5-1.5,1.6-2.6,3.2-2.6c0.3,0,0.5,0,0.5,0v1.9c0,0-0.3-0.1-0.6-0.1c-1.2,0-2.4,0.9-2.8,2.4c-0.2,0.6-0.2,1.2-0.2,1.8v4.1h-1.9
			V50.5z"/>
		<path fill="#006838" d="M238.1,55.7c0,0,1.2,1.5,3.1,1.5c0.9,0,1.8-0.4,1.8-1.3c0-1.8-5.5-1.6-5.5-4.9c0-1.9,1.7-2.8,3.8-2.8
			c1.2,0,3.3,0.4,3.3,2v1h-1.7v-0.5c0-0.6-0.9-0.9-1.5-0.9c-1.1,0-1.9,0.4-1.9,1.2c0,1.9,5.5,1.5,5.5,4.9c0,1.8-1.6,3-3.7,3
			c-2.7,0-4-1.8-4-1.8L238.1,55.7z"/>
		<path fill="#006838" d="M247.4,50.5c0-0.3-0.2-0.4-0.4-0.4h-0.8v-1.7h1.9c0.9,0,1.3,0.4,1.3,1.3v6.7c0,0.3,0.2,0.4,0.4,0.4h0.8
			v1.7h-1.9c-0.9,0-1.3-0.4-1.3-1.3V50.5z M247.5,44.4h1.7v2h-1.7V44.4z"/>
		<path fill="#006838" d="M257.3,48.2c3,0,5.5,2.2,5.5,5.3c0,3.1-2.4,5.3-5.5,5.3c-3,0-5.4-2.2-5.4-5.3
			C251.9,50.4,254.3,48.2,257.3,48.2z M257.3,57.1c1.9,0,3.5-1.5,3.5-3.6c0-2.1-1.6-3.6-3.5-3.6c-1.9,0-3.5,1.5-3.5,3.6
			C253.8,55.6,255.4,57.1,257.3,57.1z"/>
		<path fill="#006838" d="M265.2,50.5c0-0.3-0.2-0.4-0.4-0.4h-0.8v-1.7h1.9c0.9,0,1.3,0.4,1.3,1.1v0.4c0,0.3,0,0.6,0,0.6h0
			c0.4-0.9,1.6-2.3,3.8-2.3c2.4,0,3.5,1.3,3.5,3.9v4.4c0,0.3,0.2,0.4,0.4,0.4h0.8v1.7h-1.9c-0.9,0-1.3-0.4-1.3-1.3v-4.8
			c0-1.4-0.3-2.5-1.9-2.5c-1.6,0-2.8,1-3.2,2.5c-0.1,0.4-0.2,0.9-0.2,1.4v4.7h-1.9V50.5z"/>
		<path fill="#006838" d="M277.1,44.2h1.8l-1.3,3.9h-1.4L277.1,44.2z M279.8,44.2h1.8l-1.3,3.9H279L279.8,44.2z"/>
		<path fill="#006838" d="M284.6,48.4h2v2.1h-2V48.4z M284.6,56.5h2v2.1h-2V56.5z"/>
		<path fill="#006838" d="M296,55.3c0,0,1.1,1.6,3.3,1.6c1.8,0,3-1.2,3-2.8c0-1.8-1.5-2.9-3.4-2.9c-1.6,0-2.7,0.7-2.7,0.7l-0.8-0.4
			l0.6-5.8c0.1-0.9,0.4-1.3,1.3-1.3h4.9c0.9,0,1.3,0.4,1.3,1.3v1.8h-1.8v-0.9c0-0.3-0.2-0.4-0.4-0.4h-3c-0.3,0-0.4,0.1-0.4,0.4
			l-0.3,2.6c0,0.4-0.1,0.7-0.1,0.7h0c0,0,0.8-0.4,1.8-0.4c3,0,5,2.1,5,4.6c0,2.5-2,4.7-5.1,4.7c-2.9,0-4.4-2-4.4-2L296,55.3z"/>
		<path fill="#006838" d="M308.9,56.4l-1.7,4.1h-1.5l1.2-4.1H308.9z"/>
		<path fill="#006838" d="M316.3,44.2h1.4l-0.9,3.9H315L316.3,44.2z M319,44.2h1.4l-0.9,3.9h-1.8L319,44.2z"/>
		<path fill="#006838" d="M325.3,48.2c2.4,0,3.3,1.7,3.3,1.7h0c0,0,0-0.2,0-0.5c0-0.6,0.4-1,1.2-1h1.8v1.7h-0.8
			c-0.3,0-0.4,0.1-0.4,0.4v12h-1.9V58c0-0.5,0-0.9,0-0.9h0c0,0-0.9,1.7-3.3,1.7c-2.7,0-4.4-2.2-4.4-5.3
			C320.7,50.3,322.6,48.2,325.3,48.2z M328.5,53.5c0-1.8-0.9-3.6-2.9-3.6c-1.6,0-2.9,1.3-2.9,3.6c0,2.2,1.2,3.6,2.9,3.6
			C327,57.1,328.5,56,328.5,53.5z"/>
		<path fill="#006838" d="M333.7,50.5c0-0.3-0.2-0.4-0.4-0.4h-0.8v-1.7h1.9c0.9,0,1.3,0.4,1.3,1.2v4.8c0,1.4,0.3,2.5,1.9,2.5
			c2.1,0,3.3-1.8,3.3-3.8v-4.7h1.9v8c0,0.3,0.2,0.4,0.4,0.4h0.8v1.7h-1.9c-0.9,0-1.3-0.4-1.3-1.1V57c0-0.3,0-0.6,0-0.6h0
			c-0.4,1-1.7,2.3-3.7,2.3c-2.3,0-3.4-1.2-3.4-3.9V50.5z"/>
		<path fill="#006838" d="M351.3,52.2h0.4v-0.1c0-1.8-0.7-2.4-2.2-2.4c-0.5,0-1.7,0.1-1.7,0.8v0.6H346v-1c0-1.7,2.5-1.9,3.5-1.9
			c3.3,0,4.2,1.7,4.2,4v4.3c0,0.3,0.2,0.4,0.4,0.4h0.8v1.7h-1.8c-0.9,0-1.3-0.4-1.3-1.2c0-0.3,0-0.6,0-0.6h0c0,0-0.8,2-3.2,2
			c-1.7,0-3.4-1.1-3.4-3.1C345.2,52.4,349.6,52.2,351.3,52.2z M349,57.2c1.6,0,2.7-1.7,2.7-3.2v-0.3h-0.5c-1.5,0-4.1,0.1-4.1,1.9
			C347.1,56.4,347.8,57.2,349,57.2z"/>
		<path fill="#006838" d="M357,50.5c0-0.3-0.2-0.4-0.4-0.4h-0.8v-1.7h1.9c0.9,0,1.3,0.4,1.3,1.1v0.4c0,0.3,0,0.6,0,0.6h0
			c0.4-0.9,1.6-2.3,3.8-2.3c2.4,0,3.5,1.3,3.5,3.9v4.4c0,0.3,0.2,0.4,0.4,0.4h0.8v1.7h-1.9c-0.9,0-1.3-0.4-1.3-1.3v-4.8
			c0-1.4-0.3-2.5-1.9-2.5c-1.6,0-2.8,1-3.2,2.5c-0.1,0.4-0.2,0.9-0.2,1.4v4.7H357V50.5z"/>
		<path fill="#006838" d="M369.6,50h-1.3v-1.6h1.4v-2.8h1.9v2.8h2.4V50h-2.4v4.6c0,2,1.4,2.3,2.1,2.3c0.3,0,0.5,0,0.5,0v1.7
			c0,0-0.3,0-0.7,0c-1.3,0-3.9-0.4-3.9-3.8V50z"/>
		<path fill="#006838" d="M376.7,50.5c0-0.3-0.2-0.4-0.4-0.4h-0.8v-1.7h1.9c0.9,0,1.3,0.4,1.3,1.3v6.7c0,0.3,0.2,0.4,0.4,0.4h0.8
			v1.7H378c-0.9,0-1.3-0.4-1.3-1.3V50.5z M376.7,44.4h1.7v2h-1.7V44.4z"/>
		<path fill="#006838" d="M382.2,50h-1.3v-1.6h1.4v-2.8h1.9v2.8h2.4V50h-2.4v4.6c0,2,1.4,2.3,2.1,2.3c0.3,0,0.5,0,0.5,0v1.7
			c0,0-0.3,0-0.7,0c-1.3,0-3.9-0.4-3.9-3.8V50z"/>
		<path fill="#006838" d="M389.6,61.1c0.8,0,1.4-0.6,1.8-1.5l0.5-1.1l-3.5-8c-0.1-0.3-0.3-0.4-0.6-0.4h-0.2v-1.7h1.1
			c0.8,0,1.1,0.2,1.4,1l2.3,5.7c0.2,0.5,0.4,1.2,0.4,1.2h0c0,0,0.1-0.7,0.3-1.2l2.1-5.7c0.3-0.8,0.7-1,1.5-1h1.2v1.7h-0.3
			c-0.3,0-0.5,0.1-0.6,0.4l-4,9.9c-0.6,1.6-1.8,2.4-3.3,2.4c-1.5,0-2.4-1-2.4-1l0.8-1.4C388.1,60.4,388.7,61.1,389.6,61.1z"/>
		<path fill="#006838" d="M400.5,44.2h1.8l-1.3,3.9h-1.4L400.5,44.2z M403.3,44.2h1.8l-1.3,3.9h-1.4L403.3,44.2z"/>
		<path fill="#006838" d="M408,48.4h2v2.1h-2V48.4z M408,56.5h2v2.1h-2V56.5z"/>
		<path fill="#006838" d="M425.2,48.3c0-1.3-1-2.2-2.5-2.2c-1.3,0-2.2,0.6-2.2,1.3V48h-1.8v-1.2c0-1.8,2.5-2.6,4.1-2.6
			c2.6,0,4.4,1.6,4.4,4.1c0,4.9-7.2,4.9-7.2,8.2c0,0.3,0.2,0.4,0.5,0.4h5c0.3,0,0.4-0.2,0.4-0.4v-0.9h1.8v1.8c0,0.9-0.4,1.3-1.3,1.3
			h-7.2c-1.1,0-1.3-0.5-1.3-1.6C418.1,51.7,425.2,52.1,425.2,48.3z"/>
		<path fill="#006838" d="M429.7,51.5c0-4.1,1.2-7.3,5-7.3c3.8,0,5,3.2,5,7.3c0,4.1-1.2,7.3-5,7.3C431,58.8,429.7,55.5,429.7,51.5z
			 M437.7,51.5c0-3.1-0.7-5.5-3-5.5c-2.3,0-3,2.4-3,5.5c0,3.1,0.7,5.5,3,5.5C437,57,437.7,54.5,437.7,51.5z"/>
		<path fill="#006838" d="M441.9,59c0.5,0,1.7-0.2,1.7-2.1v-2.3c0-2.1,1.6-2.5,1.6-2.5v0c0,0-1.6-0.6-1.6-2.5v-2.1
			c0-1.9-1.2-2.1-1.7-2.1c-0.2,0-0.3,0-0.3,0v-1.5c0,0,0.2,0,0.5,0c1,0,3.2,0.3,3.2,3.5V49c0,2.1,1.7,2.2,1.7,2.2v1.7
			c0,0-1.7,0.1-1.7,2.2V57c0,3.2-2.3,3.5-3.2,3.5c-0.3,0-0.5,0-0.5,0V59C441.6,59,441.7,59,441.9,59z"/>
	</g>
	<g>
		<path fill="#FFFFFF" d="M272.8,83.5c-0.1-0.3-0.3-0.4-0.6-0.4h-0.2v-1.5h0.9c0.8,0,1.1,0.2,1.4,0.9l2,5.2c0.2,0.5,0.3,1.2,0.3,1.2
			h0c0,0,0.1-0.7,0.3-1.2l1.9-5.2c0.3-0.7,0.6-0.9,1.4-0.9h0.8v1.5H281c-0.3,0-0.5,0.1-0.6,0.4l-2.8,7.3h-2L272.8,83.5z"/>
		<path fill="#FFFFFF" d="M286.4,81.5c2.6,0,3.9,1.9,3.9,4.3c0,0.2-0.1,0.7-0.1,0.7h-6.6c0.1,1.9,1.5,3,3.1,3c1.6,0,2.7-1.1,2.7-1.1
			l0.8,1.2c0,0-1.4,1.3-3.5,1.3c-2.9,0-4.8-2.1-4.8-4.8C281.9,83.4,283.8,81.5,286.4,81.5z M288.6,85.2c-0.1-1.5-1-2.3-2.1-2.3
			c-1.3,0-2.4,0.8-2.7,2.3H288.6z"/>
		<path fill="#FFFFFF" d="M292.7,83.6c0-0.3-0.1-0.4-0.4-0.4h-0.7v-1.5h1.7c0.8,0,1.2,0.3,1.2,1.1v0.6c0,0.4,0,0.6,0,0.6h0
			c0.4-1.3,1.5-2.4,2.9-2.4c0.2,0,0.5,0,0.5,0v1.7c0,0-0.2-0.1-0.5-0.1c-1.1,0-2.1,0.8-2.6,2.1c-0.2,0.5-0.2,1.1-0.2,1.6v3.7h-1.7
			V83.6z"/>
		<path fill="#FFFFFF" d="M299.5,88.2c0,0,1.1,1.4,2.8,1.4c0.8,0,1.6-0.4,1.6-1.2c0-1.6-5-1.5-5-4.4c0-1.7,1.5-2.6,3.4-2.6
			c1.1,0,3,0.4,3,1.8v0.9h-1.6v-0.5c0-0.5-0.8-0.8-1.4-0.8c-1,0-1.7,0.4-1.7,1.1c0,1.7,5,1.4,5,4.4c0,1.6-1.4,2.7-3.3,2.7
			c-2.4,0-3.6-1.6-3.6-1.6L299.5,88.2z"/>
		<path fill="#FFFFFF" d="M307.9,83.6c0-0.3-0.1-0.4-0.4-0.4h-0.7v-1.5h1.7c0.8,0,1.2,0.3,1.2,1.2v6.1c0,0.3,0.1,0.4,0.4,0.4h0.7
			v1.5h-1.7c-0.8,0-1.2-0.3-1.2-1.2V83.6z M308,78.1h1.6v1.8H308V78.1z"/>
		<path fill="#FFFFFF" d="M316.8,81.5c2.7,0,4.9,2,4.9,4.8c0,2.8-2.2,4.8-4.9,4.8c-2.7,0-4.9-2-4.9-4.8
			C311.9,83.5,314.1,81.5,316.8,81.5z M316.8,89.5c1.7,0,3.1-1.4,3.1-3.3c0-1.9-1.4-3.2-3.1-3.2c-1.7,0-3.1,1.4-3.1,3.2
			C313.7,88.1,315.1,89.5,316.8,89.5z"/>
		<path fill="#FFFFFF" d="M323.9,83.6c0-0.3-0.1-0.4-0.4-0.4h-0.7v-1.5h1.7c0.8,0,1.2,0.3,1.2,1V83c0,0.3,0,0.5,0,0.5h0
			c0.4-0.8,1.4-2.1,3.4-2.1c2.2,0,3.1,1.2,3.1,3.5v3.9c0,0.3,0.1,0.4,0.4,0.4h0.7v1.5h-1.7c-0.8,0-1.2-0.3-1.2-1.2v-4.3
			c0-1.3-0.3-2.3-1.7-2.3c-1.4,0-2.5,0.9-2.9,2.2c-0.1,0.4-0.2,0.8-0.2,1.2v4.3h-1.7V83.6z"/>
		<path fill="#FFFFFF" d="M335.4,81.7h1.8v1.9h-1.8V81.7z M335.4,89h1.8v1.9h-1.8V89z"/>
		<path fill="#FFFFFF" d="M345.6,87.9c0,0,1,1.4,3,1.4c1.6,0,2.7-1.1,2.7-2.5c0-1.6-1.4-2.6-3-2.6c-1.4,0-2.4,0.6-2.4,0.6l-0.7-0.3
			l0.5-5.3c0.1-0.8,0.3-1.2,1.2-1.2h4.4c0.8,0,1.2,0.3,1.2,1.2v1.6h-1.6V80c0-0.3-0.1-0.4-0.4-0.4h-2.7c-0.3,0-0.4,0.1-0.4,0.4
			l-0.3,2.3c0,0.4-0.1,0.7-0.1,0.7h0c0,0,0.7-0.4,1.6-0.4c2.7,0,4.5,1.9,4.5,4.2c0,2.2-1.8,4.2-4.6,4.2c-2.6,0-3.9-1.8-3.9-1.8
			L345.6,87.9z"/>
		<path fill="#FFFFFF" d="M276.6,103.1c2.2,0,2.9,1.5,2.9,1.5h0c0,0,0-0.2,0-0.5c0-0.5,0.3-0.9,1.1-0.9h1.6v1.5h-0.7
			c-0.3,0-0.4,0.1-0.4,0.4V116h-1.7v-4.1c0-0.5,0-0.8,0-0.8h0c0,0-0.8,1.5-2.9,1.5c-2.4,0-4-1.9-4-4.8
			C272.5,105,274.2,103.1,276.6,103.1z M279.5,107.8c0-1.6-0.8-3.2-2.6-3.2c-1.4,0-2.6,1.2-2.6,3.3c0,2,1.1,3.3,2.6,3.3
			C278.2,111.1,279.5,110.2,279.5,107.8z"/>
		<path fill="#FFFFFF" d="M284.2,105.2c0-0.3-0.1-0.4-0.4-0.4h-0.7v-1.5h1.7c0.8,0,1.2,0.3,1.2,1.1v4.3c0,1.3,0.3,2.3,1.7,2.3
			c1.9,0,3-1.6,3-3.4v-4.3h1.7v7.2c0,0.3,0.1,0.4,0.4,0.4h0.7v1.5h-1.7c-0.8,0-1.2-0.4-1.2-1v-0.3c0-0.3,0-0.5,0-0.5h0
			c-0.4,0.9-1.5,2.1-3.3,2.1c-2.1,0-3.1-1.1-3.1-3.5V105.2z"/>
		<path fill="#FFFFFF" d="M300,106.7h0.4v-0.1c0-1.6-0.6-2.2-2-2.2c-0.4,0-1.5,0.1-1.5,0.7v0.5h-1.6v-0.9c0-1.5,2.3-1.7,3.2-1.7
			c3,0,3.7,1.5,3.7,3.6v3.9c0,0.3,0.1,0.4,0.4,0.4h0.7v1.5h-1.6c-0.8,0-1.1-0.4-1.1-1c0-0.3,0-0.5,0-0.5h0c0,0-0.7,1.8-2.9,1.8
			c-1.6,0-3.1-1-3.1-2.8C294.5,106.9,298.5,106.7,300,106.7z M298,111.2c1.5,0,2.4-1.5,2.4-2.9V108H300c-1.3,0-3.7,0.1-3.7,1.7
			C296.3,110.5,296.9,111.2,298,111.2z"/>
		<path fill="#FFFFFF" d="M305.2,105.2c0-0.3-0.1-0.4-0.4-0.4h-0.7v-1.5h1.7c0.8,0,1.2,0.3,1.2,1v0.3c0,0.3,0,0.5,0,0.5h0
			c0.4-0.8,1.4-2.1,3.4-2.1c2.2,0,3.1,1.2,3.1,3.5v3.9c0,0.3,0.1,0.4,0.4,0.4h0.7v1.5h-1.7c-0.8,0-1.2-0.3-1.2-1.2V107
			c0-1.3-0.3-2.3-1.7-2.3c-1.4,0-2.5,0.9-2.9,2.2c-0.1,0.4-0.2,0.8-0.2,1.2v4.3h-1.7V105.2z"/>
		<path fill="#FFFFFF" d="M316.5,104.7h-1.2v-1.4h1.2v-2.5h1.7v2.5h2.2v1.4h-2.2v4.2c0,1.8,1.3,2.1,1.9,2.1c0.3,0,0.4,0,0.4,0v1.5
			c0,0-0.2,0-0.6,0c-1.2,0-3.5-0.4-3.5-3.4V104.7z"/>
		<path fill="#FFFFFF" d="M322.9,105.2c0-0.3-0.1-0.4-0.4-0.4h-0.7v-1.5h1.7c0.8,0,1.2,0.3,1.2,1.2v6.1c0,0.3,0.1,0.4,0.4,0.4h0.7
			v1.5H324c-0.8,0-1.2-0.3-1.2-1.2V105.2z M322.9,99.7h1.6v1.8h-1.6V99.7z"/>
		<path fill="#FFFFFF" d="M327.8,104.7h-1.2v-1.4h1.2v-2.5h1.7v2.5h2.2v1.4h-2.2v4.2c0,1.8,1.3,2.1,1.9,2.1c0.3,0,0.4,0,0.4,0v1.5
			c0,0-0.2,0-0.6,0c-1.2,0-3.5-0.4-3.5-3.4V104.7z"/>
		<path fill="#FFFFFF" d="M334.5,114.7c0.7,0,1.3-0.5,1.6-1.3l0.4-1l-3.1-7.2c-0.1-0.3-0.3-0.4-0.6-0.4h-0.2v-1.5h1
			c0.7,0,1,0.2,1.3,0.9l2.1,5.1c0.2,0.5,0.3,1.1,0.3,1.1h0c0,0,0.1-0.6,0.3-1.1l1.9-5.1c0.3-0.7,0.6-0.9,1.3-0.9h1v1.5h-0.2
			c-0.3,0-0.5,0.1-0.6,0.4l-3.6,8.9c-0.6,1.4-1.7,2.1-2.9,2.1c-1.4,0-2.1-0.9-2.1-0.9l0.7-1.3C333.2,114,333.7,114.7,334.5,114.7z"
			/>
		<path fill="#FFFFFF" d="M344,103.3h1.8v1.9H344V103.3z M344,110.6h1.8v1.9H344V110.6z"/>
		<path fill="#FFFFFF" d="M359.5,103.2c0-1.2-0.9-2-2.2-2c-1.1,0-2,0.6-2,1.2v0.6h-1.7v-1.1c0-1.7,2.2-2.3,3.7-2.3
			c2.3,0,4,1.5,4,3.7c0,4.4-6.4,4.4-6.4,7.4c0,0.3,0.1,0.3,0.5,0.3h4.5c0.3,0,0.4-0.1,0.4-0.4v-0.8h1.7v1.6c0,0.8-0.3,1.2-1.2,1.2
			h-6.5c-1,0-1.2-0.4-1.2-1.5C353,106.3,359.5,106.6,359.5,103.2z"/>
		<path fill="#FFFFFF" d="M363.5,106c0-3.7,1.1-6.6,4.5-6.6c3.4,0,4.5,2.9,4.5,6.6c0,3.7-1.1,6.6-4.5,6.6
			C364.6,112.6,363.5,109.7,363.5,106z M370.7,106c0-2.8-0.6-4.9-2.7-4.9c-2.1,0-2.7,2.2-2.7,4.9c0,2.8,0.6,5,2.7,5
			C370.1,111,370.7,108.8,370.7,106z"/>
	</g>
	<g>
		<path fill="#FFFFFF" d="M272.8,265.3c-0.1-0.3-0.3-0.4-0.6-0.4h-0.2v-1.5h0.9c0.8,0,1.1,0.2,1.4,0.9l2,5.2
			c0.2,0.5,0.3,1.2,0.3,1.2h0c0,0,0.1-0.7,0.3-1.2l1.9-5.2c0.3-0.7,0.6-0.9,1.4-0.9h0.8v1.5H281c-0.3,0-0.5,0.1-0.6,0.4l-2.8,7.3h-2
			L272.8,265.3z"/>
		<path fill="#FFFFFF" d="M286.4,263.3c2.6,0,3.9,1.9,3.9,4.3c0,0.2-0.1,0.7-0.1,0.7h-6.6c0.1,1.9,1.5,3,3.1,3
			c1.6,0,2.7-1.1,2.7-1.1l0.8,1.2c0,0-1.4,1.3-3.5,1.3c-2.9,0-4.8-2.1-4.8-4.8C281.9,265.1,283.8,263.3,286.4,263.3z M288.6,267
			c-0.1-1.5-1-2.3-2.1-2.3c-1.3,0-2.4,0.8-2.7,2.3H288.6z"/>
		<path fill="#FFFFFF" d="M292.7,265.4c0-0.3-0.1-0.4-0.4-0.4h-0.7v-1.5h1.7c0.8,0,1.2,0.3,1.2,1.1v0.6c0,0.4,0,0.6,0,0.6h0
			c0.4-1.3,1.5-2.4,2.9-2.4c0.2,0,0.5,0,0.5,0v1.7c0,0-0.2-0.1-0.5-0.1c-1.1,0-2.1,0.8-2.6,2.1c-0.2,0.5-0.2,1.1-0.2,1.6v3.7h-1.7
			V265.4z"/>
		<path fill="#FFFFFF" d="M299.5,270c0,0,1.1,1.4,2.8,1.4c0.8,0,1.6-0.4,1.6-1.2c0-1.6-5-1.5-5-4.4c0-1.7,1.5-2.6,3.4-2.6
			c1.1,0,3,0.4,3,1.8v0.9h-1.6v-0.5c0-0.5-0.8-0.8-1.4-0.8c-1,0-1.7,0.4-1.7,1.1c0,1.7,5,1.4,5,4.4c0,1.6-1.4,2.7-3.3,2.7
			c-2.4,0-3.6-1.6-3.6-1.6L299.5,270z"/>
		<path fill="#FFFFFF" d="M307.9,265.4c0-0.3-0.1-0.4-0.4-0.4h-0.7v-1.5h1.7c0.8,0,1.2,0.3,1.2,1.2v6.1c0,0.3,0.1,0.4,0.4,0.4h0.7
			v1.5h-1.7c-0.8,0-1.2-0.3-1.2-1.2V265.4z M308,259.9h1.6v1.8H308V259.9z"/>
		<path fill="#FFFFFF" d="M316.8,263.3c2.7,0,4.9,2,4.9,4.8c0,2.8-2.2,4.8-4.9,4.8s-4.9-2-4.9-4.8
			C311.9,265.3,314.1,263.3,316.8,263.3z M316.8,271.3c1.7,0,3.1-1.4,3.1-3.3c0-1.9-1.4-3.2-3.1-3.2c-1.7,0-3.1,1.4-3.1,3.2
			C313.7,269.9,315.1,271.3,316.8,271.3z"/>
		<path fill="#FFFFFF" d="M323.9,265.4c0-0.3-0.1-0.4-0.4-0.4h-0.7v-1.5h1.7c0.8,0,1.2,0.3,1.2,1v0.3c0,0.3,0,0.5,0,0.5h0
			c0.4-0.8,1.4-2.1,3.4-2.1c2.2,0,3.1,1.2,3.1,3.5v3.9c0,0.3,0.1,0.4,0.4,0.4h0.7v1.5h-1.7c-0.8,0-1.2-0.3-1.2-1.2v-4.3
			c0-1.3-0.3-2.3-1.7-2.3c-1.4,0-2.5,0.9-2.9,2.2c-0.1,0.4-0.2,0.8-0.2,1.2v4.3h-1.7V265.4z"/>
		<path fill="#FFFFFF" d="M335.4,263.5h1.8v1.9h-1.8V263.5z M335.4,270.7h1.8v1.9h-1.8V270.7z"/>
		<path fill="#FFFFFF" d="M345.6,269.7c0,0,1,1.4,3,1.4c1.6,0,2.7-1.1,2.7-2.5c0-1.6-1.4-2.6-3-2.6c-1.4,0-2.4,0.6-2.4,0.6l-0.7-0.3
			l0.5-5.3c0.1-0.8,0.3-1.2,1.2-1.2h4.4c0.8,0,1.2,0.3,1.2,1.2v1.6h-1.6v-0.8c0-0.3-0.1-0.4-0.4-0.4h-2.7c-0.3,0-0.4,0.1-0.4,0.4
			l-0.3,2.3c0,0.4-0.1,0.7-0.1,0.7h0c0,0,0.7-0.4,1.6-0.4c2.7,0,4.5,1.9,4.5,4.2c0,2.2-1.8,4.2-4.6,4.2c-2.6,0-3.9-1.8-3.9-1.8
			L345.6,269.7z"/>
		<path fill="#FFFFFF" d="M276.6,284.9c2.2,0,2.9,1.5,2.9,1.5h0c0,0,0-0.2,0-0.5c0-0.5,0.3-0.9,1.1-0.9h1.6v1.5h-0.7
			c-0.3,0-0.4,0.1-0.4,0.4v10.8h-1.7v-4.1c0-0.5,0-0.8,0-0.8h0c0,0-0.8,1.5-2.9,1.5c-2.4,0-4-1.9-4-4.8
			C272.5,286.7,274.2,284.9,276.6,284.9z M279.5,289.6c0-1.6-0.8-3.2-2.6-3.2c-1.4,0-2.6,1.2-2.6,3.3c0,2,1.1,3.3,2.6,3.3
			C278.2,292.9,279.5,291.9,279.5,289.6z"/>
		<path fill="#FFFFFF" d="M284.2,287c0-0.3-0.1-0.4-0.4-0.4h-0.7v-1.5h1.7c0.8,0,1.2,0.3,1.2,1.1v4.3c0,1.3,0.3,2.3,1.7,2.3
			c1.9,0,3-1.6,3-3.4v-4.3h1.7v7.2c0,0.3,0.1,0.4,0.4,0.4h0.7v1.5h-1.7c-0.8,0-1.2-0.4-1.2-1v-0.3c0-0.3,0-0.5,0-0.5h0
			c-0.4,0.9-1.5,2.1-3.3,2.1c-2.1,0-3.1-1.1-3.1-3.5V287z"/>
		<path fill="#FFFFFF" d="M300,288.5h0.4v-0.1c0-1.6-0.6-2.2-2-2.2c-0.4,0-1.5,0.1-1.5,0.7v0.5h-1.6v-0.9c0-1.5,2.3-1.7,3.2-1.7
			c3,0,3.7,1.5,3.7,3.6v3.9c0,0.3,0.1,0.4,0.4,0.4h0.7v1.5h-1.6c-0.8,0-1.1-0.4-1.1-1c0-0.3,0-0.5,0-0.5h0c0,0-0.7,1.8-2.9,1.8
			c-1.6,0-3.1-1-3.1-2.8C294.5,288.7,298.5,288.5,300,288.5z M298,293c1.5,0,2.4-1.5,2.4-2.9v-0.3H300c-1.3,0-3.7,0.1-3.7,1.7
			C296.3,292.3,296.9,293,298,293z"/>
		<path fill="#FFFFFF" d="M305.2,287c0-0.3-0.1-0.4-0.4-0.4h-0.7v-1.5h1.7c0.8,0,1.2,0.3,1.2,1v0.3c0,0.3,0,0.5,0,0.5h0
			c0.4-0.8,1.4-2.1,3.4-2.1c2.2,0,3.1,1.2,3.1,3.5v3.9c0,0.3,0.1,0.4,0.4,0.4h0.7v1.5h-1.7c-0.8,0-1.2-0.3-1.2-1.2v-4.3
			c0-1.3-0.3-2.3-1.7-2.3c-1.4,0-2.5,0.9-2.9,2.2c-0.1,0.4-0.2,0.8-0.2,1.2v4.3h-1.7V287z"/>
		<path fill="#FFFFFF" d="M316.5,286.5h-1.2v-1.4h1.2v-2.5h1.7v2.5h2.2v1.4h-2.2v4.2c0,1.8,1.3,2.1,1.9,2.1c0.3,0,0.4,0,0.4,0v1.5
			c0,0-0.2,0-0.6,0c-1.2,0-3.5-0.4-3.5-3.4V286.5z"/>
		<path fill="#FFFFFF" d="M322.9,287c0-0.3-0.1-0.4-0.4-0.4h-0.7v-1.5h1.7c0.8,0,1.2,0.3,1.2,1.2v6.1c0,0.3,0.1,0.4,0.4,0.4h0.7v1.5
			H324c-0.8,0-1.2-0.3-1.2-1.2V287z M322.9,281.5h1.6v1.8h-1.6V281.5z"/>
		<path fill="#FFFFFF" d="M327.8,286.5h-1.2v-1.4h1.2v-2.5h1.7v2.5h2.2v1.4h-2.2v4.2c0,1.8,1.3,2.1,1.9,2.1c0.3,0,0.4,0,0.4,0v1.5
			c0,0-0.2,0-0.6,0c-1.2,0-3.5-0.4-3.5-3.4V286.5z"/>
		<path fill="#FFFFFF" d="M334.5,296.5c0.7,0,1.3-0.5,1.6-1.3l0.4-1l-3.1-7.2c-0.1-0.3-0.3-0.4-0.6-0.4h-0.2v-1.5h1
			c0.7,0,1,0.2,1.3,0.9l2.1,5.1c0.2,0.5,0.3,1.1,0.3,1.1h0c0,0,0.1-0.6,0.3-1.1l1.9-5.1c0.3-0.7,0.6-0.9,1.3-0.9h1v1.5h-0.2
			c-0.3,0-0.5,0.1-0.6,0.4l-3.6,8.9c-0.6,1.4-1.7,2.1-2.9,2.1c-1.4,0-2.1-0.9-2.1-0.9l0.7-1.3C333.2,295.8,333.7,296.5,334.5,296.5z
			"/>
		<path fill="#FFFFFF" d="M344,285.1h1.8v1.9H344V285.1z M344,292.3h1.8v1.9H344V292.3z"/>
		<path fill="#FFFFFF" d="M353.5,292.6h2.8v-8.2c0-0.4,0-0.8,0-0.8h0c0,0-0.1,0.3-0.6,0.7l-1.2,1.2l-1.1-1.1l3-3h1.6v11.2h2.8v1.5
			h-7.4V292.6z"/>
		<path fill="#FFFFFF" d="M363.1,292.3c0,0,0.8,0.4,1.8,0.4c2.3,0,3.5-2.2,3.8-4.4h0c-0.5,0.8-1.7,1.2-2.8,1.2c-2.4,0-4-1.8-4-4.1
			c0-2.5,1.7-4.2,4.1-4.2c2.7,0,4.8,2.3,4.8,5.9c0,3.3-1.8,7.3-5.7,7.3c-1.5,0-2.5-0.5-2.5-0.5L363.1,292.3z M368.8,286.4
			c0-1.6-1.2-3.5-2.8-3.5c-1.5,0-2.3,1.1-2.3,2.6c0,1.5,1,2.6,2.6,2.6C367.7,288.1,368.8,287.3,368.8,286.4z"/>
	</g>
</g>
<g id="Layer_6">
	<rect x="342" y="254.9" fill="#006838" width="17.1" height="22.6"/>
	<g>
		<path fill="#FFFFFF" d="M344.1,267c0-3.3,1.8-7.3,5.7-7.3c1.5,0,2.5,0.5,2.5,0.5l-0.6,1.5c0,0-0.8-0.4-1.8-0.4
			c-2.3,0-3.5,2.2-3.8,4.4h0c0.5-0.8,1.7-1.2,2.8-1.2c2.4,0,4,1.8,4,4.1c0,2.5-1.7,4.2-4.1,4.2C346.1,272.9,344.1,270.6,344.1,267z
			 M348.8,271.2c1.5,0,2.3-1.1,2.3-2.6c0-1.5-1-2.6-2.6-2.6c-1.4,0-2.6,0.9-2.6,1.8C346,269.4,347.2,271.2,348.8,271.2z"/>
	</g>
</g>
</svg>
